G04 #@! TF.GenerationSoftware,KiCad,Pcbnew,(5.1.6)-1*
G04 #@! TF.CreationDate,2021-10-14T13:40:29-04:00*
G04 #@! TF.ProjectId,ESP32 WROOM-32 Breakout MKME.ORG,45535033-3220-4575-924f-4f4d2d333220,rev?*
G04 #@! TF.SameCoordinates,Original*
G04 #@! TF.FileFunction,Soldermask,Top*
G04 #@! TF.FilePolarity,Negative*
%FSLAX46Y46*%
G04 Gerber Fmt 4.6, Leading zero omitted, Abs format (unit mm)*
G04 Created by KiCad (PCBNEW (5.1.6)-1) date 2021-10-14 13:40:29*
%MOMM*%
%LPD*%
G01*
G04 APERTURE LIST*
%ADD10R,2.700000X2.700000*%
%ADD11C,2.700000*%
%ADD12O,1.800000X1.800000*%
%ADD13R,1.800000X1.800000*%
%ADD14C,2.100000*%
%ADD15C,0.900000*%
%ADD16C,6.500000*%
%ADD17R,1.624000X1.624000*%
%ADD18C,1.624000*%
G04 APERTURE END LIST*
D10*
X173228000Y-116840000D03*
D11*
X173228000Y-111760000D03*
X173228000Y-106680000D03*
X173228000Y-101600000D03*
X173228000Y-96520000D03*
X173228000Y-91440000D03*
X173228000Y-86360000D03*
X173228000Y-81280000D03*
X173228000Y-76200000D03*
X173228000Y-71120000D03*
X173228000Y-66040000D03*
X173228000Y-60960000D03*
X173228000Y-55880000D03*
X173228000Y-50800000D03*
X173228000Y-45720000D03*
X173228000Y-40640000D03*
D12*
X163830000Y-107950000D03*
X163830000Y-105410000D03*
X163830000Y-102870000D03*
X163830000Y-100330000D03*
X163830000Y-97790000D03*
X163830000Y-95250000D03*
X163830000Y-92710000D03*
X163830000Y-90170000D03*
X163830000Y-87630000D03*
X163830000Y-85090000D03*
X163830000Y-82550000D03*
X163830000Y-80010000D03*
X163830000Y-77470000D03*
X163830000Y-74930000D03*
D13*
X163830000Y-72390000D03*
D14*
X163050000Y-63150000D03*
X160510000Y-63150000D03*
X157970000Y-63150000D03*
X155430000Y-63150000D03*
X152890000Y-63150000D03*
X150350000Y-63150000D03*
X147810000Y-63150000D03*
X145270000Y-63150000D03*
X142730000Y-63150000D03*
X140190000Y-63150000D03*
X137650000Y-63150000D03*
X135110000Y-63150000D03*
X132570000Y-63150000D03*
X130030000Y-63150000D03*
X163050000Y-60610000D03*
X160510000Y-60610000D03*
X157970000Y-60610000D03*
X155430000Y-60610000D03*
X152890000Y-60610000D03*
X150350000Y-60610000D03*
X147810000Y-60610000D03*
X145270000Y-60610000D03*
X142730000Y-60610000D03*
X140190000Y-60610000D03*
X137650000Y-60610000D03*
X135110000Y-60610000D03*
X132570000Y-60610000D03*
X130030000Y-60610000D03*
X163050000Y-58070000D03*
X160510000Y-58070000D03*
X157970000Y-58070000D03*
X155430000Y-58070000D03*
X152890000Y-58070000D03*
X150350000Y-58070000D03*
X147810000Y-58070000D03*
X145270000Y-58070000D03*
X142730000Y-58070000D03*
X140190000Y-58070000D03*
X137650000Y-58070000D03*
X135110000Y-58070000D03*
X132570000Y-58070000D03*
X130030000Y-58070000D03*
X163050000Y-55530000D03*
X160510000Y-55530000D03*
X157970000Y-55530000D03*
X155430000Y-55530000D03*
X152890000Y-55530000D03*
X150350000Y-55530000D03*
X147810000Y-55530000D03*
X145270000Y-55530000D03*
X142730000Y-55530000D03*
X140190000Y-55530000D03*
X137650000Y-55530000D03*
X135110000Y-55530000D03*
X132570000Y-55530000D03*
X130030000Y-55530000D03*
X163050000Y-52990000D03*
X160510000Y-52990000D03*
X157970000Y-52990000D03*
X155430000Y-52990000D03*
X152890000Y-52990000D03*
X150350000Y-52990000D03*
X147810000Y-52990000D03*
X145270000Y-52990000D03*
X142730000Y-52990000D03*
X140190000Y-52990000D03*
X137650000Y-52990000D03*
X135110000Y-52990000D03*
X132570000Y-52990000D03*
X130030000Y-52990000D03*
X163050000Y-50450000D03*
X160510000Y-50450000D03*
X157970000Y-50450000D03*
X155430000Y-50450000D03*
X152890000Y-50450000D03*
X150350000Y-50450000D03*
X147810000Y-50450000D03*
X145270000Y-50450000D03*
X142730000Y-50450000D03*
X140190000Y-50450000D03*
X137650000Y-50450000D03*
X135110000Y-50450000D03*
X132570000Y-50450000D03*
X130030000Y-50450000D03*
X163050000Y-47910000D03*
X160510000Y-47910000D03*
X157970000Y-47910000D03*
X155430000Y-47910000D03*
X152890000Y-47910000D03*
X150350000Y-47910000D03*
X147810000Y-47910000D03*
X145270000Y-47910000D03*
X142730000Y-47910000D03*
X140190000Y-47910000D03*
X137650000Y-47910000D03*
X135110000Y-47910000D03*
X132570000Y-47910000D03*
X130030000Y-47910000D03*
X163050000Y-45370000D03*
X160510000Y-45370000D03*
X157970000Y-45370000D03*
X155430000Y-45370000D03*
X152890000Y-45370000D03*
X150350000Y-45370000D03*
X147810000Y-45370000D03*
X145270000Y-45370000D03*
X142730000Y-45370000D03*
X140190000Y-45370000D03*
X137650000Y-45370000D03*
X135110000Y-45370000D03*
X132570000Y-45370000D03*
X130030000Y-45370000D03*
X163050000Y-42830000D03*
X160510000Y-42830000D03*
X157970000Y-42830000D03*
X155430000Y-42830000D03*
X152890000Y-42830000D03*
X150350000Y-42830000D03*
X147810000Y-42830000D03*
X145270000Y-42830000D03*
X142730000Y-42830000D03*
X140190000Y-42830000D03*
X137650000Y-42830000D03*
X135110000Y-42830000D03*
X132570000Y-42830000D03*
X130030000Y-42830000D03*
X163050000Y-40290000D03*
X160510000Y-40290000D03*
X157970000Y-40290000D03*
X155430000Y-40290000D03*
X152890000Y-40290000D03*
X150350000Y-40290000D03*
X147810000Y-40290000D03*
X145270000Y-40290000D03*
X142730000Y-40290000D03*
X140190000Y-40290000D03*
X137650000Y-40290000D03*
X135110000Y-40290000D03*
X132570000Y-40290000D03*
X130030000Y-40290000D03*
X163050000Y-37750000D03*
X160510000Y-37750000D03*
X157970000Y-37750000D03*
X155430000Y-37750000D03*
X152890000Y-37750000D03*
X150350000Y-37750000D03*
X147810000Y-37750000D03*
X145270000Y-37750000D03*
X142730000Y-37750000D03*
X140190000Y-37750000D03*
X137650000Y-37750000D03*
X135110000Y-37750000D03*
X132570000Y-37750000D03*
X130030000Y-37750000D03*
X163050000Y-35210000D03*
X160510000Y-35210000D03*
X157970000Y-35210000D03*
X155430000Y-35210000D03*
X152890000Y-35210000D03*
X150350000Y-35210000D03*
X147810000Y-35210000D03*
X145270000Y-35210000D03*
X142730000Y-35210000D03*
X140190000Y-35210000D03*
X137650000Y-35210000D03*
X135110000Y-35210000D03*
X132570000Y-35210000D03*
X130030000Y-35210000D03*
X163050000Y-32670000D03*
X160510000Y-32670000D03*
X157970000Y-32670000D03*
X155430000Y-32670000D03*
X152890000Y-32670000D03*
X150350000Y-32670000D03*
X147810000Y-32670000D03*
X145270000Y-32670000D03*
X142730000Y-32670000D03*
X140190000Y-32670000D03*
X137650000Y-32670000D03*
X135110000Y-32670000D03*
X132570000Y-32670000D03*
X130030000Y-32670000D03*
D15*
X174417056Y-31322944D03*
X172720000Y-30620000D03*
X171022944Y-31322944D03*
X170320000Y-33020000D03*
X171022944Y-34717056D03*
X172720000Y-35420000D03*
X174417056Y-34717056D03*
X175120000Y-33020000D03*
D16*
X172720000Y-33020000D03*
D15*
X121077056Y-31322944D03*
X119380000Y-30620000D03*
X117682944Y-31322944D03*
X116980000Y-33020000D03*
X117682944Y-34717056D03*
X119380000Y-35420000D03*
X121077056Y-34717056D03*
X121780000Y-33020000D03*
D16*
X119380000Y-33020000D03*
D15*
X121077056Y-122762944D03*
X119380000Y-122060000D03*
X117682944Y-122762944D03*
X116980000Y-124460000D03*
X117682944Y-126157056D03*
X119380000Y-126860000D03*
X121077056Y-126157056D03*
X121780000Y-124460000D03*
D16*
X119380000Y-124460000D03*
D15*
X174417056Y-122335888D03*
X172720000Y-121632944D03*
X171022944Y-122335888D03*
X170320000Y-124032944D03*
X171022944Y-125730000D03*
X172720000Y-126432944D03*
X174417056Y-125730000D03*
X175120000Y-124032944D03*
D16*
X172720000Y-124032944D03*
D12*
X128778000Y-107950000D03*
X128778000Y-105410000D03*
X128778000Y-102870000D03*
X128778000Y-100330000D03*
X128778000Y-97790000D03*
X128778000Y-95250000D03*
X128778000Y-92710000D03*
X128778000Y-90170000D03*
X128778000Y-87630000D03*
X128778000Y-85090000D03*
X128778000Y-82550000D03*
X128778000Y-80010000D03*
X128778000Y-77470000D03*
X128778000Y-74930000D03*
D13*
X128778000Y-72390000D03*
D17*
X133604000Y-72390000D03*
D18*
X133604000Y-74930000D03*
X133604000Y-77470000D03*
X133604000Y-80010000D03*
X133604000Y-82550000D03*
X133604000Y-85090000D03*
X133604000Y-87630000D03*
X133604000Y-90170000D03*
X133604000Y-92710000D03*
X133604000Y-95250000D03*
X133604000Y-97790000D03*
X133604000Y-100330000D03*
X133604000Y-102870000D03*
X133604000Y-105410000D03*
X133604000Y-107950000D03*
X159004000Y-107950000D03*
X159004000Y-105410000D03*
X159004000Y-102870000D03*
X159004000Y-100330000D03*
X159004000Y-97790000D03*
X159004000Y-95250000D03*
X159004000Y-92710000D03*
X159004000Y-90170000D03*
X159004000Y-87630000D03*
X159004000Y-85090000D03*
X159004000Y-82550000D03*
X159004000Y-80010000D03*
X159004000Y-77470000D03*
X159004000Y-74930000D03*
X159004000Y-72390000D03*
D11*
X119380000Y-116840000D03*
X119380000Y-111760000D03*
X119380000Y-106680000D03*
X119380000Y-101600000D03*
X119380000Y-96520000D03*
X119380000Y-91440000D03*
X119380000Y-86360000D03*
X119380000Y-81280000D03*
X119380000Y-76200000D03*
X119380000Y-71120000D03*
X119380000Y-66040000D03*
X119380000Y-60960000D03*
X119380000Y-55880000D03*
X119380000Y-50800000D03*
X119380000Y-45720000D03*
D10*
X119380000Y-40640000D03*
M02*
