G04 #@! TF.GenerationSoftware,KiCad,Pcbnew,(5.1.6)-1*
G04 #@! TF.CreationDate,2021-10-14T13:40:29-04:00*
G04 #@! TF.ProjectId,ESP32 WROOM-32 Breakout MKME.ORG,45535033-3220-4575-924f-4f4d2d333220,rev?*
G04 #@! TF.SameCoordinates,Original*
G04 #@! TF.FileFunction,Copper,L1,Top*
G04 #@! TF.FilePolarity,Positive*
%FSLAX46Y46*%
G04 Gerber Fmt 4.6, Leading zero omitted, Abs format (unit mm)*
G04 Created by KiCad (PCBNEW (5.1.6)-1) date 2021-10-14 13:40:29*
%MOMM*%
%LPD*%
G01*
G04 APERTURE LIST*
G04 #@! TA.AperFunction,ComponentPad*
%ADD10R,2.600000X2.600000*%
G04 #@! TD*
G04 #@! TA.AperFunction,ComponentPad*
%ADD11C,2.600000*%
G04 #@! TD*
G04 #@! TA.AperFunction,ComponentPad*
%ADD12O,1.700000X1.700000*%
G04 #@! TD*
G04 #@! TA.AperFunction,ComponentPad*
%ADD13R,1.700000X1.700000*%
G04 #@! TD*
G04 #@! TA.AperFunction,ComponentPad*
%ADD14C,2.000000*%
G04 #@! TD*
G04 #@! TA.AperFunction,ComponentPad*
%ADD15C,0.800000*%
G04 #@! TD*
G04 #@! TA.AperFunction,ComponentPad*
%ADD16C,6.400000*%
G04 #@! TD*
G04 #@! TA.AperFunction,ComponentPad*
%ADD17R,1.524000X1.524000*%
G04 #@! TD*
G04 #@! TA.AperFunction,ComponentPad*
%ADD18C,1.524000*%
G04 #@! TD*
G04 #@! TA.AperFunction,Conductor*
%ADD19C,0.250000*%
G04 #@! TD*
G04 #@! TA.AperFunction,Conductor*
%ADD20C,0.500000*%
G04 #@! TD*
G04 #@! TA.AperFunction,Conductor*
%ADD21C,0.254000*%
G04 #@! TD*
G04 APERTURE END LIST*
D10*
X173228000Y-116840000D03*
D11*
X173228000Y-111760000D03*
X173228000Y-106680000D03*
X173228000Y-101600000D03*
X173228000Y-96520000D03*
X173228000Y-91440000D03*
X173228000Y-86360000D03*
X173228000Y-81280000D03*
X173228000Y-76200000D03*
X173228000Y-71120000D03*
X173228000Y-66040000D03*
X173228000Y-60960000D03*
X173228000Y-55880000D03*
X173228000Y-50800000D03*
X173228000Y-45720000D03*
X173228000Y-40640000D03*
D12*
X163830000Y-107950000D03*
X163830000Y-105410000D03*
X163830000Y-102870000D03*
X163830000Y-100330000D03*
X163830000Y-97790000D03*
X163830000Y-95250000D03*
X163830000Y-92710000D03*
X163830000Y-90170000D03*
X163830000Y-87630000D03*
X163830000Y-85090000D03*
X163830000Y-82550000D03*
X163830000Y-80010000D03*
X163830000Y-77470000D03*
X163830000Y-74930000D03*
D13*
X163830000Y-72390000D03*
D14*
X163050000Y-63150000D03*
X160510000Y-63150000D03*
X157970000Y-63150000D03*
X155430000Y-63150000D03*
X152890000Y-63150000D03*
X150350000Y-63150000D03*
X147810000Y-63150000D03*
X145270000Y-63150000D03*
X142730000Y-63150000D03*
X140190000Y-63150000D03*
X137650000Y-63150000D03*
X135110000Y-63150000D03*
X132570000Y-63150000D03*
X130030000Y-63150000D03*
X163050000Y-60610000D03*
X160510000Y-60610000D03*
X157970000Y-60610000D03*
X155430000Y-60610000D03*
X152890000Y-60610000D03*
X150350000Y-60610000D03*
X147810000Y-60610000D03*
X145270000Y-60610000D03*
X142730000Y-60610000D03*
X140190000Y-60610000D03*
X137650000Y-60610000D03*
X135110000Y-60610000D03*
X132570000Y-60610000D03*
X130030000Y-60610000D03*
X163050000Y-58070000D03*
X160510000Y-58070000D03*
X157970000Y-58070000D03*
X155430000Y-58070000D03*
X152890000Y-58070000D03*
X150350000Y-58070000D03*
X147810000Y-58070000D03*
X145270000Y-58070000D03*
X142730000Y-58070000D03*
X140190000Y-58070000D03*
X137650000Y-58070000D03*
X135110000Y-58070000D03*
X132570000Y-58070000D03*
X130030000Y-58070000D03*
X163050000Y-55530000D03*
X160510000Y-55530000D03*
X157970000Y-55530000D03*
X155430000Y-55530000D03*
X152890000Y-55530000D03*
X150350000Y-55530000D03*
X147810000Y-55530000D03*
X145270000Y-55530000D03*
X142730000Y-55530000D03*
X140190000Y-55530000D03*
X137650000Y-55530000D03*
X135110000Y-55530000D03*
X132570000Y-55530000D03*
X130030000Y-55530000D03*
X163050000Y-52990000D03*
X160510000Y-52990000D03*
X157970000Y-52990000D03*
X155430000Y-52990000D03*
X152890000Y-52990000D03*
X150350000Y-52990000D03*
X147810000Y-52990000D03*
X145270000Y-52990000D03*
X142730000Y-52990000D03*
X140190000Y-52990000D03*
X137650000Y-52990000D03*
X135110000Y-52990000D03*
X132570000Y-52990000D03*
X130030000Y-52990000D03*
X163050000Y-50450000D03*
X160510000Y-50450000D03*
X157970000Y-50450000D03*
X155430000Y-50450000D03*
X152890000Y-50450000D03*
X150350000Y-50450000D03*
X147810000Y-50450000D03*
X145270000Y-50450000D03*
X142730000Y-50450000D03*
X140190000Y-50450000D03*
X137650000Y-50450000D03*
X135110000Y-50450000D03*
X132570000Y-50450000D03*
X130030000Y-50450000D03*
X163050000Y-47910000D03*
X160510000Y-47910000D03*
X157970000Y-47910000D03*
X155430000Y-47910000D03*
X152890000Y-47910000D03*
X150350000Y-47910000D03*
X147810000Y-47910000D03*
X145270000Y-47910000D03*
X142730000Y-47910000D03*
X140190000Y-47910000D03*
X137650000Y-47910000D03*
X135110000Y-47910000D03*
X132570000Y-47910000D03*
X130030000Y-47910000D03*
X163050000Y-45370000D03*
X160510000Y-45370000D03*
X157970000Y-45370000D03*
X155430000Y-45370000D03*
X152890000Y-45370000D03*
X150350000Y-45370000D03*
X147810000Y-45370000D03*
X145270000Y-45370000D03*
X142730000Y-45370000D03*
X140190000Y-45370000D03*
X137650000Y-45370000D03*
X135110000Y-45370000D03*
X132570000Y-45370000D03*
X130030000Y-45370000D03*
X163050000Y-42830000D03*
X160510000Y-42830000D03*
X157970000Y-42830000D03*
X155430000Y-42830000D03*
X152890000Y-42830000D03*
X150350000Y-42830000D03*
X147810000Y-42830000D03*
X145270000Y-42830000D03*
X142730000Y-42830000D03*
X140190000Y-42830000D03*
X137650000Y-42830000D03*
X135110000Y-42830000D03*
X132570000Y-42830000D03*
X130030000Y-42830000D03*
X163050000Y-40290000D03*
X160510000Y-40290000D03*
X157970000Y-40290000D03*
X155430000Y-40290000D03*
X152890000Y-40290000D03*
X150350000Y-40290000D03*
X147810000Y-40290000D03*
X145270000Y-40290000D03*
X142730000Y-40290000D03*
X140190000Y-40290000D03*
X137650000Y-40290000D03*
X135110000Y-40290000D03*
X132570000Y-40290000D03*
X130030000Y-40290000D03*
X163050000Y-37750000D03*
X160510000Y-37750000D03*
X157970000Y-37750000D03*
X155430000Y-37750000D03*
X152890000Y-37750000D03*
X150350000Y-37750000D03*
X147810000Y-37750000D03*
X145270000Y-37750000D03*
X142730000Y-37750000D03*
X140190000Y-37750000D03*
X137650000Y-37750000D03*
X135110000Y-37750000D03*
X132570000Y-37750000D03*
X130030000Y-37750000D03*
X163050000Y-35210000D03*
X160510000Y-35210000D03*
X157970000Y-35210000D03*
X155430000Y-35210000D03*
X152890000Y-35210000D03*
X150350000Y-35210000D03*
X147810000Y-35210000D03*
X145270000Y-35210000D03*
X142730000Y-35210000D03*
X140190000Y-35210000D03*
X137650000Y-35210000D03*
X135110000Y-35210000D03*
X132570000Y-35210000D03*
X130030000Y-35210000D03*
X163050000Y-32670000D03*
X160510000Y-32670000D03*
X157970000Y-32670000D03*
X155430000Y-32670000D03*
X152890000Y-32670000D03*
X150350000Y-32670000D03*
X147810000Y-32670000D03*
X145270000Y-32670000D03*
X142730000Y-32670000D03*
X140190000Y-32670000D03*
X137650000Y-32670000D03*
X135110000Y-32670000D03*
X132570000Y-32670000D03*
X130030000Y-32670000D03*
D15*
X174417056Y-31322944D03*
X172720000Y-30620000D03*
X171022944Y-31322944D03*
X170320000Y-33020000D03*
X171022944Y-34717056D03*
X172720000Y-35420000D03*
X174417056Y-34717056D03*
X175120000Y-33020000D03*
D16*
X172720000Y-33020000D03*
D15*
X121077056Y-31322944D03*
X119380000Y-30620000D03*
X117682944Y-31322944D03*
X116980000Y-33020000D03*
X117682944Y-34717056D03*
X119380000Y-35420000D03*
X121077056Y-34717056D03*
X121780000Y-33020000D03*
D16*
X119380000Y-33020000D03*
D15*
X121077056Y-122762944D03*
X119380000Y-122060000D03*
X117682944Y-122762944D03*
X116980000Y-124460000D03*
X117682944Y-126157056D03*
X119380000Y-126860000D03*
X121077056Y-126157056D03*
X121780000Y-124460000D03*
D16*
X119380000Y-124460000D03*
D15*
X174417056Y-122335888D03*
X172720000Y-121632944D03*
X171022944Y-122335888D03*
X170320000Y-124032944D03*
X171022944Y-125730000D03*
X172720000Y-126432944D03*
X174417056Y-125730000D03*
X175120000Y-124032944D03*
D16*
X172720000Y-124032944D03*
D12*
X128778000Y-107950000D03*
X128778000Y-105410000D03*
X128778000Y-102870000D03*
X128778000Y-100330000D03*
X128778000Y-97790000D03*
X128778000Y-95250000D03*
X128778000Y-92710000D03*
X128778000Y-90170000D03*
X128778000Y-87630000D03*
X128778000Y-85090000D03*
X128778000Y-82550000D03*
X128778000Y-80010000D03*
X128778000Y-77470000D03*
X128778000Y-74930000D03*
D13*
X128778000Y-72390000D03*
D17*
X133604000Y-72390000D03*
D18*
X133604000Y-74930000D03*
X133604000Y-77470000D03*
X133604000Y-80010000D03*
X133604000Y-82550000D03*
X133604000Y-85090000D03*
X133604000Y-87630000D03*
X133604000Y-90170000D03*
X133604000Y-92710000D03*
X133604000Y-95250000D03*
X133604000Y-97790000D03*
X133604000Y-100330000D03*
X133604000Y-102870000D03*
X133604000Y-105410000D03*
X133604000Y-107950000D03*
X159004000Y-107950000D03*
X159004000Y-105410000D03*
X159004000Y-102870000D03*
X159004000Y-100330000D03*
X159004000Y-97790000D03*
X159004000Y-95250000D03*
X159004000Y-92710000D03*
X159004000Y-90170000D03*
X159004000Y-87630000D03*
X159004000Y-85090000D03*
X159004000Y-82550000D03*
X159004000Y-80010000D03*
X159004000Y-77470000D03*
X159004000Y-74930000D03*
X159004000Y-72390000D03*
D11*
X119380000Y-116840000D03*
X119380000Y-111760000D03*
X119380000Y-106680000D03*
X119380000Y-101600000D03*
X119380000Y-96520000D03*
X119380000Y-91440000D03*
X119380000Y-86360000D03*
X119380000Y-81280000D03*
X119380000Y-76200000D03*
X119380000Y-71120000D03*
X119380000Y-66040000D03*
X119380000Y-60960000D03*
X119380000Y-55880000D03*
X119380000Y-50800000D03*
X119380000Y-45720000D03*
D10*
X119380000Y-40640000D03*
D19*
X128778000Y-72390000D02*
X127480000Y-72390000D01*
X127480000Y-72390000D02*
X124410000Y-69320000D01*
X124410000Y-45670000D02*
X119380000Y-40640000D01*
X124410000Y-69320000D02*
X124410000Y-45670000D01*
X133604000Y-72390000D02*
X128778000Y-72390000D01*
X128778000Y-74930000D02*
X123550000Y-69702000D01*
X123550000Y-49890000D02*
X119380000Y-45720000D01*
X123550000Y-69702000D02*
X123550000Y-49890000D01*
X128778000Y-74930000D02*
X133604000Y-74930000D01*
X128778000Y-77470000D02*
X123030000Y-71722000D01*
X123030000Y-54450000D02*
X119380000Y-50800000D01*
X123030000Y-71722000D02*
X123030000Y-54450000D01*
X128778000Y-77470000D02*
X133604000Y-77470000D01*
D20*
X127508000Y-106680000D02*
X128778000Y-105410000D01*
X119380000Y-106680000D02*
X127508000Y-106680000D01*
X128778000Y-105410000D02*
X133604000Y-105410000D01*
X163830000Y-105410000D02*
X159004000Y-105410000D01*
X165100000Y-106680000D02*
X163830000Y-105410000D01*
X173228000Y-106680000D02*
X165100000Y-106680000D01*
X128778000Y-107950000D02*
X126620000Y-107950000D01*
X122810000Y-111760000D02*
X119380000Y-111760000D01*
X126620000Y-107950000D02*
X122810000Y-111760000D01*
X133604000Y-107950000D02*
X128778000Y-107950000D01*
X163830000Y-107950000D02*
X159004000Y-107950000D01*
X173228000Y-111760000D02*
X167540000Y-111760000D01*
X163830000Y-108050000D02*
X163830000Y-107950000D01*
X167540000Y-111760000D02*
X163830000Y-108050000D01*
D19*
X159004000Y-80010000D02*
X163830000Y-80010000D01*
X163830000Y-80010000D02*
X164222822Y-80010000D01*
X171152988Y-68576245D02*
X171152988Y-57955012D01*
X171152988Y-57955012D02*
X173228000Y-55880000D01*
X170250033Y-73589967D02*
X170250033Y-69479200D01*
X163830000Y-80010000D02*
X170250033Y-73589967D01*
X170250033Y-69479200D02*
X171152988Y-68576245D01*
X159004000Y-77470000D02*
X163830000Y-77470000D01*
X170702977Y-68389845D02*
X170702977Y-53325023D01*
X170702977Y-53325023D02*
X173228000Y-50800000D01*
X163830000Y-77470000D02*
X169800022Y-71499978D01*
X169800022Y-71499978D02*
X169800022Y-69292800D01*
X169800022Y-69292800D02*
X170702977Y-68389845D01*
X133604000Y-102870000D02*
X128778000Y-102870000D01*
X120650000Y-102870000D02*
X119380000Y-101600000D01*
X128778000Y-102870000D02*
X120650000Y-102870000D01*
X133604000Y-100330000D02*
X128778000Y-100330000D01*
X128778000Y-100330000D02*
X124430000Y-100330000D01*
X120620000Y-96520000D02*
X119380000Y-96520000D01*
X124430000Y-100330000D02*
X120620000Y-96520000D01*
X133604000Y-97790000D02*
X128778000Y-97790000D01*
X128778000Y-97790000D02*
X127440000Y-97790000D01*
X121090000Y-91440000D02*
X119380000Y-91440000D01*
X127440000Y-97790000D02*
X121090000Y-91440000D01*
X133604000Y-95250000D02*
X128778000Y-95250000D01*
X119888000Y-86360000D02*
X119380000Y-86360000D01*
X128778000Y-95250000D02*
X119888000Y-86360000D01*
X133604000Y-92710000D02*
X128778000Y-92710000D01*
X128778000Y-92710000D02*
X122650000Y-86582000D01*
X122650000Y-84550000D02*
X119380000Y-81280000D01*
X122650000Y-86582000D02*
X122650000Y-84550000D01*
X133604000Y-90170000D02*
X128778000Y-90170000D01*
X128778000Y-90170000D02*
X123139980Y-84531980D01*
X123139980Y-81798457D02*
X119380000Y-78038477D01*
X119380000Y-78038477D02*
X119380000Y-76200000D01*
X123139980Y-84531980D02*
X123139980Y-81798457D01*
X133604000Y-87630000D02*
X128778000Y-87630000D01*
X123589991Y-80556401D02*
X123589991Y-82441991D01*
X123589991Y-82441991D02*
X128778000Y-87630000D01*
X119380000Y-71120000D02*
X121005001Y-72745001D01*
X121005001Y-72745001D02*
X121005001Y-77971411D01*
X121005001Y-77971411D02*
X123589991Y-80556401D01*
X133604000Y-85090000D02*
X128778000Y-85090000D01*
X121455010Y-68115010D02*
X119380000Y-66040000D01*
X128778000Y-85090000D02*
X121455010Y-77767010D01*
X121455010Y-77767010D02*
X121455010Y-68115010D01*
X128778000Y-82550000D02*
X127200000Y-82550000D01*
X127200000Y-82550000D02*
X121905021Y-77255021D01*
X121905021Y-63485021D02*
X119380000Y-60960000D01*
X121905021Y-77255021D02*
X121905021Y-63485021D01*
X133604000Y-82550000D02*
X128778000Y-82550000D01*
X128778000Y-80010000D02*
X122579989Y-73811989D01*
X122579989Y-59079989D02*
X119380000Y-55880000D01*
X122579989Y-73811989D02*
X122579989Y-59079989D01*
X128778000Y-80010000D02*
X133604000Y-80010000D01*
X159004000Y-102870000D02*
X163830000Y-102870000D01*
X163960000Y-103000000D02*
X163830000Y-102870000D01*
X173228000Y-101600000D02*
X166620000Y-101600000D01*
X165350000Y-102870000D02*
X163830000Y-102870000D01*
X166620000Y-101600000D02*
X165350000Y-102870000D01*
X159004000Y-100330000D02*
X163830000Y-100330000D01*
X163860000Y-100300000D02*
X163830000Y-100330000D01*
X169418000Y-100330000D02*
X163830000Y-100330000D01*
X173228000Y-96520000D02*
X169418000Y-100330000D01*
X159004000Y-97790000D02*
X163830000Y-97790000D01*
X163940000Y-97900000D02*
X163830000Y-97790000D01*
X163830000Y-97790000D02*
X168310000Y-97790000D01*
X173228000Y-92872000D02*
X173228000Y-91440000D01*
X168310000Y-97790000D02*
X173228000Y-92872000D01*
X159004000Y-95250000D02*
X163830000Y-95250000D01*
X163830000Y-95250000D02*
X166280000Y-95250000D01*
X173228000Y-88302000D02*
X173228000Y-86360000D01*
X166280000Y-95250000D02*
X173228000Y-88302000D01*
X159004000Y-92710000D02*
X163830000Y-92710000D01*
X173228000Y-83312000D02*
X173228000Y-81280000D01*
X163830000Y-92710000D02*
X173228000Y-83312000D01*
X159004000Y-90170000D02*
X163830000Y-90170000D01*
X163830000Y-90170000D02*
X171130000Y-82870000D01*
X173228000Y-78038477D02*
X173228000Y-76200000D01*
X171130000Y-80136477D02*
X173228000Y-78038477D01*
X171130000Y-82870000D02*
X171130000Y-80136477D01*
X159004000Y-87630000D02*
X163830000Y-87630000D01*
X171602999Y-77993412D02*
X171602999Y-72745001D01*
X171602999Y-72745001D02*
X173228000Y-71120000D01*
X163830000Y-87630000D02*
X170660009Y-80799991D01*
X170660009Y-80799991D02*
X170660009Y-78936401D01*
X170660009Y-78936401D02*
X171602999Y-77993412D01*
X159004000Y-85090000D02*
X163830000Y-85090000D01*
X171152988Y-77767012D02*
X171152988Y-69953489D01*
X171152988Y-69953489D02*
X173228000Y-67878477D01*
X173228000Y-67878477D02*
X173228000Y-66040000D01*
X163830000Y-85090000D02*
X171152988Y-77767012D01*
X159004000Y-82550000D02*
X163830000Y-82550000D01*
X163830000Y-82550000D02*
X163958410Y-82550000D01*
X170700044Y-69665600D02*
X171602999Y-68762645D01*
X171602999Y-68762645D02*
X171602999Y-62585001D01*
X170700044Y-75679956D02*
X170700044Y-69665600D01*
X171602999Y-62585001D02*
X173228000Y-60960000D01*
X163830000Y-82550000D02*
X170700044Y-75679956D01*
X159004000Y-74930000D02*
X163830000Y-74930000D01*
X170252966Y-48695034D02*
X173228000Y-45720000D01*
X163830000Y-74626411D02*
X170252966Y-68203445D01*
X170252966Y-68203445D02*
X170252966Y-48695034D01*
X163830000Y-74930000D02*
X163830000Y-74626411D01*
X159004000Y-72390000D02*
X163830000Y-72390000D01*
X163830000Y-72390000D02*
X164375001Y-71844999D01*
X163830000Y-72390000D02*
X165430000Y-72390000D01*
X169802955Y-44065045D02*
X173228000Y-40640000D01*
X169802955Y-68017045D02*
X169802955Y-44065045D01*
X165430000Y-72390000D02*
X169802955Y-68017045D01*
D21*
G36*
X179655001Y-126966344D02*
G01*
X179655000Y-126966354D01*
X179655001Y-130125000D01*
X112445000Y-130125000D01*
X112445000Y-124082285D01*
X115545000Y-124082285D01*
X115545000Y-124837715D01*
X115692377Y-125578628D01*
X115981467Y-126276554D01*
X116401161Y-126904670D01*
X116935330Y-127438839D01*
X117563446Y-127858533D01*
X118261372Y-128147623D01*
X119002285Y-128295000D01*
X119757715Y-128295000D01*
X120498628Y-128147623D01*
X121196554Y-127858533D01*
X121824670Y-127438839D01*
X122358839Y-126904670D01*
X122778533Y-126276554D01*
X123067623Y-125578628D01*
X123215000Y-124837715D01*
X123215000Y-124082285D01*
X123130054Y-123655229D01*
X168885000Y-123655229D01*
X168885000Y-124410659D01*
X169032377Y-125151572D01*
X169321467Y-125849498D01*
X169741161Y-126477614D01*
X170275330Y-127011783D01*
X170903446Y-127431477D01*
X171601372Y-127720567D01*
X172342285Y-127867944D01*
X173097715Y-127867944D01*
X173838628Y-127720567D01*
X174536554Y-127431477D01*
X175164670Y-127011783D01*
X175698839Y-126477614D01*
X176118533Y-125849498D01*
X176407623Y-125151572D01*
X176555000Y-124410659D01*
X176555000Y-123655229D01*
X176407623Y-122914316D01*
X176118533Y-122216390D01*
X175698839Y-121588274D01*
X175164670Y-121054105D01*
X174536554Y-120634411D01*
X173838628Y-120345321D01*
X173097715Y-120197944D01*
X172342285Y-120197944D01*
X171601372Y-120345321D01*
X170903446Y-120634411D01*
X170275330Y-121054105D01*
X169741161Y-121588274D01*
X169321467Y-122216390D01*
X169032377Y-122914316D01*
X168885000Y-123655229D01*
X123130054Y-123655229D01*
X123067623Y-123341372D01*
X122778533Y-122643446D01*
X122358839Y-122015330D01*
X121824670Y-121481161D01*
X121196554Y-121061467D01*
X120498628Y-120772377D01*
X119757715Y-120625000D01*
X119002285Y-120625000D01*
X118261372Y-120772377D01*
X117563446Y-121061467D01*
X116935330Y-121481161D01*
X116401161Y-122015330D01*
X115981467Y-122643446D01*
X115692377Y-123341372D01*
X115545000Y-124082285D01*
X112445000Y-124082285D01*
X112445000Y-116649419D01*
X117445000Y-116649419D01*
X117445000Y-117030581D01*
X117519361Y-117404419D01*
X117665225Y-117756566D01*
X117876987Y-118073491D01*
X118146509Y-118343013D01*
X118463434Y-118554775D01*
X118815581Y-118700639D01*
X119189419Y-118775000D01*
X119570581Y-118775000D01*
X119944419Y-118700639D01*
X120296566Y-118554775D01*
X120613491Y-118343013D01*
X120883013Y-118073491D01*
X121094775Y-117756566D01*
X121240639Y-117404419D01*
X121315000Y-117030581D01*
X121315000Y-116649419D01*
X121240639Y-116275581D01*
X121094775Y-115923434D01*
X120883013Y-115606509D01*
X120816504Y-115540000D01*
X171289928Y-115540000D01*
X171289928Y-118140000D01*
X171302188Y-118264482D01*
X171338498Y-118384180D01*
X171397463Y-118494494D01*
X171476815Y-118591185D01*
X171573506Y-118670537D01*
X171683820Y-118729502D01*
X171803518Y-118765812D01*
X171928000Y-118778072D01*
X174528000Y-118778072D01*
X174652482Y-118765812D01*
X174772180Y-118729502D01*
X174882494Y-118670537D01*
X174979185Y-118591185D01*
X175058537Y-118494494D01*
X175117502Y-118384180D01*
X175153812Y-118264482D01*
X175166072Y-118140000D01*
X175166072Y-115540000D01*
X175153812Y-115415518D01*
X175117502Y-115295820D01*
X175058537Y-115185506D01*
X174979185Y-115088815D01*
X174882494Y-115009463D01*
X174772180Y-114950498D01*
X174652482Y-114914188D01*
X174528000Y-114901928D01*
X171928000Y-114901928D01*
X171803518Y-114914188D01*
X171683820Y-114950498D01*
X171573506Y-115009463D01*
X171476815Y-115088815D01*
X171397463Y-115185506D01*
X171338498Y-115295820D01*
X171302188Y-115415518D01*
X171289928Y-115540000D01*
X120816504Y-115540000D01*
X120613491Y-115336987D01*
X120296566Y-115125225D01*
X119944419Y-114979361D01*
X119570581Y-114905000D01*
X119189419Y-114905000D01*
X118815581Y-114979361D01*
X118463434Y-115125225D01*
X118146509Y-115336987D01*
X117876987Y-115606509D01*
X117665225Y-115923434D01*
X117519361Y-116275581D01*
X117445000Y-116649419D01*
X112445000Y-116649419D01*
X112445000Y-111569419D01*
X117445000Y-111569419D01*
X117445000Y-111950581D01*
X117519361Y-112324419D01*
X117665225Y-112676566D01*
X117876987Y-112993491D01*
X118146509Y-113263013D01*
X118463434Y-113474775D01*
X118815581Y-113620639D01*
X119189419Y-113695000D01*
X119570581Y-113695000D01*
X119944419Y-113620639D01*
X120296566Y-113474775D01*
X120613491Y-113263013D01*
X120883013Y-112993491D01*
X121094775Y-112676566D01*
X121107850Y-112645000D01*
X122766531Y-112645000D01*
X122810000Y-112649281D01*
X122853469Y-112645000D01*
X122853477Y-112645000D01*
X122983490Y-112632195D01*
X123150313Y-112581589D01*
X123304059Y-112499411D01*
X123438817Y-112388817D01*
X123466534Y-112355044D01*
X126986579Y-108835000D01*
X127583344Y-108835000D01*
X127624525Y-108896632D01*
X127831368Y-109103475D01*
X128074589Y-109265990D01*
X128344842Y-109377932D01*
X128631740Y-109435000D01*
X128924260Y-109435000D01*
X129211158Y-109377932D01*
X129481411Y-109265990D01*
X129724632Y-109103475D01*
X129931475Y-108896632D01*
X129972656Y-108835000D01*
X132515182Y-108835000D01*
X132518880Y-108840535D01*
X132713465Y-109035120D01*
X132942273Y-109188005D01*
X133196510Y-109293314D01*
X133466408Y-109347000D01*
X133741592Y-109347000D01*
X134011490Y-109293314D01*
X134265727Y-109188005D01*
X134494535Y-109035120D01*
X134689120Y-108840535D01*
X134842005Y-108611727D01*
X134947314Y-108357490D01*
X135001000Y-108087592D01*
X135001000Y-107812408D01*
X157607000Y-107812408D01*
X157607000Y-108087592D01*
X157660686Y-108357490D01*
X157765995Y-108611727D01*
X157918880Y-108840535D01*
X158113465Y-109035120D01*
X158342273Y-109188005D01*
X158596510Y-109293314D01*
X158866408Y-109347000D01*
X159141592Y-109347000D01*
X159411490Y-109293314D01*
X159665727Y-109188005D01*
X159894535Y-109035120D01*
X160089120Y-108840535D01*
X160092818Y-108835000D01*
X162635344Y-108835000D01*
X162676525Y-108896632D01*
X162883368Y-109103475D01*
X163126589Y-109265990D01*
X163396842Y-109377932D01*
X163683740Y-109435000D01*
X163963422Y-109435000D01*
X166883470Y-112355049D01*
X166911183Y-112388817D01*
X166944951Y-112416530D01*
X166944953Y-112416532D01*
X167016452Y-112475210D01*
X167045941Y-112499411D01*
X167199687Y-112581589D01*
X167366510Y-112632195D01*
X167496523Y-112645000D01*
X167496533Y-112645000D01*
X167539999Y-112649281D01*
X167583465Y-112645000D01*
X171500150Y-112645000D01*
X171513225Y-112676566D01*
X171724987Y-112993491D01*
X171994509Y-113263013D01*
X172311434Y-113474775D01*
X172663581Y-113620639D01*
X173037419Y-113695000D01*
X173418581Y-113695000D01*
X173792419Y-113620639D01*
X174144566Y-113474775D01*
X174461491Y-113263013D01*
X174731013Y-112993491D01*
X174942775Y-112676566D01*
X175088639Y-112324419D01*
X175163000Y-111950581D01*
X175163000Y-111569419D01*
X175088639Y-111195581D01*
X174942775Y-110843434D01*
X174731013Y-110526509D01*
X174461491Y-110256987D01*
X174144566Y-110045225D01*
X173792419Y-109899361D01*
X173418581Y-109825000D01*
X173037419Y-109825000D01*
X172663581Y-109899361D01*
X172311434Y-110045225D01*
X171994509Y-110256987D01*
X171724987Y-110526509D01*
X171513225Y-110843434D01*
X171500150Y-110875000D01*
X167906579Y-110875000D01*
X165283948Y-108252369D01*
X165315000Y-108096260D01*
X165315000Y-108029224D01*
X172058381Y-108029224D01*
X172190317Y-108324312D01*
X172531045Y-108495159D01*
X172898557Y-108596250D01*
X173278729Y-108623701D01*
X173656951Y-108576457D01*
X174018690Y-108456333D01*
X174265683Y-108324312D01*
X174397619Y-108029224D01*
X173228000Y-106859605D01*
X172058381Y-108029224D01*
X165315000Y-108029224D01*
X165315000Y-107803740D01*
X165257932Y-107516842D01*
X165145990Y-107246589D01*
X164983475Y-107003368D01*
X164776632Y-106796525D01*
X164678162Y-106730729D01*
X171284299Y-106730729D01*
X171331543Y-107108951D01*
X171451667Y-107470690D01*
X171583688Y-107717683D01*
X171878776Y-107849619D01*
X173048395Y-106680000D01*
X173407605Y-106680000D01*
X174577224Y-107849619D01*
X174872312Y-107717683D01*
X175043159Y-107376955D01*
X175144250Y-107009443D01*
X175171701Y-106629271D01*
X175124457Y-106251049D01*
X175004333Y-105889310D01*
X174872312Y-105642317D01*
X174577224Y-105510381D01*
X173407605Y-106680000D01*
X173048395Y-106680000D01*
X171878776Y-105510381D01*
X171583688Y-105642317D01*
X171412841Y-105983045D01*
X171311750Y-106350557D01*
X171284299Y-106730729D01*
X164678162Y-106730729D01*
X164594466Y-106674805D01*
X164711355Y-106605178D01*
X164927588Y-106410269D01*
X165101641Y-106176920D01*
X165226825Y-105914099D01*
X165271476Y-105766890D01*
X165150155Y-105537000D01*
X163957000Y-105537000D01*
X163957000Y-105557000D01*
X163703000Y-105557000D01*
X163703000Y-105537000D01*
X162509845Y-105537000D01*
X162388524Y-105766890D01*
X162433175Y-105914099D01*
X162558359Y-106176920D01*
X162732412Y-106410269D01*
X162948645Y-106605178D01*
X163065534Y-106674805D01*
X162883368Y-106796525D01*
X162676525Y-107003368D01*
X162635344Y-107065000D01*
X160092818Y-107065000D01*
X160089120Y-107059465D01*
X159894535Y-106864880D01*
X159665727Y-106711995D01*
X159594057Y-106682308D01*
X159607023Y-106677636D01*
X159722980Y-106615656D01*
X159789960Y-106375565D01*
X159004000Y-105589605D01*
X158218040Y-106375565D01*
X158285020Y-106615656D01*
X158420760Y-106679485D01*
X158342273Y-106711995D01*
X158113465Y-106864880D01*
X157918880Y-107059465D01*
X157765995Y-107288273D01*
X157660686Y-107542510D01*
X157607000Y-107812408D01*
X135001000Y-107812408D01*
X134947314Y-107542510D01*
X134842005Y-107288273D01*
X134689120Y-107059465D01*
X134494535Y-106864880D01*
X134265727Y-106711995D01*
X134194057Y-106682308D01*
X134207023Y-106677636D01*
X134322980Y-106615656D01*
X134389960Y-106375565D01*
X133604000Y-105589605D01*
X132818040Y-106375565D01*
X132885020Y-106615656D01*
X133020760Y-106679485D01*
X132942273Y-106711995D01*
X132713465Y-106864880D01*
X132518880Y-107059465D01*
X132515182Y-107065000D01*
X129972656Y-107065000D01*
X129931475Y-107003368D01*
X129724632Y-106796525D01*
X129542466Y-106674805D01*
X129659355Y-106605178D01*
X129875588Y-106410269D01*
X130049641Y-106176920D01*
X130174825Y-105914099D01*
X130219476Y-105766890D01*
X130098155Y-105537000D01*
X128905000Y-105537000D01*
X128905000Y-105557000D01*
X128651000Y-105557000D01*
X128651000Y-105537000D01*
X127457845Y-105537000D01*
X127336524Y-105766890D01*
X127381175Y-105914099D01*
X127506359Y-106176920D01*
X127680412Y-106410269D01*
X127896645Y-106605178D01*
X128013534Y-106674805D01*
X127831368Y-106796525D01*
X127624525Y-107003368D01*
X127583344Y-107065000D01*
X126663469Y-107065000D01*
X126620000Y-107060719D01*
X126576531Y-107065000D01*
X126576523Y-107065000D01*
X126446510Y-107077805D01*
X126279686Y-107128411D01*
X126125941Y-107210589D01*
X126024953Y-107293468D01*
X126024951Y-107293470D01*
X125991183Y-107321183D01*
X125963470Y-107354951D01*
X122443422Y-110875000D01*
X121107850Y-110875000D01*
X121094775Y-110843434D01*
X120883013Y-110526509D01*
X120613491Y-110256987D01*
X120296566Y-110045225D01*
X119944419Y-109899361D01*
X119570581Y-109825000D01*
X119189419Y-109825000D01*
X118815581Y-109899361D01*
X118463434Y-110045225D01*
X118146509Y-110256987D01*
X117876987Y-110526509D01*
X117665225Y-110843434D01*
X117519361Y-111195581D01*
X117445000Y-111569419D01*
X112445000Y-111569419D01*
X112445000Y-108029224D01*
X118210381Y-108029224D01*
X118342317Y-108324312D01*
X118683045Y-108495159D01*
X119050557Y-108596250D01*
X119430729Y-108623701D01*
X119808951Y-108576457D01*
X120170690Y-108456333D01*
X120417683Y-108324312D01*
X120549619Y-108029224D01*
X119380000Y-106859605D01*
X118210381Y-108029224D01*
X112445000Y-108029224D01*
X112445000Y-106730729D01*
X117436299Y-106730729D01*
X117483543Y-107108951D01*
X117603667Y-107470690D01*
X117735688Y-107717683D01*
X118030776Y-107849619D01*
X119200395Y-106680000D01*
X119559605Y-106680000D01*
X120729224Y-107849619D01*
X121024312Y-107717683D01*
X121195159Y-107376955D01*
X121296250Y-107009443D01*
X121323701Y-106629271D01*
X121276457Y-106251049D01*
X121156333Y-105889310D01*
X121024312Y-105642317D01*
X120729224Y-105510381D01*
X119559605Y-106680000D01*
X119200395Y-106680000D01*
X118030776Y-105510381D01*
X117735688Y-105642317D01*
X117564841Y-105983045D01*
X117463750Y-106350557D01*
X117436299Y-106730729D01*
X112445000Y-106730729D01*
X112445000Y-105330776D01*
X118210381Y-105330776D01*
X119380000Y-106500395D01*
X120398378Y-105482017D01*
X132202090Y-105482017D01*
X132243078Y-105754133D01*
X132336364Y-106013023D01*
X132398344Y-106128980D01*
X132638435Y-106195960D01*
X133424395Y-105410000D01*
X133783605Y-105410000D01*
X134569565Y-106195960D01*
X134809656Y-106128980D01*
X134926756Y-105879952D01*
X134993023Y-105612865D01*
X134999157Y-105482017D01*
X157602090Y-105482017D01*
X157643078Y-105754133D01*
X157736364Y-106013023D01*
X157798344Y-106128980D01*
X158038435Y-106195960D01*
X158824395Y-105410000D01*
X159183605Y-105410000D01*
X159969565Y-106195960D01*
X160209656Y-106128980D01*
X160326756Y-105879952D01*
X160393023Y-105612865D01*
X160405910Y-105337983D01*
X160404825Y-105330776D01*
X172058381Y-105330776D01*
X173228000Y-106500395D01*
X174397619Y-105330776D01*
X174265683Y-105035688D01*
X173924955Y-104864841D01*
X173557443Y-104763750D01*
X173177271Y-104736299D01*
X172799049Y-104783543D01*
X172437310Y-104903667D01*
X172190317Y-105035688D01*
X172058381Y-105330776D01*
X160404825Y-105330776D01*
X160364922Y-105065867D01*
X160271636Y-104806977D01*
X160209656Y-104691020D01*
X159969565Y-104624040D01*
X159183605Y-105410000D01*
X158824395Y-105410000D01*
X158038435Y-104624040D01*
X157798344Y-104691020D01*
X157681244Y-104940048D01*
X157614977Y-105207135D01*
X157602090Y-105482017D01*
X134999157Y-105482017D01*
X135005910Y-105337983D01*
X134964922Y-105065867D01*
X134871636Y-104806977D01*
X134809656Y-104691020D01*
X134569565Y-104624040D01*
X133783605Y-105410000D01*
X133424395Y-105410000D01*
X132638435Y-104624040D01*
X132398344Y-104691020D01*
X132281244Y-104940048D01*
X132214977Y-105207135D01*
X132202090Y-105482017D01*
X120398378Y-105482017D01*
X120549619Y-105330776D01*
X120417683Y-105035688D01*
X120076955Y-104864841D01*
X119709443Y-104763750D01*
X119329271Y-104736299D01*
X118951049Y-104783543D01*
X118589310Y-104903667D01*
X118342317Y-105035688D01*
X118210381Y-105330776D01*
X112445000Y-105330776D01*
X112445000Y-39340000D01*
X117441928Y-39340000D01*
X117441928Y-41940000D01*
X117454188Y-42064482D01*
X117490498Y-42184180D01*
X117549463Y-42294494D01*
X117628815Y-42391185D01*
X117725506Y-42470537D01*
X117835820Y-42529502D01*
X117955518Y-42565812D01*
X118080000Y-42578072D01*
X120243271Y-42578072D01*
X123650001Y-45984803D01*
X123650001Y-48915199D01*
X121175787Y-46440986D01*
X121240639Y-46284419D01*
X121315000Y-45910581D01*
X121315000Y-45529419D01*
X121240639Y-45155581D01*
X121094775Y-44803434D01*
X120883013Y-44486509D01*
X120613491Y-44216987D01*
X120296566Y-44005225D01*
X119944419Y-43859361D01*
X119570581Y-43785000D01*
X119189419Y-43785000D01*
X118815581Y-43859361D01*
X118463434Y-44005225D01*
X118146509Y-44216987D01*
X117876987Y-44486509D01*
X117665225Y-44803434D01*
X117519361Y-45155581D01*
X117445000Y-45529419D01*
X117445000Y-45910581D01*
X117519361Y-46284419D01*
X117665225Y-46636566D01*
X117876987Y-46953491D01*
X118146509Y-47223013D01*
X118463434Y-47434775D01*
X118815581Y-47580639D01*
X119189419Y-47655000D01*
X119570581Y-47655000D01*
X119944419Y-47580639D01*
X120100986Y-47515787D01*
X122790001Y-50204803D01*
X122790001Y-53135199D01*
X121175787Y-51520986D01*
X121240639Y-51364419D01*
X121315000Y-50990581D01*
X121315000Y-50609419D01*
X121240639Y-50235581D01*
X121094775Y-49883434D01*
X120883013Y-49566509D01*
X120613491Y-49296987D01*
X120296566Y-49085225D01*
X119944419Y-48939361D01*
X119570581Y-48865000D01*
X119189419Y-48865000D01*
X118815581Y-48939361D01*
X118463434Y-49085225D01*
X118146509Y-49296987D01*
X117876987Y-49566509D01*
X117665225Y-49883434D01*
X117519361Y-50235581D01*
X117445000Y-50609419D01*
X117445000Y-50990581D01*
X117519361Y-51364419D01*
X117665225Y-51716566D01*
X117876987Y-52033491D01*
X118146509Y-52303013D01*
X118463434Y-52514775D01*
X118815581Y-52660639D01*
X119189419Y-52735000D01*
X119570581Y-52735000D01*
X119944419Y-52660639D01*
X120100986Y-52595787D01*
X122270001Y-54764803D01*
X122270001Y-57695199D01*
X121175787Y-56600986D01*
X121240639Y-56444419D01*
X121315000Y-56070581D01*
X121315000Y-55689419D01*
X121240639Y-55315581D01*
X121094775Y-54963434D01*
X120883013Y-54646509D01*
X120613491Y-54376987D01*
X120296566Y-54165225D01*
X119944419Y-54019361D01*
X119570581Y-53945000D01*
X119189419Y-53945000D01*
X118815581Y-54019361D01*
X118463434Y-54165225D01*
X118146509Y-54376987D01*
X117876987Y-54646509D01*
X117665225Y-54963434D01*
X117519361Y-55315581D01*
X117445000Y-55689419D01*
X117445000Y-56070581D01*
X117519361Y-56444419D01*
X117665225Y-56796566D01*
X117876987Y-57113491D01*
X118146509Y-57383013D01*
X118463434Y-57594775D01*
X118815581Y-57740639D01*
X119189419Y-57815000D01*
X119570581Y-57815000D01*
X119944419Y-57740639D01*
X120100986Y-57675787D01*
X121819990Y-59394792D01*
X121819990Y-62325188D01*
X121175787Y-61680986D01*
X121240639Y-61524419D01*
X121315000Y-61150581D01*
X121315000Y-60769419D01*
X121240639Y-60395581D01*
X121094775Y-60043434D01*
X120883013Y-59726509D01*
X120613491Y-59456987D01*
X120296566Y-59245225D01*
X119944419Y-59099361D01*
X119570581Y-59025000D01*
X119189419Y-59025000D01*
X118815581Y-59099361D01*
X118463434Y-59245225D01*
X118146509Y-59456987D01*
X117876987Y-59726509D01*
X117665225Y-60043434D01*
X117519361Y-60395581D01*
X117445000Y-60769419D01*
X117445000Y-61150581D01*
X117519361Y-61524419D01*
X117665225Y-61876566D01*
X117876987Y-62193491D01*
X118146509Y-62463013D01*
X118463434Y-62674775D01*
X118815581Y-62820639D01*
X119189419Y-62895000D01*
X119570581Y-62895000D01*
X119944419Y-62820639D01*
X120100986Y-62755787D01*
X121145022Y-63799824D01*
X121145022Y-65244741D01*
X121094775Y-65123434D01*
X120883013Y-64806509D01*
X120613491Y-64536987D01*
X120296566Y-64325225D01*
X119944419Y-64179361D01*
X119570581Y-64105000D01*
X119189419Y-64105000D01*
X118815581Y-64179361D01*
X118463434Y-64325225D01*
X118146509Y-64536987D01*
X117876987Y-64806509D01*
X117665225Y-65123434D01*
X117519361Y-65475581D01*
X117445000Y-65849419D01*
X117445000Y-66230581D01*
X117519361Y-66604419D01*
X117665225Y-66956566D01*
X117876987Y-67273491D01*
X118146509Y-67543013D01*
X118463434Y-67754775D01*
X118815581Y-67900639D01*
X119189419Y-67975000D01*
X119570581Y-67975000D01*
X119944419Y-67900639D01*
X120100985Y-67835787D01*
X120695011Y-68429813D01*
X120695011Y-69698507D01*
X120613491Y-69616987D01*
X120296566Y-69405225D01*
X119944419Y-69259361D01*
X119570581Y-69185000D01*
X119189419Y-69185000D01*
X118815581Y-69259361D01*
X118463434Y-69405225D01*
X118146509Y-69616987D01*
X117876987Y-69886509D01*
X117665225Y-70203434D01*
X117519361Y-70555581D01*
X117445000Y-70929419D01*
X117445000Y-71310581D01*
X117519361Y-71684419D01*
X117665225Y-72036566D01*
X117876987Y-72353491D01*
X118146509Y-72623013D01*
X118463434Y-72834775D01*
X118815581Y-72980639D01*
X119189419Y-73055000D01*
X119570581Y-73055000D01*
X119944419Y-72980639D01*
X120100985Y-72915787D01*
X120245001Y-73059804D01*
X120245001Y-74463866D01*
X119944419Y-74339361D01*
X119570581Y-74265000D01*
X119189419Y-74265000D01*
X118815581Y-74339361D01*
X118463434Y-74485225D01*
X118146509Y-74696987D01*
X117876987Y-74966509D01*
X117665225Y-75283434D01*
X117519361Y-75635581D01*
X117445000Y-76009419D01*
X117445000Y-76390581D01*
X117519361Y-76764419D01*
X117665225Y-77116566D01*
X117876987Y-77433491D01*
X118146509Y-77703013D01*
X118463434Y-77914775D01*
X118620000Y-77979627D01*
X118620000Y-78001154D01*
X118616324Y-78038477D01*
X118620000Y-78075799D01*
X118620000Y-78075809D01*
X118630997Y-78187462D01*
X118667261Y-78307011D01*
X118674454Y-78330723D01*
X118745026Y-78462753D01*
X118761161Y-78482413D01*
X118839999Y-78578478D01*
X118869003Y-78602281D01*
X119621937Y-79355215D01*
X119570581Y-79345000D01*
X119189419Y-79345000D01*
X118815581Y-79419361D01*
X118463434Y-79565225D01*
X118146509Y-79776987D01*
X117876987Y-80046509D01*
X117665225Y-80363434D01*
X117519361Y-80715581D01*
X117445000Y-81089419D01*
X117445000Y-81470581D01*
X117519361Y-81844419D01*
X117665225Y-82196566D01*
X117876987Y-82513491D01*
X118146509Y-82783013D01*
X118463434Y-82994775D01*
X118815581Y-83140639D01*
X119189419Y-83215000D01*
X119570581Y-83215000D01*
X119944419Y-83140639D01*
X120100986Y-83075787D01*
X121890001Y-84864803D01*
X121890000Y-86544677D01*
X121886324Y-86582000D01*
X121890000Y-86619322D01*
X121890000Y-86619332D01*
X121900997Y-86730985D01*
X121943166Y-86870000D01*
X121944454Y-86874246D01*
X122015026Y-87006276D01*
X122054871Y-87054826D01*
X122109999Y-87122001D01*
X122139003Y-87145804D01*
X127336790Y-92343592D01*
X127293000Y-92563740D01*
X127293000Y-92690198D01*
X121288186Y-86685385D01*
X121315000Y-86550581D01*
X121315000Y-86169419D01*
X121240639Y-85795581D01*
X121094775Y-85443434D01*
X120883013Y-85126509D01*
X120613491Y-84856987D01*
X120296566Y-84645225D01*
X119944419Y-84499361D01*
X119570581Y-84425000D01*
X119189419Y-84425000D01*
X118815581Y-84499361D01*
X118463434Y-84645225D01*
X118146509Y-84856987D01*
X117876987Y-85126509D01*
X117665225Y-85443434D01*
X117519361Y-85795581D01*
X117445000Y-86169419D01*
X117445000Y-86550581D01*
X117519361Y-86924419D01*
X117665225Y-87276566D01*
X117876987Y-87593491D01*
X118146509Y-87863013D01*
X118463434Y-88074775D01*
X118815581Y-88220639D01*
X119189419Y-88295000D01*
X119570581Y-88295000D01*
X119944419Y-88220639D01*
X120296566Y-88074775D01*
X120435285Y-87982086D01*
X127336790Y-94883592D01*
X127293000Y-95103740D01*
X127293000Y-95396260D01*
X127350068Y-95683158D01*
X127462010Y-95953411D01*
X127624525Y-96196632D01*
X127831368Y-96403475D01*
X128005760Y-96520000D01*
X127831368Y-96636525D01*
X127624525Y-96843368D01*
X127601952Y-96877150D01*
X121653804Y-90929003D01*
X121630001Y-90899999D01*
X121514276Y-90805026D01*
X121382247Y-90734454D01*
X121238986Y-90690997D01*
X121161000Y-90683316D01*
X121094775Y-90523434D01*
X120883013Y-90206509D01*
X120613491Y-89936987D01*
X120296566Y-89725225D01*
X119944419Y-89579361D01*
X119570581Y-89505000D01*
X119189419Y-89505000D01*
X118815581Y-89579361D01*
X118463434Y-89725225D01*
X118146509Y-89936987D01*
X117876987Y-90206509D01*
X117665225Y-90523434D01*
X117519361Y-90875581D01*
X117445000Y-91249419D01*
X117445000Y-91630581D01*
X117519361Y-92004419D01*
X117665225Y-92356566D01*
X117876987Y-92673491D01*
X118146509Y-92943013D01*
X118463434Y-93154775D01*
X118815581Y-93300639D01*
X119189419Y-93375000D01*
X119570581Y-93375000D01*
X119944419Y-93300639D01*
X120296566Y-93154775D01*
X120613491Y-92943013D01*
X120883013Y-92673491D01*
X121029482Y-92454283D01*
X126876200Y-98301002D01*
X126899999Y-98330001D01*
X126928997Y-98353799D01*
X127015723Y-98424974D01*
X127088359Y-98463799D01*
X127147753Y-98495546D01*
X127291014Y-98539003D01*
X127402667Y-98550000D01*
X127402676Y-98550000D01*
X127439999Y-98553676D01*
X127477322Y-98550000D01*
X127499822Y-98550000D01*
X127624525Y-98736632D01*
X127831368Y-98943475D01*
X128005760Y-99060000D01*
X127831368Y-99176525D01*
X127624525Y-99383368D01*
X127499822Y-99570000D01*
X124744802Y-99570000D01*
X121268016Y-96093215D01*
X121240639Y-95955581D01*
X121094775Y-95603434D01*
X120883013Y-95286509D01*
X120613491Y-95016987D01*
X120296566Y-94805225D01*
X119944419Y-94659361D01*
X119570581Y-94585000D01*
X119189419Y-94585000D01*
X118815581Y-94659361D01*
X118463434Y-94805225D01*
X118146509Y-95016987D01*
X117876987Y-95286509D01*
X117665225Y-95603434D01*
X117519361Y-95955581D01*
X117445000Y-96329419D01*
X117445000Y-96710581D01*
X117519361Y-97084419D01*
X117665225Y-97436566D01*
X117876987Y-97753491D01*
X118146509Y-98023013D01*
X118463434Y-98234775D01*
X118815581Y-98380639D01*
X119189419Y-98455000D01*
X119570581Y-98455000D01*
X119944419Y-98380639D01*
X120296566Y-98234775D01*
X120613491Y-98023013D01*
X120830851Y-97805653D01*
X123866201Y-100841003D01*
X123889999Y-100870001D01*
X124005724Y-100964974D01*
X124137753Y-101035546D01*
X124281014Y-101079003D01*
X124392667Y-101090000D01*
X124392675Y-101090000D01*
X124430000Y-101093676D01*
X124467325Y-101090000D01*
X127499822Y-101090000D01*
X127624525Y-101276632D01*
X127831368Y-101483475D01*
X128005760Y-101600000D01*
X127831368Y-101716525D01*
X127624525Y-101923368D01*
X127499822Y-102110000D01*
X121251464Y-102110000D01*
X121315000Y-101790581D01*
X121315000Y-101409419D01*
X121240639Y-101035581D01*
X121094775Y-100683434D01*
X120883013Y-100366509D01*
X120613491Y-100096987D01*
X120296566Y-99885225D01*
X119944419Y-99739361D01*
X119570581Y-99665000D01*
X119189419Y-99665000D01*
X118815581Y-99739361D01*
X118463434Y-99885225D01*
X118146509Y-100096987D01*
X117876987Y-100366509D01*
X117665225Y-100683434D01*
X117519361Y-101035581D01*
X117445000Y-101409419D01*
X117445000Y-101790581D01*
X117519361Y-102164419D01*
X117665225Y-102516566D01*
X117876987Y-102833491D01*
X118146509Y-103103013D01*
X118463434Y-103314775D01*
X118815581Y-103460639D01*
X119189419Y-103535000D01*
X119570581Y-103535000D01*
X119944419Y-103460639D01*
X120099007Y-103396607D01*
X120109999Y-103410001D01*
X120225724Y-103504974D01*
X120357753Y-103575546D01*
X120501014Y-103619003D01*
X120612667Y-103630000D01*
X120612676Y-103630000D01*
X120649999Y-103633676D01*
X120687322Y-103630000D01*
X127499822Y-103630000D01*
X127624525Y-103816632D01*
X127831368Y-104023475D01*
X128013534Y-104145195D01*
X127896645Y-104214822D01*
X127680412Y-104409731D01*
X127506359Y-104643080D01*
X127381175Y-104905901D01*
X127336524Y-105053110D01*
X127457845Y-105283000D01*
X128651000Y-105283000D01*
X128651000Y-105263000D01*
X128905000Y-105263000D01*
X128905000Y-105283000D01*
X130098155Y-105283000D01*
X130219476Y-105053110D01*
X130174825Y-104905901D01*
X130049641Y-104643080D01*
X129875588Y-104409731D01*
X129659355Y-104214822D01*
X129542466Y-104145195D01*
X129724632Y-104023475D01*
X129931475Y-103816632D01*
X130056178Y-103630000D01*
X132431659Y-103630000D01*
X132518880Y-103760535D01*
X132713465Y-103955120D01*
X132942273Y-104108005D01*
X133013943Y-104137692D01*
X133000977Y-104142364D01*
X132885020Y-104204344D01*
X132818040Y-104444435D01*
X133604000Y-105230395D01*
X134389960Y-104444435D01*
X134322980Y-104204344D01*
X134187240Y-104140515D01*
X134265727Y-104108005D01*
X134494535Y-103955120D01*
X134689120Y-103760535D01*
X134842005Y-103531727D01*
X134947314Y-103277490D01*
X135001000Y-103007592D01*
X135001000Y-102732408D01*
X134947314Y-102462510D01*
X134842005Y-102208273D01*
X134689120Y-101979465D01*
X134494535Y-101784880D01*
X134265727Y-101631995D01*
X134188485Y-101600000D01*
X134265727Y-101568005D01*
X134494535Y-101415120D01*
X134689120Y-101220535D01*
X134842005Y-100991727D01*
X134947314Y-100737490D01*
X135001000Y-100467592D01*
X135001000Y-100192408D01*
X134947314Y-99922510D01*
X134842005Y-99668273D01*
X134689120Y-99439465D01*
X134494535Y-99244880D01*
X134265727Y-99091995D01*
X134188485Y-99060000D01*
X134265727Y-99028005D01*
X134494535Y-98875120D01*
X134689120Y-98680535D01*
X134842005Y-98451727D01*
X134947314Y-98197490D01*
X135001000Y-97927592D01*
X135001000Y-97652408D01*
X134947314Y-97382510D01*
X134842005Y-97128273D01*
X134689120Y-96899465D01*
X134494535Y-96704880D01*
X134265727Y-96551995D01*
X134188485Y-96520000D01*
X134265727Y-96488005D01*
X134494535Y-96335120D01*
X134689120Y-96140535D01*
X134842005Y-95911727D01*
X134947314Y-95657490D01*
X135001000Y-95387592D01*
X135001000Y-95112408D01*
X134947314Y-94842510D01*
X134842005Y-94588273D01*
X134689120Y-94359465D01*
X134494535Y-94164880D01*
X134265727Y-94011995D01*
X134188485Y-93980000D01*
X134265727Y-93948005D01*
X134494535Y-93795120D01*
X134689120Y-93600535D01*
X134842005Y-93371727D01*
X134947314Y-93117490D01*
X135001000Y-92847592D01*
X135001000Y-92572408D01*
X134947314Y-92302510D01*
X134842005Y-92048273D01*
X134689120Y-91819465D01*
X134494535Y-91624880D01*
X134265727Y-91471995D01*
X134188485Y-91440000D01*
X134265727Y-91408005D01*
X134494535Y-91255120D01*
X134689120Y-91060535D01*
X134842005Y-90831727D01*
X134947314Y-90577490D01*
X135001000Y-90307592D01*
X135001000Y-90032408D01*
X134947314Y-89762510D01*
X134842005Y-89508273D01*
X134689120Y-89279465D01*
X134494535Y-89084880D01*
X134265727Y-88931995D01*
X134188485Y-88900000D01*
X134265727Y-88868005D01*
X134494535Y-88715120D01*
X134689120Y-88520535D01*
X134842005Y-88291727D01*
X134947314Y-88037490D01*
X135001000Y-87767592D01*
X135001000Y-87492408D01*
X134947314Y-87222510D01*
X134842005Y-86968273D01*
X134689120Y-86739465D01*
X134494535Y-86544880D01*
X134265727Y-86391995D01*
X134188485Y-86360000D01*
X134265727Y-86328005D01*
X134494535Y-86175120D01*
X134689120Y-85980535D01*
X134842005Y-85751727D01*
X134947314Y-85497490D01*
X135001000Y-85227592D01*
X135001000Y-84952408D01*
X134947314Y-84682510D01*
X134842005Y-84428273D01*
X134689120Y-84199465D01*
X134494535Y-84004880D01*
X134265727Y-83851995D01*
X134188485Y-83820000D01*
X134265727Y-83788005D01*
X134494535Y-83635120D01*
X134689120Y-83440535D01*
X134842005Y-83211727D01*
X134947314Y-82957490D01*
X135001000Y-82687592D01*
X135001000Y-82412408D01*
X134947314Y-82142510D01*
X134842005Y-81888273D01*
X134689120Y-81659465D01*
X134494535Y-81464880D01*
X134265727Y-81311995D01*
X134188485Y-81280000D01*
X134265727Y-81248005D01*
X134494535Y-81095120D01*
X134689120Y-80900535D01*
X134842005Y-80671727D01*
X134947314Y-80417490D01*
X135001000Y-80147592D01*
X135001000Y-79872408D01*
X134947314Y-79602510D01*
X134842005Y-79348273D01*
X134689120Y-79119465D01*
X134494535Y-78924880D01*
X134265727Y-78771995D01*
X134188485Y-78740000D01*
X134265727Y-78708005D01*
X134494535Y-78555120D01*
X134689120Y-78360535D01*
X134842005Y-78131727D01*
X134947314Y-77877490D01*
X135001000Y-77607592D01*
X135001000Y-77332408D01*
X134947314Y-77062510D01*
X134842005Y-76808273D01*
X134689120Y-76579465D01*
X134494535Y-76384880D01*
X134265727Y-76231995D01*
X134188485Y-76200000D01*
X134265727Y-76168005D01*
X134494535Y-76015120D01*
X134689120Y-75820535D01*
X134842005Y-75591727D01*
X134947314Y-75337490D01*
X135001000Y-75067592D01*
X135001000Y-74792408D01*
X134947314Y-74522510D01*
X134842005Y-74268273D01*
X134689120Y-74039465D01*
X134494535Y-73844880D01*
X134406535Y-73786080D01*
X134490482Y-73777812D01*
X134610180Y-73741502D01*
X134720494Y-73682537D01*
X134817185Y-73603185D01*
X134896537Y-73506494D01*
X134955502Y-73396180D01*
X134991812Y-73276482D01*
X135004072Y-73152000D01*
X135004072Y-71628000D01*
X134991812Y-71503518D01*
X134955502Y-71383820D01*
X134896537Y-71273506D01*
X134817185Y-71176815D01*
X134720494Y-71097463D01*
X134610180Y-71038498D01*
X134490482Y-71002188D01*
X134366000Y-70989928D01*
X132842000Y-70989928D01*
X132717518Y-71002188D01*
X132597820Y-71038498D01*
X132487506Y-71097463D01*
X132390815Y-71176815D01*
X132311463Y-71273506D01*
X132252498Y-71383820D01*
X132216188Y-71503518D01*
X132203928Y-71628000D01*
X132203928Y-71630000D01*
X130266072Y-71630000D01*
X130266072Y-71540000D01*
X130253812Y-71415518D01*
X130217502Y-71295820D01*
X130158537Y-71185506D01*
X130079185Y-71088815D01*
X129982494Y-71009463D01*
X129872180Y-70950498D01*
X129752482Y-70914188D01*
X129628000Y-70901928D01*
X127928000Y-70901928D01*
X127803518Y-70914188D01*
X127683820Y-70950498D01*
X127573506Y-71009463D01*
X127476815Y-71088815D01*
X127397463Y-71185506D01*
X127381037Y-71216236D01*
X125170000Y-69005199D01*
X125170000Y-67056000D01*
X137033000Y-67056000D01*
X137033000Y-73152000D01*
X137035440Y-73176776D01*
X137042667Y-73200601D01*
X137054403Y-73222557D01*
X137070197Y-73241803D01*
X137089443Y-73257597D01*
X137111399Y-73269333D01*
X137135224Y-73276560D01*
X137160000Y-73279000D01*
X155956000Y-73279000D01*
X155980776Y-73276560D01*
X156004601Y-73269333D01*
X156026557Y-73257597D01*
X156045803Y-73241803D01*
X156061597Y-73222557D01*
X156073333Y-73200601D01*
X156080560Y-73176776D01*
X156083000Y-73152000D01*
X156083000Y-72252408D01*
X157607000Y-72252408D01*
X157607000Y-72527592D01*
X157660686Y-72797490D01*
X157765995Y-73051727D01*
X157918880Y-73280535D01*
X158113465Y-73475120D01*
X158342273Y-73628005D01*
X158419515Y-73660000D01*
X158342273Y-73691995D01*
X158113465Y-73844880D01*
X157918880Y-74039465D01*
X157765995Y-74268273D01*
X157660686Y-74522510D01*
X157607000Y-74792408D01*
X157607000Y-75067592D01*
X157660686Y-75337490D01*
X157765995Y-75591727D01*
X157918880Y-75820535D01*
X158113465Y-76015120D01*
X158342273Y-76168005D01*
X158419515Y-76200000D01*
X158342273Y-76231995D01*
X158113465Y-76384880D01*
X157918880Y-76579465D01*
X157765995Y-76808273D01*
X157660686Y-77062510D01*
X157607000Y-77332408D01*
X157607000Y-77607592D01*
X157660686Y-77877490D01*
X157765995Y-78131727D01*
X157918880Y-78360535D01*
X158113465Y-78555120D01*
X158342273Y-78708005D01*
X158419515Y-78740000D01*
X158342273Y-78771995D01*
X158113465Y-78924880D01*
X157918880Y-79119465D01*
X157765995Y-79348273D01*
X157660686Y-79602510D01*
X157607000Y-79872408D01*
X157607000Y-80147592D01*
X157660686Y-80417490D01*
X157765995Y-80671727D01*
X157918880Y-80900535D01*
X158113465Y-81095120D01*
X158342273Y-81248005D01*
X158419515Y-81280000D01*
X158342273Y-81311995D01*
X158113465Y-81464880D01*
X157918880Y-81659465D01*
X157765995Y-81888273D01*
X157660686Y-82142510D01*
X157607000Y-82412408D01*
X157607000Y-82687592D01*
X157660686Y-82957490D01*
X157765995Y-83211727D01*
X157918880Y-83440535D01*
X158113465Y-83635120D01*
X158342273Y-83788005D01*
X158419515Y-83820000D01*
X158342273Y-83851995D01*
X158113465Y-84004880D01*
X157918880Y-84199465D01*
X157765995Y-84428273D01*
X157660686Y-84682510D01*
X157607000Y-84952408D01*
X157607000Y-85227592D01*
X157660686Y-85497490D01*
X157765995Y-85751727D01*
X157918880Y-85980535D01*
X158113465Y-86175120D01*
X158342273Y-86328005D01*
X158419515Y-86360000D01*
X158342273Y-86391995D01*
X158113465Y-86544880D01*
X157918880Y-86739465D01*
X157765995Y-86968273D01*
X157660686Y-87222510D01*
X157607000Y-87492408D01*
X157607000Y-87767592D01*
X157660686Y-88037490D01*
X157765995Y-88291727D01*
X157918880Y-88520535D01*
X158113465Y-88715120D01*
X158342273Y-88868005D01*
X158419515Y-88900000D01*
X158342273Y-88931995D01*
X158113465Y-89084880D01*
X157918880Y-89279465D01*
X157765995Y-89508273D01*
X157660686Y-89762510D01*
X157607000Y-90032408D01*
X157607000Y-90307592D01*
X157660686Y-90577490D01*
X157765995Y-90831727D01*
X157918880Y-91060535D01*
X158113465Y-91255120D01*
X158342273Y-91408005D01*
X158419515Y-91440000D01*
X158342273Y-91471995D01*
X158113465Y-91624880D01*
X157918880Y-91819465D01*
X157765995Y-92048273D01*
X157660686Y-92302510D01*
X157607000Y-92572408D01*
X157607000Y-92847592D01*
X157660686Y-93117490D01*
X157765995Y-93371727D01*
X157918880Y-93600535D01*
X158113465Y-93795120D01*
X158342273Y-93948005D01*
X158419515Y-93980000D01*
X158342273Y-94011995D01*
X158113465Y-94164880D01*
X157918880Y-94359465D01*
X157765995Y-94588273D01*
X157660686Y-94842510D01*
X157607000Y-95112408D01*
X157607000Y-95387592D01*
X157660686Y-95657490D01*
X157765995Y-95911727D01*
X157918880Y-96140535D01*
X158113465Y-96335120D01*
X158342273Y-96488005D01*
X158419515Y-96520000D01*
X158342273Y-96551995D01*
X158113465Y-96704880D01*
X157918880Y-96899465D01*
X157765995Y-97128273D01*
X157660686Y-97382510D01*
X157607000Y-97652408D01*
X157607000Y-97927592D01*
X157660686Y-98197490D01*
X157765995Y-98451727D01*
X157918880Y-98680535D01*
X158113465Y-98875120D01*
X158342273Y-99028005D01*
X158419515Y-99060000D01*
X158342273Y-99091995D01*
X158113465Y-99244880D01*
X157918880Y-99439465D01*
X157765995Y-99668273D01*
X157660686Y-99922510D01*
X157607000Y-100192408D01*
X157607000Y-100467592D01*
X157660686Y-100737490D01*
X157765995Y-100991727D01*
X157918880Y-101220535D01*
X158113465Y-101415120D01*
X158342273Y-101568005D01*
X158419515Y-101600000D01*
X158342273Y-101631995D01*
X158113465Y-101784880D01*
X157918880Y-101979465D01*
X157765995Y-102208273D01*
X157660686Y-102462510D01*
X157607000Y-102732408D01*
X157607000Y-103007592D01*
X157660686Y-103277490D01*
X157765995Y-103531727D01*
X157918880Y-103760535D01*
X158113465Y-103955120D01*
X158342273Y-104108005D01*
X158413943Y-104137692D01*
X158400977Y-104142364D01*
X158285020Y-104204344D01*
X158218040Y-104444435D01*
X159004000Y-105230395D01*
X159789960Y-104444435D01*
X159722980Y-104204344D01*
X159587240Y-104140515D01*
X159665727Y-104108005D01*
X159894535Y-103955120D01*
X160089120Y-103760535D01*
X160176341Y-103630000D01*
X162551822Y-103630000D01*
X162676525Y-103816632D01*
X162883368Y-104023475D01*
X163065534Y-104145195D01*
X162948645Y-104214822D01*
X162732412Y-104409731D01*
X162558359Y-104643080D01*
X162433175Y-104905901D01*
X162388524Y-105053110D01*
X162509845Y-105283000D01*
X163703000Y-105283000D01*
X163703000Y-105263000D01*
X163957000Y-105263000D01*
X163957000Y-105283000D01*
X165150155Y-105283000D01*
X165271476Y-105053110D01*
X165226825Y-104905901D01*
X165101641Y-104643080D01*
X164927588Y-104409731D01*
X164711355Y-104214822D01*
X164594466Y-104145195D01*
X164776632Y-104023475D01*
X164983475Y-103816632D01*
X165108178Y-103630000D01*
X165312678Y-103630000D01*
X165350000Y-103633676D01*
X165387322Y-103630000D01*
X165387333Y-103630000D01*
X165498986Y-103619003D01*
X165642247Y-103575546D01*
X165774276Y-103504974D01*
X165890001Y-103410001D01*
X165913804Y-103380997D01*
X166934802Y-102360000D01*
X171448373Y-102360000D01*
X171513225Y-102516566D01*
X171724987Y-102833491D01*
X171994509Y-103103013D01*
X172311434Y-103314775D01*
X172663581Y-103460639D01*
X173037419Y-103535000D01*
X173418581Y-103535000D01*
X173792419Y-103460639D01*
X174144566Y-103314775D01*
X174461491Y-103103013D01*
X174731013Y-102833491D01*
X174942775Y-102516566D01*
X175088639Y-102164419D01*
X175163000Y-101790581D01*
X175163000Y-101409419D01*
X175088639Y-101035581D01*
X174942775Y-100683434D01*
X174731013Y-100366509D01*
X174461491Y-100096987D01*
X174144566Y-99885225D01*
X173792419Y-99739361D01*
X173418581Y-99665000D01*
X173037419Y-99665000D01*
X172663581Y-99739361D01*
X172311434Y-99885225D01*
X171994509Y-100096987D01*
X171724987Y-100366509D01*
X171513225Y-100683434D01*
X171448373Y-100840000D01*
X169982801Y-100840000D01*
X172507015Y-98315787D01*
X172663581Y-98380639D01*
X173037419Y-98455000D01*
X173418581Y-98455000D01*
X173792419Y-98380639D01*
X174144566Y-98234775D01*
X174461491Y-98023013D01*
X174731013Y-97753491D01*
X174942775Y-97436566D01*
X175088639Y-97084419D01*
X175163000Y-96710581D01*
X175163000Y-96329419D01*
X175088639Y-95955581D01*
X174942775Y-95603434D01*
X174731013Y-95286509D01*
X174461491Y-95016987D01*
X174144566Y-94805225D01*
X173792419Y-94659361D01*
X173418581Y-94585000D01*
X173037419Y-94585000D01*
X172663581Y-94659361D01*
X172410690Y-94764112D01*
X173739004Y-93435798D01*
X173768001Y-93412001D01*
X173862974Y-93296276D01*
X173880042Y-93264344D01*
X174144566Y-93154775D01*
X174461491Y-92943013D01*
X174731013Y-92673491D01*
X174942775Y-92356566D01*
X175088639Y-92004419D01*
X175163000Y-91630581D01*
X175163000Y-91249419D01*
X175088639Y-90875581D01*
X174942775Y-90523434D01*
X174731013Y-90206509D01*
X174461491Y-89936987D01*
X174144566Y-89725225D01*
X173792419Y-89579361D01*
X173418581Y-89505000D01*
X173099802Y-89505000D01*
X173739004Y-88865798D01*
X173768001Y-88842001D01*
X173862974Y-88726276D01*
X173933546Y-88594247D01*
X173977003Y-88450986D01*
X173988000Y-88339333D01*
X173988000Y-88339323D01*
X173991676Y-88302000D01*
X173988000Y-88264677D01*
X173988000Y-88139627D01*
X174144566Y-88074775D01*
X174461491Y-87863013D01*
X174731013Y-87593491D01*
X174942775Y-87276566D01*
X175088639Y-86924419D01*
X175163000Y-86550581D01*
X175163000Y-86169419D01*
X175088639Y-85795581D01*
X174942775Y-85443434D01*
X174731013Y-85126509D01*
X174461491Y-84856987D01*
X174144566Y-84645225D01*
X173792419Y-84499361D01*
X173418581Y-84425000D01*
X173189802Y-84425000D01*
X173739004Y-83875798D01*
X173768001Y-83852001D01*
X173832007Y-83774010D01*
X173862974Y-83736277D01*
X173933546Y-83604247D01*
X173942252Y-83575546D01*
X173977003Y-83460986D01*
X173988000Y-83349333D01*
X173988000Y-83349324D01*
X173991676Y-83312001D01*
X173988000Y-83274678D01*
X173988000Y-83059627D01*
X174144566Y-82994775D01*
X174461491Y-82783013D01*
X174731013Y-82513491D01*
X174942775Y-82196566D01*
X175088639Y-81844419D01*
X175163000Y-81470581D01*
X175163000Y-81089419D01*
X175088639Y-80715581D01*
X174942775Y-80363434D01*
X174731013Y-80046509D01*
X174461491Y-79776987D01*
X174144566Y-79565225D01*
X173792419Y-79419361D01*
X173418581Y-79345000D01*
X173037419Y-79345000D01*
X172986063Y-79355215D01*
X173739004Y-78602275D01*
X173768001Y-78578478D01*
X173804985Y-78533413D01*
X173862974Y-78462754D01*
X173933546Y-78330724D01*
X173933546Y-78330723D01*
X173977003Y-78187463D01*
X173988000Y-78075810D01*
X173988000Y-78075801D01*
X173991676Y-78038478D01*
X173988000Y-78001155D01*
X173988000Y-77979627D01*
X174144566Y-77914775D01*
X174461491Y-77703013D01*
X174731013Y-77433491D01*
X174942775Y-77116566D01*
X175088639Y-76764419D01*
X175163000Y-76390581D01*
X175163000Y-76009419D01*
X175088639Y-75635581D01*
X174942775Y-75283434D01*
X174731013Y-74966509D01*
X174461491Y-74696987D01*
X174144566Y-74485225D01*
X173792419Y-74339361D01*
X173418581Y-74265000D01*
X173037419Y-74265000D01*
X172663581Y-74339361D01*
X172362999Y-74463866D01*
X172362999Y-73059802D01*
X172507014Y-72915787D01*
X172663581Y-72980639D01*
X173037419Y-73055000D01*
X173418581Y-73055000D01*
X173792419Y-72980639D01*
X174144566Y-72834775D01*
X174461491Y-72623013D01*
X174731013Y-72353491D01*
X174942775Y-72036566D01*
X175088639Y-71684419D01*
X175163000Y-71310581D01*
X175163000Y-70929419D01*
X175088639Y-70555581D01*
X174942775Y-70203434D01*
X174731013Y-69886509D01*
X174461491Y-69616987D01*
X174144566Y-69405225D01*
X173792419Y-69259361D01*
X173418581Y-69185000D01*
X173037419Y-69185000D01*
X172986063Y-69195215D01*
X173739004Y-68442275D01*
X173768001Y-68418478D01*
X173794332Y-68386394D01*
X173862974Y-68302754D01*
X173933546Y-68170724D01*
X173946605Y-68127672D01*
X173977003Y-68027463D01*
X173988000Y-67915810D01*
X173988000Y-67915801D01*
X173991676Y-67878478D01*
X173988000Y-67841155D01*
X173988000Y-67819627D01*
X174144566Y-67754775D01*
X174461491Y-67543013D01*
X174731013Y-67273491D01*
X174942775Y-66956566D01*
X175088639Y-66604419D01*
X175163000Y-66230581D01*
X175163000Y-65849419D01*
X175088639Y-65475581D01*
X174942775Y-65123434D01*
X174731013Y-64806509D01*
X174461491Y-64536987D01*
X174144566Y-64325225D01*
X173792419Y-64179361D01*
X173418581Y-64105000D01*
X173037419Y-64105000D01*
X172663581Y-64179361D01*
X172362999Y-64303866D01*
X172362999Y-62899802D01*
X172507014Y-62755787D01*
X172663581Y-62820639D01*
X173037419Y-62895000D01*
X173418581Y-62895000D01*
X173792419Y-62820639D01*
X174144566Y-62674775D01*
X174461491Y-62463013D01*
X174731013Y-62193491D01*
X174942775Y-61876566D01*
X175088639Y-61524419D01*
X175163000Y-61150581D01*
X175163000Y-60769419D01*
X175088639Y-60395581D01*
X174942775Y-60043434D01*
X174731013Y-59726509D01*
X174461491Y-59456987D01*
X174144566Y-59245225D01*
X173792419Y-59099361D01*
X173418581Y-59025000D01*
X173037419Y-59025000D01*
X172663581Y-59099361D01*
X172311434Y-59245225D01*
X171994509Y-59456987D01*
X171912988Y-59538508D01*
X171912988Y-58269813D01*
X172507014Y-57675787D01*
X172663581Y-57740639D01*
X173037419Y-57815000D01*
X173418581Y-57815000D01*
X173792419Y-57740639D01*
X174144566Y-57594775D01*
X174461491Y-57383013D01*
X174731013Y-57113491D01*
X174942775Y-56796566D01*
X175088639Y-56444419D01*
X175163000Y-56070581D01*
X175163000Y-55689419D01*
X175088639Y-55315581D01*
X174942775Y-54963434D01*
X174731013Y-54646509D01*
X174461491Y-54376987D01*
X174144566Y-54165225D01*
X173792419Y-54019361D01*
X173418581Y-53945000D01*
X173037419Y-53945000D01*
X172663581Y-54019361D01*
X172311434Y-54165225D01*
X171994509Y-54376987D01*
X171724987Y-54646509D01*
X171513225Y-54963434D01*
X171462977Y-55084743D01*
X171462977Y-53639824D01*
X172507014Y-52595787D01*
X172663581Y-52660639D01*
X173037419Y-52735000D01*
X173418581Y-52735000D01*
X173792419Y-52660639D01*
X174144566Y-52514775D01*
X174461491Y-52303013D01*
X174731013Y-52033491D01*
X174942775Y-51716566D01*
X175088639Y-51364419D01*
X175163000Y-50990581D01*
X175163000Y-50609419D01*
X175088639Y-50235581D01*
X174942775Y-49883434D01*
X174731013Y-49566509D01*
X174461491Y-49296987D01*
X174144566Y-49085225D01*
X173792419Y-48939361D01*
X173418581Y-48865000D01*
X173037419Y-48865000D01*
X172663581Y-48939361D01*
X172311434Y-49085225D01*
X171994509Y-49296987D01*
X171724987Y-49566509D01*
X171513225Y-49883434D01*
X171367361Y-50235581D01*
X171293000Y-50609419D01*
X171293000Y-50990581D01*
X171367361Y-51364419D01*
X171432213Y-51520986D01*
X171012966Y-51940233D01*
X171012966Y-49009835D01*
X172507015Y-47515787D01*
X172663581Y-47580639D01*
X173037419Y-47655000D01*
X173418581Y-47655000D01*
X173792419Y-47580639D01*
X174144566Y-47434775D01*
X174461491Y-47223013D01*
X174731013Y-46953491D01*
X174942775Y-46636566D01*
X175088639Y-46284419D01*
X175163000Y-45910581D01*
X175163000Y-45529419D01*
X175088639Y-45155581D01*
X174942775Y-44803434D01*
X174731013Y-44486509D01*
X174461491Y-44216987D01*
X174144566Y-44005225D01*
X173792419Y-43859361D01*
X173418581Y-43785000D01*
X173037419Y-43785000D01*
X172663581Y-43859361D01*
X172311434Y-44005225D01*
X171994509Y-44216987D01*
X171724987Y-44486509D01*
X171513225Y-44803434D01*
X171367361Y-45155581D01*
X171293000Y-45529419D01*
X171293000Y-45910581D01*
X171367361Y-46284419D01*
X171432213Y-46440985D01*
X170562955Y-47310243D01*
X170562955Y-44379846D01*
X172507015Y-42435787D01*
X172663581Y-42500639D01*
X173037419Y-42575000D01*
X173418581Y-42575000D01*
X173792419Y-42500639D01*
X174144566Y-42354775D01*
X174461491Y-42143013D01*
X174731013Y-41873491D01*
X174942775Y-41556566D01*
X175088639Y-41204419D01*
X175163000Y-40830581D01*
X175163000Y-40449419D01*
X175088639Y-40075581D01*
X174942775Y-39723434D01*
X174731013Y-39406509D01*
X174461491Y-39136987D01*
X174144566Y-38925225D01*
X173792419Y-38779361D01*
X173418581Y-38705000D01*
X173037419Y-38705000D01*
X172663581Y-38779361D01*
X172311434Y-38925225D01*
X171994509Y-39136987D01*
X171724987Y-39406509D01*
X171513225Y-39723434D01*
X171367361Y-40075581D01*
X171293000Y-40449419D01*
X171293000Y-40830581D01*
X171367361Y-41204419D01*
X171432213Y-41360985D01*
X169291953Y-43501246D01*
X169262955Y-43525044D01*
X169239157Y-43554042D01*
X169239156Y-43554043D01*
X169167981Y-43640769D01*
X169097409Y-43772799D01*
X169053953Y-43916060D01*
X169039279Y-44065045D01*
X169042956Y-44102378D01*
X169042955Y-67702243D01*
X165307952Y-71437247D01*
X165305812Y-71415518D01*
X165269502Y-71295820D01*
X165210537Y-71185506D01*
X165131185Y-71088815D01*
X165034494Y-71009463D01*
X164924180Y-70950498D01*
X164804482Y-70914188D01*
X164680000Y-70901928D01*
X162980000Y-70901928D01*
X162855518Y-70914188D01*
X162735820Y-70950498D01*
X162625506Y-71009463D01*
X162528815Y-71088815D01*
X162449463Y-71185506D01*
X162390498Y-71295820D01*
X162354188Y-71415518D01*
X162341928Y-71540000D01*
X162341928Y-71630000D01*
X160176341Y-71630000D01*
X160089120Y-71499465D01*
X159894535Y-71304880D01*
X159665727Y-71151995D01*
X159411490Y-71046686D01*
X159141592Y-70993000D01*
X158866408Y-70993000D01*
X158596510Y-71046686D01*
X158342273Y-71151995D01*
X158113465Y-71304880D01*
X157918880Y-71499465D01*
X157765995Y-71728273D01*
X157660686Y-71982510D01*
X157607000Y-72252408D01*
X156083000Y-72252408D01*
X156083000Y-67056000D01*
X156080560Y-67031224D01*
X156073333Y-67007399D01*
X156061597Y-66985443D01*
X156045803Y-66966197D01*
X156026557Y-66950403D01*
X156004601Y-66938667D01*
X155980776Y-66931440D01*
X155956000Y-66929000D01*
X137160000Y-66929000D01*
X137135224Y-66931440D01*
X137111399Y-66938667D01*
X137089443Y-66950403D01*
X137070197Y-66966197D01*
X137054403Y-66985443D01*
X137042667Y-67007399D01*
X137035440Y-67031224D01*
X137033000Y-67056000D01*
X125170000Y-67056000D01*
X125170000Y-45707322D01*
X125173676Y-45669999D01*
X125170000Y-45632676D01*
X125170000Y-45632667D01*
X125159003Y-45521014D01*
X125115546Y-45377753D01*
X125044974Y-45245724D01*
X124950001Y-45129999D01*
X124921003Y-45106201D01*
X121318072Y-41503271D01*
X121318072Y-39340000D01*
X121305812Y-39215518D01*
X121269502Y-39095820D01*
X121210537Y-38985506D01*
X121131185Y-38888815D01*
X121034494Y-38809463D01*
X120924180Y-38750498D01*
X120804482Y-38714188D01*
X120680000Y-38701928D01*
X118080000Y-38701928D01*
X117955518Y-38714188D01*
X117835820Y-38750498D01*
X117725506Y-38809463D01*
X117628815Y-38888815D01*
X117549463Y-38985506D01*
X117490498Y-39095820D01*
X117454188Y-39215518D01*
X117441928Y-39340000D01*
X112445000Y-39340000D01*
X112445000Y-32642285D01*
X115545000Y-32642285D01*
X115545000Y-33397715D01*
X115692377Y-34138628D01*
X115981467Y-34836554D01*
X116401161Y-35464670D01*
X116935330Y-35998839D01*
X117563446Y-36418533D01*
X118261372Y-36707623D01*
X119002285Y-36855000D01*
X119757715Y-36855000D01*
X120498628Y-36707623D01*
X121196554Y-36418533D01*
X121824670Y-35998839D01*
X122358839Y-35464670D01*
X122778533Y-34836554D01*
X123067623Y-34138628D01*
X123215000Y-33397715D01*
X123215000Y-32642285D01*
X123188482Y-32508967D01*
X128395000Y-32508967D01*
X128395000Y-32831033D01*
X128457832Y-33146912D01*
X128581082Y-33444463D01*
X128760013Y-33712252D01*
X128987748Y-33939987D01*
X128987767Y-33940000D01*
X128987748Y-33940013D01*
X128760013Y-34167748D01*
X128581082Y-34435537D01*
X128457832Y-34733088D01*
X128395000Y-35048967D01*
X128395000Y-35371033D01*
X128457832Y-35686912D01*
X128581082Y-35984463D01*
X128760013Y-36252252D01*
X128987748Y-36479987D01*
X128987767Y-36480000D01*
X128987748Y-36480013D01*
X128760013Y-36707748D01*
X128581082Y-36975537D01*
X128457832Y-37273088D01*
X128395000Y-37588967D01*
X128395000Y-37911033D01*
X128457832Y-38226912D01*
X128581082Y-38524463D01*
X128760013Y-38792252D01*
X128987748Y-39019987D01*
X128987767Y-39020000D01*
X128987748Y-39020013D01*
X128760013Y-39247748D01*
X128581082Y-39515537D01*
X128457832Y-39813088D01*
X128395000Y-40128967D01*
X128395000Y-40451033D01*
X128457832Y-40766912D01*
X128581082Y-41064463D01*
X128760013Y-41332252D01*
X128987748Y-41559987D01*
X128987767Y-41560000D01*
X128987748Y-41560013D01*
X128760013Y-41787748D01*
X128581082Y-42055537D01*
X128457832Y-42353088D01*
X128395000Y-42668967D01*
X128395000Y-42991033D01*
X128457832Y-43306912D01*
X128581082Y-43604463D01*
X128760013Y-43872252D01*
X128987748Y-44099987D01*
X128987767Y-44100000D01*
X128987748Y-44100013D01*
X128760013Y-44327748D01*
X128581082Y-44595537D01*
X128457832Y-44893088D01*
X128395000Y-45208967D01*
X128395000Y-45531033D01*
X128457832Y-45846912D01*
X128581082Y-46144463D01*
X128760013Y-46412252D01*
X128987748Y-46639987D01*
X128987767Y-46640000D01*
X128987748Y-46640013D01*
X128760013Y-46867748D01*
X128581082Y-47135537D01*
X128457832Y-47433088D01*
X128395000Y-47748967D01*
X128395000Y-48071033D01*
X128457832Y-48386912D01*
X128581082Y-48684463D01*
X128760013Y-48952252D01*
X128987748Y-49179987D01*
X128987767Y-49180000D01*
X128987748Y-49180013D01*
X128760013Y-49407748D01*
X128581082Y-49675537D01*
X128457832Y-49973088D01*
X128395000Y-50288967D01*
X128395000Y-50611033D01*
X128457832Y-50926912D01*
X128581082Y-51224463D01*
X128760013Y-51492252D01*
X128987748Y-51719987D01*
X128987767Y-51720000D01*
X128987748Y-51720013D01*
X128760013Y-51947748D01*
X128581082Y-52215537D01*
X128457832Y-52513088D01*
X128395000Y-52828967D01*
X128395000Y-53151033D01*
X128457832Y-53466912D01*
X128581082Y-53764463D01*
X128760013Y-54032252D01*
X128987748Y-54259987D01*
X128987767Y-54260000D01*
X128987748Y-54260013D01*
X128760013Y-54487748D01*
X128581082Y-54755537D01*
X128457832Y-55053088D01*
X128395000Y-55368967D01*
X128395000Y-55691033D01*
X128457832Y-56006912D01*
X128581082Y-56304463D01*
X128760013Y-56572252D01*
X128987748Y-56799987D01*
X128987767Y-56800000D01*
X128987748Y-56800013D01*
X128760013Y-57027748D01*
X128581082Y-57295537D01*
X128457832Y-57593088D01*
X128395000Y-57908967D01*
X128395000Y-58231033D01*
X128457832Y-58546912D01*
X128581082Y-58844463D01*
X128760013Y-59112252D01*
X128987748Y-59339987D01*
X128987767Y-59340000D01*
X128987748Y-59340013D01*
X128760013Y-59567748D01*
X128581082Y-59835537D01*
X128457832Y-60133088D01*
X128395000Y-60448967D01*
X128395000Y-60771033D01*
X128457832Y-61086912D01*
X128581082Y-61384463D01*
X128760013Y-61652252D01*
X128987748Y-61879987D01*
X128987767Y-61880000D01*
X128987748Y-61880013D01*
X128760013Y-62107748D01*
X128581082Y-62375537D01*
X128457832Y-62673088D01*
X128395000Y-62988967D01*
X128395000Y-63311033D01*
X128457832Y-63626912D01*
X128581082Y-63924463D01*
X128760013Y-64192252D01*
X128987748Y-64419987D01*
X129255537Y-64598918D01*
X129553088Y-64722168D01*
X129868967Y-64785000D01*
X130191033Y-64785000D01*
X130506912Y-64722168D01*
X130804463Y-64598918D01*
X131072252Y-64419987D01*
X131299987Y-64192252D01*
X131300000Y-64192233D01*
X131300013Y-64192252D01*
X131527748Y-64419987D01*
X131795537Y-64598918D01*
X132093088Y-64722168D01*
X132408967Y-64785000D01*
X132731033Y-64785000D01*
X133046912Y-64722168D01*
X133344463Y-64598918D01*
X133612252Y-64419987D01*
X133839987Y-64192252D01*
X133840000Y-64192233D01*
X133840013Y-64192252D01*
X134067748Y-64419987D01*
X134335537Y-64598918D01*
X134633088Y-64722168D01*
X134948967Y-64785000D01*
X135271033Y-64785000D01*
X135586912Y-64722168D01*
X135884463Y-64598918D01*
X136152252Y-64419987D01*
X136379987Y-64192252D01*
X136380000Y-64192233D01*
X136380013Y-64192252D01*
X136607748Y-64419987D01*
X136875537Y-64598918D01*
X137173088Y-64722168D01*
X137488967Y-64785000D01*
X137811033Y-64785000D01*
X138126912Y-64722168D01*
X138424463Y-64598918D01*
X138692252Y-64419987D01*
X138919987Y-64192252D01*
X138920000Y-64192233D01*
X138920013Y-64192252D01*
X139147748Y-64419987D01*
X139415537Y-64598918D01*
X139713088Y-64722168D01*
X140028967Y-64785000D01*
X140351033Y-64785000D01*
X140666912Y-64722168D01*
X140964463Y-64598918D01*
X141232252Y-64419987D01*
X141459987Y-64192252D01*
X141460000Y-64192233D01*
X141460013Y-64192252D01*
X141687748Y-64419987D01*
X141955537Y-64598918D01*
X142253088Y-64722168D01*
X142568967Y-64785000D01*
X142891033Y-64785000D01*
X143206912Y-64722168D01*
X143504463Y-64598918D01*
X143772252Y-64419987D01*
X143999987Y-64192252D01*
X144000000Y-64192233D01*
X144000013Y-64192252D01*
X144227748Y-64419987D01*
X144495537Y-64598918D01*
X144793088Y-64722168D01*
X145108967Y-64785000D01*
X145431033Y-64785000D01*
X145746912Y-64722168D01*
X146044463Y-64598918D01*
X146312252Y-64419987D01*
X146539987Y-64192252D01*
X146540000Y-64192233D01*
X146540013Y-64192252D01*
X146767748Y-64419987D01*
X147035537Y-64598918D01*
X147333088Y-64722168D01*
X147648967Y-64785000D01*
X147971033Y-64785000D01*
X148286912Y-64722168D01*
X148584463Y-64598918D01*
X148852252Y-64419987D01*
X149079987Y-64192252D01*
X149080000Y-64192233D01*
X149080013Y-64192252D01*
X149307748Y-64419987D01*
X149575537Y-64598918D01*
X149873088Y-64722168D01*
X150188967Y-64785000D01*
X150511033Y-64785000D01*
X150826912Y-64722168D01*
X151124463Y-64598918D01*
X151392252Y-64419987D01*
X151619987Y-64192252D01*
X151620000Y-64192233D01*
X151620013Y-64192252D01*
X151847748Y-64419987D01*
X152115537Y-64598918D01*
X152413088Y-64722168D01*
X152728967Y-64785000D01*
X153051033Y-64785000D01*
X153366912Y-64722168D01*
X153664463Y-64598918D01*
X153932252Y-64419987D01*
X154159987Y-64192252D01*
X154160000Y-64192233D01*
X154160013Y-64192252D01*
X154387748Y-64419987D01*
X154655537Y-64598918D01*
X154953088Y-64722168D01*
X155268967Y-64785000D01*
X155591033Y-64785000D01*
X155906912Y-64722168D01*
X156204463Y-64598918D01*
X156472252Y-64419987D01*
X156699987Y-64192252D01*
X156700000Y-64192233D01*
X156700013Y-64192252D01*
X156927748Y-64419987D01*
X157195537Y-64598918D01*
X157493088Y-64722168D01*
X157808967Y-64785000D01*
X158131033Y-64785000D01*
X158446912Y-64722168D01*
X158744463Y-64598918D01*
X159012252Y-64419987D01*
X159239987Y-64192252D01*
X159240000Y-64192233D01*
X159240013Y-64192252D01*
X159467748Y-64419987D01*
X159735537Y-64598918D01*
X160033088Y-64722168D01*
X160348967Y-64785000D01*
X160671033Y-64785000D01*
X160986912Y-64722168D01*
X161284463Y-64598918D01*
X161552252Y-64419987D01*
X161779987Y-64192252D01*
X161780000Y-64192233D01*
X161780013Y-64192252D01*
X162007748Y-64419987D01*
X162275537Y-64598918D01*
X162573088Y-64722168D01*
X162888967Y-64785000D01*
X163211033Y-64785000D01*
X163526912Y-64722168D01*
X163824463Y-64598918D01*
X164092252Y-64419987D01*
X164319987Y-64192252D01*
X164498918Y-63924463D01*
X164622168Y-63626912D01*
X164685000Y-63311033D01*
X164685000Y-62988967D01*
X164622168Y-62673088D01*
X164498918Y-62375537D01*
X164319987Y-62107748D01*
X164092252Y-61880013D01*
X164092233Y-61880000D01*
X164092252Y-61879987D01*
X164319987Y-61652252D01*
X164498918Y-61384463D01*
X164622168Y-61086912D01*
X164685000Y-60771033D01*
X164685000Y-60448967D01*
X164622168Y-60133088D01*
X164498918Y-59835537D01*
X164319987Y-59567748D01*
X164092252Y-59340013D01*
X164092233Y-59340000D01*
X164092252Y-59339987D01*
X164319987Y-59112252D01*
X164498918Y-58844463D01*
X164622168Y-58546912D01*
X164685000Y-58231033D01*
X164685000Y-57908967D01*
X164622168Y-57593088D01*
X164498918Y-57295537D01*
X164319987Y-57027748D01*
X164092252Y-56800013D01*
X164092233Y-56800000D01*
X164092252Y-56799987D01*
X164319987Y-56572252D01*
X164498918Y-56304463D01*
X164622168Y-56006912D01*
X164685000Y-55691033D01*
X164685000Y-55368967D01*
X164622168Y-55053088D01*
X164498918Y-54755537D01*
X164319987Y-54487748D01*
X164092252Y-54260013D01*
X164092233Y-54260000D01*
X164092252Y-54259987D01*
X164319987Y-54032252D01*
X164498918Y-53764463D01*
X164622168Y-53466912D01*
X164685000Y-53151033D01*
X164685000Y-52828967D01*
X164622168Y-52513088D01*
X164498918Y-52215537D01*
X164319987Y-51947748D01*
X164092252Y-51720013D01*
X164092233Y-51720000D01*
X164092252Y-51719987D01*
X164319987Y-51492252D01*
X164498918Y-51224463D01*
X164622168Y-50926912D01*
X164685000Y-50611033D01*
X164685000Y-50288967D01*
X164622168Y-49973088D01*
X164498918Y-49675537D01*
X164319987Y-49407748D01*
X164092252Y-49180013D01*
X164092233Y-49180000D01*
X164092252Y-49179987D01*
X164319987Y-48952252D01*
X164498918Y-48684463D01*
X164622168Y-48386912D01*
X164685000Y-48071033D01*
X164685000Y-47748967D01*
X164622168Y-47433088D01*
X164498918Y-47135537D01*
X164319987Y-46867748D01*
X164092252Y-46640013D01*
X164092233Y-46640000D01*
X164092252Y-46639987D01*
X164319987Y-46412252D01*
X164498918Y-46144463D01*
X164622168Y-45846912D01*
X164685000Y-45531033D01*
X164685000Y-45208967D01*
X164622168Y-44893088D01*
X164498918Y-44595537D01*
X164319987Y-44327748D01*
X164092252Y-44100013D01*
X164092233Y-44100000D01*
X164092252Y-44099987D01*
X164319987Y-43872252D01*
X164498918Y-43604463D01*
X164622168Y-43306912D01*
X164685000Y-42991033D01*
X164685000Y-42668967D01*
X164622168Y-42353088D01*
X164498918Y-42055537D01*
X164319987Y-41787748D01*
X164092252Y-41560013D01*
X164092233Y-41560000D01*
X164092252Y-41559987D01*
X164319987Y-41332252D01*
X164498918Y-41064463D01*
X164622168Y-40766912D01*
X164685000Y-40451033D01*
X164685000Y-40128967D01*
X164622168Y-39813088D01*
X164498918Y-39515537D01*
X164319987Y-39247748D01*
X164092252Y-39020013D01*
X164092233Y-39020000D01*
X164092252Y-39019987D01*
X164319987Y-38792252D01*
X164498918Y-38524463D01*
X164622168Y-38226912D01*
X164685000Y-37911033D01*
X164685000Y-37588967D01*
X164622168Y-37273088D01*
X164498918Y-36975537D01*
X164319987Y-36707748D01*
X164092252Y-36480013D01*
X164092233Y-36480000D01*
X164092252Y-36479987D01*
X164319987Y-36252252D01*
X164498918Y-35984463D01*
X164622168Y-35686912D01*
X164685000Y-35371033D01*
X164685000Y-35048967D01*
X164622168Y-34733088D01*
X164498918Y-34435537D01*
X164319987Y-34167748D01*
X164092252Y-33940013D01*
X164092233Y-33940000D01*
X164092252Y-33939987D01*
X164319987Y-33712252D01*
X164498918Y-33444463D01*
X164622168Y-33146912D01*
X164685000Y-32831033D01*
X164685000Y-32642285D01*
X168885000Y-32642285D01*
X168885000Y-33397715D01*
X169032377Y-34138628D01*
X169321467Y-34836554D01*
X169741161Y-35464670D01*
X170275330Y-35998839D01*
X170903446Y-36418533D01*
X171601372Y-36707623D01*
X172342285Y-36855000D01*
X173097715Y-36855000D01*
X173838628Y-36707623D01*
X174536554Y-36418533D01*
X175164670Y-35998839D01*
X175698839Y-35464670D01*
X176118533Y-34836554D01*
X176407623Y-34138628D01*
X176555000Y-33397715D01*
X176555000Y-32642285D01*
X176407623Y-31901372D01*
X176118533Y-31203446D01*
X175698839Y-30575330D01*
X175164670Y-30041161D01*
X174536554Y-29621467D01*
X173838628Y-29332377D01*
X173097715Y-29185000D01*
X172342285Y-29185000D01*
X171601372Y-29332377D01*
X170903446Y-29621467D01*
X170275330Y-30041161D01*
X169741161Y-30575330D01*
X169321467Y-31203446D01*
X169032377Y-31901372D01*
X168885000Y-32642285D01*
X164685000Y-32642285D01*
X164685000Y-32508967D01*
X164622168Y-32193088D01*
X164498918Y-31895537D01*
X164319987Y-31627748D01*
X164092252Y-31400013D01*
X163824463Y-31221082D01*
X163526912Y-31097832D01*
X163211033Y-31035000D01*
X162888967Y-31035000D01*
X162573088Y-31097832D01*
X162275537Y-31221082D01*
X162007748Y-31400013D01*
X161780013Y-31627748D01*
X161780000Y-31627767D01*
X161779987Y-31627748D01*
X161552252Y-31400013D01*
X161284463Y-31221082D01*
X160986912Y-31097832D01*
X160671033Y-31035000D01*
X160348967Y-31035000D01*
X160033088Y-31097832D01*
X159735537Y-31221082D01*
X159467748Y-31400013D01*
X159240013Y-31627748D01*
X159240000Y-31627767D01*
X159239987Y-31627748D01*
X159012252Y-31400013D01*
X158744463Y-31221082D01*
X158446912Y-31097832D01*
X158131033Y-31035000D01*
X157808967Y-31035000D01*
X157493088Y-31097832D01*
X157195537Y-31221082D01*
X156927748Y-31400013D01*
X156700013Y-31627748D01*
X156700000Y-31627767D01*
X156699987Y-31627748D01*
X156472252Y-31400013D01*
X156204463Y-31221082D01*
X155906912Y-31097832D01*
X155591033Y-31035000D01*
X155268967Y-31035000D01*
X154953088Y-31097832D01*
X154655537Y-31221082D01*
X154387748Y-31400013D01*
X154160013Y-31627748D01*
X154160000Y-31627767D01*
X154159987Y-31627748D01*
X153932252Y-31400013D01*
X153664463Y-31221082D01*
X153366912Y-31097832D01*
X153051033Y-31035000D01*
X152728967Y-31035000D01*
X152413088Y-31097832D01*
X152115537Y-31221082D01*
X151847748Y-31400013D01*
X151620013Y-31627748D01*
X151620000Y-31627767D01*
X151619987Y-31627748D01*
X151392252Y-31400013D01*
X151124463Y-31221082D01*
X150826912Y-31097832D01*
X150511033Y-31035000D01*
X150188967Y-31035000D01*
X149873088Y-31097832D01*
X149575537Y-31221082D01*
X149307748Y-31400013D01*
X149080013Y-31627748D01*
X149080000Y-31627767D01*
X149079987Y-31627748D01*
X148852252Y-31400013D01*
X148584463Y-31221082D01*
X148286912Y-31097832D01*
X147971033Y-31035000D01*
X147648967Y-31035000D01*
X147333088Y-31097832D01*
X147035537Y-31221082D01*
X146767748Y-31400013D01*
X146540013Y-31627748D01*
X146540000Y-31627767D01*
X146539987Y-31627748D01*
X146312252Y-31400013D01*
X146044463Y-31221082D01*
X145746912Y-31097832D01*
X145431033Y-31035000D01*
X145108967Y-31035000D01*
X144793088Y-31097832D01*
X144495537Y-31221082D01*
X144227748Y-31400013D01*
X144000013Y-31627748D01*
X144000000Y-31627767D01*
X143999987Y-31627748D01*
X143772252Y-31400013D01*
X143504463Y-31221082D01*
X143206912Y-31097832D01*
X142891033Y-31035000D01*
X142568967Y-31035000D01*
X142253088Y-31097832D01*
X141955537Y-31221082D01*
X141687748Y-31400013D01*
X141460013Y-31627748D01*
X141460000Y-31627767D01*
X141459987Y-31627748D01*
X141232252Y-31400013D01*
X140964463Y-31221082D01*
X140666912Y-31097832D01*
X140351033Y-31035000D01*
X140028967Y-31035000D01*
X139713088Y-31097832D01*
X139415537Y-31221082D01*
X139147748Y-31400013D01*
X138920013Y-31627748D01*
X138920000Y-31627767D01*
X138919987Y-31627748D01*
X138692252Y-31400013D01*
X138424463Y-31221082D01*
X138126912Y-31097832D01*
X137811033Y-31035000D01*
X137488967Y-31035000D01*
X137173088Y-31097832D01*
X136875537Y-31221082D01*
X136607748Y-31400013D01*
X136380013Y-31627748D01*
X136380000Y-31627767D01*
X136379987Y-31627748D01*
X136152252Y-31400013D01*
X135884463Y-31221082D01*
X135586912Y-31097832D01*
X135271033Y-31035000D01*
X134948967Y-31035000D01*
X134633088Y-31097832D01*
X134335537Y-31221082D01*
X134067748Y-31400013D01*
X133840013Y-31627748D01*
X133840000Y-31627767D01*
X133839987Y-31627748D01*
X133612252Y-31400013D01*
X133344463Y-31221082D01*
X133046912Y-31097832D01*
X132731033Y-31035000D01*
X132408967Y-31035000D01*
X132093088Y-31097832D01*
X131795537Y-31221082D01*
X131527748Y-31400013D01*
X131300013Y-31627748D01*
X131300000Y-31627767D01*
X131299987Y-31627748D01*
X131072252Y-31400013D01*
X130804463Y-31221082D01*
X130506912Y-31097832D01*
X130191033Y-31035000D01*
X129868967Y-31035000D01*
X129553088Y-31097832D01*
X129255537Y-31221082D01*
X128987748Y-31400013D01*
X128760013Y-31627748D01*
X128581082Y-31895537D01*
X128457832Y-32193088D01*
X128395000Y-32508967D01*
X123188482Y-32508967D01*
X123067623Y-31901372D01*
X122778533Y-31203446D01*
X122358839Y-30575330D01*
X121824670Y-30041161D01*
X121196554Y-29621467D01*
X120498628Y-29332377D01*
X119757715Y-29185000D01*
X119002285Y-29185000D01*
X118261372Y-29332377D01*
X117563446Y-29621467D01*
X116935330Y-30041161D01*
X116401161Y-30575330D01*
X115981467Y-31203446D01*
X115692377Y-31901372D01*
X115545000Y-32642285D01*
X112445000Y-32642285D01*
X112445000Y-28625000D01*
X179655000Y-28625000D01*
X179655001Y-126966344D01*
G37*
X179655001Y-126966344D02*
X179655000Y-126966354D01*
X179655001Y-130125000D01*
X112445000Y-130125000D01*
X112445000Y-124082285D01*
X115545000Y-124082285D01*
X115545000Y-124837715D01*
X115692377Y-125578628D01*
X115981467Y-126276554D01*
X116401161Y-126904670D01*
X116935330Y-127438839D01*
X117563446Y-127858533D01*
X118261372Y-128147623D01*
X119002285Y-128295000D01*
X119757715Y-128295000D01*
X120498628Y-128147623D01*
X121196554Y-127858533D01*
X121824670Y-127438839D01*
X122358839Y-126904670D01*
X122778533Y-126276554D01*
X123067623Y-125578628D01*
X123215000Y-124837715D01*
X123215000Y-124082285D01*
X123130054Y-123655229D01*
X168885000Y-123655229D01*
X168885000Y-124410659D01*
X169032377Y-125151572D01*
X169321467Y-125849498D01*
X169741161Y-126477614D01*
X170275330Y-127011783D01*
X170903446Y-127431477D01*
X171601372Y-127720567D01*
X172342285Y-127867944D01*
X173097715Y-127867944D01*
X173838628Y-127720567D01*
X174536554Y-127431477D01*
X175164670Y-127011783D01*
X175698839Y-126477614D01*
X176118533Y-125849498D01*
X176407623Y-125151572D01*
X176555000Y-124410659D01*
X176555000Y-123655229D01*
X176407623Y-122914316D01*
X176118533Y-122216390D01*
X175698839Y-121588274D01*
X175164670Y-121054105D01*
X174536554Y-120634411D01*
X173838628Y-120345321D01*
X173097715Y-120197944D01*
X172342285Y-120197944D01*
X171601372Y-120345321D01*
X170903446Y-120634411D01*
X170275330Y-121054105D01*
X169741161Y-121588274D01*
X169321467Y-122216390D01*
X169032377Y-122914316D01*
X168885000Y-123655229D01*
X123130054Y-123655229D01*
X123067623Y-123341372D01*
X122778533Y-122643446D01*
X122358839Y-122015330D01*
X121824670Y-121481161D01*
X121196554Y-121061467D01*
X120498628Y-120772377D01*
X119757715Y-120625000D01*
X119002285Y-120625000D01*
X118261372Y-120772377D01*
X117563446Y-121061467D01*
X116935330Y-121481161D01*
X116401161Y-122015330D01*
X115981467Y-122643446D01*
X115692377Y-123341372D01*
X115545000Y-124082285D01*
X112445000Y-124082285D01*
X112445000Y-116649419D01*
X117445000Y-116649419D01*
X117445000Y-117030581D01*
X117519361Y-117404419D01*
X117665225Y-117756566D01*
X117876987Y-118073491D01*
X118146509Y-118343013D01*
X118463434Y-118554775D01*
X118815581Y-118700639D01*
X119189419Y-118775000D01*
X119570581Y-118775000D01*
X119944419Y-118700639D01*
X120296566Y-118554775D01*
X120613491Y-118343013D01*
X120883013Y-118073491D01*
X121094775Y-117756566D01*
X121240639Y-117404419D01*
X121315000Y-117030581D01*
X121315000Y-116649419D01*
X121240639Y-116275581D01*
X121094775Y-115923434D01*
X120883013Y-115606509D01*
X120816504Y-115540000D01*
X171289928Y-115540000D01*
X171289928Y-118140000D01*
X171302188Y-118264482D01*
X171338498Y-118384180D01*
X171397463Y-118494494D01*
X171476815Y-118591185D01*
X171573506Y-118670537D01*
X171683820Y-118729502D01*
X171803518Y-118765812D01*
X171928000Y-118778072D01*
X174528000Y-118778072D01*
X174652482Y-118765812D01*
X174772180Y-118729502D01*
X174882494Y-118670537D01*
X174979185Y-118591185D01*
X175058537Y-118494494D01*
X175117502Y-118384180D01*
X175153812Y-118264482D01*
X175166072Y-118140000D01*
X175166072Y-115540000D01*
X175153812Y-115415518D01*
X175117502Y-115295820D01*
X175058537Y-115185506D01*
X174979185Y-115088815D01*
X174882494Y-115009463D01*
X174772180Y-114950498D01*
X174652482Y-114914188D01*
X174528000Y-114901928D01*
X171928000Y-114901928D01*
X171803518Y-114914188D01*
X171683820Y-114950498D01*
X171573506Y-115009463D01*
X171476815Y-115088815D01*
X171397463Y-115185506D01*
X171338498Y-115295820D01*
X171302188Y-115415518D01*
X171289928Y-115540000D01*
X120816504Y-115540000D01*
X120613491Y-115336987D01*
X120296566Y-115125225D01*
X119944419Y-114979361D01*
X119570581Y-114905000D01*
X119189419Y-114905000D01*
X118815581Y-114979361D01*
X118463434Y-115125225D01*
X118146509Y-115336987D01*
X117876987Y-115606509D01*
X117665225Y-115923434D01*
X117519361Y-116275581D01*
X117445000Y-116649419D01*
X112445000Y-116649419D01*
X112445000Y-111569419D01*
X117445000Y-111569419D01*
X117445000Y-111950581D01*
X117519361Y-112324419D01*
X117665225Y-112676566D01*
X117876987Y-112993491D01*
X118146509Y-113263013D01*
X118463434Y-113474775D01*
X118815581Y-113620639D01*
X119189419Y-113695000D01*
X119570581Y-113695000D01*
X119944419Y-113620639D01*
X120296566Y-113474775D01*
X120613491Y-113263013D01*
X120883013Y-112993491D01*
X121094775Y-112676566D01*
X121107850Y-112645000D01*
X122766531Y-112645000D01*
X122810000Y-112649281D01*
X122853469Y-112645000D01*
X122853477Y-112645000D01*
X122983490Y-112632195D01*
X123150313Y-112581589D01*
X123304059Y-112499411D01*
X123438817Y-112388817D01*
X123466534Y-112355044D01*
X126986579Y-108835000D01*
X127583344Y-108835000D01*
X127624525Y-108896632D01*
X127831368Y-109103475D01*
X128074589Y-109265990D01*
X128344842Y-109377932D01*
X128631740Y-109435000D01*
X128924260Y-109435000D01*
X129211158Y-109377932D01*
X129481411Y-109265990D01*
X129724632Y-109103475D01*
X129931475Y-108896632D01*
X129972656Y-108835000D01*
X132515182Y-108835000D01*
X132518880Y-108840535D01*
X132713465Y-109035120D01*
X132942273Y-109188005D01*
X133196510Y-109293314D01*
X133466408Y-109347000D01*
X133741592Y-109347000D01*
X134011490Y-109293314D01*
X134265727Y-109188005D01*
X134494535Y-109035120D01*
X134689120Y-108840535D01*
X134842005Y-108611727D01*
X134947314Y-108357490D01*
X135001000Y-108087592D01*
X135001000Y-107812408D01*
X157607000Y-107812408D01*
X157607000Y-108087592D01*
X157660686Y-108357490D01*
X157765995Y-108611727D01*
X157918880Y-108840535D01*
X158113465Y-109035120D01*
X158342273Y-109188005D01*
X158596510Y-109293314D01*
X158866408Y-109347000D01*
X159141592Y-109347000D01*
X159411490Y-109293314D01*
X159665727Y-109188005D01*
X159894535Y-109035120D01*
X160089120Y-108840535D01*
X160092818Y-108835000D01*
X162635344Y-108835000D01*
X162676525Y-108896632D01*
X162883368Y-109103475D01*
X163126589Y-109265990D01*
X163396842Y-109377932D01*
X163683740Y-109435000D01*
X163963422Y-109435000D01*
X166883470Y-112355049D01*
X166911183Y-112388817D01*
X166944951Y-112416530D01*
X166944953Y-112416532D01*
X167016452Y-112475210D01*
X167045941Y-112499411D01*
X167199687Y-112581589D01*
X167366510Y-112632195D01*
X167496523Y-112645000D01*
X167496533Y-112645000D01*
X167539999Y-112649281D01*
X167583465Y-112645000D01*
X171500150Y-112645000D01*
X171513225Y-112676566D01*
X171724987Y-112993491D01*
X171994509Y-113263013D01*
X172311434Y-113474775D01*
X172663581Y-113620639D01*
X173037419Y-113695000D01*
X173418581Y-113695000D01*
X173792419Y-113620639D01*
X174144566Y-113474775D01*
X174461491Y-113263013D01*
X174731013Y-112993491D01*
X174942775Y-112676566D01*
X175088639Y-112324419D01*
X175163000Y-111950581D01*
X175163000Y-111569419D01*
X175088639Y-111195581D01*
X174942775Y-110843434D01*
X174731013Y-110526509D01*
X174461491Y-110256987D01*
X174144566Y-110045225D01*
X173792419Y-109899361D01*
X173418581Y-109825000D01*
X173037419Y-109825000D01*
X172663581Y-109899361D01*
X172311434Y-110045225D01*
X171994509Y-110256987D01*
X171724987Y-110526509D01*
X171513225Y-110843434D01*
X171500150Y-110875000D01*
X167906579Y-110875000D01*
X165283948Y-108252369D01*
X165315000Y-108096260D01*
X165315000Y-108029224D01*
X172058381Y-108029224D01*
X172190317Y-108324312D01*
X172531045Y-108495159D01*
X172898557Y-108596250D01*
X173278729Y-108623701D01*
X173656951Y-108576457D01*
X174018690Y-108456333D01*
X174265683Y-108324312D01*
X174397619Y-108029224D01*
X173228000Y-106859605D01*
X172058381Y-108029224D01*
X165315000Y-108029224D01*
X165315000Y-107803740D01*
X165257932Y-107516842D01*
X165145990Y-107246589D01*
X164983475Y-107003368D01*
X164776632Y-106796525D01*
X164678162Y-106730729D01*
X171284299Y-106730729D01*
X171331543Y-107108951D01*
X171451667Y-107470690D01*
X171583688Y-107717683D01*
X171878776Y-107849619D01*
X173048395Y-106680000D01*
X173407605Y-106680000D01*
X174577224Y-107849619D01*
X174872312Y-107717683D01*
X175043159Y-107376955D01*
X175144250Y-107009443D01*
X175171701Y-106629271D01*
X175124457Y-106251049D01*
X175004333Y-105889310D01*
X174872312Y-105642317D01*
X174577224Y-105510381D01*
X173407605Y-106680000D01*
X173048395Y-106680000D01*
X171878776Y-105510381D01*
X171583688Y-105642317D01*
X171412841Y-105983045D01*
X171311750Y-106350557D01*
X171284299Y-106730729D01*
X164678162Y-106730729D01*
X164594466Y-106674805D01*
X164711355Y-106605178D01*
X164927588Y-106410269D01*
X165101641Y-106176920D01*
X165226825Y-105914099D01*
X165271476Y-105766890D01*
X165150155Y-105537000D01*
X163957000Y-105537000D01*
X163957000Y-105557000D01*
X163703000Y-105557000D01*
X163703000Y-105537000D01*
X162509845Y-105537000D01*
X162388524Y-105766890D01*
X162433175Y-105914099D01*
X162558359Y-106176920D01*
X162732412Y-106410269D01*
X162948645Y-106605178D01*
X163065534Y-106674805D01*
X162883368Y-106796525D01*
X162676525Y-107003368D01*
X162635344Y-107065000D01*
X160092818Y-107065000D01*
X160089120Y-107059465D01*
X159894535Y-106864880D01*
X159665727Y-106711995D01*
X159594057Y-106682308D01*
X159607023Y-106677636D01*
X159722980Y-106615656D01*
X159789960Y-106375565D01*
X159004000Y-105589605D01*
X158218040Y-106375565D01*
X158285020Y-106615656D01*
X158420760Y-106679485D01*
X158342273Y-106711995D01*
X158113465Y-106864880D01*
X157918880Y-107059465D01*
X157765995Y-107288273D01*
X157660686Y-107542510D01*
X157607000Y-107812408D01*
X135001000Y-107812408D01*
X134947314Y-107542510D01*
X134842005Y-107288273D01*
X134689120Y-107059465D01*
X134494535Y-106864880D01*
X134265727Y-106711995D01*
X134194057Y-106682308D01*
X134207023Y-106677636D01*
X134322980Y-106615656D01*
X134389960Y-106375565D01*
X133604000Y-105589605D01*
X132818040Y-106375565D01*
X132885020Y-106615656D01*
X133020760Y-106679485D01*
X132942273Y-106711995D01*
X132713465Y-106864880D01*
X132518880Y-107059465D01*
X132515182Y-107065000D01*
X129972656Y-107065000D01*
X129931475Y-107003368D01*
X129724632Y-106796525D01*
X129542466Y-106674805D01*
X129659355Y-106605178D01*
X129875588Y-106410269D01*
X130049641Y-106176920D01*
X130174825Y-105914099D01*
X130219476Y-105766890D01*
X130098155Y-105537000D01*
X128905000Y-105537000D01*
X128905000Y-105557000D01*
X128651000Y-105557000D01*
X128651000Y-105537000D01*
X127457845Y-105537000D01*
X127336524Y-105766890D01*
X127381175Y-105914099D01*
X127506359Y-106176920D01*
X127680412Y-106410269D01*
X127896645Y-106605178D01*
X128013534Y-106674805D01*
X127831368Y-106796525D01*
X127624525Y-107003368D01*
X127583344Y-107065000D01*
X126663469Y-107065000D01*
X126620000Y-107060719D01*
X126576531Y-107065000D01*
X126576523Y-107065000D01*
X126446510Y-107077805D01*
X126279686Y-107128411D01*
X126125941Y-107210589D01*
X126024953Y-107293468D01*
X126024951Y-107293470D01*
X125991183Y-107321183D01*
X125963470Y-107354951D01*
X122443422Y-110875000D01*
X121107850Y-110875000D01*
X121094775Y-110843434D01*
X120883013Y-110526509D01*
X120613491Y-110256987D01*
X120296566Y-110045225D01*
X119944419Y-109899361D01*
X119570581Y-109825000D01*
X119189419Y-109825000D01*
X118815581Y-109899361D01*
X118463434Y-110045225D01*
X118146509Y-110256987D01*
X117876987Y-110526509D01*
X117665225Y-110843434D01*
X117519361Y-111195581D01*
X117445000Y-111569419D01*
X112445000Y-111569419D01*
X112445000Y-108029224D01*
X118210381Y-108029224D01*
X118342317Y-108324312D01*
X118683045Y-108495159D01*
X119050557Y-108596250D01*
X119430729Y-108623701D01*
X119808951Y-108576457D01*
X120170690Y-108456333D01*
X120417683Y-108324312D01*
X120549619Y-108029224D01*
X119380000Y-106859605D01*
X118210381Y-108029224D01*
X112445000Y-108029224D01*
X112445000Y-106730729D01*
X117436299Y-106730729D01*
X117483543Y-107108951D01*
X117603667Y-107470690D01*
X117735688Y-107717683D01*
X118030776Y-107849619D01*
X119200395Y-106680000D01*
X119559605Y-106680000D01*
X120729224Y-107849619D01*
X121024312Y-107717683D01*
X121195159Y-107376955D01*
X121296250Y-107009443D01*
X121323701Y-106629271D01*
X121276457Y-106251049D01*
X121156333Y-105889310D01*
X121024312Y-105642317D01*
X120729224Y-105510381D01*
X119559605Y-106680000D01*
X119200395Y-106680000D01*
X118030776Y-105510381D01*
X117735688Y-105642317D01*
X117564841Y-105983045D01*
X117463750Y-106350557D01*
X117436299Y-106730729D01*
X112445000Y-106730729D01*
X112445000Y-105330776D01*
X118210381Y-105330776D01*
X119380000Y-106500395D01*
X120398378Y-105482017D01*
X132202090Y-105482017D01*
X132243078Y-105754133D01*
X132336364Y-106013023D01*
X132398344Y-106128980D01*
X132638435Y-106195960D01*
X133424395Y-105410000D01*
X133783605Y-105410000D01*
X134569565Y-106195960D01*
X134809656Y-106128980D01*
X134926756Y-105879952D01*
X134993023Y-105612865D01*
X134999157Y-105482017D01*
X157602090Y-105482017D01*
X157643078Y-105754133D01*
X157736364Y-106013023D01*
X157798344Y-106128980D01*
X158038435Y-106195960D01*
X158824395Y-105410000D01*
X159183605Y-105410000D01*
X159969565Y-106195960D01*
X160209656Y-106128980D01*
X160326756Y-105879952D01*
X160393023Y-105612865D01*
X160405910Y-105337983D01*
X160404825Y-105330776D01*
X172058381Y-105330776D01*
X173228000Y-106500395D01*
X174397619Y-105330776D01*
X174265683Y-105035688D01*
X173924955Y-104864841D01*
X173557443Y-104763750D01*
X173177271Y-104736299D01*
X172799049Y-104783543D01*
X172437310Y-104903667D01*
X172190317Y-105035688D01*
X172058381Y-105330776D01*
X160404825Y-105330776D01*
X160364922Y-105065867D01*
X160271636Y-104806977D01*
X160209656Y-104691020D01*
X159969565Y-104624040D01*
X159183605Y-105410000D01*
X158824395Y-105410000D01*
X158038435Y-104624040D01*
X157798344Y-104691020D01*
X157681244Y-104940048D01*
X157614977Y-105207135D01*
X157602090Y-105482017D01*
X134999157Y-105482017D01*
X135005910Y-105337983D01*
X134964922Y-105065867D01*
X134871636Y-104806977D01*
X134809656Y-104691020D01*
X134569565Y-104624040D01*
X133783605Y-105410000D01*
X133424395Y-105410000D01*
X132638435Y-104624040D01*
X132398344Y-104691020D01*
X132281244Y-104940048D01*
X132214977Y-105207135D01*
X132202090Y-105482017D01*
X120398378Y-105482017D01*
X120549619Y-105330776D01*
X120417683Y-105035688D01*
X120076955Y-104864841D01*
X119709443Y-104763750D01*
X119329271Y-104736299D01*
X118951049Y-104783543D01*
X118589310Y-104903667D01*
X118342317Y-105035688D01*
X118210381Y-105330776D01*
X112445000Y-105330776D01*
X112445000Y-39340000D01*
X117441928Y-39340000D01*
X117441928Y-41940000D01*
X117454188Y-42064482D01*
X117490498Y-42184180D01*
X117549463Y-42294494D01*
X117628815Y-42391185D01*
X117725506Y-42470537D01*
X117835820Y-42529502D01*
X117955518Y-42565812D01*
X118080000Y-42578072D01*
X120243271Y-42578072D01*
X123650001Y-45984803D01*
X123650001Y-48915199D01*
X121175787Y-46440986D01*
X121240639Y-46284419D01*
X121315000Y-45910581D01*
X121315000Y-45529419D01*
X121240639Y-45155581D01*
X121094775Y-44803434D01*
X120883013Y-44486509D01*
X120613491Y-44216987D01*
X120296566Y-44005225D01*
X119944419Y-43859361D01*
X119570581Y-43785000D01*
X119189419Y-43785000D01*
X118815581Y-43859361D01*
X118463434Y-44005225D01*
X118146509Y-44216987D01*
X117876987Y-44486509D01*
X117665225Y-44803434D01*
X117519361Y-45155581D01*
X117445000Y-45529419D01*
X117445000Y-45910581D01*
X117519361Y-46284419D01*
X117665225Y-46636566D01*
X117876987Y-46953491D01*
X118146509Y-47223013D01*
X118463434Y-47434775D01*
X118815581Y-47580639D01*
X119189419Y-47655000D01*
X119570581Y-47655000D01*
X119944419Y-47580639D01*
X120100986Y-47515787D01*
X122790001Y-50204803D01*
X122790001Y-53135199D01*
X121175787Y-51520986D01*
X121240639Y-51364419D01*
X121315000Y-50990581D01*
X121315000Y-50609419D01*
X121240639Y-50235581D01*
X121094775Y-49883434D01*
X120883013Y-49566509D01*
X120613491Y-49296987D01*
X120296566Y-49085225D01*
X119944419Y-48939361D01*
X119570581Y-48865000D01*
X119189419Y-48865000D01*
X118815581Y-48939361D01*
X118463434Y-49085225D01*
X118146509Y-49296987D01*
X117876987Y-49566509D01*
X117665225Y-49883434D01*
X117519361Y-50235581D01*
X117445000Y-50609419D01*
X117445000Y-50990581D01*
X117519361Y-51364419D01*
X117665225Y-51716566D01*
X117876987Y-52033491D01*
X118146509Y-52303013D01*
X118463434Y-52514775D01*
X118815581Y-52660639D01*
X119189419Y-52735000D01*
X119570581Y-52735000D01*
X119944419Y-52660639D01*
X120100986Y-52595787D01*
X122270001Y-54764803D01*
X122270001Y-57695199D01*
X121175787Y-56600986D01*
X121240639Y-56444419D01*
X121315000Y-56070581D01*
X121315000Y-55689419D01*
X121240639Y-55315581D01*
X121094775Y-54963434D01*
X120883013Y-54646509D01*
X120613491Y-54376987D01*
X120296566Y-54165225D01*
X119944419Y-54019361D01*
X119570581Y-53945000D01*
X119189419Y-53945000D01*
X118815581Y-54019361D01*
X118463434Y-54165225D01*
X118146509Y-54376987D01*
X117876987Y-54646509D01*
X117665225Y-54963434D01*
X117519361Y-55315581D01*
X117445000Y-55689419D01*
X117445000Y-56070581D01*
X117519361Y-56444419D01*
X117665225Y-56796566D01*
X117876987Y-57113491D01*
X118146509Y-57383013D01*
X118463434Y-57594775D01*
X118815581Y-57740639D01*
X119189419Y-57815000D01*
X119570581Y-57815000D01*
X119944419Y-57740639D01*
X120100986Y-57675787D01*
X121819990Y-59394792D01*
X121819990Y-62325188D01*
X121175787Y-61680986D01*
X121240639Y-61524419D01*
X121315000Y-61150581D01*
X121315000Y-60769419D01*
X121240639Y-60395581D01*
X121094775Y-60043434D01*
X120883013Y-59726509D01*
X120613491Y-59456987D01*
X120296566Y-59245225D01*
X119944419Y-59099361D01*
X119570581Y-59025000D01*
X119189419Y-59025000D01*
X118815581Y-59099361D01*
X118463434Y-59245225D01*
X118146509Y-59456987D01*
X117876987Y-59726509D01*
X117665225Y-60043434D01*
X117519361Y-60395581D01*
X117445000Y-60769419D01*
X117445000Y-61150581D01*
X117519361Y-61524419D01*
X117665225Y-61876566D01*
X117876987Y-62193491D01*
X118146509Y-62463013D01*
X118463434Y-62674775D01*
X118815581Y-62820639D01*
X119189419Y-62895000D01*
X119570581Y-62895000D01*
X119944419Y-62820639D01*
X120100986Y-62755787D01*
X121145022Y-63799824D01*
X121145022Y-65244741D01*
X121094775Y-65123434D01*
X120883013Y-64806509D01*
X120613491Y-64536987D01*
X120296566Y-64325225D01*
X119944419Y-64179361D01*
X119570581Y-64105000D01*
X119189419Y-64105000D01*
X118815581Y-64179361D01*
X118463434Y-64325225D01*
X118146509Y-64536987D01*
X117876987Y-64806509D01*
X117665225Y-65123434D01*
X117519361Y-65475581D01*
X117445000Y-65849419D01*
X117445000Y-66230581D01*
X117519361Y-66604419D01*
X117665225Y-66956566D01*
X117876987Y-67273491D01*
X118146509Y-67543013D01*
X118463434Y-67754775D01*
X118815581Y-67900639D01*
X119189419Y-67975000D01*
X119570581Y-67975000D01*
X119944419Y-67900639D01*
X120100985Y-67835787D01*
X120695011Y-68429813D01*
X120695011Y-69698507D01*
X120613491Y-69616987D01*
X120296566Y-69405225D01*
X119944419Y-69259361D01*
X119570581Y-69185000D01*
X119189419Y-69185000D01*
X118815581Y-69259361D01*
X118463434Y-69405225D01*
X118146509Y-69616987D01*
X117876987Y-69886509D01*
X117665225Y-70203434D01*
X117519361Y-70555581D01*
X117445000Y-70929419D01*
X117445000Y-71310581D01*
X117519361Y-71684419D01*
X117665225Y-72036566D01*
X117876987Y-72353491D01*
X118146509Y-72623013D01*
X118463434Y-72834775D01*
X118815581Y-72980639D01*
X119189419Y-73055000D01*
X119570581Y-73055000D01*
X119944419Y-72980639D01*
X120100985Y-72915787D01*
X120245001Y-73059804D01*
X120245001Y-74463866D01*
X119944419Y-74339361D01*
X119570581Y-74265000D01*
X119189419Y-74265000D01*
X118815581Y-74339361D01*
X118463434Y-74485225D01*
X118146509Y-74696987D01*
X117876987Y-74966509D01*
X117665225Y-75283434D01*
X117519361Y-75635581D01*
X117445000Y-76009419D01*
X117445000Y-76390581D01*
X117519361Y-76764419D01*
X117665225Y-77116566D01*
X117876987Y-77433491D01*
X118146509Y-77703013D01*
X118463434Y-77914775D01*
X118620000Y-77979627D01*
X118620000Y-78001154D01*
X118616324Y-78038477D01*
X118620000Y-78075799D01*
X118620000Y-78075809D01*
X118630997Y-78187462D01*
X118667261Y-78307011D01*
X118674454Y-78330723D01*
X118745026Y-78462753D01*
X118761161Y-78482413D01*
X118839999Y-78578478D01*
X118869003Y-78602281D01*
X119621937Y-79355215D01*
X119570581Y-79345000D01*
X119189419Y-79345000D01*
X118815581Y-79419361D01*
X118463434Y-79565225D01*
X118146509Y-79776987D01*
X117876987Y-80046509D01*
X117665225Y-80363434D01*
X117519361Y-80715581D01*
X117445000Y-81089419D01*
X117445000Y-81470581D01*
X117519361Y-81844419D01*
X117665225Y-82196566D01*
X117876987Y-82513491D01*
X118146509Y-82783013D01*
X118463434Y-82994775D01*
X118815581Y-83140639D01*
X119189419Y-83215000D01*
X119570581Y-83215000D01*
X119944419Y-83140639D01*
X120100986Y-83075787D01*
X121890001Y-84864803D01*
X121890000Y-86544677D01*
X121886324Y-86582000D01*
X121890000Y-86619322D01*
X121890000Y-86619332D01*
X121900997Y-86730985D01*
X121943166Y-86870000D01*
X121944454Y-86874246D01*
X122015026Y-87006276D01*
X122054871Y-87054826D01*
X122109999Y-87122001D01*
X122139003Y-87145804D01*
X127336790Y-92343592D01*
X127293000Y-92563740D01*
X127293000Y-92690198D01*
X121288186Y-86685385D01*
X121315000Y-86550581D01*
X121315000Y-86169419D01*
X121240639Y-85795581D01*
X121094775Y-85443434D01*
X120883013Y-85126509D01*
X120613491Y-84856987D01*
X120296566Y-84645225D01*
X119944419Y-84499361D01*
X119570581Y-84425000D01*
X119189419Y-84425000D01*
X118815581Y-84499361D01*
X118463434Y-84645225D01*
X118146509Y-84856987D01*
X117876987Y-85126509D01*
X117665225Y-85443434D01*
X117519361Y-85795581D01*
X117445000Y-86169419D01*
X117445000Y-86550581D01*
X117519361Y-86924419D01*
X117665225Y-87276566D01*
X117876987Y-87593491D01*
X118146509Y-87863013D01*
X118463434Y-88074775D01*
X118815581Y-88220639D01*
X119189419Y-88295000D01*
X119570581Y-88295000D01*
X119944419Y-88220639D01*
X120296566Y-88074775D01*
X120435285Y-87982086D01*
X127336790Y-94883592D01*
X127293000Y-95103740D01*
X127293000Y-95396260D01*
X127350068Y-95683158D01*
X127462010Y-95953411D01*
X127624525Y-96196632D01*
X127831368Y-96403475D01*
X128005760Y-96520000D01*
X127831368Y-96636525D01*
X127624525Y-96843368D01*
X127601952Y-96877150D01*
X121653804Y-90929003D01*
X121630001Y-90899999D01*
X121514276Y-90805026D01*
X121382247Y-90734454D01*
X121238986Y-90690997D01*
X121161000Y-90683316D01*
X121094775Y-90523434D01*
X120883013Y-90206509D01*
X120613491Y-89936987D01*
X120296566Y-89725225D01*
X119944419Y-89579361D01*
X119570581Y-89505000D01*
X119189419Y-89505000D01*
X118815581Y-89579361D01*
X118463434Y-89725225D01*
X118146509Y-89936987D01*
X117876987Y-90206509D01*
X117665225Y-90523434D01*
X117519361Y-90875581D01*
X117445000Y-91249419D01*
X117445000Y-91630581D01*
X117519361Y-92004419D01*
X117665225Y-92356566D01*
X117876987Y-92673491D01*
X118146509Y-92943013D01*
X118463434Y-93154775D01*
X118815581Y-93300639D01*
X119189419Y-93375000D01*
X119570581Y-93375000D01*
X119944419Y-93300639D01*
X120296566Y-93154775D01*
X120613491Y-92943013D01*
X120883013Y-92673491D01*
X121029482Y-92454283D01*
X126876200Y-98301002D01*
X126899999Y-98330001D01*
X126928997Y-98353799D01*
X127015723Y-98424974D01*
X127088359Y-98463799D01*
X127147753Y-98495546D01*
X127291014Y-98539003D01*
X127402667Y-98550000D01*
X127402676Y-98550000D01*
X127439999Y-98553676D01*
X127477322Y-98550000D01*
X127499822Y-98550000D01*
X127624525Y-98736632D01*
X127831368Y-98943475D01*
X128005760Y-99060000D01*
X127831368Y-99176525D01*
X127624525Y-99383368D01*
X127499822Y-99570000D01*
X124744802Y-99570000D01*
X121268016Y-96093215D01*
X121240639Y-95955581D01*
X121094775Y-95603434D01*
X120883013Y-95286509D01*
X120613491Y-95016987D01*
X120296566Y-94805225D01*
X119944419Y-94659361D01*
X119570581Y-94585000D01*
X119189419Y-94585000D01*
X118815581Y-94659361D01*
X118463434Y-94805225D01*
X118146509Y-95016987D01*
X117876987Y-95286509D01*
X117665225Y-95603434D01*
X117519361Y-95955581D01*
X117445000Y-96329419D01*
X117445000Y-96710581D01*
X117519361Y-97084419D01*
X117665225Y-97436566D01*
X117876987Y-97753491D01*
X118146509Y-98023013D01*
X118463434Y-98234775D01*
X118815581Y-98380639D01*
X119189419Y-98455000D01*
X119570581Y-98455000D01*
X119944419Y-98380639D01*
X120296566Y-98234775D01*
X120613491Y-98023013D01*
X120830851Y-97805653D01*
X123866201Y-100841003D01*
X123889999Y-100870001D01*
X124005724Y-100964974D01*
X124137753Y-101035546D01*
X124281014Y-101079003D01*
X124392667Y-101090000D01*
X124392675Y-101090000D01*
X124430000Y-101093676D01*
X124467325Y-101090000D01*
X127499822Y-101090000D01*
X127624525Y-101276632D01*
X127831368Y-101483475D01*
X128005760Y-101600000D01*
X127831368Y-101716525D01*
X127624525Y-101923368D01*
X127499822Y-102110000D01*
X121251464Y-102110000D01*
X121315000Y-101790581D01*
X121315000Y-101409419D01*
X121240639Y-101035581D01*
X121094775Y-100683434D01*
X120883013Y-100366509D01*
X120613491Y-100096987D01*
X120296566Y-99885225D01*
X119944419Y-99739361D01*
X119570581Y-99665000D01*
X119189419Y-99665000D01*
X118815581Y-99739361D01*
X118463434Y-99885225D01*
X118146509Y-100096987D01*
X117876987Y-100366509D01*
X117665225Y-100683434D01*
X117519361Y-101035581D01*
X117445000Y-101409419D01*
X117445000Y-101790581D01*
X117519361Y-102164419D01*
X117665225Y-102516566D01*
X117876987Y-102833491D01*
X118146509Y-103103013D01*
X118463434Y-103314775D01*
X118815581Y-103460639D01*
X119189419Y-103535000D01*
X119570581Y-103535000D01*
X119944419Y-103460639D01*
X120099007Y-103396607D01*
X120109999Y-103410001D01*
X120225724Y-103504974D01*
X120357753Y-103575546D01*
X120501014Y-103619003D01*
X120612667Y-103630000D01*
X120612676Y-103630000D01*
X120649999Y-103633676D01*
X120687322Y-103630000D01*
X127499822Y-103630000D01*
X127624525Y-103816632D01*
X127831368Y-104023475D01*
X128013534Y-104145195D01*
X127896645Y-104214822D01*
X127680412Y-104409731D01*
X127506359Y-104643080D01*
X127381175Y-104905901D01*
X127336524Y-105053110D01*
X127457845Y-105283000D01*
X128651000Y-105283000D01*
X128651000Y-105263000D01*
X128905000Y-105263000D01*
X128905000Y-105283000D01*
X130098155Y-105283000D01*
X130219476Y-105053110D01*
X130174825Y-104905901D01*
X130049641Y-104643080D01*
X129875588Y-104409731D01*
X129659355Y-104214822D01*
X129542466Y-104145195D01*
X129724632Y-104023475D01*
X129931475Y-103816632D01*
X130056178Y-103630000D01*
X132431659Y-103630000D01*
X132518880Y-103760535D01*
X132713465Y-103955120D01*
X132942273Y-104108005D01*
X133013943Y-104137692D01*
X133000977Y-104142364D01*
X132885020Y-104204344D01*
X132818040Y-104444435D01*
X133604000Y-105230395D01*
X134389960Y-104444435D01*
X134322980Y-104204344D01*
X134187240Y-104140515D01*
X134265727Y-104108005D01*
X134494535Y-103955120D01*
X134689120Y-103760535D01*
X134842005Y-103531727D01*
X134947314Y-103277490D01*
X135001000Y-103007592D01*
X135001000Y-102732408D01*
X134947314Y-102462510D01*
X134842005Y-102208273D01*
X134689120Y-101979465D01*
X134494535Y-101784880D01*
X134265727Y-101631995D01*
X134188485Y-101600000D01*
X134265727Y-101568005D01*
X134494535Y-101415120D01*
X134689120Y-101220535D01*
X134842005Y-100991727D01*
X134947314Y-100737490D01*
X135001000Y-100467592D01*
X135001000Y-100192408D01*
X134947314Y-99922510D01*
X134842005Y-99668273D01*
X134689120Y-99439465D01*
X134494535Y-99244880D01*
X134265727Y-99091995D01*
X134188485Y-99060000D01*
X134265727Y-99028005D01*
X134494535Y-98875120D01*
X134689120Y-98680535D01*
X134842005Y-98451727D01*
X134947314Y-98197490D01*
X135001000Y-97927592D01*
X135001000Y-97652408D01*
X134947314Y-97382510D01*
X134842005Y-97128273D01*
X134689120Y-96899465D01*
X134494535Y-96704880D01*
X134265727Y-96551995D01*
X134188485Y-96520000D01*
X134265727Y-96488005D01*
X134494535Y-96335120D01*
X134689120Y-96140535D01*
X134842005Y-95911727D01*
X134947314Y-95657490D01*
X135001000Y-95387592D01*
X135001000Y-95112408D01*
X134947314Y-94842510D01*
X134842005Y-94588273D01*
X134689120Y-94359465D01*
X134494535Y-94164880D01*
X134265727Y-94011995D01*
X134188485Y-93980000D01*
X134265727Y-93948005D01*
X134494535Y-93795120D01*
X134689120Y-93600535D01*
X134842005Y-93371727D01*
X134947314Y-93117490D01*
X135001000Y-92847592D01*
X135001000Y-92572408D01*
X134947314Y-92302510D01*
X134842005Y-92048273D01*
X134689120Y-91819465D01*
X134494535Y-91624880D01*
X134265727Y-91471995D01*
X134188485Y-91440000D01*
X134265727Y-91408005D01*
X134494535Y-91255120D01*
X134689120Y-91060535D01*
X134842005Y-90831727D01*
X134947314Y-90577490D01*
X135001000Y-90307592D01*
X135001000Y-90032408D01*
X134947314Y-89762510D01*
X134842005Y-89508273D01*
X134689120Y-89279465D01*
X134494535Y-89084880D01*
X134265727Y-88931995D01*
X134188485Y-88900000D01*
X134265727Y-88868005D01*
X134494535Y-88715120D01*
X134689120Y-88520535D01*
X134842005Y-88291727D01*
X134947314Y-88037490D01*
X135001000Y-87767592D01*
X135001000Y-87492408D01*
X134947314Y-87222510D01*
X134842005Y-86968273D01*
X134689120Y-86739465D01*
X134494535Y-86544880D01*
X134265727Y-86391995D01*
X134188485Y-86360000D01*
X134265727Y-86328005D01*
X134494535Y-86175120D01*
X134689120Y-85980535D01*
X134842005Y-85751727D01*
X134947314Y-85497490D01*
X135001000Y-85227592D01*
X135001000Y-84952408D01*
X134947314Y-84682510D01*
X134842005Y-84428273D01*
X134689120Y-84199465D01*
X134494535Y-84004880D01*
X134265727Y-83851995D01*
X134188485Y-83820000D01*
X134265727Y-83788005D01*
X134494535Y-83635120D01*
X134689120Y-83440535D01*
X134842005Y-83211727D01*
X134947314Y-82957490D01*
X135001000Y-82687592D01*
X135001000Y-82412408D01*
X134947314Y-82142510D01*
X134842005Y-81888273D01*
X134689120Y-81659465D01*
X134494535Y-81464880D01*
X134265727Y-81311995D01*
X134188485Y-81280000D01*
X134265727Y-81248005D01*
X134494535Y-81095120D01*
X134689120Y-80900535D01*
X134842005Y-80671727D01*
X134947314Y-80417490D01*
X135001000Y-80147592D01*
X135001000Y-79872408D01*
X134947314Y-79602510D01*
X134842005Y-79348273D01*
X134689120Y-79119465D01*
X134494535Y-78924880D01*
X134265727Y-78771995D01*
X134188485Y-78740000D01*
X134265727Y-78708005D01*
X134494535Y-78555120D01*
X134689120Y-78360535D01*
X134842005Y-78131727D01*
X134947314Y-77877490D01*
X135001000Y-77607592D01*
X135001000Y-77332408D01*
X134947314Y-77062510D01*
X134842005Y-76808273D01*
X134689120Y-76579465D01*
X134494535Y-76384880D01*
X134265727Y-76231995D01*
X134188485Y-76200000D01*
X134265727Y-76168005D01*
X134494535Y-76015120D01*
X134689120Y-75820535D01*
X134842005Y-75591727D01*
X134947314Y-75337490D01*
X135001000Y-75067592D01*
X135001000Y-74792408D01*
X134947314Y-74522510D01*
X134842005Y-74268273D01*
X134689120Y-74039465D01*
X134494535Y-73844880D01*
X134406535Y-73786080D01*
X134490482Y-73777812D01*
X134610180Y-73741502D01*
X134720494Y-73682537D01*
X134817185Y-73603185D01*
X134896537Y-73506494D01*
X134955502Y-73396180D01*
X134991812Y-73276482D01*
X135004072Y-73152000D01*
X135004072Y-71628000D01*
X134991812Y-71503518D01*
X134955502Y-71383820D01*
X134896537Y-71273506D01*
X134817185Y-71176815D01*
X134720494Y-71097463D01*
X134610180Y-71038498D01*
X134490482Y-71002188D01*
X134366000Y-70989928D01*
X132842000Y-70989928D01*
X132717518Y-71002188D01*
X132597820Y-71038498D01*
X132487506Y-71097463D01*
X132390815Y-71176815D01*
X132311463Y-71273506D01*
X132252498Y-71383820D01*
X132216188Y-71503518D01*
X132203928Y-71628000D01*
X132203928Y-71630000D01*
X130266072Y-71630000D01*
X130266072Y-71540000D01*
X130253812Y-71415518D01*
X130217502Y-71295820D01*
X130158537Y-71185506D01*
X130079185Y-71088815D01*
X129982494Y-71009463D01*
X129872180Y-70950498D01*
X129752482Y-70914188D01*
X129628000Y-70901928D01*
X127928000Y-70901928D01*
X127803518Y-70914188D01*
X127683820Y-70950498D01*
X127573506Y-71009463D01*
X127476815Y-71088815D01*
X127397463Y-71185506D01*
X127381037Y-71216236D01*
X125170000Y-69005199D01*
X125170000Y-67056000D01*
X137033000Y-67056000D01*
X137033000Y-73152000D01*
X137035440Y-73176776D01*
X137042667Y-73200601D01*
X137054403Y-73222557D01*
X137070197Y-73241803D01*
X137089443Y-73257597D01*
X137111399Y-73269333D01*
X137135224Y-73276560D01*
X137160000Y-73279000D01*
X155956000Y-73279000D01*
X155980776Y-73276560D01*
X156004601Y-73269333D01*
X156026557Y-73257597D01*
X156045803Y-73241803D01*
X156061597Y-73222557D01*
X156073333Y-73200601D01*
X156080560Y-73176776D01*
X156083000Y-73152000D01*
X156083000Y-72252408D01*
X157607000Y-72252408D01*
X157607000Y-72527592D01*
X157660686Y-72797490D01*
X157765995Y-73051727D01*
X157918880Y-73280535D01*
X158113465Y-73475120D01*
X158342273Y-73628005D01*
X158419515Y-73660000D01*
X158342273Y-73691995D01*
X158113465Y-73844880D01*
X157918880Y-74039465D01*
X157765995Y-74268273D01*
X157660686Y-74522510D01*
X157607000Y-74792408D01*
X157607000Y-75067592D01*
X157660686Y-75337490D01*
X157765995Y-75591727D01*
X157918880Y-75820535D01*
X158113465Y-76015120D01*
X158342273Y-76168005D01*
X158419515Y-76200000D01*
X158342273Y-76231995D01*
X158113465Y-76384880D01*
X157918880Y-76579465D01*
X157765995Y-76808273D01*
X157660686Y-77062510D01*
X157607000Y-77332408D01*
X157607000Y-77607592D01*
X157660686Y-77877490D01*
X157765995Y-78131727D01*
X157918880Y-78360535D01*
X158113465Y-78555120D01*
X158342273Y-78708005D01*
X158419515Y-78740000D01*
X158342273Y-78771995D01*
X158113465Y-78924880D01*
X157918880Y-79119465D01*
X157765995Y-79348273D01*
X157660686Y-79602510D01*
X157607000Y-79872408D01*
X157607000Y-80147592D01*
X157660686Y-80417490D01*
X157765995Y-80671727D01*
X157918880Y-80900535D01*
X158113465Y-81095120D01*
X158342273Y-81248005D01*
X158419515Y-81280000D01*
X158342273Y-81311995D01*
X158113465Y-81464880D01*
X157918880Y-81659465D01*
X157765995Y-81888273D01*
X157660686Y-82142510D01*
X157607000Y-82412408D01*
X157607000Y-82687592D01*
X157660686Y-82957490D01*
X157765995Y-83211727D01*
X157918880Y-83440535D01*
X158113465Y-83635120D01*
X158342273Y-83788005D01*
X158419515Y-83820000D01*
X158342273Y-83851995D01*
X158113465Y-84004880D01*
X157918880Y-84199465D01*
X157765995Y-84428273D01*
X157660686Y-84682510D01*
X157607000Y-84952408D01*
X157607000Y-85227592D01*
X157660686Y-85497490D01*
X157765995Y-85751727D01*
X157918880Y-85980535D01*
X158113465Y-86175120D01*
X158342273Y-86328005D01*
X158419515Y-86360000D01*
X158342273Y-86391995D01*
X158113465Y-86544880D01*
X157918880Y-86739465D01*
X157765995Y-86968273D01*
X157660686Y-87222510D01*
X157607000Y-87492408D01*
X157607000Y-87767592D01*
X157660686Y-88037490D01*
X157765995Y-88291727D01*
X157918880Y-88520535D01*
X158113465Y-88715120D01*
X158342273Y-88868005D01*
X158419515Y-88900000D01*
X158342273Y-88931995D01*
X158113465Y-89084880D01*
X157918880Y-89279465D01*
X157765995Y-89508273D01*
X157660686Y-89762510D01*
X157607000Y-90032408D01*
X157607000Y-90307592D01*
X157660686Y-90577490D01*
X157765995Y-90831727D01*
X157918880Y-91060535D01*
X158113465Y-91255120D01*
X158342273Y-91408005D01*
X158419515Y-91440000D01*
X158342273Y-91471995D01*
X158113465Y-91624880D01*
X157918880Y-91819465D01*
X157765995Y-92048273D01*
X157660686Y-92302510D01*
X157607000Y-92572408D01*
X157607000Y-92847592D01*
X157660686Y-93117490D01*
X157765995Y-93371727D01*
X157918880Y-93600535D01*
X158113465Y-93795120D01*
X158342273Y-93948005D01*
X158419515Y-93980000D01*
X158342273Y-94011995D01*
X158113465Y-94164880D01*
X157918880Y-94359465D01*
X157765995Y-94588273D01*
X157660686Y-94842510D01*
X157607000Y-95112408D01*
X157607000Y-95387592D01*
X157660686Y-95657490D01*
X157765995Y-95911727D01*
X157918880Y-96140535D01*
X158113465Y-96335120D01*
X158342273Y-96488005D01*
X158419515Y-96520000D01*
X158342273Y-96551995D01*
X158113465Y-96704880D01*
X157918880Y-96899465D01*
X157765995Y-97128273D01*
X157660686Y-97382510D01*
X157607000Y-97652408D01*
X157607000Y-97927592D01*
X157660686Y-98197490D01*
X157765995Y-98451727D01*
X157918880Y-98680535D01*
X158113465Y-98875120D01*
X158342273Y-99028005D01*
X158419515Y-99060000D01*
X158342273Y-99091995D01*
X158113465Y-99244880D01*
X157918880Y-99439465D01*
X157765995Y-99668273D01*
X157660686Y-99922510D01*
X157607000Y-100192408D01*
X157607000Y-100467592D01*
X157660686Y-100737490D01*
X157765995Y-100991727D01*
X157918880Y-101220535D01*
X158113465Y-101415120D01*
X158342273Y-101568005D01*
X158419515Y-101600000D01*
X158342273Y-101631995D01*
X158113465Y-101784880D01*
X157918880Y-101979465D01*
X157765995Y-102208273D01*
X157660686Y-102462510D01*
X157607000Y-102732408D01*
X157607000Y-103007592D01*
X157660686Y-103277490D01*
X157765995Y-103531727D01*
X157918880Y-103760535D01*
X158113465Y-103955120D01*
X158342273Y-104108005D01*
X158413943Y-104137692D01*
X158400977Y-104142364D01*
X158285020Y-104204344D01*
X158218040Y-104444435D01*
X159004000Y-105230395D01*
X159789960Y-104444435D01*
X159722980Y-104204344D01*
X159587240Y-104140515D01*
X159665727Y-104108005D01*
X159894535Y-103955120D01*
X160089120Y-103760535D01*
X160176341Y-103630000D01*
X162551822Y-103630000D01*
X162676525Y-103816632D01*
X162883368Y-104023475D01*
X163065534Y-104145195D01*
X162948645Y-104214822D01*
X162732412Y-104409731D01*
X162558359Y-104643080D01*
X162433175Y-104905901D01*
X162388524Y-105053110D01*
X162509845Y-105283000D01*
X163703000Y-105283000D01*
X163703000Y-105263000D01*
X163957000Y-105263000D01*
X163957000Y-105283000D01*
X165150155Y-105283000D01*
X165271476Y-105053110D01*
X165226825Y-104905901D01*
X165101641Y-104643080D01*
X164927588Y-104409731D01*
X164711355Y-104214822D01*
X164594466Y-104145195D01*
X164776632Y-104023475D01*
X164983475Y-103816632D01*
X165108178Y-103630000D01*
X165312678Y-103630000D01*
X165350000Y-103633676D01*
X165387322Y-103630000D01*
X165387333Y-103630000D01*
X165498986Y-103619003D01*
X165642247Y-103575546D01*
X165774276Y-103504974D01*
X165890001Y-103410001D01*
X165913804Y-103380997D01*
X166934802Y-102360000D01*
X171448373Y-102360000D01*
X171513225Y-102516566D01*
X171724987Y-102833491D01*
X171994509Y-103103013D01*
X172311434Y-103314775D01*
X172663581Y-103460639D01*
X173037419Y-103535000D01*
X173418581Y-103535000D01*
X173792419Y-103460639D01*
X174144566Y-103314775D01*
X174461491Y-103103013D01*
X174731013Y-102833491D01*
X174942775Y-102516566D01*
X175088639Y-102164419D01*
X175163000Y-101790581D01*
X175163000Y-101409419D01*
X175088639Y-101035581D01*
X174942775Y-100683434D01*
X174731013Y-100366509D01*
X174461491Y-100096987D01*
X174144566Y-99885225D01*
X173792419Y-99739361D01*
X173418581Y-99665000D01*
X173037419Y-99665000D01*
X172663581Y-99739361D01*
X172311434Y-99885225D01*
X171994509Y-100096987D01*
X171724987Y-100366509D01*
X171513225Y-100683434D01*
X171448373Y-100840000D01*
X169982801Y-100840000D01*
X172507015Y-98315787D01*
X172663581Y-98380639D01*
X173037419Y-98455000D01*
X173418581Y-98455000D01*
X173792419Y-98380639D01*
X174144566Y-98234775D01*
X174461491Y-98023013D01*
X174731013Y-97753491D01*
X174942775Y-97436566D01*
X175088639Y-97084419D01*
X175163000Y-96710581D01*
X175163000Y-96329419D01*
X175088639Y-95955581D01*
X174942775Y-95603434D01*
X174731013Y-95286509D01*
X174461491Y-95016987D01*
X174144566Y-94805225D01*
X173792419Y-94659361D01*
X173418581Y-94585000D01*
X173037419Y-94585000D01*
X172663581Y-94659361D01*
X172410690Y-94764112D01*
X173739004Y-93435798D01*
X173768001Y-93412001D01*
X173862974Y-93296276D01*
X173880042Y-93264344D01*
X174144566Y-93154775D01*
X174461491Y-92943013D01*
X174731013Y-92673491D01*
X174942775Y-92356566D01*
X175088639Y-92004419D01*
X175163000Y-91630581D01*
X175163000Y-91249419D01*
X175088639Y-90875581D01*
X174942775Y-90523434D01*
X174731013Y-90206509D01*
X174461491Y-89936987D01*
X174144566Y-89725225D01*
X173792419Y-89579361D01*
X173418581Y-89505000D01*
X173099802Y-89505000D01*
X173739004Y-88865798D01*
X173768001Y-88842001D01*
X173862974Y-88726276D01*
X173933546Y-88594247D01*
X173977003Y-88450986D01*
X173988000Y-88339333D01*
X173988000Y-88339323D01*
X173991676Y-88302000D01*
X173988000Y-88264677D01*
X173988000Y-88139627D01*
X174144566Y-88074775D01*
X174461491Y-87863013D01*
X174731013Y-87593491D01*
X174942775Y-87276566D01*
X175088639Y-86924419D01*
X175163000Y-86550581D01*
X175163000Y-86169419D01*
X175088639Y-85795581D01*
X174942775Y-85443434D01*
X174731013Y-85126509D01*
X174461491Y-84856987D01*
X174144566Y-84645225D01*
X173792419Y-84499361D01*
X173418581Y-84425000D01*
X173189802Y-84425000D01*
X173739004Y-83875798D01*
X173768001Y-83852001D01*
X173832007Y-83774010D01*
X173862974Y-83736277D01*
X173933546Y-83604247D01*
X173942252Y-83575546D01*
X173977003Y-83460986D01*
X173988000Y-83349333D01*
X173988000Y-83349324D01*
X173991676Y-83312001D01*
X173988000Y-83274678D01*
X173988000Y-83059627D01*
X174144566Y-82994775D01*
X174461491Y-82783013D01*
X174731013Y-82513491D01*
X174942775Y-82196566D01*
X175088639Y-81844419D01*
X175163000Y-81470581D01*
X175163000Y-81089419D01*
X175088639Y-80715581D01*
X174942775Y-80363434D01*
X174731013Y-80046509D01*
X174461491Y-79776987D01*
X174144566Y-79565225D01*
X173792419Y-79419361D01*
X173418581Y-79345000D01*
X173037419Y-79345000D01*
X172986063Y-79355215D01*
X173739004Y-78602275D01*
X173768001Y-78578478D01*
X173804985Y-78533413D01*
X173862974Y-78462754D01*
X173933546Y-78330724D01*
X173933546Y-78330723D01*
X173977003Y-78187463D01*
X173988000Y-78075810D01*
X173988000Y-78075801D01*
X173991676Y-78038478D01*
X173988000Y-78001155D01*
X173988000Y-77979627D01*
X174144566Y-77914775D01*
X174461491Y-77703013D01*
X174731013Y-77433491D01*
X174942775Y-77116566D01*
X175088639Y-76764419D01*
X175163000Y-76390581D01*
X175163000Y-76009419D01*
X175088639Y-75635581D01*
X174942775Y-75283434D01*
X174731013Y-74966509D01*
X174461491Y-74696987D01*
X174144566Y-74485225D01*
X173792419Y-74339361D01*
X173418581Y-74265000D01*
X173037419Y-74265000D01*
X172663581Y-74339361D01*
X172362999Y-74463866D01*
X172362999Y-73059802D01*
X172507014Y-72915787D01*
X172663581Y-72980639D01*
X173037419Y-73055000D01*
X173418581Y-73055000D01*
X173792419Y-72980639D01*
X174144566Y-72834775D01*
X174461491Y-72623013D01*
X174731013Y-72353491D01*
X174942775Y-72036566D01*
X175088639Y-71684419D01*
X175163000Y-71310581D01*
X175163000Y-70929419D01*
X175088639Y-70555581D01*
X174942775Y-70203434D01*
X174731013Y-69886509D01*
X174461491Y-69616987D01*
X174144566Y-69405225D01*
X173792419Y-69259361D01*
X173418581Y-69185000D01*
X173037419Y-69185000D01*
X172986063Y-69195215D01*
X173739004Y-68442275D01*
X173768001Y-68418478D01*
X173794332Y-68386394D01*
X173862974Y-68302754D01*
X173933546Y-68170724D01*
X173946605Y-68127672D01*
X173977003Y-68027463D01*
X173988000Y-67915810D01*
X173988000Y-67915801D01*
X173991676Y-67878478D01*
X173988000Y-67841155D01*
X173988000Y-67819627D01*
X174144566Y-67754775D01*
X174461491Y-67543013D01*
X174731013Y-67273491D01*
X174942775Y-66956566D01*
X175088639Y-66604419D01*
X175163000Y-66230581D01*
X175163000Y-65849419D01*
X175088639Y-65475581D01*
X174942775Y-65123434D01*
X174731013Y-64806509D01*
X174461491Y-64536987D01*
X174144566Y-64325225D01*
X173792419Y-64179361D01*
X173418581Y-64105000D01*
X173037419Y-64105000D01*
X172663581Y-64179361D01*
X172362999Y-64303866D01*
X172362999Y-62899802D01*
X172507014Y-62755787D01*
X172663581Y-62820639D01*
X173037419Y-62895000D01*
X173418581Y-62895000D01*
X173792419Y-62820639D01*
X174144566Y-62674775D01*
X174461491Y-62463013D01*
X174731013Y-62193491D01*
X174942775Y-61876566D01*
X175088639Y-61524419D01*
X175163000Y-61150581D01*
X175163000Y-60769419D01*
X175088639Y-60395581D01*
X174942775Y-60043434D01*
X174731013Y-59726509D01*
X174461491Y-59456987D01*
X174144566Y-59245225D01*
X173792419Y-59099361D01*
X173418581Y-59025000D01*
X173037419Y-59025000D01*
X172663581Y-59099361D01*
X172311434Y-59245225D01*
X171994509Y-59456987D01*
X171912988Y-59538508D01*
X171912988Y-58269813D01*
X172507014Y-57675787D01*
X172663581Y-57740639D01*
X173037419Y-57815000D01*
X173418581Y-57815000D01*
X173792419Y-57740639D01*
X174144566Y-57594775D01*
X174461491Y-57383013D01*
X174731013Y-57113491D01*
X174942775Y-56796566D01*
X175088639Y-56444419D01*
X175163000Y-56070581D01*
X175163000Y-55689419D01*
X175088639Y-55315581D01*
X174942775Y-54963434D01*
X174731013Y-54646509D01*
X174461491Y-54376987D01*
X174144566Y-54165225D01*
X173792419Y-54019361D01*
X173418581Y-53945000D01*
X173037419Y-53945000D01*
X172663581Y-54019361D01*
X172311434Y-54165225D01*
X171994509Y-54376987D01*
X171724987Y-54646509D01*
X171513225Y-54963434D01*
X171462977Y-55084743D01*
X171462977Y-53639824D01*
X172507014Y-52595787D01*
X172663581Y-52660639D01*
X173037419Y-52735000D01*
X173418581Y-52735000D01*
X173792419Y-52660639D01*
X174144566Y-52514775D01*
X174461491Y-52303013D01*
X174731013Y-52033491D01*
X174942775Y-51716566D01*
X175088639Y-51364419D01*
X175163000Y-50990581D01*
X175163000Y-50609419D01*
X175088639Y-50235581D01*
X174942775Y-49883434D01*
X174731013Y-49566509D01*
X174461491Y-49296987D01*
X174144566Y-49085225D01*
X173792419Y-48939361D01*
X173418581Y-48865000D01*
X173037419Y-48865000D01*
X172663581Y-48939361D01*
X172311434Y-49085225D01*
X171994509Y-49296987D01*
X171724987Y-49566509D01*
X171513225Y-49883434D01*
X171367361Y-50235581D01*
X171293000Y-50609419D01*
X171293000Y-50990581D01*
X171367361Y-51364419D01*
X171432213Y-51520986D01*
X171012966Y-51940233D01*
X171012966Y-49009835D01*
X172507015Y-47515787D01*
X172663581Y-47580639D01*
X173037419Y-47655000D01*
X173418581Y-47655000D01*
X173792419Y-47580639D01*
X174144566Y-47434775D01*
X174461491Y-47223013D01*
X174731013Y-46953491D01*
X174942775Y-46636566D01*
X175088639Y-46284419D01*
X175163000Y-45910581D01*
X175163000Y-45529419D01*
X175088639Y-45155581D01*
X174942775Y-44803434D01*
X174731013Y-44486509D01*
X174461491Y-44216987D01*
X174144566Y-44005225D01*
X173792419Y-43859361D01*
X173418581Y-43785000D01*
X173037419Y-43785000D01*
X172663581Y-43859361D01*
X172311434Y-44005225D01*
X171994509Y-44216987D01*
X171724987Y-44486509D01*
X171513225Y-44803434D01*
X171367361Y-45155581D01*
X171293000Y-45529419D01*
X171293000Y-45910581D01*
X171367361Y-46284419D01*
X171432213Y-46440985D01*
X170562955Y-47310243D01*
X170562955Y-44379846D01*
X172507015Y-42435787D01*
X172663581Y-42500639D01*
X173037419Y-42575000D01*
X173418581Y-42575000D01*
X173792419Y-42500639D01*
X174144566Y-42354775D01*
X174461491Y-42143013D01*
X174731013Y-41873491D01*
X174942775Y-41556566D01*
X175088639Y-41204419D01*
X175163000Y-40830581D01*
X175163000Y-40449419D01*
X175088639Y-40075581D01*
X174942775Y-39723434D01*
X174731013Y-39406509D01*
X174461491Y-39136987D01*
X174144566Y-38925225D01*
X173792419Y-38779361D01*
X173418581Y-38705000D01*
X173037419Y-38705000D01*
X172663581Y-38779361D01*
X172311434Y-38925225D01*
X171994509Y-39136987D01*
X171724987Y-39406509D01*
X171513225Y-39723434D01*
X171367361Y-40075581D01*
X171293000Y-40449419D01*
X171293000Y-40830581D01*
X171367361Y-41204419D01*
X171432213Y-41360985D01*
X169291953Y-43501246D01*
X169262955Y-43525044D01*
X169239157Y-43554042D01*
X169239156Y-43554043D01*
X169167981Y-43640769D01*
X169097409Y-43772799D01*
X169053953Y-43916060D01*
X169039279Y-44065045D01*
X169042956Y-44102378D01*
X169042955Y-67702243D01*
X165307952Y-71437247D01*
X165305812Y-71415518D01*
X165269502Y-71295820D01*
X165210537Y-71185506D01*
X165131185Y-71088815D01*
X165034494Y-71009463D01*
X164924180Y-70950498D01*
X164804482Y-70914188D01*
X164680000Y-70901928D01*
X162980000Y-70901928D01*
X162855518Y-70914188D01*
X162735820Y-70950498D01*
X162625506Y-71009463D01*
X162528815Y-71088815D01*
X162449463Y-71185506D01*
X162390498Y-71295820D01*
X162354188Y-71415518D01*
X162341928Y-71540000D01*
X162341928Y-71630000D01*
X160176341Y-71630000D01*
X160089120Y-71499465D01*
X159894535Y-71304880D01*
X159665727Y-71151995D01*
X159411490Y-71046686D01*
X159141592Y-70993000D01*
X158866408Y-70993000D01*
X158596510Y-71046686D01*
X158342273Y-71151995D01*
X158113465Y-71304880D01*
X157918880Y-71499465D01*
X157765995Y-71728273D01*
X157660686Y-71982510D01*
X157607000Y-72252408D01*
X156083000Y-72252408D01*
X156083000Y-67056000D01*
X156080560Y-67031224D01*
X156073333Y-67007399D01*
X156061597Y-66985443D01*
X156045803Y-66966197D01*
X156026557Y-66950403D01*
X156004601Y-66938667D01*
X155980776Y-66931440D01*
X155956000Y-66929000D01*
X137160000Y-66929000D01*
X137135224Y-66931440D01*
X137111399Y-66938667D01*
X137089443Y-66950403D01*
X137070197Y-66966197D01*
X137054403Y-66985443D01*
X137042667Y-67007399D01*
X137035440Y-67031224D01*
X137033000Y-67056000D01*
X125170000Y-67056000D01*
X125170000Y-45707322D01*
X125173676Y-45669999D01*
X125170000Y-45632676D01*
X125170000Y-45632667D01*
X125159003Y-45521014D01*
X125115546Y-45377753D01*
X125044974Y-45245724D01*
X124950001Y-45129999D01*
X124921003Y-45106201D01*
X121318072Y-41503271D01*
X121318072Y-39340000D01*
X121305812Y-39215518D01*
X121269502Y-39095820D01*
X121210537Y-38985506D01*
X121131185Y-38888815D01*
X121034494Y-38809463D01*
X120924180Y-38750498D01*
X120804482Y-38714188D01*
X120680000Y-38701928D01*
X118080000Y-38701928D01*
X117955518Y-38714188D01*
X117835820Y-38750498D01*
X117725506Y-38809463D01*
X117628815Y-38888815D01*
X117549463Y-38985506D01*
X117490498Y-39095820D01*
X117454188Y-39215518D01*
X117441928Y-39340000D01*
X112445000Y-39340000D01*
X112445000Y-32642285D01*
X115545000Y-32642285D01*
X115545000Y-33397715D01*
X115692377Y-34138628D01*
X115981467Y-34836554D01*
X116401161Y-35464670D01*
X116935330Y-35998839D01*
X117563446Y-36418533D01*
X118261372Y-36707623D01*
X119002285Y-36855000D01*
X119757715Y-36855000D01*
X120498628Y-36707623D01*
X121196554Y-36418533D01*
X121824670Y-35998839D01*
X122358839Y-35464670D01*
X122778533Y-34836554D01*
X123067623Y-34138628D01*
X123215000Y-33397715D01*
X123215000Y-32642285D01*
X123188482Y-32508967D01*
X128395000Y-32508967D01*
X128395000Y-32831033D01*
X128457832Y-33146912D01*
X128581082Y-33444463D01*
X128760013Y-33712252D01*
X128987748Y-33939987D01*
X128987767Y-33940000D01*
X128987748Y-33940013D01*
X128760013Y-34167748D01*
X128581082Y-34435537D01*
X128457832Y-34733088D01*
X128395000Y-35048967D01*
X128395000Y-35371033D01*
X128457832Y-35686912D01*
X128581082Y-35984463D01*
X128760013Y-36252252D01*
X128987748Y-36479987D01*
X128987767Y-36480000D01*
X128987748Y-36480013D01*
X128760013Y-36707748D01*
X128581082Y-36975537D01*
X128457832Y-37273088D01*
X128395000Y-37588967D01*
X128395000Y-37911033D01*
X128457832Y-38226912D01*
X128581082Y-38524463D01*
X128760013Y-38792252D01*
X128987748Y-39019987D01*
X128987767Y-39020000D01*
X128987748Y-39020013D01*
X128760013Y-39247748D01*
X128581082Y-39515537D01*
X128457832Y-39813088D01*
X128395000Y-40128967D01*
X128395000Y-40451033D01*
X128457832Y-40766912D01*
X128581082Y-41064463D01*
X128760013Y-41332252D01*
X128987748Y-41559987D01*
X128987767Y-41560000D01*
X128987748Y-41560013D01*
X128760013Y-41787748D01*
X128581082Y-42055537D01*
X128457832Y-42353088D01*
X128395000Y-42668967D01*
X128395000Y-42991033D01*
X128457832Y-43306912D01*
X128581082Y-43604463D01*
X128760013Y-43872252D01*
X128987748Y-44099987D01*
X128987767Y-44100000D01*
X128987748Y-44100013D01*
X128760013Y-44327748D01*
X128581082Y-44595537D01*
X128457832Y-44893088D01*
X128395000Y-45208967D01*
X128395000Y-45531033D01*
X128457832Y-45846912D01*
X128581082Y-46144463D01*
X128760013Y-46412252D01*
X128987748Y-46639987D01*
X128987767Y-46640000D01*
X128987748Y-46640013D01*
X128760013Y-46867748D01*
X128581082Y-47135537D01*
X128457832Y-47433088D01*
X128395000Y-47748967D01*
X128395000Y-48071033D01*
X128457832Y-48386912D01*
X128581082Y-48684463D01*
X128760013Y-48952252D01*
X128987748Y-49179987D01*
X128987767Y-49180000D01*
X128987748Y-49180013D01*
X128760013Y-49407748D01*
X128581082Y-49675537D01*
X128457832Y-49973088D01*
X128395000Y-50288967D01*
X128395000Y-50611033D01*
X128457832Y-50926912D01*
X128581082Y-51224463D01*
X128760013Y-51492252D01*
X128987748Y-51719987D01*
X128987767Y-51720000D01*
X128987748Y-51720013D01*
X128760013Y-51947748D01*
X128581082Y-52215537D01*
X128457832Y-52513088D01*
X128395000Y-52828967D01*
X128395000Y-53151033D01*
X128457832Y-53466912D01*
X128581082Y-53764463D01*
X128760013Y-54032252D01*
X128987748Y-54259987D01*
X128987767Y-54260000D01*
X128987748Y-54260013D01*
X128760013Y-54487748D01*
X128581082Y-54755537D01*
X128457832Y-55053088D01*
X128395000Y-55368967D01*
X128395000Y-55691033D01*
X128457832Y-56006912D01*
X128581082Y-56304463D01*
X128760013Y-56572252D01*
X128987748Y-56799987D01*
X128987767Y-56800000D01*
X128987748Y-56800013D01*
X128760013Y-57027748D01*
X128581082Y-57295537D01*
X128457832Y-57593088D01*
X128395000Y-57908967D01*
X128395000Y-58231033D01*
X128457832Y-58546912D01*
X128581082Y-58844463D01*
X128760013Y-59112252D01*
X128987748Y-59339987D01*
X128987767Y-59340000D01*
X128987748Y-59340013D01*
X128760013Y-59567748D01*
X128581082Y-59835537D01*
X128457832Y-60133088D01*
X128395000Y-60448967D01*
X128395000Y-60771033D01*
X128457832Y-61086912D01*
X128581082Y-61384463D01*
X128760013Y-61652252D01*
X128987748Y-61879987D01*
X128987767Y-61880000D01*
X128987748Y-61880013D01*
X128760013Y-62107748D01*
X128581082Y-62375537D01*
X128457832Y-62673088D01*
X128395000Y-62988967D01*
X128395000Y-63311033D01*
X128457832Y-63626912D01*
X128581082Y-63924463D01*
X128760013Y-64192252D01*
X128987748Y-64419987D01*
X129255537Y-64598918D01*
X129553088Y-64722168D01*
X129868967Y-64785000D01*
X130191033Y-64785000D01*
X130506912Y-64722168D01*
X130804463Y-64598918D01*
X131072252Y-64419987D01*
X131299987Y-64192252D01*
X131300000Y-64192233D01*
X131300013Y-64192252D01*
X131527748Y-64419987D01*
X131795537Y-64598918D01*
X132093088Y-64722168D01*
X132408967Y-64785000D01*
X132731033Y-64785000D01*
X133046912Y-64722168D01*
X133344463Y-64598918D01*
X133612252Y-64419987D01*
X133839987Y-64192252D01*
X133840000Y-64192233D01*
X133840013Y-64192252D01*
X134067748Y-64419987D01*
X134335537Y-64598918D01*
X134633088Y-64722168D01*
X134948967Y-64785000D01*
X135271033Y-64785000D01*
X135586912Y-64722168D01*
X135884463Y-64598918D01*
X136152252Y-64419987D01*
X136379987Y-64192252D01*
X136380000Y-64192233D01*
X136380013Y-64192252D01*
X136607748Y-64419987D01*
X136875537Y-64598918D01*
X137173088Y-64722168D01*
X137488967Y-64785000D01*
X137811033Y-64785000D01*
X138126912Y-64722168D01*
X138424463Y-64598918D01*
X138692252Y-64419987D01*
X138919987Y-64192252D01*
X138920000Y-64192233D01*
X138920013Y-64192252D01*
X139147748Y-64419987D01*
X139415537Y-64598918D01*
X139713088Y-64722168D01*
X140028967Y-64785000D01*
X140351033Y-64785000D01*
X140666912Y-64722168D01*
X140964463Y-64598918D01*
X141232252Y-64419987D01*
X141459987Y-64192252D01*
X141460000Y-64192233D01*
X141460013Y-64192252D01*
X141687748Y-64419987D01*
X141955537Y-64598918D01*
X142253088Y-64722168D01*
X142568967Y-64785000D01*
X142891033Y-64785000D01*
X143206912Y-64722168D01*
X143504463Y-64598918D01*
X143772252Y-64419987D01*
X143999987Y-64192252D01*
X144000000Y-64192233D01*
X144000013Y-64192252D01*
X144227748Y-64419987D01*
X144495537Y-64598918D01*
X144793088Y-64722168D01*
X145108967Y-64785000D01*
X145431033Y-64785000D01*
X145746912Y-64722168D01*
X146044463Y-64598918D01*
X146312252Y-64419987D01*
X146539987Y-64192252D01*
X146540000Y-64192233D01*
X146540013Y-64192252D01*
X146767748Y-64419987D01*
X147035537Y-64598918D01*
X147333088Y-64722168D01*
X147648967Y-64785000D01*
X147971033Y-64785000D01*
X148286912Y-64722168D01*
X148584463Y-64598918D01*
X148852252Y-64419987D01*
X149079987Y-64192252D01*
X149080000Y-64192233D01*
X149080013Y-64192252D01*
X149307748Y-64419987D01*
X149575537Y-64598918D01*
X149873088Y-64722168D01*
X150188967Y-64785000D01*
X150511033Y-64785000D01*
X150826912Y-64722168D01*
X151124463Y-64598918D01*
X151392252Y-64419987D01*
X151619987Y-64192252D01*
X151620000Y-64192233D01*
X151620013Y-64192252D01*
X151847748Y-64419987D01*
X152115537Y-64598918D01*
X152413088Y-64722168D01*
X152728967Y-64785000D01*
X153051033Y-64785000D01*
X153366912Y-64722168D01*
X153664463Y-64598918D01*
X153932252Y-64419987D01*
X154159987Y-64192252D01*
X154160000Y-64192233D01*
X154160013Y-64192252D01*
X154387748Y-64419987D01*
X154655537Y-64598918D01*
X154953088Y-64722168D01*
X155268967Y-64785000D01*
X155591033Y-64785000D01*
X155906912Y-64722168D01*
X156204463Y-64598918D01*
X156472252Y-64419987D01*
X156699987Y-64192252D01*
X156700000Y-64192233D01*
X156700013Y-64192252D01*
X156927748Y-64419987D01*
X157195537Y-64598918D01*
X157493088Y-64722168D01*
X157808967Y-64785000D01*
X158131033Y-64785000D01*
X158446912Y-64722168D01*
X158744463Y-64598918D01*
X159012252Y-64419987D01*
X159239987Y-64192252D01*
X159240000Y-64192233D01*
X159240013Y-64192252D01*
X159467748Y-64419987D01*
X159735537Y-64598918D01*
X160033088Y-64722168D01*
X160348967Y-64785000D01*
X160671033Y-64785000D01*
X160986912Y-64722168D01*
X161284463Y-64598918D01*
X161552252Y-64419987D01*
X161779987Y-64192252D01*
X161780000Y-64192233D01*
X161780013Y-64192252D01*
X162007748Y-64419987D01*
X162275537Y-64598918D01*
X162573088Y-64722168D01*
X162888967Y-64785000D01*
X163211033Y-64785000D01*
X163526912Y-64722168D01*
X163824463Y-64598918D01*
X164092252Y-64419987D01*
X164319987Y-64192252D01*
X164498918Y-63924463D01*
X164622168Y-63626912D01*
X164685000Y-63311033D01*
X164685000Y-62988967D01*
X164622168Y-62673088D01*
X164498918Y-62375537D01*
X164319987Y-62107748D01*
X164092252Y-61880013D01*
X164092233Y-61880000D01*
X164092252Y-61879987D01*
X164319987Y-61652252D01*
X164498918Y-61384463D01*
X164622168Y-61086912D01*
X164685000Y-60771033D01*
X164685000Y-60448967D01*
X164622168Y-60133088D01*
X164498918Y-59835537D01*
X164319987Y-59567748D01*
X164092252Y-59340013D01*
X164092233Y-59340000D01*
X164092252Y-59339987D01*
X164319987Y-59112252D01*
X164498918Y-58844463D01*
X164622168Y-58546912D01*
X164685000Y-58231033D01*
X164685000Y-57908967D01*
X164622168Y-57593088D01*
X164498918Y-57295537D01*
X164319987Y-57027748D01*
X164092252Y-56800013D01*
X164092233Y-56800000D01*
X164092252Y-56799987D01*
X164319987Y-56572252D01*
X164498918Y-56304463D01*
X164622168Y-56006912D01*
X164685000Y-55691033D01*
X164685000Y-55368967D01*
X164622168Y-55053088D01*
X164498918Y-54755537D01*
X164319987Y-54487748D01*
X164092252Y-54260013D01*
X164092233Y-54260000D01*
X164092252Y-54259987D01*
X164319987Y-54032252D01*
X164498918Y-53764463D01*
X164622168Y-53466912D01*
X164685000Y-53151033D01*
X164685000Y-52828967D01*
X164622168Y-52513088D01*
X164498918Y-52215537D01*
X164319987Y-51947748D01*
X164092252Y-51720013D01*
X164092233Y-51720000D01*
X164092252Y-51719987D01*
X164319987Y-51492252D01*
X164498918Y-51224463D01*
X164622168Y-50926912D01*
X164685000Y-50611033D01*
X164685000Y-50288967D01*
X164622168Y-49973088D01*
X164498918Y-49675537D01*
X164319987Y-49407748D01*
X164092252Y-49180013D01*
X164092233Y-49180000D01*
X164092252Y-49179987D01*
X164319987Y-48952252D01*
X164498918Y-48684463D01*
X164622168Y-48386912D01*
X164685000Y-48071033D01*
X164685000Y-47748967D01*
X164622168Y-47433088D01*
X164498918Y-47135537D01*
X164319987Y-46867748D01*
X164092252Y-46640013D01*
X164092233Y-46640000D01*
X164092252Y-46639987D01*
X164319987Y-46412252D01*
X164498918Y-46144463D01*
X164622168Y-45846912D01*
X164685000Y-45531033D01*
X164685000Y-45208967D01*
X164622168Y-44893088D01*
X164498918Y-44595537D01*
X164319987Y-44327748D01*
X164092252Y-44100013D01*
X164092233Y-44100000D01*
X164092252Y-44099987D01*
X164319987Y-43872252D01*
X164498918Y-43604463D01*
X164622168Y-43306912D01*
X164685000Y-42991033D01*
X164685000Y-42668967D01*
X164622168Y-42353088D01*
X164498918Y-42055537D01*
X164319987Y-41787748D01*
X164092252Y-41560013D01*
X164092233Y-41560000D01*
X164092252Y-41559987D01*
X164319987Y-41332252D01*
X164498918Y-41064463D01*
X164622168Y-40766912D01*
X164685000Y-40451033D01*
X164685000Y-40128967D01*
X164622168Y-39813088D01*
X164498918Y-39515537D01*
X164319987Y-39247748D01*
X164092252Y-39020013D01*
X164092233Y-39020000D01*
X164092252Y-39019987D01*
X164319987Y-38792252D01*
X164498918Y-38524463D01*
X164622168Y-38226912D01*
X164685000Y-37911033D01*
X164685000Y-37588967D01*
X164622168Y-37273088D01*
X164498918Y-36975537D01*
X164319987Y-36707748D01*
X164092252Y-36480013D01*
X164092233Y-36480000D01*
X164092252Y-36479987D01*
X164319987Y-36252252D01*
X164498918Y-35984463D01*
X164622168Y-35686912D01*
X164685000Y-35371033D01*
X164685000Y-35048967D01*
X164622168Y-34733088D01*
X164498918Y-34435537D01*
X164319987Y-34167748D01*
X164092252Y-33940013D01*
X164092233Y-33940000D01*
X164092252Y-33939987D01*
X164319987Y-33712252D01*
X164498918Y-33444463D01*
X164622168Y-33146912D01*
X164685000Y-32831033D01*
X164685000Y-32642285D01*
X168885000Y-32642285D01*
X168885000Y-33397715D01*
X169032377Y-34138628D01*
X169321467Y-34836554D01*
X169741161Y-35464670D01*
X170275330Y-35998839D01*
X170903446Y-36418533D01*
X171601372Y-36707623D01*
X172342285Y-36855000D01*
X173097715Y-36855000D01*
X173838628Y-36707623D01*
X174536554Y-36418533D01*
X175164670Y-35998839D01*
X175698839Y-35464670D01*
X176118533Y-34836554D01*
X176407623Y-34138628D01*
X176555000Y-33397715D01*
X176555000Y-32642285D01*
X176407623Y-31901372D01*
X176118533Y-31203446D01*
X175698839Y-30575330D01*
X175164670Y-30041161D01*
X174536554Y-29621467D01*
X173838628Y-29332377D01*
X173097715Y-29185000D01*
X172342285Y-29185000D01*
X171601372Y-29332377D01*
X170903446Y-29621467D01*
X170275330Y-30041161D01*
X169741161Y-30575330D01*
X169321467Y-31203446D01*
X169032377Y-31901372D01*
X168885000Y-32642285D01*
X164685000Y-32642285D01*
X164685000Y-32508967D01*
X164622168Y-32193088D01*
X164498918Y-31895537D01*
X164319987Y-31627748D01*
X164092252Y-31400013D01*
X163824463Y-31221082D01*
X163526912Y-31097832D01*
X163211033Y-31035000D01*
X162888967Y-31035000D01*
X162573088Y-31097832D01*
X162275537Y-31221082D01*
X162007748Y-31400013D01*
X161780013Y-31627748D01*
X161780000Y-31627767D01*
X161779987Y-31627748D01*
X161552252Y-31400013D01*
X161284463Y-31221082D01*
X160986912Y-31097832D01*
X160671033Y-31035000D01*
X160348967Y-31035000D01*
X160033088Y-31097832D01*
X159735537Y-31221082D01*
X159467748Y-31400013D01*
X159240013Y-31627748D01*
X159240000Y-31627767D01*
X159239987Y-31627748D01*
X159012252Y-31400013D01*
X158744463Y-31221082D01*
X158446912Y-31097832D01*
X158131033Y-31035000D01*
X157808967Y-31035000D01*
X157493088Y-31097832D01*
X157195537Y-31221082D01*
X156927748Y-31400013D01*
X156700013Y-31627748D01*
X156700000Y-31627767D01*
X156699987Y-31627748D01*
X156472252Y-31400013D01*
X156204463Y-31221082D01*
X155906912Y-31097832D01*
X155591033Y-31035000D01*
X155268967Y-31035000D01*
X154953088Y-31097832D01*
X154655537Y-31221082D01*
X154387748Y-31400013D01*
X154160013Y-31627748D01*
X154160000Y-31627767D01*
X154159987Y-31627748D01*
X153932252Y-31400013D01*
X153664463Y-31221082D01*
X153366912Y-31097832D01*
X153051033Y-31035000D01*
X152728967Y-31035000D01*
X152413088Y-31097832D01*
X152115537Y-31221082D01*
X151847748Y-31400013D01*
X151620013Y-31627748D01*
X151620000Y-31627767D01*
X151619987Y-31627748D01*
X151392252Y-31400013D01*
X151124463Y-31221082D01*
X150826912Y-31097832D01*
X150511033Y-31035000D01*
X150188967Y-31035000D01*
X149873088Y-31097832D01*
X149575537Y-31221082D01*
X149307748Y-31400013D01*
X149080013Y-31627748D01*
X149080000Y-31627767D01*
X149079987Y-31627748D01*
X148852252Y-31400013D01*
X148584463Y-31221082D01*
X148286912Y-31097832D01*
X147971033Y-31035000D01*
X147648967Y-31035000D01*
X147333088Y-31097832D01*
X147035537Y-31221082D01*
X146767748Y-31400013D01*
X146540013Y-31627748D01*
X146540000Y-31627767D01*
X146539987Y-31627748D01*
X146312252Y-31400013D01*
X146044463Y-31221082D01*
X145746912Y-31097832D01*
X145431033Y-31035000D01*
X145108967Y-31035000D01*
X144793088Y-31097832D01*
X144495537Y-31221082D01*
X144227748Y-31400013D01*
X144000013Y-31627748D01*
X144000000Y-31627767D01*
X143999987Y-31627748D01*
X143772252Y-31400013D01*
X143504463Y-31221082D01*
X143206912Y-31097832D01*
X142891033Y-31035000D01*
X142568967Y-31035000D01*
X142253088Y-31097832D01*
X141955537Y-31221082D01*
X141687748Y-31400013D01*
X141460013Y-31627748D01*
X141460000Y-31627767D01*
X141459987Y-31627748D01*
X141232252Y-31400013D01*
X140964463Y-31221082D01*
X140666912Y-31097832D01*
X140351033Y-31035000D01*
X140028967Y-31035000D01*
X139713088Y-31097832D01*
X139415537Y-31221082D01*
X139147748Y-31400013D01*
X138920013Y-31627748D01*
X138920000Y-31627767D01*
X138919987Y-31627748D01*
X138692252Y-31400013D01*
X138424463Y-31221082D01*
X138126912Y-31097832D01*
X137811033Y-31035000D01*
X137488967Y-31035000D01*
X137173088Y-31097832D01*
X136875537Y-31221082D01*
X136607748Y-31400013D01*
X136380013Y-31627748D01*
X136380000Y-31627767D01*
X136379987Y-31627748D01*
X136152252Y-31400013D01*
X135884463Y-31221082D01*
X135586912Y-31097832D01*
X135271033Y-31035000D01*
X134948967Y-31035000D01*
X134633088Y-31097832D01*
X134335537Y-31221082D01*
X134067748Y-31400013D01*
X133840013Y-31627748D01*
X133840000Y-31627767D01*
X133839987Y-31627748D01*
X133612252Y-31400013D01*
X133344463Y-31221082D01*
X133046912Y-31097832D01*
X132731033Y-31035000D01*
X132408967Y-31035000D01*
X132093088Y-31097832D01*
X131795537Y-31221082D01*
X131527748Y-31400013D01*
X131300013Y-31627748D01*
X131300000Y-31627767D01*
X131299987Y-31627748D01*
X131072252Y-31400013D01*
X130804463Y-31221082D01*
X130506912Y-31097832D01*
X130191033Y-31035000D01*
X129868967Y-31035000D01*
X129553088Y-31097832D01*
X129255537Y-31221082D01*
X128987748Y-31400013D01*
X128760013Y-31627748D01*
X128581082Y-31895537D01*
X128457832Y-32193088D01*
X128395000Y-32508967D01*
X123188482Y-32508967D01*
X123067623Y-31901372D01*
X122778533Y-31203446D01*
X122358839Y-30575330D01*
X121824670Y-30041161D01*
X121196554Y-29621467D01*
X120498628Y-29332377D01*
X119757715Y-29185000D01*
X119002285Y-29185000D01*
X118261372Y-29332377D01*
X117563446Y-29621467D01*
X116935330Y-30041161D01*
X116401161Y-30575330D01*
X115981467Y-31203446D01*
X115692377Y-31901372D01*
X115545000Y-32642285D01*
X112445000Y-32642285D01*
X112445000Y-28625000D01*
X179655000Y-28625000D01*
X179655001Y-126966344D01*
M02*
