G04 #@! TF.GenerationSoftware,KiCad,Pcbnew,(5.1.6)-1*
G04 #@! TF.CreationDate,2021-10-14T13:40:29-04:00*
G04 #@! TF.ProjectId,ESP32 WROOM-32 Breakout MKME.ORG,45535033-3220-4575-924f-4f4d2d333220,rev?*
G04 #@! TF.SameCoordinates,Original*
G04 #@! TF.FileFunction,Legend,Bot*
G04 #@! TF.FilePolarity,Positive*
%FSLAX46Y46*%
G04 Gerber Fmt 4.6, Leading zero omitted, Abs format (unit mm)*
G04 Created by KiCad (PCBNEW (5.1.6)-1) date 2021-10-14 13:40:29*
%MOMM*%
%LPD*%
G01*
G04 APERTURE LIST*
%ADD10C,0.150000*%
G04 APERTURE END LIST*
D10*
X171076666Y-117244761D02*
X170933809Y-117292380D01*
X170695714Y-117292380D01*
X170600476Y-117244761D01*
X170552857Y-117197142D01*
X170505238Y-117101904D01*
X170505238Y-117006666D01*
X170552857Y-116911428D01*
X170600476Y-116863809D01*
X170695714Y-116816190D01*
X170886190Y-116768571D01*
X170981428Y-116720952D01*
X171029047Y-116673333D01*
X171076666Y-116578095D01*
X171076666Y-116482857D01*
X171029047Y-116387619D01*
X170981428Y-116340000D01*
X170886190Y-116292380D01*
X170648095Y-116292380D01*
X170505238Y-116340000D01*
X170076666Y-117292380D02*
X170076666Y-116292380D01*
X169695714Y-116292380D01*
X169600476Y-116340000D01*
X169552857Y-116387619D01*
X169505238Y-116482857D01*
X169505238Y-116625714D01*
X169552857Y-116720952D01*
X169600476Y-116768571D01*
X169695714Y-116816190D01*
X170076666Y-116816190D01*
X169124285Y-117006666D02*
X168648095Y-117006666D01*
X169219523Y-117292380D02*
X168886190Y-116292380D01*
X168552857Y-117292380D01*
X167648095Y-117292380D02*
X167981428Y-116816190D01*
X168219523Y-117292380D02*
X168219523Y-116292380D01*
X167838571Y-116292380D01*
X167743333Y-116340000D01*
X167695714Y-116387619D01*
X167648095Y-116482857D01*
X167648095Y-116625714D01*
X167695714Y-116720952D01*
X167743333Y-116768571D01*
X167838571Y-116816190D01*
X168219523Y-116816190D01*
X167219523Y-116768571D02*
X166886190Y-116768571D01*
X166743333Y-117292380D02*
X167219523Y-117292380D01*
X167219523Y-116292380D01*
X166743333Y-116292380D01*
X125356666Y-117244761D02*
X125213809Y-117292380D01*
X124975714Y-117292380D01*
X124880476Y-117244761D01*
X124832857Y-117197142D01*
X124785238Y-117101904D01*
X124785238Y-117006666D01*
X124832857Y-116911428D01*
X124880476Y-116863809D01*
X124975714Y-116816190D01*
X125166190Y-116768571D01*
X125261428Y-116720952D01*
X125309047Y-116673333D01*
X125356666Y-116578095D01*
X125356666Y-116482857D01*
X125309047Y-116387619D01*
X125261428Y-116340000D01*
X125166190Y-116292380D01*
X124928095Y-116292380D01*
X124785238Y-116340000D01*
X124356666Y-117292380D02*
X124356666Y-116292380D01*
X123975714Y-116292380D01*
X123880476Y-116340000D01*
X123832857Y-116387619D01*
X123785238Y-116482857D01*
X123785238Y-116625714D01*
X123832857Y-116720952D01*
X123880476Y-116768571D01*
X123975714Y-116816190D01*
X124356666Y-116816190D01*
X123404285Y-117006666D02*
X122928095Y-117006666D01*
X123499523Y-117292380D02*
X123166190Y-116292380D01*
X122832857Y-117292380D01*
X121928095Y-117292380D02*
X122261428Y-116816190D01*
X122499523Y-117292380D02*
X122499523Y-116292380D01*
X122118571Y-116292380D01*
X122023333Y-116340000D01*
X121975714Y-116387619D01*
X121928095Y-116482857D01*
X121928095Y-116625714D01*
X121975714Y-116720952D01*
X122023333Y-116768571D01*
X122118571Y-116816190D01*
X122499523Y-116816190D01*
X121499523Y-116768571D02*
X121166190Y-116768571D01*
X121023333Y-117292380D02*
X121499523Y-117292380D01*
X121499523Y-116292380D01*
X121023333Y-116292380D01*
X141415714Y-65177142D02*
X141415714Y-66177142D01*
X142987142Y-66605714D02*
X142987142Y-65177142D01*
X139987142Y-65177142D01*
X139987142Y-66605714D01*
X142844285Y-67748571D02*
X142987142Y-68177142D01*
X142987142Y-68891428D01*
X142844285Y-69177142D01*
X142701428Y-69320000D01*
X142415714Y-69462857D01*
X142130000Y-69462857D01*
X141844285Y-69320000D01*
X141701428Y-69177142D01*
X141558571Y-68891428D01*
X141415714Y-68320000D01*
X141272857Y-68034285D01*
X141130000Y-67891428D01*
X140844285Y-67748571D01*
X140558571Y-67748571D01*
X140272857Y-67891428D01*
X140130000Y-68034285D01*
X139987142Y-68320000D01*
X139987142Y-69034285D01*
X140130000Y-69462857D01*
X142987142Y-70748571D02*
X139987142Y-70748571D01*
X139987142Y-71891428D01*
X140130000Y-72177142D01*
X140272857Y-72320000D01*
X140558571Y-72462857D01*
X140987142Y-72462857D01*
X141272857Y-72320000D01*
X141415714Y-72177142D01*
X141558571Y-71891428D01*
X141558571Y-70748571D01*
X139987142Y-73462857D02*
X139987142Y-75320000D01*
X141130000Y-74320000D01*
X141130000Y-74748571D01*
X141272857Y-75034285D01*
X141415714Y-75177142D01*
X141701428Y-75320000D01*
X142415714Y-75320000D01*
X142701428Y-75177142D01*
X142844285Y-75034285D01*
X142987142Y-74748571D01*
X142987142Y-73891428D01*
X142844285Y-73605714D01*
X142701428Y-73462857D01*
X140272857Y-76462857D02*
X140130000Y-76605714D01*
X139987142Y-76891428D01*
X139987142Y-77605714D01*
X140130000Y-77891428D01*
X140272857Y-78034285D01*
X140558571Y-78177142D01*
X140844285Y-78177142D01*
X141272857Y-78034285D01*
X142987142Y-76320000D01*
X142987142Y-78177142D01*
X141415714Y-82748571D02*
X141558571Y-83177142D01*
X141701428Y-83320000D01*
X141987142Y-83462857D01*
X142415714Y-83462857D01*
X142701428Y-83320000D01*
X142844285Y-83177142D01*
X142987142Y-82891428D01*
X142987142Y-81748571D01*
X139987142Y-81748571D01*
X139987142Y-82748571D01*
X140130000Y-83034285D01*
X140272857Y-83177142D01*
X140558571Y-83320000D01*
X140844285Y-83320000D01*
X141130000Y-83177142D01*
X141272857Y-83034285D01*
X141415714Y-82748571D01*
X141415714Y-81748571D01*
X142987142Y-84748571D02*
X140987142Y-84748571D01*
X141558571Y-84748571D02*
X141272857Y-84891428D01*
X141130000Y-85034285D01*
X140987142Y-85320000D01*
X140987142Y-85605714D01*
X142844285Y-87748571D02*
X142987142Y-87462857D01*
X142987142Y-86891428D01*
X142844285Y-86605714D01*
X142558571Y-86462857D01*
X141415714Y-86462857D01*
X141130000Y-86605714D01*
X140987142Y-86891428D01*
X140987142Y-87462857D01*
X141130000Y-87748571D01*
X141415714Y-87891428D01*
X141701428Y-87891428D01*
X141987142Y-86462857D01*
X142987142Y-90462857D02*
X141415714Y-90462857D01*
X141130000Y-90320000D01*
X140987142Y-90034285D01*
X140987142Y-89462857D01*
X141130000Y-89177142D01*
X142844285Y-90462857D02*
X142987142Y-90177142D01*
X142987142Y-89462857D01*
X142844285Y-89177142D01*
X142558571Y-89034285D01*
X142272857Y-89034285D01*
X141987142Y-89177142D01*
X141844285Y-89462857D01*
X141844285Y-90177142D01*
X141701428Y-90462857D01*
X142987142Y-91891428D02*
X139987142Y-91891428D01*
X141844285Y-92177142D02*
X142987142Y-93034285D01*
X140987142Y-93034285D02*
X142130000Y-91891428D01*
X142987142Y-94748571D02*
X142844285Y-94462857D01*
X142701428Y-94320000D01*
X142415714Y-94177142D01*
X141558571Y-94177142D01*
X141272857Y-94320000D01*
X141130000Y-94462857D01*
X140987142Y-94748571D01*
X140987142Y-95177142D01*
X141130000Y-95462857D01*
X141272857Y-95605714D01*
X141558571Y-95748571D01*
X142415714Y-95748571D01*
X142701428Y-95605714D01*
X142844285Y-95462857D01*
X142987142Y-95177142D01*
X142987142Y-94748571D01*
X140987142Y-98320000D02*
X142987142Y-98320000D01*
X140987142Y-97034285D02*
X142558571Y-97034285D01*
X142844285Y-97177142D01*
X142987142Y-97462857D01*
X142987142Y-97891428D01*
X142844285Y-98177142D01*
X142701428Y-98320000D01*
X140987142Y-99320000D02*
X140987142Y-100462857D01*
X139987142Y-99748571D02*
X142558571Y-99748571D01*
X142844285Y-99891428D01*
X142987142Y-100177142D01*
X142987142Y-100462857D01*
X142987142Y-103748571D02*
X139987142Y-103748571D01*
X139987142Y-104462857D01*
X140130000Y-104891428D01*
X140415714Y-105177142D01*
X140701428Y-105320000D01*
X141272857Y-105462857D01*
X141701428Y-105462857D01*
X142272857Y-105320000D01*
X142558571Y-105177142D01*
X142844285Y-104891428D01*
X142987142Y-104462857D01*
X142987142Y-103748571D01*
X142844285Y-107891428D02*
X142987142Y-107605714D01*
X142987142Y-107034285D01*
X142844285Y-106748571D01*
X142558571Y-106605714D01*
X141415714Y-106605714D01*
X141130000Y-106748571D01*
X140987142Y-107034285D01*
X140987142Y-107605714D01*
X141130000Y-107891428D01*
X141415714Y-108034285D01*
X141701428Y-108034285D01*
X141987142Y-106605714D01*
X140987142Y-109034285D02*
X142987142Y-109748571D01*
X140987142Y-110462857D01*
X141415714Y-114891428D02*
X141558571Y-115320000D01*
X141701428Y-115462857D01*
X141987142Y-115605714D01*
X142415714Y-115605714D01*
X142701428Y-115462857D01*
X142844285Y-115320000D01*
X142987142Y-115034285D01*
X142987142Y-113891428D01*
X139987142Y-113891428D01*
X139987142Y-114891428D01*
X140130000Y-115177142D01*
X140272857Y-115320000D01*
X140558571Y-115462857D01*
X140844285Y-115462857D01*
X141130000Y-115320000D01*
X141272857Y-115177142D01*
X141415714Y-114891428D01*
X141415714Y-113891428D01*
X142987142Y-117320000D02*
X142844285Y-117034285D01*
X142701428Y-116891428D01*
X142415714Y-116748571D01*
X141558571Y-116748571D01*
X141272857Y-116891428D01*
X141130000Y-117034285D01*
X140987142Y-117320000D01*
X140987142Y-117748571D01*
X141130000Y-118034285D01*
X141272857Y-118177142D01*
X141558571Y-118320000D01*
X142415714Y-118320000D01*
X142701428Y-118177142D01*
X142844285Y-118034285D01*
X142987142Y-117748571D01*
X142987142Y-117320000D01*
X142987142Y-120891428D02*
X141415714Y-120891428D01*
X141130000Y-120748571D01*
X140987142Y-120462857D01*
X140987142Y-119891428D01*
X141130000Y-119605714D01*
X142844285Y-120891428D02*
X142987142Y-120605714D01*
X142987142Y-119891428D01*
X142844285Y-119605714D01*
X142558571Y-119462857D01*
X142272857Y-119462857D01*
X141987142Y-119605714D01*
X141844285Y-119891428D01*
X141844285Y-120605714D01*
X141701428Y-120891428D01*
X142987142Y-122320000D02*
X140987142Y-122320000D01*
X141558571Y-122320000D02*
X141272857Y-122462857D01*
X141130000Y-122605714D01*
X140987142Y-122891428D01*
X140987142Y-123177142D01*
X142987142Y-125462857D02*
X139987142Y-125462857D01*
X142844285Y-125462857D02*
X142987142Y-125177142D01*
X142987142Y-124605714D01*
X142844285Y-124320000D01*
X142701428Y-124177142D01*
X142415714Y-124034285D01*
X141558571Y-124034285D01*
X141272857Y-124177142D01*
X141130000Y-124320000D01*
X140987142Y-124605714D01*
X140987142Y-125177142D01*
X141130000Y-125462857D01*
X145637142Y-79462857D02*
X147637142Y-80034285D01*
X146208571Y-80605714D01*
X147637142Y-81177142D01*
X145637142Y-81748571D01*
X145637142Y-82605714D02*
X147637142Y-83177142D01*
X146208571Y-83748571D01*
X147637142Y-84320000D01*
X145637142Y-84891428D01*
X145637142Y-85748571D02*
X147637142Y-86320000D01*
X146208571Y-86891428D01*
X147637142Y-87462857D01*
X145637142Y-88034285D01*
X147351428Y-89177142D02*
X147494285Y-89320000D01*
X147637142Y-89177142D01*
X147494285Y-89034285D01*
X147351428Y-89177142D01*
X147637142Y-89177142D01*
X147637142Y-90605714D02*
X145637142Y-90605714D01*
X145922857Y-90605714D02*
X145780000Y-90748571D01*
X145637142Y-91034285D01*
X145637142Y-91462857D01*
X145780000Y-91748571D01*
X146065714Y-91891428D01*
X147637142Y-91891428D01*
X146065714Y-91891428D02*
X145780000Y-92034285D01*
X145637142Y-92320000D01*
X145637142Y-92748571D01*
X145780000Y-93034285D01*
X146065714Y-93177142D01*
X147637142Y-93177142D01*
X147637142Y-94605714D02*
X144637142Y-94605714D01*
X146494285Y-94891428D02*
X147637142Y-95748571D01*
X145637142Y-95748571D02*
X146780000Y-94605714D01*
X147637142Y-97034285D02*
X145637142Y-97034285D01*
X145922857Y-97034285D02*
X145780000Y-97177142D01*
X145637142Y-97462857D01*
X145637142Y-97891428D01*
X145780000Y-98177142D01*
X146065714Y-98320000D01*
X147637142Y-98320000D01*
X146065714Y-98320000D02*
X145780000Y-98462857D01*
X145637142Y-98748571D01*
X145637142Y-99177142D01*
X145780000Y-99462857D01*
X146065714Y-99605714D01*
X147637142Y-99605714D01*
X147494285Y-102177142D02*
X147637142Y-101891428D01*
X147637142Y-101320000D01*
X147494285Y-101034285D01*
X147208571Y-100891428D01*
X146065714Y-100891428D01*
X145780000Y-101034285D01*
X145637142Y-101320000D01*
X145637142Y-101891428D01*
X145780000Y-102177142D01*
X146065714Y-102320000D01*
X146351428Y-102320000D01*
X146637142Y-100891428D01*
X147351428Y-103605714D02*
X147494285Y-103748571D01*
X147637142Y-103605714D01*
X147494285Y-103462857D01*
X147351428Y-103605714D01*
X147637142Y-103605714D01*
X147637142Y-105462857D02*
X147494285Y-105177142D01*
X147351428Y-105034285D01*
X147065714Y-104891428D01*
X146208571Y-104891428D01*
X145922857Y-105034285D01*
X145780000Y-105177142D01*
X145637142Y-105462857D01*
X145637142Y-105891428D01*
X145780000Y-106177142D01*
X145922857Y-106320000D01*
X146208571Y-106462857D01*
X147065714Y-106462857D01*
X147351428Y-106320000D01*
X147494285Y-106177142D01*
X147637142Y-105891428D01*
X147637142Y-105462857D01*
X147637142Y-107748571D02*
X145637142Y-107748571D01*
X146208571Y-107748571D02*
X145922857Y-107891428D01*
X145780000Y-108034285D01*
X145637142Y-108320000D01*
X145637142Y-108605714D01*
X145637142Y-110891428D02*
X148065714Y-110891428D01*
X148351428Y-110748571D01*
X148494285Y-110605714D01*
X148637142Y-110320000D01*
X148637142Y-109891428D01*
X148494285Y-109605714D01*
X147494285Y-110891428D02*
X147637142Y-110605714D01*
X147637142Y-110034285D01*
X147494285Y-109748571D01*
X147351428Y-109605714D01*
X147065714Y-109462857D01*
X146208571Y-109462857D01*
X145922857Y-109605714D01*
X145780000Y-109748571D01*
X145637142Y-110034285D01*
X145637142Y-110605714D01*
X145780000Y-110891428D01*
X150858571Y-70391428D02*
X152287142Y-70391428D01*
X149287142Y-69391428D02*
X150858571Y-70391428D01*
X149287142Y-71391428D01*
X152287142Y-72820000D02*
X152144285Y-72534285D01*
X152001428Y-72391428D01*
X151715714Y-72248571D01*
X150858571Y-72248571D01*
X150572857Y-72391428D01*
X150430000Y-72534285D01*
X150287142Y-72820000D01*
X150287142Y-73248571D01*
X150430000Y-73534285D01*
X150572857Y-73677142D01*
X150858571Y-73820000D01*
X151715714Y-73820000D01*
X152001428Y-73677142D01*
X152144285Y-73534285D01*
X152287142Y-73248571D01*
X152287142Y-72820000D01*
X150287142Y-76391428D02*
X152287142Y-76391428D01*
X150287142Y-75105714D02*
X151858571Y-75105714D01*
X152144285Y-75248571D01*
X152287142Y-75534285D01*
X152287142Y-75962857D01*
X152144285Y-76248571D01*
X152001428Y-76391428D01*
X149287142Y-77391428D02*
X149287142Y-79105714D01*
X152287142Y-78248571D02*
X149287142Y-78248571D01*
X150287142Y-81391428D02*
X152287142Y-81391428D01*
X150287142Y-80105714D02*
X151858571Y-80105714D01*
X152144285Y-80248571D01*
X152287142Y-80534285D01*
X152287142Y-80962857D01*
X152144285Y-81248571D01*
X152001428Y-81391428D01*
X152287142Y-82820000D02*
X149287142Y-82820000D01*
X150430000Y-82820000D02*
X150287142Y-83105714D01*
X150287142Y-83677142D01*
X150430000Y-83962857D01*
X150572857Y-84105714D01*
X150858571Y-84248571D01*
X151715714Y-84248571D01*
X152001428Y-84105714D01*
X152144285Y-83962857D01*
X152287142Y-83677142D01*
X152287142Y-83105714D01*
X152144285Y-82820000D01*
X152144285Y-86677142D02*
X152287142Y-86391428D01*
X152287142Y-85820000D01*
X152144285Y-85534285D01*
X151858571Y-85391428D01*
X150715714Y-85391428D01*
X150430000Y-85534285D01*
X150287142Y-85820000D01*
X150287142Y-86391428D01*
X150430000Y-86677142D01*
X150715714Y-86820000D01*
X151001428Y-86820000D01*
X151287142Y-85391428D01*
X152001428Y-88105714D02*
X152144285Y-88248571D01*
X152287142Y-88105714D01*
X152144285Y-87962857D01*
X152001428Y-88105714D01*
X152287142Y-88105714D01*
X152144285Y-90820000D02*
X152287142Y-90534285D01*
X152287142Y-89962857D01*
X152144285Y-89677142D01*
X152001428Y-89534285D01*
X151715714Y-89391428D01*
X150858571Y-89391428D01*
X150572857Y-89534285D01*
X150430000Y-89677142D01*
X150287142Y-89962857D01*
X150287142Y-90534285D01*
X150430000Y-90820000D01*
X152287142Y-92534285D02*
X152144285Y-92248571D01*
X152001428Y-92105714D01*
X151715714Y-91962857D01*
X150858571Y-91962857D01*
X150572857Y-92105714D01*
X150430000Y-92248571D01*
X150287142Y-92534285D01*
X150287142Y-92962857D01*
X150430000Y-93248571D01*
X150572857Y-93391428D01*
X150858571Y-93534285D01*
X151715714Y-93534285D01*
X152001428Y-93391428D01*
X152144285Y-93248571D01*
X152287142Y-92962857D01*
X152287142Y-92534285D01*
X152287142Y-94820000D02*
X150287142Y-94820000D01*
X150572857Y-94820000D02*
X150430000Y-94962857D01*
X150287142Y-95248571D01*
X150287142Y-95677142D01*
X150430000Y-95962857D01*
X150715714Y-96105714D01*
X152287142Y-96105714D01*
X150715714Y-96105714D02*
X150430000Y-96248571D01*
X150287142Y-96534285D01*
X150287142Y-96962857D01*
X150430000Y-97248571D01*
X150715714Y-97391428D01*
X152287142Y-97391428D01*
X149144285Y-100962857D02*
X153001428Y-98391428D01*
X152287142Y-101962857D02*
X150287142Y-101962857D01*
X150572857Y-101962857D02*
X150430000Y-102105714D01*
X150287142Y-102391428D01*
X150287142Y-102820000D01*
X150430000Y-103105714D01*
X150715714Y-103248571D01*
X152287142Y-103248571D01*
X150715714Y-103248571D02*
X150430000Y-103391428D01*
X150287142Y-103677142D01*
X150287142Y-104105714D01*
X150430000Y-104391428D01*
X150715714Y-104534285D01*
X152287142Y-104534285D01*
X152287142Y-105962857D02*
X149287142Y-105962857D01*
X151144285Y-106248571D02*
X152287142Y-107105714D01*
X150287142Y-107105714D02*
X151430000Y-105962857D01*
X152287142Y-108391428D02*
X150287142Y-108391428D01*
X150572857Y-108391428D02*
X150430000Y-108534285D01*
X150287142Y-108820000D01*
X150287142Y-109248571D01*
X150430000Y-109534285D01*
X150715714Y-109677142D01*
X152287142Y-109677142D01*
X150715714Y-109677142D02*
X150430000Y-109820000D01*
X150287142Y-110105714D01*
X150287142Y-110534285D01*
X150430000Y-110820000D01*
X150715714Y-110962857D01*
X152287142Y-110962857D01*
X152144285Y-113534285D02*
X152287142Y-113248571D01*
X152287142Y-112677142D01*
X152144285Y-112391428D01*
X151858571Y-112248571D01*
X150715714Y-112248571D01*
X150430000Y-112391428D01*
X150287142Y-112677142D01*
X150287142Y-113248571D01*
X150430000Y-113534285D01*
X150715714Y-113677142D01*
X151001428Y-113677142D01*
X151287142Y-112248571D01*
X152287142Y-115391428D02*
X152144285Y-115105714D01*
X152001428Y-114962857D01*
X151715714Y-114820000D01*
X150858571Y-114820000D01*
X150572857Y-114962857D01*
X150430000Y-115105714D01*
X150287142Y-115391428D01*
X150287142Y-115820000D01*
X150430000Y-116105714D01*
X150572857Y-116248571D01*
X150858571Y-116391428D01*
X151715714Y-116391428D01*
X152001428Y-116248571D01*
X152144285Y-116105714D01*
X152287142Y-115820000D01*
X152287142Y-115391428D01*
X152287142Y-117677142D02*
X150287142Y-117677142D01*
X150858571Y-117677142D02*
X150572857Y-117820000D01*
X150430000Y-117962857D01*
X150287142Y-118248571D01*
X150287142Y-118534285D01*
X150287142Y-120820000D02*
X152715714Y-120820000D01*
X153001428Y-120677142D01*
X153144285Y-120534285D01*
X153287142Y-120248571D01*
X153287142Y-119820000D01*
X153144285Y-119534285D01*
X152144285Y-120820000D02*
X152287142Y-120534285D01*
X152287142Y-119962857D01*
X152144285Y-119677142D01*
X152001428Y-119534285D01*
X151715714Y-119391428D01*
X150858571Y-119391428D01*
X150572857Y-119534285D01*
X150430000Y-119677142D01*
X150287142Y-119962857D01*
X150287142Y-120534285D01*
X150430000Y-120820000D01*
X170124285Y-41092380D02*
X170124285Y-40092380D01*
X169886190Y-40092380D01*
X169743333Y-40140000D01*
X169648095Y-40235238D01*
X169600476Y-40330476D01*
X169552857Y-40520952D01*
X169552857Y-40663809D01*
X169600476Y-40854285D01*
X169648095Y-40949523D01*
X169743333Y-41044761D01*
X169886190Y-41092380D01*
X170124285Y-41092380D01*
X169171904Y-40187619D02*
X169124285Y-40140000D01*
X169029047Y-40092380D01*
X168790952Y-40092380D01*
X168695714Y-40140000D01*
X168648095Y-40187619D01*
X168600476Y-40282857D01*
X168600476Y-40378095D01*
X168648095Y-40520952D01*
X169219523Y-41092380D01*
X168600476Y-41092380D01*
X168267142Y-40092380D02*
X167648095Y-40092380D01*
X167981428Y-40473333D01*
X167838571Y-40473333D01*
X167743333Y-40520952D01*
X167695714Y-40568571D01*
X167648095Y-40663809D01*
X167648095Y-40901904D01*
X167695714Y-40997142D01*
X167743333Y-41044761D01*
X167838571Y-41092380D01*
X168124285Y-41092380D01*
X168219523Y-41044761D01*
X168267142Y-40997142D01*
X170124285Y-46172380D02*
X170124285Y-45172380D01*
X169886190Y-45172380D01*
X169743333Y-45220000D01*
X169648095Y-45315238D01*
X169600476Y-45410476D01*
X169552857Y-45600952D01*
X169552857Y-45743809D01*
X169600476Y-45934285D01*
X169648095Y-46029523D01*
X169743333Y-46124761D01*
X169886190Y-46172380D01*
X170124285Y-46172380D01*
X169171904Y-45267619D02*
X169124285Y-45220000D01*
X169029047Y-45172380D01*
X168790952Y-45172380D01*
X168695714Y-45220000D01*
X168648095Y-45267619D01*
X168600476Y-45362857D01*
X168600476Y-45458095D01*
X168648095Y-45600952D01*
X169219523Y-46172380D01*
X168600476Y-46172380D01*
X168219523Y-45267619D02*
X168171904Y-45220000D01*
X168076666Y-45172380D01*
X167838571Y-45172380D01*
X167743333Y-45220000D01*
X167695714Y-45267619D01*
X167648095Y-45362857D01*
X167648095Y-45458095D01*
X167695714Y-45600952D01*
X168267142Y-46172380D01*
X167648095Y-46172380D01*
X170148095Y-50252380D02*
X169576666Y-50252380D01*
X169862380Y-51252380D02*
X169862380Y-50252380D01*
X169338571Y-50252380D02*
X168671904Y-51252380D01*
X168671904Y-50252380D02*
X169338571Y-51252380D01*
X168100476Y-50252380D02*
X168005238Y-50252380D01*
X167910000Y-50300000D01*
X167862380Y-50347619D01*
X167814761Y-50442857D01*
X167767142Y-50633333D01*
X167767142Y-50871428D01*
X167814761Y-51061904D01*
X167862380Y-51157142D01*
X167910000Y-51204761D01*
X168005238Y-51252380D01*
X168100476Y-51252380D01*
X168195714Y-51204761D01*
X168243333Y-51157142D01*
X168290952Y-51061904D01*
X168338571Y-50871428D01*
X168338571Y-50633333D01*
X168290952Y-50442857D01*
X168243333Y-50347619D01*
X168195714Y-50300000D01*
X168100476Y-50252380D01*
X169552857Y-56332380D02*
X169886190Y-55856190D01*
X170124285Y-56332380D02*
X170124285Y-55332380D01*
X169743333Y-55332380D01*
X169648095Y-55380000D01*
X169600476Y-55427619D01*
X169552857Y-55522857D01*
X169552857Y-55665714D01*
X169600476Y-55760952D01*
X169648095Y-55808571D01*
X169743333Y-55856190D01*
X170124285Y-55856190D01*
X169219523Y-55332380D02*
X168552857Y-56332380D01*
X168552857Y-55332380D02*
X169219523Y-56332380D01*
X167981428Y-55332380D02*
X167886190Y-55332380D01*
X167790952Y-55380000D01*
X167743333Y-55427619D01*
X167695714Y-55522857D01*
X167648095Y-55713333D01*
X167648095Y-55951428D01*
X167695714Y-56141904D01*
X167743333Y-56237142D01*
X167790952Y-56284761D01*
X167886190Y-56332380D01*
X167981428Y-56332380D01*
X168076666Y-56284761D01*
X168124285Y-56237142D01*
X168171904Y-56141904D01*
X168219523Y-55951428D01*
X168219523Y-55713333D01*
X168171904Y-55522857D01*
X168124285Y-55427619D01*
X168076666Y-55380000D01*
X167981428Y-55332380D01*
X170124285Y-61412380D02*
X170124285Y-60412380D01*
X169886190Y-60412380D01*
X169743333Y-60460000D01*
X169648095Y-60555238D01*
X169600476Y-60650476D01*
X169552857Y-60840952D01*
X169552857Y-60983809D01*
X169600476Y-61174285D01*
X169648095Y-61269523D01*
X169743333Y-61364761D01*
X169886190Y-61412380D01*
X170124285Y-61412380D01*
X169171904Y-60507619D02*
X169124285Y-60460000D01*
X169029047Y-60412380D01*
X168790952Y-60412380D01*
X168695714Y-60460000D01*
X168648095Y-60507619D01*
X168600476Y-60602857D01*
X168600476Y-60698095D01*
X168648095Y-60840952D01*
X169219523Y-61412380D01*
X168600476Y-61412380D01*
X167648095Y-61412380D02*
X168219523Y-61412380D01*
X167933809Y-61412380D02*
X167933809Y-60412380D01*
X168029047Y-60555238D01*
X168124285Y-60650476D01*
X168219523Y-60698095D01*
X170124285Y-66492380D02*
X170124285Y-65492380D01*
X169886190Y-65492380D01*
X169743333Y-65540000D01*
X169648095Y-65635238D01*
X169600476Y-65730476D01*
X169552857Y-65920952D01*
X169552857Y-66063809D01*
X169600476Y-66254285D01*
X169648095Y-66349523D01*
X169743333Y-66444761D01*
X169886190Y-66492380D01*
X170124285Y-66492380D01*
X168600476Y-66492380D02*
X169171904Y-66492380D01*
X168886190Y-66492380D02*
X168886190Y-65492380D01*
X168981428Y-65635238D01*
X169076666Y-65730476D01*
X169171904Y-65778095D01*
X168124285Y-66492380D02*
X167933809Y-66492380D01*
X167838571Y-66444761D01*
X167790952Y-66397142D01*
X167695714Y-66254285D01*
X167648095Y-66063809D01*
X167648095Y-65682857D01*
X167695714Y-65587619D01*
X167743333Y-65540000D01*
X167838571Y-65492380D01*
X168029047Y-65492380D01*
X168124285Y-65540000D01*
X168171904Y-65587619D01*
X168219523Y-65682857D01*
X168219523Y-65920952D01*
X168171904Y-66016190D01*
X168124285Y-66063809D01*
X168029047Y-66111428D01*
X167838571Y-66111428D01*
X167743333Y-66063809D01*
X167695714Y-66016190D01*
X167648095Y-65920952D01*
X170124285Y-71572380D02*
X170124285Y-70572380D01*
X169886190Y-70572380D01*
X169743333Y-70620000D01*
X169648095Y-70715238D01*
X169600476Y-70810476D01*
X169552857Y-71000952D01*
X169552857Y-71143809D01*
X169600476Y-71334285D01*
X169648095Y-71429523D01*
X169743333Y-71524761D01*
X169886190Y-71572380D01*
X170124285Y-71572380D01*
X168600476Y-71572380D02*
X169171904Y-71572380D01*
X168886190Y-71572380D02*
X168886190Y-70572380D01*
X168981428Y-70715238D01*
X169076666Y-70810476D01*
X169171904Y-70858095D01*
X168029047Y-71000952D02*
X168124285Y-70953333D01*
X168171904Y-70905714D01*
X168219523Y-70810476D01*
X168219523Y-70762857D01*
X168171904Y-70667619D01*
X168124285Y-70620000D01*
X168029047Y-70572380D01*
X167838571Y-70572380D01*
X167743333Y-70620000D01*
X167695714Y-70667619D01*
X167648095Y-70762857D01*
X167648095Y-70810476D01*
X167695714Y-70905714D01*
X167743333Y-70953333D01*
X167838571Y-71000952D01*
X168029047Y-71000952D01*
X168124285Y-71048571D01*
X168171904Y-71096190D01*
X168219523Y-71191428D01*
X168219523Y-71381904D01*
X168171904Y-71477142D01*
X168124285Y-71524761D01*
X168029047Y-71572380D01*
X167838571Y-71572380D01*
X167743333Y-71524761D01*
X167695714Y-71477142D01*
X167648095Y-71381904D01*
X167648095Y-71191428D01*
X167695714Y-71096190D01*
X167743333Y-71048571D01*
X167838571Y-71000952D01*
X169648095Y-76652380D02*
X169648095Y-75652380D01*
X169410000Y-75652380D01*
X169267142Y-75700000D01*
X169171904Y-75795238D01*
X169124285Y-75890476D01*
X169076666Y-76080952D01*
X169076666Y-76223809D01*
X169124285Y-76414285D01*
X169171904Y-76509523D01*
X169267142Y-76604761D01*
X169410000Y-76652380D01*
X169648095Y-76652380D01*
X168171904Y-75652380D02*
X168648095Y-75652380D01*
X168695714Y-76128571D01*
X168648095Y-76080952D01*
X168552857Y-76033333D01*
X168314761Y-76033333D01*
X168219523Y-76080952D01*
X168171904Y-76128571D01*
X168124285Y-76223809D01*
X168124285Y-76461904D01*
X168171904Y-76557142D01*
X168219523Y-76604761D01*
X168314761Y-76652380D01*
X168552857Y-76652380D01*
X168648095Y-76604761D01*
X168695714Y-76557142D01*
X170148095Y-80732380D02*
X169576666Y-80732380D01*
X169862380Y-81732380D02*
X169862380Y-80732380D01*
X169338571Y-80732380D02*
X168671904Y-81732380D01*
X168671904Y-80732380D02*
X169338571Y-81732380D01*
X168338571Y-80827619D02*
X168290952Y-80780000D01*
X168195714Y-80732380D01*
X167957619Y-80732380D01*
X167862380Y-80780000D01*
X167814761Y-80827619D01*
X167767142Y-80922857D01*
X167767142Y-81018095D01*
X167814761Y-81160952D01*
X168386190Y-81732380D01*
X167767142Y-81732380D01*
X169552857Y-86812380D02*
X169886190Y-86336190D01*
X170124285Y-86812380D02*
X170124285Y-85812380D01*
X169743333Y-85812380D01*
X169648095Y-85860000D01*
X169600476Y-85907619D01*
X169552857Y-86002857D01*
X169552857Y-86145714D01*
X169600476Y-86240952D01*
X169648095Y-86288571D01*
X169743333Y-86336190D01*
X170124285Y-86336190D01*
X169219523Y-85812380D02*
X168552857Y-86812380D01*
X168552857Y-85812380D02*
X169219523Y-86812380D01*
X168219523Y-85907619D02*
X168171904Y-85860000D01*
X168076666Y-85812380D01*
X167838571Y-85812380D01*
X167743333Y-85860000D01*
X167695714Y-85907619D01*
X167648095Y-86002857D01*
X167648095Y-86098095D01*
X167695714Y-86240952D01*
X168267142Y-86812380D01*
X167648095Y-86812380D01*
X169648095Y-91892380D02*
X169648095Y-90892380D01*
X169410000Y-90892380D01*
X169267142Y-90940000D01*
X169171904Y-91035238D01*
X169124285Y-91130476D01*
X169076666Y-91320952D01*
X169076666Y-91463809D01*
X169124285Y-91654285D01*
X169171904Y-91749523D01*
X169267142Y-91844761D01*
X169410000Y-91892380D01*
X169648095Y-91892380D01*
X168219523Y-91225714D02*
X168219523Y-91892380D01*
X168457619Y-90844761D02*
X168695714Y-91559047D01*
X168076666Y-91559047D01*
X169648095Y-96972380D02*
X169648095Y-95972380D01*
X169410000Y-95972380D01*
X169267142Y-96020000D01*
X169171904Y-96115238D01*
X169124285Y-96210476D01*
X169076666Y-96400952D01*
X169076666Y-96543809D01*
X169124285Y-96734285D01*
X169171904Y-96829523D01*
X169267142Y-96924761D01*
X169410000Y-96972380D01*
X169648095Y-96972380D01*
X168695714Y-96067619D02*
X168648095Y-96020000D01*
X168552857Y-95972380D01*
X168314761Y-95972380D01*
X168219523Y-96020000D01*
X168171904Y-96067619D01*
X168124285Y-96162857D01*
X168124285Y-96258095D01*
X168171904Y-96400952D01*
X168743333Y-96972380D01*
X168124285Y-96972380D01*
X170124285Y-102052380D02*
X170124285Y-101052380D01*
X169886190Y-101052380D01*
X169743333Y-101100000D01*
X169648095Y-101195238D01*
X169600476Y-101290476D01*
X169552857Y-101480952D01*
X169552857Y-101623809D01*
X169600476Y-101814285D01*
X169648095Y-101909523D01*
X169743333Y-102004761D01*
X169886190Y-102052380D01*
X170124285Y-102052380D01*
X168600476Y-102052380D02*
X169171904Y-102052380D01*
X168886190Y-102052380D02*
X168886190Y-101052380D01*
X168981428Y-101195238D01*
X169076666Y-101290476D01*
X169171904Y-101338095D01*
X167695714Y-101052380D02*
X168171904Y-101052380D01*
X168219523Y-101528571D01*
X168171904Y-101480952D01*
X168076666Y-101433333D01*
X167838571Y-101433333D01*
X167743333Y-101480952D01*
X167695714Y-101528571D01*
X167648095Y-101623809D01*
X167648095Y-101861904D01*
X167695714Y-101957142D01*
X167743333Y-102004761D01*
X167838571Y-102052380D01*
X168076666Y-102052380D01*
X168171904Y-102004761D01*
X168219523Y-101957142D01*
X169671904Y-106180000D02*
X169767142Y-106132380D01*
X169910000Y-106132380D01*
X170052857Y-106180000D01*
X170148095Y-106275238D01*
X170195714Y-106370476D01*
X170243333Y-106560952D01*
X170243333Y-106703809D01*
X170195714Y-106894285D01*
X170148095Y-106989523D01*
X170052857Y-107084761D01*
X169910000Y-107132380D01*
X169814761Y-107132380D01*
X169671904Y-107084761D01*
X169624285Y-107037142D01*
X169624285Y-106703809D01*
X169814761Y-106703809D01*
X169195714Y-107132380D02*
X169195714Y-106132380D01*
X168624285Y-107132380D01*
X168624285Y-106132380D01*
X168148095Y-107132380D02*
X168148095Y-106132380D01*
X167910000Y-106132380D01*
X167767142Y-106180000D01*
X167671904Y-106275238D01*
X167624285Y-106370476D01*
X167576666Y-106560952D01*
X167576666Y-106703809D01*
X167624285Y-106894285D01*
X167671904Y-106989523D01*
X167767142Y-107084761D01*
X167910000Y-107132380D01*
X168148095Y-107132380D01*
X170148095Y-111212380D02*
X169529047Y-111212380D01*
X169862380Y-111593333D01*
X169719523Y-111593333D01*
X169624285Y-111640952D01*
X169576666Y-111688571D01*
X169529047Y-111783809D01*
X169529047Y-112021904D01*
X169576666Y-112117142D01*
X169624285Y-112164761D01*
X169719523Y-112212380D01*
X170005238Y-112212380D01*
X170100476Y-112164761D01*
X170148095Y-112117142D01*
X169243333Y-111212380D02*
X168910000Y-112212380D01*
X168576666Y-111212380D01*
X168338571Y-111212380D02*
X167719523Y-111212380D01*
X168052857Y-111593333D01*
X167910000Y-111593333D01*
X167814761Y-111640952D01*
X167767142Y-111688571D01*
X167719523Y-111783809D01*
X167719523Y-112021904D01*
X167767142Y-112117142D01*
X167814761Y-112164761D01*
X167910000Y-112212380D01*
X168195714Y-112212380D01*
X168290952Y-112164761D01*
X168338571Y-112117142D01*
X123928095Y-40568571D02*
X123594761Y-40568571D01*
X123451904Y-41092380D02*
X123928095Y-41092380D01*
X123928095Y-40092380D01*
X123451904Y-40092380D01*
X123023333Y-41092380D02*
X123023333Y-40092380D01*
X122451904Y-41092380D01*
X122451904Y-40092380D01*
X124023333Y-45172380D02*
X123690000Y-46172380D01*
X123356666Y-45172380D01*
X123023333Y-46172380D02*
X123023333Y-45172380D01*
X122642380Y-45172380D01*
X122547142Y-45220000D01*
X122499523Y-45267619D01*
X122451904Y-45362857D01*
X122451904Y-45505714D01*
X122499523Y-45600952D01*
X122547142Y-45648571D01*
X122642380Y-45696190D01*
X123023333Y-45696190D01*
X124047142Y-50252380D02*
X123713809Y-51252380D01*
X123380476Y-50252380D01*
X123047142Y-51252380D02*
X123047142Y-50252380D01*
X122475714Y-51252380D01*
X122475714Y-50252380D01*
X124404285Y-56332380D02*
X124404285Y-55332380D01*
X124166190Y-55332380D01*
X124023333Y-55380000D01*
X123928095Y-55475238D01*
X123880476Y-55570476D01*
X123832857Y-55760952D01*
X123832857Y-55903809D01*
X123880476Y-56094285D01*
X123928095Y-56189523D01*
X124023333Y-56284761D01*
X124166190Y-56332380D01*
X124404285Y-56332380D01*
X123499523Y-55332380D02*
X122880476Y-55332380D01*
X123213809Y-55713333D01*
X123070952Y-55713333D01*
X122975714Y-55760952D01*
X122928095Y-55808571D01*
X122880476Y-55903809D01*
X122880476Y-56141904D01*
X122928095Y-56237142D01*
X122975714Y-56284761D01*
X123070952Y-56332380D01*
X123356666Y-56332380D01*
X123451904Y-56284761D01*
X123499523Y-56237142D01*
X122023333Y-55665714D02*
X122023333Y-56332380D01*
X122261428Y-55284761D02*
X122499523Y-55999047D01*
X121880476Y-55999047D01*
X124404285Y-61412380D02*
X124404285Y-60412380D01*
X124166190Y-60412380D01*
X124023333Y-60460000D01*
X123928095Y-60555238D01*
X123880476Y-60650476D01*
X123832857Y-60840952D01*
X123832857Y-60983809D01*
X123880476Y-61174285D01*
X123928095Y-61269523D01*
X124023333Y-61364761D01*
X124166190Y-61412380D01*
X124404285Y-61412380D01*
X123499523Y-60412380D02*
X122880476Y-60412380D01*
X123213809Y-60793333D01*
X123070952Y-60793333D01*
X122975714Y-60840952D01*
X122928095Y-60888571D01*
X122880476Y-60983809D01*
X122880476Y-61221904D01*
X122928095Y-61317142D01*
X122975714Y-61364761D01*
X123070952Y-61412380D01*
X123356666Y-61412380D01*
X123451904Y-61364761D01*
X123499523Y-61317142D01*
X121975714Y-60412380D02*
X122451904Y-60412380D01*
X122499523Y-60888571D01*
X122451904Y-60840952D01*
X122356666Y-60793333D01*
X122118571Y-60793333D01*
X122023333Y-60840952D01*
X121975714Y-60888571D01*
X121928095Y-60983809D01*
X121928095Y-61221904D01*
X121975714Y-61317142D01*
X122023333Y-61364761D01*
X122118571Y-61412380D01*
X122356666Y-61412380D01*
X122451904Y-61364761D01*
X122499523Y-61317142D01*
X124404285Y-66492380D02*
X124404285Y-65492380D01*
X124166190Y-65492380D01*
X124023333Y-65540000D01*
X123928095Y-65635238D01*
X123880476Y-65730476D01*
X123832857Y-65920952D01*
X123832857Y-66063809D01*
X123880476Y-66254285D01*
X123928095Y-66349523D01*
X124023333Y-66444761D01*
X124166190Y-66492380D01*
X124404285Y-66492380D01*
X123499523Y-65492380D02*
X122880476Y-65492380D01*
X123213809Y-65873333D01*
X123070952Y-65873333D01*
X122975714Y-65920952D01*
X122928095Y-65968571D01*
X122880476Y-66063809D01*
X122880476Y-66301904D01*
X122928095Y-66397142D01*
X122975714Y-66444761D01*
X123070952Y-66492380D01*
X123356666Y-66492380D01*
X123451904Y-66444761D01*
X123499523Y-66397142D01*
X122499523Y-65587619D02*
X122451904Y-65540000D01*
X122356666Y-65492380D01*
X122118571Y-65492380D01*
X122023333Y-65540000D01*
X121975714Y-65587619D01*
X121928095Y-65682857D01*
X121928095Y-65778095D01*
X121975714Y-65920952D01*
X122547142Y-66492380D01*
X121928095Y-66492380D01*
X124404285Y-71572380D02*
X124404285Y-70572380D01*
X124166190Y-70572380D01*
X124023333Y-70620000D01*
X123928095Y-70715238D01*
X123880476Y-70810476D01*
X123832857Y-71000952D01*
X123832857Y-71143809D01*
X123880476Y-71334285D01*
X123928095Y-71429523D01*
X124023333Y-71524761D01*
X124166190Y-71572380D01*
X124404285Y-71572380D01*
X123499523Y-70572380D02*
X122880476Y-70572380D01*
X123213809Y-70953333D01*
X123070952Y-70953333D01*
X122975714Y-71000952D01*
X122928095Y-71048571D01*
X122880476Y-71143809D01*
X122880476Y-71381904D01*
X122928095Y-71477142D01*
X122975714Y-71524761D01*
X123070952Y-71572380D01*
X123356666Y-71572380D01*
X123451904Y-71524761D01*
X123499523Y-71477142D01*
X122547142Y-70572380D02*
X121928095Y-70572380D01*
X122261428Y-70953333D01*
X122118571Y-70953333D01*
X122023333Y-71000952D01*
X121975714Y-71048571D01*
X121928095Y-71143809D01*
X121928095Y-71381904D01*
X121975714Y-71477142D01*
X122023333Y-71524761D01*
X122118571Y-71572380D01*
X122404285Y-71572380D01*
X122499523Y-71524761D01*
X122547142Y-71477142D01*
X124404285Y-76652380D02*
X124404285Y-75652380D01*
X124166190Y-75652380D01*
X124023333Y-75700000D01*
X123928095Y-75795238D01*
X123880476Y-75890476D01*
X123832857Y-76080952D01*
X123832857Y-76223809D01*
X123880476Y-76414285D01*
X123928095Y-76509523D01*
X124023333Y-76604761D01*
X124166190Y-76652380D01*
X124404285Y-76652380D01*
X123451904Y-75747619D02*
X123404285Y-75700000D01*
X123309047Y-75652380D01*
X123070952Y-75652380D01*
X122975714Y-75700000D01*
X122928095Y-75747619D01*
X122880476Y-75842857D01*
X122880476Y-75938095D01*
X122928095Y-76080952D01*
X123499523Y-76652380D01*
X122880476Y-76652380D01*
X121975714Y-75652380D02*
X122451904Y-75652380D01*
X122499523Y-76128571D01*
X122451904Y-76080952D01*
X122356666Y-76033333D01*
X122118571Y-76033333D01*
X122023333Y-76080952D01*
X121975714Y-76128571D01*
X121928095Y-76223809D01*
X121928095Y-76461904D01*
X121975714Y-76557142D01*
X122023333Y-76604761D01*
X122118571Y-76652380D01*
X122356666Y-76652380D01*
X122451904Y-76604761D01*
X122499523Y-76557142D01*
X124404285Y-81732380D02*
X124404285Y-80732380D01*
X124166190Y-80732380D01*
X124023333Y-80780000D01*
X123928095Y-80875238D01*
X123880476Y-80970476D01*
X123832857Y-81160952D01*
X123832857Y-81303809D01*
X123880476Y-81494285D01*
X123928095Y-81589523D01*
X124023333Y-81684761D01*
X124166190Y-81732380D01*
X124404285Y-81732380D01*
X123451904Y-80827619D02*
X123404285Y-80780000D01*
X123309047Y-80732380D01*
X123070952Y-80732380D01*
X122975714Y-80780000D01*
X122928095Y-80827619D01*
X122880476Y-80922857D01*
X122880476Y-81018095D01*
X122928095Y-81160952D01*
X123499523Y-81732380D01*
X122880476Y-81732380D01*
X122023333Y-80732380D02*
X122213809Y-80732380D01*
X122309047Y-80780000D01*
X122356666Y-80827619D01*
X122451904Y-80970476D01*
X122499523Y-81160952D01*
X122499523Y-81541904D01*
X122451904Y-81637142D01*
X122404285Y-81684761D01*
X122309047Y-81732380D01*
X122118571Y-81732380D01*
X122023333Y-81684761D01*
X121975714Y-81637142D01*
X121928095Y-81541904D01*
X121928095Y-81303809D01*
X121975714Y-81208571D01*
X122023333Y-81160952D01*
X122118571Y-81113333D01*
X122309047Y-81113333D01*
X122404285Y-81160952D01*
X122451904Y-81208571D01*
X122499523Y-81303809D01*
X124404285Y-86812380D02*
X124404285Y-85812380D01*
X124166190Y-85812380D01*
X124023333Y-85860000D01*
X123928095Y-85955238D01*
X123880476Y-86050476D01*
X123832857Y-86240952D01*
X123832857Y-86383809D01*
X123880476Y-86574285D01*
X123928095Y-86669523D01*
X124023333Y-86764761D01*
X124166190Y-86812380D01*
X124404285Y-86812380D01*
X123451904Y-85907619D02*
X123404285Y-85860000D01*
X123309047Y-85812380D01*
X123070952Y-85812380D01*
X122975714Y-85860000D01*
X122928095Y-85907619D01*
X122880476Y-86002857D01*
X122880476Y-86098095D01*
X122928095Y-86240952D01*
X123499523Y-86812380D01*
X122880476Y-86812380D01*
X122547142Y-85812380D02*
X121880476Y-85812380D01*
X122309047Y-86812380D01*
X124404285Y-91892380D02*
X124404285Y-90892380D01*
X124166190Y-90892380D01*
X124023333Y-90940000D01*
X123928095Y-91035238D01*
X123880476Y-91130476D01*
X123832857Y-91320952D01*
X123832857Y-91463809D01*
X123880476Y-91654285D01*
X123928095Y-91749523D01*
X124023333Y-91844761D01*
X124166190Y-91892380D01*
X124404285Y-91892380D01*
X122880476Y-91892380D02*
X123451904Y-91892380D01*
X123166190Y-91892380D02*
X123166190Y-90892380D01*
X123261428Y-91035238D01*
X123356666Y-91130476D01*
X123451904Y-91178095D01*
X122023333Y-91225714D02*
X122023333Y-91892380D01*
X122261428Y-90844761D02*
X122499523Y-91559047D01*
X121880476Y-91559047D01*
X124404285Y-96972380D02*
X124404285Y-95972380D01*
X124166190Y-95972380D01*
X124023333Y-96020000D01*
X123928095Y-96115238D01*
X123880476Y-96210476D01*
X123832857Y-96400952D01*
X123832857Y-96543809D01*
X123880476Y-96734285D01*
X123928095Y-96829523D01*
X124023333Y-96924761D01*
X124166190Y-96972380D01*
X124404285Y-96972380D01*
X122880476Y-96972380D02*
X123451904Y-96972380D01*
X123166190Y-96972380D02*
X123166190Y-95972380D01*
X123261428Y-96115238D01*
X123356666Y-96210476D01*
X123451904Y-96258095D01*
X122499523Y-96067619D02*
X122451904Y-96020000D01*
X122356666Y-95972380D01*
X122118571Y-95972380D01*
X122023333Y-96020000D01*
X121975714Y-96067619D01*
X121928095Y-96162857D01*
X121928095Y-96258095D01*
X121975714Y-96400952D01*
X122547142Y-96972380D01*
X121928095Y-96972380D01*
X124404285Y-102052380D02*
X124404285Y-101052380D01*
X124166190Y-101052380D01*
X124023333Y-101100000D01*
X123928095Y-101195238D01*
X123880476Y-101290476D01*
X123832857Y-101480952D01*
X123832857Y-101623809D01*
X123880476Y-101814285D01*
X123928095Y-101909523D01*
X124023333Y-102004761D01*
X124166190Y-102052380D01*
X124404285Y-102052380D01*
X122880476Y-102052380D02*
X123451904Y-102052380D01*
X123166190Y-102052380D02*
X123166190Y-101052380D01*
X123261428Y-101195238D01*
X123356666Y-101290476D01*
X123451904Y-101338095D01*
X122547142Y-101052380D02*
X121928095Y-101052380D01*
X122261428Y-101433333D01*
X122118571Y-101433333D01*
X122023333Y-101480952D01*
X121975714Y-101528571D01*
X121928095Y-101623809D01*
X121928095Y-101861904D01*
X121975714Y-101957142D01*
X122023333Y-102004761D01*
X122118571Y-102052380D01*
X122404285Y-102052380D01*
X122499523Y-102004761D01*
X122547142Y-101957142D01*
X123951904Y-106180000D02*
X124047142Y-106132380D01*
X124190000Y-106132380D01*
X124332857Y-106180000D01*
X124428095Y-106275238D01*
X124475714Y-106370476D01*
X124523333Y-106560952D01*
X124523333Y-106703809D01*
X124475714Y-106894285D01*
X124428095Y-106989523D01*
X124332857Y-107084761D01*
X124190000Y-107132380D01*
X124094761Y-107132380D01*
X123951904Y-107084761D01*
X123904285Y-107037142D01*
X123904285Y-106703809D01*
X124094761Y-106703809D01*
X123475714Y-107132380D02*
X123475714Y-106132380D01*
X122904285Y-107132380D01*
X122904285Y-106132380D01*
X122428095Y-107132380D02*
X122428095Y-106132380D01*
X122190000Y-106132380D01*
X122047142Y-106180000D01*
X121951904Y-106275238D01*
X121904285Y-106370476D01*
X121856666Y-106560952D01*
X121856666Y-106703809D01*
X121904285Y-106894285D01*
X121951904Y-106989523D01*
X122047142Y-107084761D01*
X122190000Y-107132380D01*
X122428095Y-107132380D01*
X124285238Y-111212380D02*
X123951904Y-112212380D01*
X123618571Y-111212380D01*
X123285238Y-112212380D02*
X123285238Y-111212380D01*
X122809047Y-112212380D02*
X122809047Y-111212380D01*
X122237619Y-112212380D01*
X122237619Y-111212380D01*
M02*
