M48
INCH,TZ
T1C0.0197
T2C0.0300
T3C0.0394
T4C0.0512
T5C0.1260
%
G90
G05
T1
X46055Y-13000
X46332Y-12332
X46332Y-13668
X47000Y-12055
X47000Y-13945
X47668Y-12332
X47668Y-13668
X47945Y-13000
X67055Y-13000
X67332Y-12332
X67332Y-13668
X68000Y-12055
X68000Y-13945
X68668Y-12332
X68668Y-13668
X68945Y-13000
X46055Y-49000
X46332Y-48332
X46332Y-49668
X47000Y-48055
X47000Y-49945
X47668Y-48332
X47668Y-49668
X47945Y-49000
X67055Y-48832
X67332Y-48164
X67332Y-49500
X68000Y-47887
X68000Y-49777
X68668Y-48164
X68668Y-49500
X68945Y-48832
T2
X52600Y-28500
X52600Y-29500
X52600Y-30500
X52600Y-31500
X52600Y-32500
X52600Y-33500
X52600Y-34500
X52600Y-35500
X52600Y-36500
X52600Y-37500
X52600Y-38500
X52600Y-39500
X52600Y-40500
X52600Y-41500
X52600Y-42500
X62600Y-28500
X62600Y-29500
X62600Y-30500
X62600Y-31500
X62600Y-32500
X62600Y-33500
X62600Y-34500
X62600Y-35500
X62600Y-36500
X62600Y-37500
X62600Y-38500
X62600Y-39500
X62600Y-40500
X62600Y-41500
X62600Y-42500
T3
X59193Y-19862
X58193Y-17862
X62193Y-22862
X63193Y-14862
X51193Y-16862
X51193Y-14862
X62193Y-14862
X59193Y-20862
X51193Y-12862
X62193Y-16862
X55193Y-21862
X52193Y-14862
X54193Y-20862
X58193Y-16862
X64193Y-21862
X56193Y-14862
X56193Y-22862
X64193Y-12862
X53193Y-23862
X58193Y-18862
X62193Y-23862
X55193Y-18862
X51193Y-17862
X57193Y-18862
X59193Y-24862
X60193Y-19862
X62193Y-17862
X64193Y-22862
X51193Y-15862
X61193Y-16862
X61193Y-12862
X52193Y-16862
X61193Y-20862
X52193Y-12862
X57193Y-16862
X56193Y-21862
X56193Y-13862
X59193Y-15862
X52193Y-22862
X52193Y-13862
X57193Y-22862
X54193Y-13862
X53193Y-24862
X55193Y-19862
X64193Y-23862
X59193Y-18862
X63193Y-24862
X52193Y-17862
X54193Y-22862
X54193Y-17862
X55193Y-23862
X61193Y-19862
X62193Y-18862
X57193Y-23862
X57193Y-15862
X55193Y-12862
X60193Y-16862
X58193Y-13862
X61193Y-14862
X58193Y-20862
X53193Y-12862
X63193Y-19862
X53193Y-16862
X51193Y-22862
X62193Y-13862
X55193Y-20862
X60193Y-15862
X53193Y-22862
X61193Y-13862
X58193Y-22862
X58193Y-23862
X57193Y-19862
X52193Y-24862
X60193Y-18862
X59193Y-17862
X51193Y-23862
X55193Y-17862
X61193Y-24862
X62193Y-19862
X56193Y-18862
X56193Y-24862
X56193Y-16862
X58193Y-15862
X51193Y-13862
X62193Y-15862
X64193Y-20862
X55193Y-14862
X57193Y-20862
X64193Y-14862
X60193Y-20862
X58193Y-12862
X64193Y-19862
X54193Y-15862
X57193Y-21862
X57193Y-12862
X55193Y-16862
X61193Y-21862
X54193Y-14862
X59193Y-22862
X60193Y-17862
X59193Y-23862
X51193Y-19862
X55193Y-24862
X61193Y-18862
X64193Y-24862
X53193Y-17862
X52193Y-23862
X56193Y-17862
X54193Y-24862
X63193Y-18862
X64500Y-28500
X64500Y-29500
X64500Y-30500
X64500Y-31500
X64500Y-32500
X64500Y-33500
X64500Y-34500
X64500Y-35500
X64500Y-36500
X64500Y-37500
X64500Y-38500
X64500Y-39500
X64500Y-40500
X64500Y-41500
X64500Y-42500
X57193Y-14862
X61193Y-15862
X56193Y-12862
X60193Y-14862
X52193Y-21862
X63193Y-13862
X52193Y-15862
X62193Y-20862
X54193Y-12862
X53193Y-20862
X56193Y-15862
X58193Y-21862
X59193Y-13862
X56193Y-20862
X62193Y-21862
X55193Y-13862
X60193Y-22862
X61193Y-17862
X60193Y-23862
X56193Y-19862
X62193Y-24862
X53193Y-19862
X54193Y-18862
X56193Y-23862
X53193Y-18862
X60193Y-24862
X63193Y-15862
X64193Y-15862
X59193Y-12862
X58193Y-14862
X63193Y-20862
X60193Y-13862
X53193Y-15862
X53193Y-21862
X60193Y-12862
X50700Y-28500
X50700Y-29500
X50700Y-30500
X50700Y-31500
X50700Y-32500
X50700Y-33500
X50700Y-34500
X50700Y-35500
X50700Y-36500
X50700Y-37500
X50700Y-38500
X50700Y-39500
X50700Y-40500
X50700Y-41500
X50700Y-42500
X51193Y-20862
X55193Y-15862
X59193Y-21862
X64193Y-13862
X63193Y-21862
X57193Y-13862
X61193Y-22862
X63193Y-17862
X61193Y-23862
X58193Y-19862
X64193Y-18862
X64193Y-17862
X54193Y-23862
X57193Y-17862
X63193Y-23862
X57193Y-24862
X64193Y-16862
X59193Y-16862
X53193Y-13862
X59193Y-14862
X51193Y-21862
X53193Y-14862
X54193Y-16862
X54193Y-21862
X62193Y-12862
X52193Y-20862
X63193Y-16862
X60193Y-21862
X55193Y-22862
X63193Y-12862
X63193Y-22862
X51193Y-18862
X58193Y-24862
X52193Y-18862
X54193Y-19862
X52193Y-19862
X51193Y-24862
T4
X68200Y-16000
X68200Y-18000
X68200Y-20000
X68200Y-22000
X68200Y-24000
X68200Y-26000
X68200Y-28000
X68200Y-30000
X68200Y-32000
X68200Y-34000
X68200Y-36000
X68200Y-38000
X68200Y-40000
X68200Y-42000
X68200Y-44000
X68200Y-46000
X47000Y-16000
X47000Y-18000
X47000Y-20000
X47000Y-22000
X47000Y-24000
X47000Y-26000
X47000Y-28000
X47000Y-30000
X47000Y-32000
X47000Y-34000
X47000Y-36000
X47000Y-38000
X47000Y-40000
X47000Y-42000
X47000Y-44000
X47000Y-46000
T5
X68000Y-13000
X68000Y-48832
X47000Y-13000
X47000Y-49000
T0
M30
