G04 #@! TF.GenerationSoftware,KiCad,Pcbnew,(5.1.6)-1*
G04 #@! TF.CreationDate,2021-10-14T13:40:29-04:00*
G04 #@! TF.ProjectId,ESP32 WROOM-32 Breakout MKME.ORG,45535033-3220-4575-924f-4f4d2d333220,rev?*
G04 #@! TF.SameCoordinates,Original*
G04 #@! TF.FileFunction,Copper,L2,Bot*
G04 #@! TF.FilePolarity,Positive*
%FSLAX46Y46*%
G04 Gerber Fmt 4.6, Leading zero omitted, Abs format (unit mm)*
G04 Created by KiCad (PCBNEW (5.1.6)-1) date 2021-10-14 13:40:29*
%MOMM*%
%LPD*%
G01*
G04 APERTURE LIST*
G04 #@! TA.AperFunction,ComponentPad*
%ADD10R,2.600000X2.600000*%
G04 #@! TD*
G04 #@! TA.AperFunction,ComponentPad*
%ADD11C,2.600000*%
G04 #@! TD*
G04 #@! TA.AperFunction,ComponentPad*
%ADD12O,1.700000X1.700000*%
G04 #@! TD*
G04 #@! TA.AperFunction,ComponentPad*
%ADD13R,1.700000X1.700000*%
G04 #@! TD*
G04 #@! TA.AperFunction,ComponentPad*
%ADD14C,2.000000*%
G04 #@! TD*
G04 #@! TA.AperFunction,ComponentPad*
%ADD15C,0.800000*%
G04 #@! TD*
G04 #@! TA.AperFunction,ComponentPad*
%ADD16C,6.400000*%
G04 #@! TD*
G04 #@! TA.AperFunction,ComponentPad*
%ADD17R,1.524000X1.524000*%
G04 #@! TD*
G04 #@! TA.AperFunction,ComponentPad*
%ADD18C,1.524000*%
G04 #@! TD*
G04 #@! TA.AperFunction,Conductor*
%ADD19C,0.254000*%
G04 #@! TD*
G04 APERTURE END LIST*
D10*
X173228000Y-116840000D03*
D11*
X173228000Y-111760000D03*
X173228000Y-106680000D03*
X173228000Y-101600000D03*
X173228000Y-96520000D03*
X173228000Y-91440000D03*
X173228000Y-86360000D03*
X173228000Y-81280000D03*
X173228000Y-76200000D03*
X173228000Y-71120000D03*
X173228000Y-66040000D03*
X173228000Y-60960000D03*
X173228000Y-55880000D03*
X173228000Y-50800000D03*
X173228000Y-45720000D03*
X173228000Y-40640000D03*
D12*
X163830000Y-107950000D03*
X163830000Y-105410000D03*
X163830000Y-102870000D03*
X163830000Y-100330000D03*
X163830000Y-97790000D03*
X163830000Y-95250000D03*
X163830000Y-92710000D03*
X163830000Y-90170000D03*
X163830000Y-87630000D03*
X163830000Y-85090000D03*
X163830000Y-82550000D03*
X163830000Y-80010000D03*
X163830000Y-77470000D03*
X163830000Y-74930000D03*
D13*
X163830000Y-72390000D03*
D14*
X163050000Y-63150000D03*
X160510000Y-63150000D03*
X157970000Y-63150000D03*
X155430000Y-63150000D03*
X152890000Y-63150000D03*
X150350000Y-63150000D03*
X147810000Y-63150000D03*
X145270000Y-63150000D03*
X142730000Y-63150000D03*
X140190000Y-63150000D03*
X137650000Y-63150000D03*
X135110000Y-63150000D03*
X132570000Y-63150000D03*
X130030000Y-63150000D03*
X163050000Y-60610000D03*
X160510000Y-60610000D03*
X157970000Y-60610000D03*
X155430000Y-60610000D03*
X152890000Y-60610000D03*
X150350000Y-60610000D03*
X147810000Y-60610000D03*
X145270000Y-60610000D03*
X142730000Y-60610000D03*
X140190000Y-60610000D03*
X137650000Y-60610000D03*
X135110000Y-60610000D03*
X132570000Y-60610000D03*
X130030000Y-60610000D03*
X163050000Y-58070000D03*
X160510000Y-58070000D03*
X157970000Y-58070000D03*
X155430000Y-58070000D03*
X152890000Y-58070000D03*
X150350000Y-58070000D03*
X147810000Y-58070000D03*
X145270000Y-58070000D03*
X142730000Y-58070000D03*
X140190000Y-58070000D03*
X137650000Y-58070000D03*
X135110000Y-58070000D03*
X132570000Y-58070000D03*
X130030000Y-58070000D03*
X163050000Y-55530000D03*
X160510000Y-55530000D03*
X157970000Y-55530000D03*
X155430000Y-55530000D03*
X152890000Y-55530000D03*
X150350000Y-55530000D03*
X147810000Y-55530000D03*
X145270000Y-55530000D03*
X142730000Y-55530000D03*
X140190000Y-55530000D03*
X137650000Y-55530000D03*
X135110000Y-55530000D03*
X132570000Y-55530000D03*
X130030000Y-55530000D03*
X163050000Y-52990000D03*
X160510000Y-52990000D03*
X157970000Y-52990000D03*
X155430000Y-52990000D03*
X152890000Y-52990000D03*
X150350000Y-52990000D03*
X147810000Y-52990000D03*
X145270000Y-52990000D03*
X142730000Y-52990000D03*
X140190000Y-52990000D03*
X137650000Y-52990000D03*
X135110000Y-52990000D03*
X132570000Y-52990000D03*
X130030000Y-52990000D03*
X163050000Y-50450000D03*
X160510000Y-50450000D03*
X157970000Y-50450000D03*
X155430000Y-50450000D03*
X152890000Y-50450000D03*
X150350000Y-50450000D03*
X147810000Y-50450000D03*
X145270000Y-50450000D03*
X142730000Y-50450000D03*
X140190000Y-50450000D03*
X137650000Y-50450000D03*
X135110000Y-50450000D03*
X132570000Y-50450000D03*
X130030000Y-50450000D03*
X163050000Y-47910000D03*
X160510000Y-47910000D03*
X157970000Y-47910000D03*
X155430000Y-47910000D03*
X152890000Y-47910000D03*
X150350000Y-47910000D03*
X147810000Y-47910000D03*
X145270000Y-47910000D03*
X142730000Y-47910000D03*
X140190000Y-47910000D03*
X137650000Y-47910000D03*
X135110000Y-47910000D03*
X132570000Y-47910000D03*
X130030000Y-47910000D03*
X163050000Y-45370000D03*
X160510000Y-45370000D03*
X157970000Y-45370000D03*
X155430000Y-45370000D03*
X152890000Y-45370000D03*
X150350000Y-45370000D03*
X147810000Y-45370000D03*
X145270000Y-45370000D03*
X142730000Y-45370000D03*
X140190000Y-45370000D03*
X137650000Y-45370000D03*
X135110000Y-45370000D03*
X132570000Y-45370000D03*
X130030000Y-45370000D03*
X163050000Y-42830000D03*
X160510000Y-42830000D03*
X157970000Y-42830000D03*
X155430000Y-42830000D03*
X152890000Y-42830000D03*
X150350000Y-42830000D03*
X147810000Y-42830000D03*
X145270000Y-42830000D03*
X142730000Y-42830000D03*
X140190000Y-42830000D03*
X137650000Y-42830000D03*
X135110000Y-42830000D03*
X132570000Y-42830000D03*
X130030000Y-42830000D03*
X163050000Y-40290000D03*
X160510000Y-40290000D03*
X157970000Y-40290000D03*
X155430000Y-40290000D03*
X152890000Y-40290000D03*
X150350000Y-40290000D03*
X147810000Y-40290000D03*
X145270000Y-40290000D03*
X142730000Y-40290000D03*
X140190000Y-40290000D03*
X137650000Y-40290000D03*
X135110000Y-40290000D03*
X132570000Y-40290000D03*
X130030000Y-40290000D03*
X163050000Y-37750000D03*
X160510000Y-37750000D03*
X157970000Y-37750000D03*
X155430000Y-37750000D03*
X152890000Y-37750000D03*
X150350000Y-37750000D03*
X147810000Y-37750000D03*
X145270000Y-37750000D03*
X142730000Y-37750000D03*
X140190000Y-37750000D03*
X137650000Y-37750000D03*
X135110000Y-37750000D03*
X132570000Y-37750000D03*
X130030000Y-37750000D03*
X163050000Y-35210000D03*
X160510000Y-35210000D03*
X157970000Y-35210000D03*
X155430000Y-35210000D03*
X152890000Y-35210000D03*
X150350000Y-35210000D03*
X147810000Y-35210000D03*
X145270000Y-35210000D03*
X142730000Y-35210000D03*
X140190000Y-35210000D03*
X137650000Y-35210000D03*
X135110000Y-35210000D03*
X132570000Y-35210000D03*
X130030000Y-35210000D03*
X163050000Y-32670000D03*
X160510000Y-32670000D03*
X157970000Y-32670000D03*
X155430000Y-32670000D03*
X152890000Y-32670000D03*
X150350000Y-32670000D03*
X147810000Y-32670000D03*
X145270000Y-32670000D03*
X142730000Y-32670000D03*
X140190000Y-32670000D03*
X137650000Y-32670000D03*
X135110000Y-32670000D03*
X132570000Y-32670000D03*
X130030000Y-32670000D03*
D15*
X174417056Y-31322944D03*
X172720000Y-30620000D03*
X171022944Y-31322944D03*
X170320000Y-33020000D03*
X171022944Y-34717056D03*
X172720000Y-35420000D03*
X174417056Y-34717056D03*
X175120000Y-33020000D03*
D16*
X172720000Y-33020000D03*
D15*
X121077056Y-31322944D03*
X119380000Y-30620000D03*
X117682944Y-31322944D03*
X116980000Y-33020000D03*
X117682944Y-34717056D03*
X119380000Y-35420000D03*
X121077056Y-34717056D03*
X121780000Y-33020000D03*
D16*
X119380000Y-33020000D03*
D15*
X121077056Y-122762944D03*
X119380000Y-122060000D03*
X117682944Y-122762944D03*
X116980000Y-124460000D03*
X117682944Y-126157056D03*
X119380000Y-126860000D03*
X121077056Y-126157056D03*
X121780000Y-124460000D03*
D16*
X119380000Y-124460000D03*
D15*
X174417056Y-122335888D03*
X172720000Y-121632944D03*
X171022944Y-122335888D03*
X170320000Y-124032944D03*
X171022944Y-125730000D03*
X172720000Y-126432944D03*
X174417056Y-125730000D03*
X175120000Y-124032944D03*
D16*
X172720000Y-124032944D03*
D12*
X128778000Y-107950000D03*
X128778000Y-105410000D03*
X128778000Y-102870000D03*
X128778000Y-100330000D03*
X128778000Y-97790000D03*
X128778000Y-95250000D03*
X128778000Y-92710000D03*
X128778000Y-90170000D03*
X128778000Y-87630000D03*
X128778000Y-85090000D03*
X128778000Y-82550000D03*
X128778000Y-80010000D03*
X128778000Y-77470000D03*
X128778000Y-74930000D03*
D13*
X128778000Y-72390000D03*
D17*
X133604000Y-72390000D03*
D18*
X133604000Y-74930000D03*
X133604000Y-77470000D03*
X133604000Y-80010000D03*
X133604000Y-82550000D03*
X133604000Y-85090000D03*
X133604000Y-87630000D03*
X133604000Y-90170000D03*
X133604000Y-92710000D03*
X133604000Y-95250000D03*
X133604000Y-97790000D03*
X133604000Y-100330000D03*
X133604000Y-102870000D03*
X133604000Y-105410000D03*
X133604000Y-107950000D03*
X159004000Y-107950000D03*
X159004000Y-105410000D03*
X159004000Y-102870000D03*
X159004000Y-100330000D03*
X159004000Y-97790000D03*
X159004000Y-95250000D03*
X159004000Y-92710000D03*
X159004000Y-90170000D03*
X159004000Y-87630000D03*
X159004000Y-85090000D03*
X159004000Y-82550000D03*
X159004000Y-80010000D03*
X159004000Y-77470000D03*
X159004000Y-74930000D03*
X159004000Y-72390000D03*
D11*
X119380000Y-116840000D03*
X119380000Y-111760000D03*
X119380000Y-106680000D03*
X119380000Y-101600000D03*
X119380000Y-96520000D03*
X119380000Y-91440000D03*
X119380000Y-86360000D03*
X119380000Y-81280000D03*
X119380000Y-76200000D03*
X119380000Y-71120000D03*
X119380000Y-66040000D03*
X119380000Y-60960000D03*
X119380000Y-55880000D03*
X119380000Y-50800000D03*
X119380000Y-45720000D03*
D10*
X119380000Y-40640000D03*
D19*
G36*
X179655001Y-126966344D02*
G01*
X179655000Y-126966354D01*
X179655001Y-130125000D01*
X112445000Y-130125000D01*
X112445000Y-124082285D01*
X115545000Y-124082285D01*
X115545000Y-124837715D01*
X115692377Y-125578628D01*
X115981467Y-126276554D01*
X116401161Y-126904670D01*
X116935330Y-127438839D01*
X117563446Y-127858533D01*
X118261372Y-128147623D01*
X119002285Y-128295000D01*
X119757715Y-128295000D01*
X120498628Y-128147623D01*
X121196554Y-127858533D01*
X121824670Y-127438839D01*
X122358839Y-126904670D01*
X122778533Y-126276554D01*
X123067623Y-125578628D01*
X123215000Y-124837715D01*
X123215000Y-124082285D01*
X123130054Y-123655229D01*
X168885000Y-123655229D01*
X168885000Y-124410659D01*
X169032377Y-125151572D01*
X169321467Y-125849498D01*
X169741161Y-126477614D01*
X170275330Y-127011783D01*
X170903446Y-127431477D01*
X171601372Y-127720567D01*
X172342285Y-127867944D01*
X173097715Y-127867944D01*
X173838628Y-127720567D01*
X174536554Y-127431477D01*
X175164670Y-127011783D01*
X175698839Y-126477614D01*
X176118533Y-125849498D01*
X176407623Y-125151572D01*
X176555000Y-124410659D01*
X176555000Y-123655229D01*
X176407623Y-122914316D01*
X176118533Y-122216390D01*
X175698839Y-121588274D01*
X175164670Y-121054105D01*
X174536554Y-120634411D01*
X173838628Y-120345321D01*
X173097715Y-120197944D01*
X172342285Y-120197944D01*
X171601372Y-120345321D01*
X170903446Y-120634411D01*
X170275330Y-121054105D01*
X169741161Y-121588274D01*
X169321467Y-122216390D01*
X169032377Y-122914316D01*
X168885000Y-123655229D01*
X123130054Y-123655229D01*
X123067623Y-123341372D01*
X122778533Y-122643446D01*
X122358839Y-122015330D01*
X121824670Y-121481161D01*
X121196554Y-121061467D01*
X120498628Y-120772377D01*
X119757715Y-120625000D01*
X119002285Y-120625000D01*
X118261372Y-120772377D01*
X117563446Y-121061467D01*
X116935330Y-121481161D01*
X116401161Y-122015330D01*
X115981467Y-122643446D01*
X115692377Y-123341372D01*
X115545000Y-124082285D01*
X112445000Y-124082285D01*
X112445000Y-116649419D01*
X117445000Y-116649419D01*
X117445000Y-117030581D01*
X117519361Y-117404419D01*
X117665225Y-117756566D01*
X117876987Y-118073491D01*
X118146509Y-118343013D01*
X118463434Y-118554775D01*
X118815581Y-118700639D01*
X119189419Y-118775000D01*
X119570581Y-118775000D01*
X119944419Y-118700639D01*
X120296566Y-118554775D01*
X120613491Y-118343013D01*
X120883013Y-118073491D01*
X121094775Y-117756566D01*
X121240639Y-117404419D01*
X121315000Y-117030581D01*
X121315000Y-116649419D01*
X121240639Y-116275581D01*
X121094775Y-115923434D01*
X120883013Y-115606509D01*
X120816504Y-115540000D01*
X171289928Y-115540000D01*
X171289928Y-118140000D01*
X171302188Y-118264482D01*
X171338498Y-118384180D01*
X171397463Y-118494494D01*
X171476815Y-118591185D01*
X171573506Y-118670537D01*
X171683820Y-118729502D01*
X171803518Y-118765812D01*
X171928000Y-118778072D01*
X174528000Y-118778072D01*
X174652482Y-118765812D01*
X174772180Y-118729502D01*
X174882494Y-118670537D01*
X174979185Y-118591185D01*
X175058537Y-118494494D01*
X175117502Y-118384180D01*
X175153812Y-118264482D01*
X175166072Y-118140000D01*
X175166072Y-115540000D01*
X175153812Y-115415518D01*
X175117502Y-115295820D01*
X175058537Y-115185506D01*
X174979185Y-115088815D01*
X174882494Y-115009463D01*
X174772180Y-114950498D01*
X174652482Y-114914188D01*
X174528000Y-114901928D01*
X171928000Y-114901928D01*
X171803518Y-114914188D01*
X171683820Y-114950498D01*
X171573506Y-115009463D01*
X171476815Y-115088815D01*
X171397463Y-115185506D01*
X171338498Y-115295820D01*
X171302188Y-115415518D01*
X171289928Y-115540000D01*
X120816504Y-115540000D01*
X120613491Y-115336987D01*
X120296566Y-115125225D01*
X119944419Y-114979361D01*
X119570581Y-114905000D01*
X119189419Y-114905000D01*
X118815581Y-114979361D01*
X118463434Y-115125225D01*
X118146509Y-115336987D01*
X117876987Y-115606509D01*
X117665225Y-115923434D01*
X117519361Y-116275581D01*
X117445000Y-116649419D01*
X112445000Y-116649419D01*
X112445000Y-111569419D01*
X117445000Y-111569419D01*
X117445000Y-111950581D01*
X117519361Y-112324419D01*
X117665225Y-112676566D01*
X117876987Y-112993491D01*
X118146509Y-113263013D01*
X118463434Y-113474775D01*
X118815581Y-113620639D01*
X119189419Y-113695000D01*
X119570581Y-113695000D01*
X119944419Y-113620639D01*
X120296566Y-113474775D01*
X120613491Y-113263013D01*
X120883013Y-112993491D01*
X121094775Y-112676566D01*
X121240639Y-112324419D01*
X121315000Y-111950581D01*
X121315000Y-111569419D01*
X171293000Y-111569419D01*
X171293000Y-111950581D01*
X171367361Y-112324419D01*
X171513225Y-112676566D01*
X171724987Y-112993491D01*
X171994509Y-113263013D01*
X172311434Y-113474775D01*
X172663581Y-113620639D01*
X173037419Y-113695000D01*
X173418581Y-113695000D01*
X173792419Y-113620639D01*
X174144566Y-113474775D01*
X174461491Y-113263013D01*
X174731013Y-112993491D01*
X174942775Y-112676566D01*
X175088639Y-112324419D01*
X175163000Y-111950581D01*
X175163000Y-111569419D01*
X175088639Y-111195581D01*
X174942775Y-110843434D01*
X174731013Y-110526509D01*
X174461491Y-110256987D01*
X174144566Y-110045225D01*
X173792419Y-109899361D01*
X173418581Y-109825000D01*
X173037419Y-109825000D01*
X172663581Y-109899361D01*
X172311434Y-110045225D01*
X171994509Y-110256987D01*
X171724987Y-110526509D01*
X171513225Y-110843434D01*
X171367361Y-111195581D01*
X171293000Y-111569419D01*
X121315000Y-111569419D01*
X121240639Y-111195581D01*
X121094775Y-110843434D01*
X120883013Y-110526509D01*
X120613491Y-110256987D01*
X120296566Y-110045225D01*
X119944419Y-109899361D01*
X119570581Y-109825000D01*
X119189419Y-109825000D01*
X118815581Y-109899361D01*
X118463434Y-110045225D01*
X118146509Y-110256987D01*
X117876987Y-110526509D01*
X117665225Y-110843434D01*
X117519361Y-111195581D01*
X117445000Y-111569419D01*
X112445000Y-111569419D01*
X112445000Y-108029224D01*
X118210381Y-108029224D01*
X118342317Y-108324312D01*
X118683045Y-108495159D01*
X119050557Y-108596250D01*
X119430729Y-108623701D01*
X119808951Y-108576457D01*
X120170690Y-108456333D01*
X120417683Y-108324312D01*
X120549619Y-108029224D01*
X119380000Y-106859605D01*
X118210381Y-108029224D01*
X112445000Y-108029224D01*
X112445000Y-106730729D01*
X117436299Y-106730729D01*
X117483543Y-107108951D01*
X117603667Y-107470690D01*
X117735688Y-107717683D01*
X118030776Y-107849619D01*
X119200395Y-106680000D01*
X119559605Y-106680000D01*
X120729224Y-107849619D01*
X120831836Y-107803740D01*
X127293000Y-107803740D01*
X127293000Y-108096260D01*
X127350068Y-108383158D01*
X127462010Y-108653411D01*
X127624525Y-108896632D01*
X127831368Y-109103475D01*
X128074589Y-109265990D01*
X128344842Y-109377932D01*
X128631740Y-109435000D01*
X128924260Y-109435000D01*
X129211158Y-109377932D01*
X129481411Y-109265990D01*
X129724632Y-109103475D01*
X129931475Y-108896632D01*
X130093990Y-108653411D01*
X130205932Y-108383158D01*
X130263000Y-108096260D01*
X130263000Y-107812408D01*
X132207000Y-107812408D01*
X132207000Y-108087592D01*
X132260686Y-108357490D01*
X132365995Y-108611727D01*
X132518880Y-108840535D01*
X132713465Y-109035120D01*
X132942273Y-109188005D01*
X133196510Y-109293314D01*
X133466408Y-109347000D01*
X133741592Y-109347000D01*
X134011490Y-109293314D01*
X134265727Y-109188005D01*
X134494535Y-109035120D01*
X134689120Y-108840535D01*
X134842005Y-108611727D01*
X134947314Y-108357490D01*
X135001000Y-108087592D01*
X135001000Y-107812408D01*
X157607000Y-107812408D01*
X157607000Y-108087592D01*
X157660686Y-108357490D01*
X157765995Y-108611727D01*
X157918880Y-108840535D01*
X158113465Y-109035120D01*
X158342273Y-109188005D01*
X158596510Y-109293314D01*
X158866408Y-109347000D01*
X159141592Y-109347000D01*
X159411490Y-109293314D01*
X159665727Y-109188005D01*
X159894535Y-109035120D01*
X160089120Y-108840535D01*
X160242005Y-108611727D01*
X160347314Y-108357490D01*
X160401000Y-108087592D01*
X160401000Y-107812408D01*
X160399276Y-107803740D01*
X162345000Y-107803740D01*
X162345000Y-108096260D01*
X162402068Y-108383158D01*
X162514010Y-108653411D01*
X162676525Y-108896632D01*
X162883368Y-109103475D01*
X163126589Y-109265990D01*
X163396842Y-109377932D01*
X163683740Y-109435000D01*
X163976260Y-109435000D01*
X164263158Y-109377932D01*
X164533411Y-109265990D01*
X164776632Y-109103475D01*
X164983475Y-108896632D01*
X165145990Y-108653411D01*
X165257932Y-108383158D01*
X165315000Y-108096260D01*
X165315000Y-108029224D01*
X172058381Y-108029224D01*
X172190317Y-108324312D01*
X172531045Y-108495159D01*
X172898557Y-108596250D01*
X173278729Y-108623701D01*
X173656951Y-108576457D01*
X174018690Y-108456333D01*
X174265683Y-108324312D01*
X174397619Y-108029224D01*
X173228000Y-106859605D01*
X172058381Y-108029224D01*
X165315000Y-108029224D01*
X165315000Y-107803740D01*
X165257932Y-107516842D01*
X165145990Y-107246589D01*
X164983475Y-107003368D01*
X164776632Y-106796525D01*
X164678162Y-106730729D01*
X171284299Y-106730729D01*
X171331543Y-107108951D01*
X171451667Y-107470690D01*
X171583688Y-107717683D01*
X171878776Y-107849619D01*
X173048395Y-106680000D01*
X173407605Y-106680000D01*
X174577224Y-107849619D01*
X174872312Y-107717683D01*
X175043159Y-107376955D01*
X175144250Y-107009443D01*
X175171701Y-106629271D01*
X175124457Y-106251049D01*
X175004333Y-105889310D01*
X174872312Y-105642317D01*
X174577224Y-105510381D01*
X173407605Y-106680000D01*
X173048395Y-106680000D01*
X171878776Y-105510381D01*
X171583688Y-105642317D01*
X171412841Y-105983045D01*
X171311750Y-106350557D01*
X171284299Y-106730729D01*
X164678162Y-106730729D01*
X164594466Y-106674805D01*
X164711355Y-106605178D01*
X164927588Y-106410269D01*
X165101641Y-106176920D01*
X165226825Y-105914099D01*
X165271476Y-105766890D01*
X165150155Y-105537000D01*
X163957000Y-105537000D01*
X163957000Y-105557000D01*
X163703000Y-105557000D01*
X163703000Y-105537000D01*
X162509845Y-105537000D01*
X162388524Y-105766890D01*
X162433175Y-105914099D01*
X162558359Y-106176920D01*
X162732412Y-106410269D01*
X162948645Y-106605178D01*
X163065534Y-106674805D01*
X162883368Y-106796525D01*
X162676525Y-107003368D01*
X162514010Y-107246589D01*
X162402068Y-107516842D01*
X162345000Y-107803740D01*
X160399276Y-107803740D01*
X160347314Y-107542510D01*
X160242005Y-107288273D01*
X160089120Y-107059465D01*
X159894535Y-106864880D01*
X159665727Y-106711995D01*
X159594057Y-106682308D01*
X159607023Y-106677636D01*
X159722980Y-106615656D01*
X159789960Y-106375565D01*
X159004000Y-105589605D01*
X158218040Y-106375565D01*
X158285020Y-106615656D01*
X158420760Y-106679485D01*
X158342273Y-106711995D01*
X158113465Y-106864880D01*
X157918880Y-107059465D01*
X157765995Y-107288273D01*
X157660686Y-107542510D01*
X157607000Y-107812408D01*
X135001000Y-107812408D01*
X134947314Y-107542510D01*
X134842005Y-107288273D01*
X134689120Y-107059465D01*
X134494535Y-106864880D01*
X134265727Y-106711995D01*
X134194057Y-106682308D01*
X134207023Y-106677636D01*
X134322980Y-106615656D01*
X134389960Y-106375565D01*
X133604000Y-105589605D01*
X132818040Y-106375565D01*
X132885020Y-106615656D01*
X133020760Y-106679485D01*
X132942273Y-106711995D01*
X132713465Y-106864880D01*
X132518880Y-107059465D01*
X132365995Y-107288273D01*
X132260686Y-107542510D01*
X132207000Y-107812408D01*
X130263000Y-107812408D01*
X130263000Y-107803740D01*
X130205932Y-107516842D01*
X130093990Y-107246589D01*
X129931475Y-107003368D01*
X129724632Y-106796525D01*
X129542466Y-106674805D01*
X129659355Y-106605178D01*
X129875588Y-106410269D01*
X130049641Y-106176920D01*
X130174825Y-105914099D01*
X130219476Y-105766890D01*
X130098155Y-105537000D01*
X128905000Y-105537000D01*
X128905000Y-105557000D01*
X128651000Y-105557000D01*
X128651000Y-105537000D01*
X127457845Y-105537000D01*
X127336524Y-105766890D01*
X127381175Y-105914099D01*
X127506359Y-106176920D01*
X127680412Y-106410269D01*
X127896645Y-106605178D01*
X128013534Y-106674805D01*
X127831368Y-106796525D01*
X127624525Y-107003368D01*
X127462010Y-107246589D01*
X127350068Y-107516842D01*
X127293000Y-107803740D01*
X120831836Y-107803740D01*
X121024312Y-107717683D01*
X121195159Y-107376955D01*
X121296250Y-107009443D01*
X121323701Y-106629271D01*
X121276457Y-106251049D01*
X121156333Y-105889310D01*
X121024312Y-105642317D01*
X120729224Y-105510381D01*
X119559605Y-106680000D01*
X119200395Y-106680000D01*
X118030776Y-105510381D01*
X117735688Y-105642317D01*
X117564841Y-105983045D01*
X117463750Y-106350557D01*
X117436299Y-106730729D01*
X112445000Y-106730729D01*
X112445000Y-105330776D01*
X118210381Y-105330776D01*
X119380000Y-106500395D01*
X120398378Y-105482017D01*
X132202090Y-105482017D01*
X132243078Y-105754133D01*
X132336364Y-106013023D01*
X132398344Y-106128980D01*
X132638435Y-106195960D01*
X133424395Y-105410000D01*
X133783605Y-105410000D01*
X134569565Y-106195960D01*
X134809656Y-106128980D01*
X134926756Y-105879952D01*
X134993023Y-105612865D01*
X134999157Y-105482017D01*
X157602090Y-105482017D01*
X157643078Y-105754133D01*
X157736364Y-106013023D01*
X157798344Y-106128980D01*
X158038435Y-106195960D01*
X158824395Y-105410000D01*
X159183605Y-105410000D01*
X159969565Y-106195960D01*
X160209656Y-106128980D01*
X160326756Y-105879952D01*
X160393023Y-105612865D01*
X160405910Y-105337983D01*
X160404825Y-105330776D01*
X172058381Y-105330776D01*
X173228000Y-106500395D01*
X174397619Y-105330776D01*
X174265683Y-105035688D01*
X173924955Y-104864841D01*
X173557443Y-104763750D01*
X173177271Y-104736299D01*
X172799049Y-104783543D01*
X172437310Y-104903667D01*
X172190317Y-105035688D01*
X172058381Y-105330776D01*
X160404825Y-105330776D01*
X160364922Y-105065867D01*
X160271636Y-104806977D01*
X160209656Y-104691020D01*
X159969565Y-104624040D01*
X159183605Y-105410000D01*
X158824395Y-105410000D01*
X158038435Y-104624040D01*
X157798344Y-104691020D01*
X157681244Y-104940048D01*
X157614977Y-105207135D01*
X157602090Y-105482017D01*
X134999157Y-105482017D01*
X135005910Y-105337983D01*
X134964922Y-105065867D01*
X134871636Y-104806977D01*
X134809656Y-104691020D01*
X134569565Y-104624040D01*
X133783605Y-105410000D01*
X133424395Y-105410000D01*
X132638435Y-104624040D01*
X132398344Y-104691020D01*
X132281244Y-104940048D01*
X132214977Y-105207135D01*
X132202090Y-105482017D01*
X120398378Y-105482017D01*
X120549619Y-105330776D01*
X120417683Y-105035688D01*
X120076955Y-104864841D01*
X119709443Y-104763750D01*
X119329271Y-104736299D01*
X118951049Y-104783543D01*
X118589310Y-104903667D01*
X118342317Y-105035688D01*
X118210381Y-105330776D01*
X112445000Y-105330776D01*
X112445000Y-101409419D01*
X117445000Y-101409419D01*
X117445000Y-101790581D01*
X117519361Y-102164419D01*
X117665225Y-102516566D01*
X117876987Y-102833491D01*
X118146509Y-103103013D01*
X118463434Y-103314775D01*
X118815581Y-103460639D01*
X119189419Y-103535000D01*
X119570581Y-103535000D01*
X119944419Y-103460639D01*
X120296566Y-103314775D01*
X120613491Y-103103013D01*
X120883013Y-102833491D01*
X121094775Y-102516566D01*
X121240639Y-102164419D01*
X121315000Y-101790581D01*
X121315000Y-101409419D01*
X121240639Y-101035581D01*
X121094775Y-100683434D01*
X120883013Y-100366509D01*
X120613491Y-100096987D01*
X120296566Y-99885225D01*
X119944419Y-99739361D01*
X119570581Y-99665000D01*
X119189419Y-99665000D01*
X118815581Y-99739361D01*
X118463434Y-99885225D01*
X118146509Y-100096987D01*
X117876987Y-100366509D01*
X117665225Y-100683434D01*
X117519361Y-101035581D01*
X117445000Y-101409419D01*
X112445000Y-101409419D01*
X112445000Y-96329419D01*
X117445000Y-96329419D01*
X117445000Y-96710581D01*
X117519361Y-97084419D01*
X117665225Y-97436566D01*
X117876987Y-97753491D01*
X118146509Y-98023013D01*
X118463434Y-98234775D01*
X118815581Y-98380639D01*
X119189419Y-98455000D01*
X119570581Y-98455000D01*
X119944419Y-98380639D01*
X120296566Y-98234775D01*
X120613491Y-98023013D01*
X120883013Y-97753491D01*
X121094775Y-97436566D01*
X121240639Y-97084419D01*
X121315000Y-96710581D01*
X121315000Y-96329419D01*
X121240639Y-95955581D01*
X121094775Y-95603434D01*
X120883013Y-95286509D01*
X120613491Y-95016987D01*
X120296566Y-94805225D01*
X119944419Y-94659361D01*
X119570581Y-94585000D01*
X119189419Y-94585000D01*
X118815581Y-94659361D01*
X118463434Y-94805225D01*
X118146509Y-95016987D01*
X117876987Y-95286509D01*
X117665225Y-95603434D01*
X117519361Y-95955581D01*
X117445000Y-96329419D01*
X112445000Y-96329419D01*
X112445000Y-91249419D01*
X117445000Y-91249419D01*
X117445000Y-91630581D01*
X117519361Y-92004419D01*
X117665225Y-92356566D01*
X117876987Y-92673491D01*
X118146509Y-92943013D01*
X118463434Y-93154775D01*
X118815581Y-93300639D01*
X119189419Y-93375000D01*
X119570581Y-93375000D01*
X119944419Y-93300639D01*
X120296566Y-93154775D01*
X120613491Y-92943013D01*
X120883013Y-92673491D01*
X121094775Y-92356566D01*
X121240639Y-92004419D01*
X121315000Y-91630581D01*
X121315000Y-91249419D01*
X121240639Y-90875581D01*
X121094775Y-90523434D01*
X120883013Y-90206509D01*
X120613491Y-89936987D01*
X120296566Y-89725225D01*
X119944419Y-89579361D01*
X119570581Y-89505000D01*
X119189419Y-89505000D01*
X118815581Y-89579361D01*
X118463434Y-89725225D01*
X118146509Y-89936987D01*
X117876987Y-90206509D01*
X117665225Y-90523434D01*
X117519361Y-90875581D01*
X117445000Y-91249419D01*
X112445000Y-91249419D01*
X112445000Y-86169419D01*
X117445000Y-86169419D01*
X117445000Y-86550581D01*
X117519361Y-86924419D01*
X117665225Y-87276566D01*
X117876987Y-87593491D01*
X118146509Y-87863013D01*
X118463434Y-88074775D01*
X118815581Y-88220639D01*
X119189419Y-88295000D01*
X119570581Y-88295000D01*
X119944419Y-88220639D01*
X120296566Y-88074775D01*
X120613491Y-87863013D01*
X120883013Y-87593491D01*
X121094775Y-87276566D01*
X121240639Y-86924419D01*
X121315000Y-86550581D01*
X121315000Y-86169419D01*
X121240639Y-85795581D01*
X121094775Y-85443434D01*
X120883013Y-85126509D01*
X120613491Y-84856987D01*
X120296566Y-84645225D01*
X119944419Y-84499361D01*
X119570581Y-84425000D01*
X119189419Y-84425000D01*
X118815581Y-84499361D01*
X118463434Y-84645225D01*
X118146509Y-84856987D01*
X117876987Y-85126509D01*
X117665225Y-85443434D01*
X117519361Y-85795581D01*
X117445000Y-86169419D01*
X112445000Y-86169419D01*
X112445000Y-81089419D01*
X117445000Y-81089419D01*
X117445000Y-81470581D01*
X117519361Y-81844419D01*
X117665225Y-82196566D01*
X117876987Y-82513491D01*
X118146509Y-82783013D01*
X118463434Y-82994775D01*
X118815581Y-83140639D01*
X119189419Y-83215000D01*
X119570581Y-83215000D01*
X119944419Y-83140639D01*
X120296566Y-82994775D01*
X120613491Y-82783013D01*
X120883013Y-82513491D01*
X121094775Y-82196566D01*
X121240639Y-81844419D01*
X121315000Y-81470581D01*
X121315000Y-81089419D01*
X121240639Y-80715581D01*
X121094775Y-80363434D01*
X120883013Y-80046509D01*
X120613491Y-79776987D01*
X120296566Y-79565225D01*
X119944419Y-79419361D01*
X119570581Y-79345000D01*
X119189419Y-79345000D01*
X118815581Y-79419361D01*
X118463434Y-79565225D01*
X118146509Y-79776987D01*
X117876987Y-80046509D01*
X117665225Y-80363434D01*
X117519361Y-80715581D01*
X117445000Y-81089419D01*
X112445000Y-81089419D01*
X112445000Y-76009419D01*
X117445000Y-76009419D01*
X117445000Y-76390581D01*
X117519361Y-76764419D01*
X117665225Y-77116566D01*
X117876987Y-77433491D01*
X118146509Y-77703013D01*
X118463434Y-77914775D01*
X118815581Y-78060639D01*
X119189419Y-78135000D01*
X119570581Y-78135000D01*
X119944419Y-78060639D01*
X120296566Y-77914775D01*
X120613491Y-77703013D01*
X120883013Y-77433491D01*
X121094775Y-77116566D01*
X121240639Y-76764419D01*
X121315000Y-76390581D01*
X121315000Y-76009419D01*
X121240639Y-75635581D01*
X121094775Y-75283434D01*
X120883013Y-74966509D01*
X120613491Y-74696987D01*
X120296566Y-74485225D01*
X119944419Y-74339361D01*
X119570581Y-74265000D01*
X119189419Y-74265000D01*
X118815581Y-74339361D01*
X118463434Y-74485225D01*
X118146509Y-74696987D01*
X117876987Y-74966509D01*
X117665225Y-75283434D01*
X117519361Y-75635581D01*
X117445000Y-76009419D01*
X112445000Y-76009419D01*
X112445000Y-70929419D01*
X117445000Y-70929419D01*
X117445000Y-71310581D01*
X117519361Y-71684419D01*
X117665225Y-72036566D01*
X117876987Y-72353491D01*
X118146509Y-72623013D01*
X118463434Y-72834775D01*
X118815581Y-72980639D01*
X119189419Y-73055000D01*
X119570581Y-73055000D01*
X119944419Y-72980639D01*
X120296566Y-72834775D01*
X120613491Y-72623013D01*
X120883013Y-72353491D01*
X121094775Y-72036566D01*
X121240639Y-71684419D01*
X121269365Y-71540000D01*
X127289928Y-71540000D01*
X127289928Y-73240000D01*
X127302188Y-73364482D01*
X127338498Y-73484180D01*
X127397463Y-73594494D01*
X127476815Y-73691185D01*
X127573506Y-73770537D01*
X127683820Y-73829502D01*
X127756380Y-73851513D01*
X127624525Y-73983368D01*
X127462010Y-74226589D01*
X127350068Y-74496842D01*
X127293000Y-74783740D01*
X127293000Y-75076260D01*
X127350068Y-75363158D01*
X127462010Y-75633411D01*
X127624525Y-75876632D01*
X127831368Y-76083475D01*
X128005760Y-76200000D01*
X127831368Y-76316525D01*
X127624525Y-76523368D01*
X127462010Y-76766589D01*
X127350068Y-77036842D01*
X127293000Y-77323740D01*
X127293000Y-77616260D01*
X127350068Y-77903158D01*
X127462010Y-78173411D01*
X127624525Y-78416632D01*
X127831368Y-78623475D01*
X128005760Y-78740000D01*
X127831368Y-78856525D01*
X127624525Y-79063368D01*
X127462010Y-79306589D01*
X127350068Y-79576842D01*
X127293000Y-79863740D01*
X127293000Y-80156260D01*
X127350068Y-80443158D01*
X127462010Y-80713411D01*
X127624525Y-80956632D01*
X127831368Y-81163475D01*
X128005760Y-81280000D01*
X127831368Y-81396525D01*
X127624525Y-81603368D01*
X127462010Y-81846589D01*
X127350068Y-82116842D01*
X127293000Y-82403740D01*
X127293000Y-82696260D01*
X127350068Y-82983158D01*
X127462010Y-83253411D01*
X127624525Y-83496632D01*
X127831368Y-83703475D01*
X128005760Y-83820000D01*
X127831368Y-83936525D01*
X127624525Y-84143368D01*
X127462010Y-84386589D01*
X127350068Y-84656842D01*
X127293000Y-84943740D01*
X127293000Y-85236260D01*
X127350068Y-85523158D01*
X127462010Y-85793411D01*
X127624525Y-86036632D01*
X127831368Y-86243475D01*
X128005760Y-86360000D01*
X127831368Y-86476525D01*
X127624525Y-86683368D01*
X127462010Y-86926589D01*
X127350068Y-87196842D01*
X127293000Y-87483740D01*
X127293000Y-87776260D01*
X127350068Y-88063158D01*
X127462010Y-88333411D01*
X127624525Y-88576632D01*
X127831368Y-88783475D01*
X128005760Y-88900000D01*
X127831368Y-89016525D01*
X127624525Y-89223368D01*
X127462010Y-89466589D01*
X127350068Y-89736842D01*
X127293000Y-90023740D01*
X127293000Y-90316260D01*
X127350068Y-90603158D01*
X127462010Y-90873411D01*
X127624525Y-91116632D01*
X127831368Y-91323475D01*
X128005760Y-91440000D01*
X127831368Y-91556525D01*
X127624525Y-91763368D01*
X127462010Y-92006589D01*
X127350068Y-92276842D01*
X127293000Y-92563740D01*
X127293000Y-92856260D01*
X127350068Y-93143158D01*
X127462010Y-93413411D01*
X127624525Y-93656632D01*
X127831368Y-93863475D01*
X128005760Y-93980000D01*
X127831368Y-94096525D01*
X127624525Y-94303368D01*
X127462010Y-94546589D01*
X127350068Y-94816842D01*
X127293000Y-95103740D01*
X127293000Y-95396260D01*
X127350068Y-95683158D01*
X127462010Y-95953411D01*
X127624525Y-96196632D01*
X127831368Y-96403475D01*
X128005760Y-96520000D01*
X127831368Y-96636525D01*
X127624525Y-96843368D01*
X127462010Y-97086589D01*
X127350068Y-97356842D01*
X127293000Y-97643740D01*
X127293000Y-97936260D01*
X127350068Y-98223158D01*
X127462010Y-98493411D01*
X127624525Y-98736632D01*
X127831368Y-98943475D01*
X128005760Y-99060000D01*
X127831368Y-99176525D01*
X127624525Y-99383368D01*
X127462010Y-99626589D01*
X127350068Y-99896842D01*
X127293000Y-100183740D01*
X127293000Y-100476260D01*
X127350068Y-100763158D01*
X127462010Y-101033411D01*
X127624525Y-101276632D01*
X127831368Y-101483475D01*
X128005760Y-101600000D01*
X127831368Y-101716525D01*
X127624525Y-101923368D01*
X127462010Y-102166589D01*
X127350068Y-102436842D01*
X127293000Y-102723740D01*
X127293000Y-103016260D01*
X127350068Y-103303158D01*
X127462010Y-103573411D01*
X127624525Y-103816632D01*
X127831368Y-104023475D01*
X128013534Y-104145195D01*
X127896645Y-104214822D01*
X127680412Y-104409731D01*
X127506359Y-104643080D01*
X127381175Y-104905901D01*
X127336524Y-105053110D01*
X127457845Y-105283000D01*
X128651000Y-105283000D01*
X128651000Y-105263000D01*
X128905000Y-105263000D01*
X128905000Y-105283000D01*
X130098155Y-105283000D01*
X130219476Y-105053110D01*
X130174825Y-104905901D01*
X130049641Y-104643080D01*
X129875588Y-104409731D01*
X129659355Y-104214822D01*
X129542466Y-104145195D01*
X129724632Y-104023475D01*
X129931475Y-103816632D01*
X130093990Y-103573411D01*
X130205932Y-103303158D01*
X130263000Y-103016260D01*
X130263000Y-102723740D01*
X130205932Y-102436842D01*
X130093990Y-102166589D01*
X129931475Y-101923368D01*
X129724632Y-101716525D01*
X129550240Y-101600000D01*
X129724632Y-101483475D01*
X129931475Y-101276632D01*
X130093990Y-101033411D01*
X130205932Y-100763158D01*
X130263000Y-100476260D01*
X130263000Y-100183740D01*
X130205932Y-99896842D01*
X130093990Y-99626589D01*
X129931475Y-99383368D01*
X129724632Y-99176525D01*
X129550240Y-99060000D01*
X129724632Y-98943475D01*
X129931475Y-98736632D01*
X130093990Y-98493411D01*
X130205932Y-98223158D01*
X130263000Y-97936260D01*
X130263000Y-97643740D01*
X130205932Y-97356842D01*
X130093990Y-97086589D01*
X129931475Y-96843368D01*
X129724632Y-96636525D01*
X129550240Y-96520000D01*
X129724632Y-96403475D01*
X129931475Y-96196632D01*
X130093990Y-95953411D01*
X130205932Y-95683158D01*
X130263000Y-95396260D01*
X130263000Y-95103740D01*
X130205932Y-94816842D01*
X130093990Y-94546589D01*
X129931475Y-94303368D01*
X129724632Y-94096525D01*
X129550240Y-93980000D01*
X129724632Y-93863475D01*
X129931475Y-93656632D01*
X130093990Y-93413411D01*
X130205932Y-93143158D01*
X130263000Y-92856260D01*
X130263000Y-92563740D01*
X130205932Y-92276842D01*
X130093990Y-92006589D01*
X129931475Y-91763368D01*
X129724632Y-91556525D01*
X129550240Y-91440000D01*
X129724632Y-91323475D01*
X129931475Y-91116632D01*
X130093990Y-90873411D01*
X130205932Y-90603158D01*
X130263000Y-90316260D01*
X130263000Y-90023740D01*
X130205932Y-89736842D01*
X130093990Y-89466589D01*
X129931475Y-89223368D01*
X129724632Y-89016525D01*
X129550240Y-88900000D01*
X129724632Y-88783475D01*
X129931475Y-88576632D01*
X130093990Y-88333411D01*
X130205932Y-88063158D01*
X130263000Y-87776260D01*
X130263000Y-87483740D01*
X130205932Y-87196842D01*
X130093990Y-86926589D01*
X129931475Y-86683368D01*
X129724632Y-86476525D01*
X129550240Y-86360000D01*
X129724632Y-86243475D01*
X129931475Y-86036632D01*
X130093990Y-85793411D01*
X130205932Y-85523158D01*
X130263000Y-85236260D01*
X130263000Y-84943740D01*
X130205932Y-84656842D01*
X130093990Y-84386589D01*
X129931475Y-84143368D01*
X129724632Y-83936525D01*
X129550240Y-83820000D01*
X129724632Y-83703475D01*
X129931475Y-83496632D01*
X130093990Y-83253411D01*
X130205932Y-82983158D01*
X130263000Y-82696260D01*
X130263000Y-82403740D01*
X130205932Y-82116842D01*
X130093990Y-81846589D01*
X129931475Y-81603368D01*
X129724632Y-81396525D01*
X129550240Y-81280000D01*
X129724632Y-81163475D01*
X129931475Y-80956632D01*
X130093990Y-80713411D01*
X130205932Y-80443158D01*
X130263000Y-80156260D01*
X130263000Y-79863740D01*
X130205932Y-79576842D01*
X130093990Y-79306589D01*
X129931475Y-79063368D01*
X129724632Y-78856525D01*
X129550240Y-78740000D01*
X129724632Y-78623475D01*
X129931475Y-78416632D01*
X130093990Y-78173411D01*
X130205932Y-77903158D01*
X130263000Y-77616260D01*
X130263000Y-77323740D01*
X130205932Y-77036842D01*
X130093990Y-76766589D01*
X129931475Y-76523368D01*
X129724632Y-76316525D01*
X129550240Y-76200000D01*
X129724632Y-76083475D01*
X129931475Y-75876632D01*
X130093990Y-75633411D01*
X130205932Y-75363158D01*
X130263000Y-75076260D01*
X130263000Y-74783740D01*
X130205932Y-74496842D01*
X130093990Y-74226589D01*
X129931475Y-73983368D01*
X129799620Y-73851513D01*
X129872180Y-73829502D01*
X129982494Y-73770537D01*
X130079185Y-73691185D01*
X130158537Y-73594494D01*
X130217502Y-73484180D01*
X130253812Y-73364482D01*
X130266072Y-73240000D01*
X130266072Y-71628000D01*
X132203928Y-71628000D01*
X132203928Y-73152000D01*
X132216188Y-73276482D01*
X132252498Y-73396180D01*
X132311463Y-73506494D01*
X132390815Y-73603185D01*
X132487506Y-73682537D01*
X132597820Y-73741502D01*
X132717518Y-73777812D01*
X132801465Y-73786080D01*
X132713465Y-73844880D01*
X132518880Y-74039465D01*
X132365995Y-74268273D01*
X132260686Y-74522510D01*
X132207000Y-74792408D01*
X132207000Y-75067592D01*
X132260686Y-75337490D01*
X132365995Y-75591727D01*
X132518880Y-75820535D01*
X132713465Y-76015120D01*
X132942273Y-76168005D01*
X133019515Y-76200000D01*
X132942273Y-76231995D01*
X132713465Y-76384880D01*
X132518880Y-76579465D01*
X132365995Y-76808273D01*
X132260686Y-77062510D01*
X132207000Y-77332408D01*
X132207000Y-77607592D01*
X132260686Y-77877490D01*
X132365995Y-78131727D01*
X132518880Y-78360535D01*
X132713465Y-78555120D01*
X132942273Y-78708005D01*
X133019515Y-78740000D01*
X132942273Y-78771995D01*
X132713465Y-78924880D01*
X132518880Y-79119465D01*
X132365995Y-79348273D01*
X132260686Y-79602510D01*
X132207000Y-79872408D01*
X132207000Y-80147592D01*
X132260686Y-80417490D01*
X132365995Y-80671727D01*
X132518880Y-80900535D01*
X132713465Y-81095120D01*
X132942273Y-81248005D01*
X133019515Y-81280000D01*
X132942273Y-81311995D01*
X132713465Y-81464880D01*
X132518880Y-81659465D01*
X132365995Y-81888273D01*
X132260686Y-82142510D01*
X132207000Y-82412408D01*
X132207000Y-82687592D01*
X132260686Y-82957490D01*
X132365995Y-83211727D01*
X132518880Y-83440535D01*
X132713465Y-83635120D01*
X132942273Y-83788005D01*
X133019515Y-83820000D01*
X132942273Y-83851995D01*
X132713465Y-84004880D01*
X132518880Y-84199465D01*
X132365995Y-84428273D01*
X132260686Y-84682510D01*
X132207000Y-84952408D01*
X132207000Y-85227592D01*
X132260686Y-85497490D01*
X132365995Y-85751727D01*
X132518880Y-85980535D01*
X132713465Y-86175120D01*
X132942273Y-86328005D01*
X133019515Y-86360000D01*
X132942273Y-86391995D01*
X132713465Y-86544880D01*
X132518880Y-86739465D01*
X132365995Y-86968273D01*
X132260686Y-87222510D01*
X132207000Y-87492408D01*
X132207000Y-87767592D01*
X132260686Y-88037490D01*
X132365995Y-88291727D01*
X132518880Y-88520535D01*
X132713465Y-88715120D01*
X132942273Y-88868005D01*
X133019515Y-88900000D01*
X132942273Y-88931995D01*
X132713465Y-89084880D01*
X132518880Y-89279465D01*
X132365995Y-89508273D01*
X132260686Y-89762510D01*
X132207000Y-90032408D01*
X132207000Y-90307592D01*
X132260686Y-90577490D01*
X132365995Y-90831727D01*
X132518880Y-91060535D01*
X132713465Y-91255120D01*
X132942273Y-91408005D01*
X133019515Y-91440000D01*
X132942273Y-91471995D01*
X132713465Y-91624880D01*
X132518880Y-91819465D01*
X132365995Y-92048273D01*
X132260686Y-92302510D01*
X132207000Y-92572408D01*
X132207000Y-92847592D01*
X132260686Y-93117490D01*
X132365995Y-93371727D01*
X132518880Y-93600535D01*
X132713465Y-93795120D01*
X132942273Y-93948005D01*
X133019515Y-93980000D01*
X132942273Y-94011995D01*
X132713465Y-94164880D01*
X132518880Y-94359465D01*
X132365995Y-94588273D01*
X132260686Y-94842510D01*
X132207000Y-95112408D01*
X132207000Y-95387592D01*
X132260686Y-95657490D01*
X132365995Y-95911727D01*
X132518880Y-96140535D01*
X132713465Y-96335120D01*
X132942273Y-96488005D01*
X133019515Y-96520000D01*
X132942273Y-96551995D01*
X132713465Y-96704880D01*
X132518880Y-96899465D01*
X132365995Y-97128273D01*
X132260686Y-97382510D01*
X132207000Y-97652408D01*
X132207000Y-97927592D01*
X132260686Y-98197490D01*
X132365995Y-98451727D01*
X132518880Y-98680535D01*
X132713465Y-98875120D01*
X132942273Y-99028005D01*
X133019515Y-99060000D01*
X132942273Y-99091995D01*
X132713465Y-99244880D01*
X132518880Y-99439465D01*
X132365995Y-99668273D01*
X132260686Y-99922510D01*
X132207000Y-100192408D01*
X132207000Y-100467592D01*
X132260686Y-100737490D01*
X132365995Y-100991727D01*
X132518880Y-101220535D01*
X132713465Y-101415120D01*
X132942273Y-101568005D01*
X133019515Y-101600000D01*
X132942273Y-101631995D01*
X132713465Y-101784880D01*
X132518880Y-101979465D01*
X132365995Y-102208273D01*
X132260686Y-102462510D01*
X132207000Y-102732408D01*
X132207000Y-103007592D01*
X132260686Y-103277490D01*
X132365995Y-103531727D01*
X132518880Y-103760535D01*
X132713465Y-103955120D01*
X132942273Y-104108005D01*
X133013943Y-104137692D01*
X133000977Y-104142364D01*
X132885020Y-104204344D01*
X132818040Y-104444435D01*
X133604000Y-105230395D01*
X134389960Y-104444435D01*
X134322980Y-104204344D01*
X134187240Y-104140515D01*
X134265727Y-104108005D01*
X134494535Y-103955120D01*
X134689120Y-103760535D01*
X134842005Y-103531727D01*
X134947314Y-103277490D01*
X135001000Y-103007592D01*
X135001000Y-102732408D01*
X134947314Y-102462510D01*
X134842005Y-102208273D01*
X134689120Y-101979465D01*
X134494535Y-101784880D01*
X134265727Y-101631995D01*
X134188485Y-101600000D01*
X134265727Y-101568005D01*
X134494535Y-101415120D01*
X134689120Y-101220535D01*
X134842005Y-100991727D01*
X134947314Y-100737490D01*
X135001000Y-100467592D01*
X135001000Y-100192408D01*
X134947314Y-99922510D01*
X134842005Y-99668273D01*
X134689120Y-99439465D01*
X134494535Y-99244880D01*
X134265727Y-99091995D01*
X134188485Y-99060000D01*
X134265727Y-99028005D01*
X134494535Y-98875120D01*
X134689120Y-98680535D01*
X134842005Y-98451727D01*
X134947314Y-98197490D01*
X135001000Y-97927592D01*
X135001000Y-97652408D01*
X134947314Y-97382510D01*
X134842005Y-97128273D01*
X134689120Y-96899465D01*
X134494535Y-96704880D01*
X134265727Y-96551995D01*
X134188485Y-96520000D01*
X134265727Y-96488005D01*
X134494535Y-96335120D01*
X134689120Y-96140535D01*
X134842005Y-95911727D01*
X134947314Y-95657490D01*
X135001000Y-95387592D01*
X135001000Y-95112408D01*
X134947314Y-94842510D01*
X134842005Y-94588273D01*
X134689120Y-94359465D01*
X134494535Y-94164880D01*
X134265727Y-94011995D01*
X134188485Y-93980000D01*
X134265727Y-93948005D01*
X134494535Y-93795120D01*
X134689120Y-93600535D01*
X134842005Y-93371727D01*
X134947314Y-93117490D01*
X135001000Y-92847592D01*
X135001000Y-92572408D01*
X134947314Y-92302510D01*
X134842005Y-92048273D01*
X134689120Y-91819465D01*
X134494535Y-91624880D01*
X134265727Y-91471995D01*
X134188485Y-91440000D01*
X134265727Y-91408005D01*
X134494535Y-91255120D01*
X134689120Y-91060535D01*
X134842005Y-90831727D01*
X134947314Y-90577490D01*
X135001000Y-90307592D01*
X135001000Y-90032408D01*
X134947314Y-89762510D01*
X134842005Y-89508273D01*
X134689120Y-89279465D01*
X134494535Y-89084880D01*
X134265727Y-88931995D01*
X134188485Y-88900000D01*
X134265727Y-88868005D01*
X134494535Y-88715120D01*
X134689120Y-88520535D01*
X134842005Y-88291727D01*
X134947314Y-88037490D01*
X135001000Y-87767592D01*
X135001000Y-87492408D01*
X134947314Y-87222510D01*
X134842005Y-86968273D01*
X134689120Y-86739465D01*
X134494535Y-86544880D01*
X134265727Y-86391995D01*
X134188485Y-86360000D01*
X134265727Y-86328005D01*
X134494535Y-86175120D01*
X134689120Y-85980535D01*
X134842005Y-85751727D01*
X134947314Y-85497490D01*
X135001000Y-85227592D01*
X135001000Y-84952408D01*
X134947314Y-84682510D01*
X134842005Y-84428273D01*
X134689120Y-84199465D01*
X134494535Y-84004880D01*
X134265727Y-83851995D01*
X134188485Y-83820000D01*
X134265727Y-83788005D01*
X134494535Y-83635120D01*
X134689120Y-83440535D01*
X134842005Y-83211727D01*
X134947314Y-82957490D01*
X135001000Y-82687592D01*
X135001000Y-82412408D01*
X134947314Y-82142510D01*
X134842005Y-81888273D01*
X134689120Y-81659465D01*
X134494535Y-81464880D01*
X134265727Y-81311995D01*
X134188485Y-81280000D01*
X134265727Y-81248005D01*
X134494535Y-81095120D01*
X134689120Y-80900535D01*
X134842005Y-80671727D01*
X134947314Y-80417490D01*
X135001000Y-80147592D01*
X135001000Y-79872408D01*
X134947314Y-79602510D01*
X134842005Y-79348273D01*
X134689120Y-79119465D01*
X134494535Y-78924880D01*
X134265727Y-78771995D01*
X134188485Y-78740000D01*
X134265727Y-78708005D01*
X134494535Y-78555120D01*
X134689120Y-78360535D01*
X134842005Y-78131727D01*
X134947314Y-77877490D01*
X135001000Y-77607592D01*
X135001000Y-77332408D01*
X134947314Y-77062510D01*
X134842005Y-76808273D01*
X134689120Y-76579465D01*
X134494535Y-76384880D01*
X134265727Y-76231995D01*
X134188485Y-76200000D01*
X134265727Y-76168005D01*
X134494535Y-76015120D01*
X134689120Y-75820535D01*
X134842005Y-75591727D01*
X134947314Y-75337490D01*
X135001000Y-75067592D01*
X135001000Y-74792408D01*
X134947314Y-74522510D01*
X134842005Y-74268273D01*
X134689120Y-74039465D01*
X134494535Y-73844880D01*
X134406535Y-73786080D01*
X134490482Y-73777812D01*
X134610180Y-73741502D01*
X134720494Y-73682537D01*
X134817185Y-73603185D01*
X134896537Y-73506494D01*
X134955502Y-73396180D01*
X134991812Y-73276482D01*
X135004072Y-73152000D01*
X135004072Y-71628000D01*
X134991812Y-71503518D01*
X134955502Y-71383820D01*
X134896537Y-71273506D01*
X134817185Y-71176815D01*
X134720494Y-71097463D01*
X134610180Y-71038498D01*
X134490482Y-71002188D01*
X134366000Y-70989928D01*
X132842000Y-70989928D01*
X132717518Y-71002188D01*
X132597820Y-71038498D01*
X132487506Y-71097463D01*
X132390815Y-71176815D01*
X132311463Y-71273506D01*
X132252498Y-71383820D01*
X132216188Y-71503518D01*
X132203928Y-71628000D01*
X130266072Y-71628000D01*
X130266072Y-71540000D01*
X130253812Y-71415518D01*
X130217502Y-71295820D01*
X130158537Y-71185506D01*
X130079185Y-71088815D01*
X129982494Y-71009463D01*
X129872180Y-70950498D01*
X129752482Y-70914188D01*
X129628000Y-70901928D01*
X127928000Y-70901928D01*
X127803518Y-70914188D01*
X127683820Y-70950498D01*
X127573506Y-71009463D01*
X127476815Y-71088815D01*
X127397463Y-71185506D01*
X127338498Y-71295820D01*
X127302188Y-71415518D01*
X127289928Y-71540000D01*
X121269365Y-71540000D01*
X121315000Y-71310581D01*
X121315000Y-70929419D01*
X121240639Y-70555581D01*
X121094775Y-70203434D01*
X120883013Y-69886509D01*
X120613491Y-69616987D01*
X120296566Y-69405225D01*
X119944419Y-69259361D01*
X119570581Y-69185000D01*
X119189419Y-69185000D01*
X118815581Y-69259361D01*
X118463434Y-69405225D01*
X118146509Y-69616987D01*
X117876987Y-69886509D01*
X117665225Y-70203434D01*
X117519361Y-70555581D01*
X117445000Y-70929419D01*
X112445000Y-70929419D01*
X112445000Y-65849419D01*
X117445000Y-65849419D01*
X117445000Y-66230581D01*
X117519361Y-66604419D01*
X117665225Y-66956566D01*
X117876987Y-67273491D01*
X118146509Y-67543013D01*
X118463434Y-67754775D01*
X118815581Y-67900639D01*
X119189419Y-67975000D01*
X119570581Y-67975000D01*
X119944419Y-67900639D01*
X120296566Y-67754775D01*
X120613491Y-67543013D01*
X120883013Y-67273491D01*
X121028335Y-67056000D01*
X137033000Y-67056000D01*
X137033000Y-73152000D01*
X137035440Y-73176776D01*
X137042667Y-73200601D01*
X137054403Y-73222557D01*
X137070197Y-73241803D01*
X137089443Y-73257597D01*
X137111399Y-73269333D01*
X137135224Y-73276560D01*
X137160000Y-73279000D01*
X155956000Y-73279000D01*
X155980776Y-73276560D01*
X156004601Y-73269333D01*
X156026557Y-73257597D01*
X156045803Y-73241803D01*
X156061597Y-73222557D01*
X156073333Y-73200601D01*
X156080560Y-73176776D01*
X156083000Y-73152000D01*
X156083000Y-72252408D01*
X157607000Y-72252408D01*
X157607000Y-72527592D01*
X157660686Y-72797490D01*
X157765995Y-73051727D01*
X157918880Y-73280535D01*
X158113465Y-73475120D01*
X158342273Y-73628005D01*
X158419515Y-73660000D01*
X158342273Y-73691995D01*
X158113465Y-73844880D01*
X157918880Y-74039465D01*
X157765995Y-74268273D01*
X157660686Y-74522510D01*
X157607000Y-74792408D01*
X157607000Y-75067592D01*
X157660686Y-75337490D01*
X157765995Y-75591727D01*
X157918880Y-75820535D01*
X158113465Y-76015120D01*
X158342273Y-76168005D01*
X158419515Y-76200000D01*
X158342273Y-76231995D01*
X158113465Y-76384880D01*
X157918880Y-76579465D01*
X157765995Y-76808273D01*
X157660686Y-77062510D01*
X157607000Y-77332408D01*
X157607000Y-77607592D01*
X157660686Y-77877490D01*
X157765995Y-78131727D01*
X157918880Y-78360535D01*
X158113465Y-78555120D01*
X158342273Y-78708005D01*
X158419515Y-78740000D01*
X158342273Y-78771995D01*
X158113465Y-78924880D01*
X157918880Y-79119465D01*
X157765995Y-79348273D01*
X157660686Y-79602510D01*
X157607000Y-79872408D01*
X157607000Y-80147592D01*
X157660686Y-80417490D01*
X157765995Y-80671727D01*
X157918880Y-80900535D01*
X158113465Y-81095120D01*
X158342273Y-81248005D01*
X158419515Y-81280000D01*
X158342273Y-81311995D01*
X158113465Y-81464880D01*
X157918880Y-81659465D01*
X157765995Y-81888273D01*
X157660686Y-82142510D01*
X157607000Y-82412408D01*
X157607000Y-82687592D01*
X157660686Y-82957490D01*
X157765995Y-83211727D01*
X157918880Y-83440535D01*
X158113465Y-83635120D01*
X158342273Y-83788005D01*
X158419515Y-83820000D01*
X158342273Y-83851995D01*
X158113465Y-84004880D01*
X157918880Y-84199465D01*
X157765995Y-84428273D01*
X157660686Y-84682510D01*
X157607000Y-84952408D01*
X157607000Y-85227592D01*
X157660686Y-85497490D01*
X157765995Y-85751727D01*
X157918880Y-85980535D01*
X158113465Y-86175120D01*
X158342273Y-86328005D01*
X158419515Y-86360000D01*
X158342273Y-86391995D01*
X158113465Y-86544880D01*
X157918880Y-86739465D01*
X157765995Y-86968273D01*
X157660686Y-87222510D01*
X157607000Y-87492408D01*
X157607000Y-87767592D01*
X157660686Y-88037490D01*
X157765995Y-88291727D01*
X157918880Y-88520535D01*
X158113465Y-88715120D01*
X158342273Y-88868005D01*
X158419515Y-88900000D01*
X158342273Y-88931995D01*
X158113465Y-89084880D01*
X157918880Y-89279465D01*
X157765995Y-89508273D01*
X157660686Y-89762510D01*
X157607000Y-90032408D01*
X157607000Y-90307592D01*
X157660686Y-90577490D01*
X157765995Y-90831727D01*
X157918880Y-91060535D01*
X158113465Y-91255120D01*
X158342273Y-91408005D01*
X158419515Y-91440000D01*
X158342273Y-91471995D01*
X158113465Y-91624880D01*
X157918880Y-91819465D01*
X157765995Y-92048273D01*
X157660686Y-92302510D01*
X157607000Y-92572408D01*
X157607000Y-92847592D01*
X157660686Y-93117490D01*
X157765995Y-93371727D01*
X157918880Y-93600535D01*
X158113465Y-93795120D01*
X158342273Y-93948005D01*
X158419515Y-93980000D01*
X158342273Y-94011995D01*
X158113465Y-94164880D01*
X157918880Y-94359465D01*
X157765995Y-94588273D01*
X157660686Y-94842510D01*
X157607000Y-95112408D01*
X157607000Y-95387592D01*
X157660686Y-95657490D01*
X157765995Y-95911727D01*
X157918880Y-96140535D01*
X158113465Y-96335120D01*
X158342273Y-96488005D01*
X158419515Y-96520000D01*
X158342273Y-96551995D01*
X158113465Y-96704880D01*
X157918880Y-96899465D01*
X157765995Y-97128273D01*
X157660686Y-97382510D01*
X157607000Y-97652408D01*
X157607000Y-97927592D01*
X157660686Y-98197490D01*
X157765995Y-98451727D01*
X157918880Y-98680535D01*
X158113465Y-98875120D01*
X158342273Y-99028005D01*
X158419515Y-99060000D01*
X158342273Y-99091995D01*
X158113465Y-99244880D01*
X157918880Y-99439465D01*
X157765995Y-99668273D01*
X157660686Y-99922510D01*
X157607000Y-100192408D01*
X157607000Y-100467592D01*
X157660686Y-100737490D01*
X157765995Y-100991727D01*
X157918880Y-101220535D01*
X158113465Y-101415120D01*
X158342273Y-101568005D01*
X158419515Y-101600000D01*
X158342273Y-101631995D01*
X158113465Y-101784880D01*
X157918880Y-101979465D01*
X157765995Y-102208273D01*
X157660686Y-102462510D01*
X157607000Y-102732408D01*
X157607000Y-103007592D01*
X157660686Y-103277490D01*
X157765995Y-103531727D01*
X157918880Y-103760535D01*
X158113465Y-103955120D01*
X158342273Y-104108005D01*
X158413943Y-104137692D01*
X158400977Y-104142364D01*
X158285020Y-104204344D01*
X158218040Y-104444435D01*
X159004000Y-105230395D01*
X159789960Y-104444435D01*
X159722980Y-104204344D01*
X159587240Y-104140515D01*
X159665727Y-104108005D01*
X159894535Y-103955120D01*
X160089120Y-103760535D01*
X160242005Y-103531727D01*
X160347314Y-103277490D01*
X160401000Y-103007592D01*
X160401000Y-102732408D01*
X160347314Y-102462510D01*
X160242005Y-102208273D01*
X160089120Y-101979465D01*
X159894535Y-101784880D01*
X159665727Y-101631995D01*
X159588485Y-101600000D01*
X159665727Y-101568005D01*
X159894535Y-101415120D01*
X160089120Y-101220535D01*
X160242005Y-100991727D01*
X160347314Y-100737490D01*
X160401000Y-100467592D01*
X160401000Y-100192408D01*
X160347314Y-99922510D01*
X160242005Y-99668273D01*
X160089120Y-99439465D01*
X159894535Y-99244880D01*
X159665727Y-99091995D01*
X159588485Y-99060000D01*
X159665727Y-99028005D01*
X159894535Y-98875120D01*
X160089120Y-98680535D01*
X160242005Y-98451727D01*
X160347314Y-98197490D01*
X160401000Y-97927592D01*
X160401000Y-97652408D01*
X160347314Y-97382510D01*
X160242005Y-97128273D01*
X160089120Y-96899465D01*
X159894535Y-96704880D01*
X159665727Y-96551995D01*
X159588485Y-96520000D01*
X159665727Y-96488005D01*
X159894535Y-96335120D01*
X160089120Y-96140535D01*
X160242005Y-95911727D01*
X160347314Y-95657490D01*
X160401000Y-95387592D01*
X160401000Y-95112408D01*
X160347314Y-94842510D01*
X160242005Y-94588273D01*
X160089120Y-94359465D01*
X159894535Y-94164880D01*
X159665727Y-94011995D01*
X159588485Y-93980000D01*
X159665727Y-93948005D01*
X159894535Y-93795120D01*
X160089120Y-93600535D01*
X160242005Y-93371727D01*
X160347314Y-93117490D01*
X160401000Y-92847592D01*
X160401000Y-92572408D01*
X160347314Y-92302510D01*
X160242005Y-92048273D01*
X160089120Y-91819465D01*
X159894535Y-91624880D01*
X159665727Y-91471995D01*
X159588485Y-91440000D01*
X159665727Y-91408005D01*
X159894535Y-91255120D01*
X160089120Y-91060535D01*
X160242005Y-90831727D01*
X160347314Y-90577490D01*
X160401000Y-90307592D01*
X160401000Y-90032408D01*
X160347314Y-89762510D01*
X160242005Y-89508273D01*
X160089120Y-89279465D01*
X159894535Y-89084880D01*
X159665727Y-88931995D01*
X159588485Y-88900000D01*
X159665727Y-88868005D01*
X159894535Y-88715120D01*
X160089120Y-88520535D01*
X160242005Y-88291727D01*
X160347314Y-88037490D01*
X160401000Y-87767592D01*
X160401000Y-87492408D01*
X160347314Y-87222510D01*
X160242005Y-86968273D01*
X160089120Y-86739465D01*
X159894535Y-86544880D01*
X159665727Y-86391995D01*
X159588485Y-86360000D01*
X159665727Y-86328005D01*
X159894535Y-86175120D01*
X160089120Y-85980535D01*
X160242005Y-85751727D01*
X160347314Y-85497490D01*
X160401000Y-85227592D01*
X160401000Y-84952408D01*
X160347314Y-84682510D01*
X160242005Y-84428273D01*
X160089120Y-84199465D01*
X159894535Y-84004880D01*
X159665727Y-83851995D01*
X159588485Y-83820000D01*
X159665727Y-83788005D01*
X159894535Y-83635120D01*
X160089120Y-83440535D01*
X160242005Y-83211727D01*
X160347314Y-82957490D01*
X160401000Y-82687592D01*
X160401000Y-82412408D01*
X160347314Y-82142510D01*
X160242005Y-81888273D01*
X160089120Y-81659465D01*
X159894535Y-81464880D01*
X159665727Y-81311995D01*
X159588485Y-81280000D01*
X159665727Y-81248005D01*
X159894535Y-81095120D01*
X160089120Y-80900535D01*
X160242005Y-80671727D01*
X160347314Y-80417490D01*
X160401000Y-80147592D01*
X160401000Y-79872408D01*
X160347314Y-79602510D01*
X160242005Y-79348273D01*
X160089120Y-79119465D01*
X159894535Y-78924880D01*
X159665727Y-78771995D01*
X159588485Y-78740000D01*
X159665727Y-78708005D01*
X159894535Y-78555120D01*
X160089120Y-78360535D01*
X160242005Y-78131727D01*
X160347314Y-77877490D01*
X160401000Y-77607592D01*
X160401000Y-77332408D01*
X160347314Y-77062510D01*
X160242005Y-76808273D01*
X160089120Y-76579465D01*
X159894535Y-76384880D01*
X159665727Y-76231995D01*
X159588485Y-76200000D01*
X159665727Y-76168005D01*
X159894535Y-76015120D01*
X160089120Y-75820535D01*
X160242005Y-75591727D01*
X160347314Y-75337490D01*
X160401000Y-75067592D01*
X160401000Y-74792408D01*
X160347314Y-74522510D01*
X160242005Y-74268273D01*
X160089120Y-74039465D01*
X159894535Y-73844880D01*
X159665727Y-73691995D01*
X159588485Y-73660000D01*
X159665727Y-73628005D01*
X159894535Y-73475120D01*
X160089120Y-73280535D01*
X160242005Y-73051727D01*
X160347314Y-72797490D01*
X160401000Y-72527592D01*
X160401000Y-72252408D01*
X160347314Y-71982510D01*
X160242005Y-71728273D01*
X160116205Y-71540000D01*
X162341928Y-71540000D01*
X162341928Y-73240000D01*
X162354188Y-73364482D01*
X162390498Y-73484180D01*
X162449463Y-73594494D01*
X162528815Y-73691185D01*
X162625506Y-73770537D01*
X162735820Y-73829502D01*
X162808380Y-73851513D01*
X162676525Y-73983368D01*
X162514010Y-74226589D01*
X162402068Y-74496842D01*
X162345000Y-74783740D01*
X162345000Y-75076260D01*
X162402068Y-75363158D01*
X162514010Y-75633411D01*
X162676525Y-75876632D01*
X162883368Y-76083475D01*
X163057760Y-76200000D01*
X162883368Y-76316525D01*
X162676525Y-76523368D01*
X162514010Y-76766589D01*
X162402068Y-77036842D01*
X162345000Y-77323740D01*
X162345000Y-77616260D01*
X162402068Y-77903158D01*
X162514010Y-78173411D01*
X162676525Y-78416632D01*
X162883368Y-78623475D01*
X163057760Y-78740000D01*
X162883368Y-78856525D01*
X162676525Y-79063368D01*
X162514010Y-79306589D01*
X162402068Y-79576842D01*
X162345000Y-79863740D01*
X162345000Y-80156260D01*
X162402068Y-80443158D01*
X162514010Y-80713411D01*
X162676525Y-80956632D01*
X162883368Y-81163475D01*
X163057760Y-81280000D01*
X162883368Y-81396525D01*
X162676525Y-81603368D01*
X162514010Y-81846589D01*
X162402068Y-82116842D01*
X162345000Y-82403740D01*
X162345000Y-82696260D01*
X162402068Y-82983158D01*
X162514010Y-83253411D01*
X162676525Y-83496632D01*
X162883368Y-83703475D01*
X163057760Y-83820000D01*
X162883368Y-83936525D01*
X162676525Y-84143368D01*
X162514010Y-84386589D01*
X162402068Y-84656842D01*
X162345000Y-84943740D01*
X162345000Y-85236260D01*
X162402068Y-85523158D01*
X162514010Y-85793411D01*
X162676525Y-86036632D01*
X162883368Y-86243475D01*
X163057760Y-86360000D01*
X162883368Y-86476525D01*
X162676525Y-86683368D01*
X162514010Y-86926589D01*
X162402068Y-87196842D01*
X162345000Y-87483740D01*
X162345000Y-87776260D01*
X162402068Y-88063158D01*
X162514010Y-88333411D01*
X162676525Y-88576632D01*
X162883368Y-88783475D01*
X163057760Y-88900000D01*
X162883368Y-89016525D01*
X162676525Y-89223368D01*
X162514010Y-89466589D01*
X162402068Y-89736842D01*
X162345000Y-90023740D01*
X162345000Y-90316260D01*
X162402068Y-90603158D01*
X162514010Y-90873411D01*
X162676525Y-91116632D01*
X162883368Y-91323475D01*
X163057760Y-91440000D01*
X162883368Y-91556525D01*
X162676525Y-91763368D01*
X162514010Y-92006589D01*
X162402068Y-92276842D01*
X162345000Y-92563740D01*
X162345000Y-92856260D01*
X162402068Y-93143158D01*
X162514010Y-93413411D01*
X162676525Y-93656632D01*
X162883368Y-93863475D01*
X163057760Y-93980000D01*
X162883368Y-94096525D01*
X162676525Y-94303368D01*
X162514010Y-94546589D01*
X162402068Y-94816842D01*
X162345000Y-95103740D01*
X162345000Y-95396260D01*
X162402068Y-95683158D01*
X162514010Y-95953411D01*
X162676525Y-96196632D01*
X162883368Y-96403475D01*
X163057760Y-96520000D01*
X162883368Y-96636525D01*
X162676525Y-96843368D01*
X162514010Y-97086589D01*
X162402068Y-97356842D01*
X162345000Y-97643740D01*
X162345000Y-97936260D01*
X162402068Y-98223158D01*
X162514010Y-98493411D01*
X162676525Y-98736632D01*
X162883368Y-98943475D01*
X163057760Y-99060000D01*
X162883368Y-99176525D01*
X162676525Y-99383368D01*
X162514010Y-99626589D01*
X162402068Y-99896842D01*
X162345000Y-100183740D01*
X162345000Y-100476260D01*
X162402068Y-100763158D01*
X162514010Y-101033411D01*
X162676525Y-101276632D01*
X162883368Y-101483475D01*
X163057760Y-101600000D01*
X162883368Y-101716525D01*
X162676525Y-101923368D01*
X162514010Y-102166589D01*
X162402068Y-102436842D01*
X162345000Y-102723740D01*
X162345000Y-103016260D01*
X162402068Y-103303158D01*
X162514010Y-103573411D01*
X162676525Y-103816632D01*
X162883368Y-104023475D01*
X163065534Y-104145195D01*
X162948645Y-104214822D01*
X162732412Y-104409731D01*
X162558359Y-104643080D01*
X162433175Y-104905901D01*
X162388524Y-105053110D01*
X162509845Y-105283000D01*
X163703000Y-105283000D01*
X163703000Y-105263000D01*
X163957000Y-105263000D01*
X163957000Y-105283000D01*
X165150155Y-105283000D01*
X165271476Y-105053110D01*
X165226825Y-104905901D01*
X165101641Y-104643080D01*
X164927588Y-104409731D01*
X164711355Y-104214822D01*
X164594466Y-104145195D01*
X164776632Y-104023475D01*
X164983475Y-103816632D01*
X165145990Y-103573411D01*
X165257932Y-103303158D01*
X165315000Y-103016260D01*
X165315000Y-102723740D01*
X165257932Y-102436842D01*
X165145990Y-102166589D01*
X164983475Y-101923368D01*
X164776632Y-101716525D01*
X164602240Y-101600000D01*
X164776632Y-101483475D01*
X164850688Y-101409419D01*
X171293000Y-101409419D01*
X171293000Y-101790581D01*
X171367361Y-102164419D01*
X171513225Y-102516566D01*
X171724987Y-102833491D01*
X171994509Y-103103013D01*
X172311434Y-103314775D01*
X172663581Y-103460639D01*
X173037419Y-103535000D01*
X173418581Y-103535000D01*
X173792419Y-103460639D01*
X174144566Y-103314775D01*
X174461491Y-103103013D01*
X174731013Y-102833491D01*
X174942775Y-102516566D01*
X175088639Y-102164419D01*
X175163000Y-101790581D01*
X175163000Y-101409419D01*
X175088639Y-101035581D01*
X174942775Y-100683434D01*
X174731013Y-100366509D01*
X174461491Y-100096987D01*
X174144566Y-99885225D01*
X173792419Y-99739361D01*
X173418581Y-99665000D01*
X173037419Y-99665000D01*
X172663581Y-99739361D01*
X172311434Y-99885225D01*
X171994509Y-100096987D01*
X171724987Y-100366509D01*
X171513225Y-100683434D01*
X171367361Y-101035581D01*
X171293000Y-101409419D01*
X164850688Y-101409419D01*
X164983475Y-101276632D01*
X165145990Y-101033411D01*
X165257932Y-100763158D01*
X165315000Y-100476260D01*
X165315000Y-100183740D01*
X165257932Y-99896842D01*
X165145990Y-99626589D01*
X164983475Y-99383368D01*
X164776632Y-99176525D01*
X164602240Y-99060000D01*
X164776632Y-98943475D01*
X164983475Y-98736632D01*
X165145990Y-98493411D01*
X165257932Y-98223158D01*
X165315000Y-97936260D01*
X165315000Y-97643740D01*
X165257932Y-97356842D01*
X165145990Y-97086589D01*
X164983475Y-96843368D01*
X164776632Y-96636525D01*
X164602240Y-96520000D01*
X164776632Y-96403475D01*
X164850688Y-96329419D01*
X171293000Y-96329419D01*
X171293000Y-96710581D01*
X171367361Y-97084419D01*
X171513225Y-97436566D01*
X171724987Y-97753491D01*
X171994509Y-98023013D01*
X172311434Y-98234775D01*
X172663581Y-98380639D01*
X173037419Y-98455000D01*
X173418581Y-98455000D01*
X173792419Y-98380639D01*
X174144566Y-98234775D01*
X174461491Y-98023013D01*
X174731013Y-97753491D01*
X174942775Y-97436566D01*
X175088639Y-97084419D01*
X175163000Y-96710581D01*
X175163000Y-96329419D01*
X175088639Y-95955581D01*
X174942775Y-95603434D01*
X174731013Y-95286509D01*
X174461491Y-95016987D01*
X174144566Y-94805225D01*
X173792419Y-94659361D01*
X173418581Y-94585000D01*
X173037419Y-94585000D01*
X172663581Y-94659361D01*
X172311434Y-94805225D01*
X171994509Y-95016987D01*
X171724987Y-95286509D01*
X171513225Y-95603434D01*
X171367361Y-95955581D01*
X171293000Y-96329419D01*
X164850688Y-96329419D01*
X164983475Y-96196632D01*
X165145990Y-95953411D01*
X165257932Y-95683158D01*
X165315000Y-95396260D01*
X165315000Y-95103740D01*
X165257932Y-94816842D01*
X165145990Y-94546589D01*
X164983475Y-94303368D01*
X164776632Y-94096525D01*
X164602240Y-93980000D01*
X164776632Y-93863475D01*
X164983475Y-93656632D01*
X165145990Y-93413411D01*
X165257932Y-93143158D01*
X165315000Y-92856260D01*
X165315000Y-92563740D01*
X165257932Y-92276842D01*
X165145990Y-92006589D01*
X164983475Y-91763368D01*
X164776632Y-91556525D01*
X164602240Y-91440000D01*
X164776632Y-91323475D01*
X164850688Y-91249419D01*
X171293000Y-91249419D01*
X171293000Y-91630581D01*
X171367361Y-92004419D01*
X171513225Y-92356566D01*
X171724987Y-92673491D01*
X171994509Y-92943013D01*
X172311434Y-93154775D01*
X172663581Y-93300639D01*
X173037419Y-93375000D01*
X173418581Y-93375000D01*
X173792419Y-93300639D01*
X174144566Y-93154775D01*
X174461491Y-92943013D01*
X174731013Y-92673491D01*
X174942775Y-92356566D01*
X175088639Y-92004419D01*
X175163000Y-91630581D01*
X175163000Y-91249419D01*
X175088639Y-90875581D01*
X174942775Y-90523434D01*
X174731013Y-90206509D01*
X174461491Y-89936987D01*
X174144566Y-89725225D01*
X173792419Y-89579361D01*
X173418581Y-89505000D01*
X173037419Y-89505000D01*
X172663581Y-89579361D01*
X172311434Y-89725225D01*
X171994509Y-89936987D01*
X171724987Y-90206509D01*
X171513225Y-90523434D01*
X171367361Y-90875581D01*
X171293000Y-91249419D01*
X164850688Y-91249419D01*
X164983475Y-91116632D01*
X165145990Y-90873411D01*
X165257932Y-90603158D01*
X165315000Y-90316260D01*
X165315000Y-90023740D01*
X165257932Y-89736842D01*
X165145990Y-89466589D01*
X164983475Y-89223368D01*
X164776632Y-89016525D01*
X164602240Y-88900000D01*
X164776632Y-88783475D01*
X164983475Y-88576632D01*
X165145990Y-88333411D01*
X165257932Y-88063158D01*
X165315000Y-87776260D01*
X165315000Y-87483740D01*
X165257932Y-87196842D01*
X165145990Y-86926589D01*
X164983475Y-86683368D01*
X164776632Y-86476525D01*
X164602240Y-86360000D01*
X164776632Y-86243475D01*
X164850688Y-86169419D01*
X171293000Y-86169419D01*
X171293000Y-86550581D01*
X171367361Y-86924419D01*
X171513225Y-87276566D01*
X171724987Y-87593491D01*
X171994509Y-87863013D01*
X172311434Y-88074775D01*
X172663581Y-88220639D01*
X173037419Y-88295000D01*
X173418581Y-88295000D01*
X173792419Y-88220639D01*
X174144566Y-88074775D01*
X174461491Y-87863013D01*
X174731013Y-87593491D01*
X174942775Y-87276566D01*
X175088639Y-86924419D01*
X175163000Y-86550581D01*
X175163000Y-86169419D01*
X175088639Y-85795581D01*
X174942775Y-85443434D01*
X174731013Y-85126509D01*
X174461491Y-84856987D01*
X174144566Y-84645225D01*
X173792419Y-84499361D01*
X173418581Y-84425000D01*
X173037419Y-84425000D01*
X172663581Y-84499361D01*
X172311434Y-84645225D01*
X171994509Y-84856987D01*
X171724987Y-85126509D01*
X171513225Y-85443434D01*
X171367361Y-85795581D01*
X171293000Y-86169419D01*
X164850688Y-86169419D01*
X164983475Y-86036632D01*
X165145990Y-85793411D01*
X165257932Y-85523158D01*
X165315000Y-85236260D01*
X165315000Y-84943740D01*
X165257932Y-84656842D01*
X165145990Y-84386589D01*
X164983475Y-84143368D01*
X164776632Y-83936525D01*
X164602240Y-83820000D01*
X164776632Y-83703475D01*
X164983475Y-83496632D01*
X165145990Y-83253411D01*
X165257932Y-82983158D01*
X165315000Y-82696260D01*
X165315000Y-82403740D01*
X165257932Y-82116842D01*
X165145990Y-81846589D01*
X164983475Y-81603368D01*
X164776632Y-81396525D01*
X164602240Y-81280000D01*
X164776632Y-81163475D01*
X164850688Y-81089419D01*
X171293000Y-81089419D01*
X171293000Y-81470581D01*
X171367361Y-81844419D01*
X171513225Y-82196566D01*
X171724987Y-82513491D01*
X171994509Y-82783013D01*
X172311434Y-82994775D01*
X172663581Y-83140639D01*
X173037419Y-83215000D01*
X173418581Y-83215000D01*
X173792419Y-83140639D01*
X174144566Y-82994775D01*
X174461491Y-82783013D01*
X174731013Y-82513491D01*
X174942775Y-82196566D01*
X175088639Y-81844419D01*
X175163000Y-81470581D01*
X175163000Y-81089419D01*
X175088639Y-80715581D01*
X174942775Y-80363434D01*
X174731013Y-80046509D01*
X174461491Y-79776987D01*
X174144566Y-79565225D01*
X173792419Y-79419361D01*
X173418581Y-79345000D01*
X173037419Y-79345000D01*
X172663581Y-79419361D01*
X172311434Y-79565225D01*
X171994509Y-79776987D01*
X171724987Y-80046509D01*
X171513225Y-80363434D01*
X171367361Y-80715581D01*
X171293000Y-81089419D01*
X164850688Y-81089419D01*
X164983475Y-80956632D01*
X165145990Y-80713411D01*
X165257932Y-80443158D01*
X165315000Y-80156260D01*
X165315000Y-79863740D01*
X165257932Y-79576842D01*
X165145990Y-79306589D01*
X164983475Y-79063368D01*
X164776632Y-78856525D01*
X164602240Y-78740000D01*
X164776632Y-78623475D01*
X164983475Y-78416632D01*
X165145990Y-78173411D01*
X165257932Y-77903158D01*
X165315000Y-77616260D01*
X165315000Y-77323740D01*
X165257932Y-77036842D01*
X165145990Y-76766589D01*
X164983475Y-76523368D01*
X164776632Y-76316525D01*
X164602240Y-76200000D01*
X164776632Y-76083475D01*
X164850688Y-76009419D01*
X171293000Y-76009419D01*
X171293000Y-76390581D01*
X171367361Y-76764419D01*
X171513225Y-77116566D01*
X171724987Y-77433491D01*
X171994509Y-77703013D01*
X172311434Y-77914775D01*
X172663581Y-78060639D01*
X173037419Y-78135000D01*
X173418581Y-78135000D01*
X173792419Y-78060639D01*
X174144566Y-77914775D01*
X174461491Y-77703013D01*
X174731013Y-77433491D01*
X174942775Y-77116566D01*
X175088639Y-76764419D01*
X175163000Y-76390581D01*
X175163000Y-76009419D01*
X175088639Y-75635581D01*
X174942775Y-75283434D01*
X174731013Y-74966509D01*
X174461491Y-74696987D01*
X174144566Y-74485225D01*
X173792419Y-74339361D01*
X173418581Y-74265000D01*
X173037419Y-74265000D01*
X172663581Y-74339361D01*
X172311434Y-74485225D01*
X171994509Y-74696987D01*
X171724987Y-74966509D01*
X171513225Y-75283434D01*
X171367361Y-75635581D01*
X171293000Y-76009419D01*
X164850688Y-76009419D01*
X164983475Y-75876632D01*
X165145990Y-75633411D01*
X165257932Y-75363158D01*
X165315000Y-75076260D01*
X165315000Y-74783740D01*
X165257932Y-74496842D01*
X165145990Y-74226589D01*
X164983475Y-73983368D01*
X164851620Y-73851513D01*
X164924180Y-73829502D01*
X165034494Y-73770537D01*
X165131185Y-73691185D01*
X165210537Y-73594494D01*
X165269502Y-73484180D01*
X165305812Y-73364482D01*
X165318072Y-73240000D01*
X165318072Y-71540000D01*
X165305812Y-71415518D01*
X165269502Y-71295820D01*
X165210537Y-71185506D01*
X165131185Y-71088815D01*
X165034494Y-71009463D01*
X164924180Y-70950498D01*
X164854692Y-70929419D01*
X171293000Y-70929419D01*
X171293000Y-71310581D01*
X171367361Y-71684419D01*
X171513225Y-72036566D01*
X171724987Y-72353491D01*
X171994509Y-72623013D01*
X172311434Y-72834775D01*
X172663581Y-72980639D01*
X173037419Y-73055000D01*
X173418581Y-73055000D01*
X173792419Y-72980639D01*
X174144566Y-72834775D01*
X174461491Y-72623013D01*
X174731013Y-72353491D01*
X174942775Y-72036566D01*
X175088639Y-71684419D01*
X175163000Y-71310581D01*
X175163000Y-70929419D01*
X175088639Y-70555581D01*
X174942775Y-70203434D01*
X174731013Y-69886509D01*
X174461491Y-69616987D01*
X174144566Y-69405225D01*
X173792419Y-69259361D01*
X173418581Y-69185000D01*
X173037419Y-69185000D01*
X172663581Y-69259361D01*
X172311434Y-69405225D01*
X171994509Y-69616987D01*
X171724987Y-69886509D01*
X171513225Y-70203434D01*
X171367361Y-70555581D01*
X171293000Y-70929419D01*
X164854692Y-70929419D01*
X164804482Y-70914188D01*
X164680000Y-70901928D01*
X162980000Y-70901928D01*
X162855518Y-70914188D01*
X162735820Y-70950498D01*
X162625506Y-71009463D01*
X162528815Y-71088815D01*
X162449463Y-71185506D01*
X162390498Y-71295820D01*
X162354188Y-71415518D01*
X162341928Y-71540000D01*
X160116205Y-71540000D01*
X160089120Y-71499465D01*
X159894535Y-71304880D01*
X159665727Y-71151995D01*
X159411490Y-71046686D01*
X159141592Y-70993000D01*
X158866408Y-70993000D01*
X158596510Y-71046686D01*
X158342273Y-71151995D01*
X158113465Y-71304880D01*
X157918880Y-71499465D01*
X157765995Y-71728273D01*
X157660686Y-71982510D01*
X157607000Y-72252408D01*
X156083000Y-72252408D01*
X156083000Y-67056000D01*
X156080560Y-67031224D01*
X156073333Y-67007399D01*
X156061597Y-66985443D01*
X156045803Y-66966197D01*
X156026557Y-66950403D01*
X156004601Y-66938667D01*
X155980776Y-66931440D01*
X155956000Y-66929000D01*
X137160000Y-66929000D01*
X137135224Y-66931440D01*
X137111399Y-66938667D01*
X137089443Y-66950403D01*
X137070197Y-66966197D01*
X137054403Y-66985443D01*
X137042667Y-67007399D01*
X137035440Y-67031224D01*
X137033000Y-67056000D01*
X121028335Y-67056000D01*
X121094775Y-66956566D01*
X121240639Y-66604419D01*
X121315000Y-66230581D01*
X121315000Y-65849419D01*
X171293000Y-65849419D01*
X171293000Y-66230581D01*
X171367361Y-66604419D01*
X171513225Y-66956566D01*
X171724987Y-67273491D01*
X171994509Y-67543013D01*
X172311434Y-67754775D01*
X172663581Y-67900639D01*
X173037419Y-67975000D01*
X173418581Y-67975000D01*
X173792419Y-67900639D01*
X174144566Y-67754775D01*
X174461491Y-67543013D01*
X174731013Y-67273491D01*
X174942775Y-66956566D01*
X175088639Y-66604419D01*
X175163000Y-66230581D01*
X175163000Y-65849419D01*
X175088639Y-65475581D01*
X174942775Y-65123434D01*
X174731013Y-64806509D01*
X174461491Y-64536987D01*
X174144566Y-64325225D01*
X173792419Y-64179361D01*
X173418581Y-64105000D01*
X173037419Y-64105000D01*
X172663581Y-64179361D01*
X172311434Y-64325225D01*
X171994509Y-64536987D01*
X171724987Y-64806509D01*
X171513225Y-65123434D01*
X171367361Y-65475581D01*
X171293000Y-65849419D01*
X121315000Y-65849419D01*
X121240639Y-65475581D01*
X121094775Y-65123434D01*
X120883013Y-64806509D01*
X120613491Y-64536987D01*
X120296566Y-64325225D01*
X119944419Y-64179361D01*
X119570581Y-64105000D01*
X119189419Y-64105000D01*
X118815581Y-64179361D01*
X118463434Y-64325225D01*
X118146509Y-64536987D01*
X117876987Y-64806509D01*
X117665225Y-65123434D01*
X117519361Y-65475581D01*
X117445000Y-65849419D01*
X112445000Y-65849419D01*
X112445000Y-60769419D01*
X117445000Y-60769419D01*
X117445000Y-61150581D01*
X117519361Y-61524419D01*
X117665225Y-61876566D01*
X117876987Y-62193491D01*
X118146509Y-62463013D01*
X118463434Y-62674775D01*
X118815581Y-62820639D01*
X119189419Y-62895000D01*
X119570581Y-62895000D01*
X119944419Y-62820639D01*
X120296566Y-62674775D01*
X120613491Y-62463013D01*
X120883013Y-62193491D01*
X121094775Y-61876566D01*
X121240639Y-61524419D01*
X121315000Y-61150581D01*
X121315000Y-60769419D01*
X121240639Y-60395581D01*
X121094775Y-60043434D01*
X120883013Y-59726509D01*
X120613491Y-59456987D01*
X120296566Y-59245225D01*
X119944419Y-59099361D01*
X119570581Y-59025000D01*
X119189419Y-59025000D01*
X118815581Y-59099361D01*
X118463434Y-59245225D01*
X118146509Y-59456987D01*
X117876987Y-59726509D01*
X117665225Y-60043434D01*
X117519361Y-60395581D01*
X117445000Y-60769419D01*
X112445000Y-60769419D01*
X112445000Y-55689419D01*
X117445000Y-55689419D01*
X117445000Y-56070581D01*
X117519361Y-56444419D01*
X117665225Y-56796566D01*
X117876987Y-57113491D01*
X118146509Y-57383013D01*
X118463434Y-57594775D01*
X118815581Y-57740639D01*
X119189419Y-57815000D01*
X119570581Y-57815000D01*
X119944419Y-57740639D01*
X120296566Y-57594775D01*
X120613491Y-57383013D01*
X120883013Y-57113491D01*
X121094775Y-56796566D01*
X121240639Y-56444419D01*
X121315000Y-56070581D01*
X121315000Y-55689419D01*
X121240639Y-55315581D01*
X121094775Y-54963434D01*
X120883013Y-54646509D01*
X120613491Y-54376987D01*
X120296566Y-54165225D01*
X119944419Y-54019361D01*
X119570581Y-53945000D01*
X119189419Y-53945000D01*
X118815581Y-54019361D01*
X118463434Y-54165225D01*
X118146509Y-54376987D01*
X117876987Y-54646509D01*
X117665225Y-54963434D01*
X117519361Y-55315581D01*
X117445000Y-55689419D01*
X112445000Y-55689419D01*
X112445000Y-50609419D01*
X117445000Y-50609419D01*
X117445000Y-50990581D01*
X117519361Y-51364419D01*
X117665225Y-51716566D01*
X117876987Y-52033491D01*
X118146509Y-52303013D01*
X118463434Y-52514775D01*
X118815581Y-52660639D01*
X119189419Y-52735000D01*
X119570581Y-52735000D01*
X119944419Y-52660639D01*
X120296566Y-52514775D01*
X120613491Y-52303013D01*
X120883013Y-52033491D01*
X121094775Y-51716566D01*
X121240639Y-51364419D01*
X121315000Y-50990581D01*
X121315000Y-50609419D01*
X121240639Y-50235581D01*
X121094775Y-49883434D01*
X120883013Y-49566509D01*
X120613491Y-49296987D01*
X120296566Y-49085225D01*
X119944419Y-48939361D01*
X119570581Y-48865000D01*
X119189419Y-48865000D01*
X118815581Y-48939361D01*
X118463434Y-49085225D01*
X118146509Y-49296987D01*
X117876987Y-49566509D01*
X117665225Y-49883434D01*
X117519361Y-50235581D01*
X117445000Y-50609419D01*
X112445000Y-50609419D01*
X112445000Y-45529419D01*
X117445000Y-45529419D01*
X117445000Y-45910581D01*
X117519361Y-46284419D01*
X117665225Y-46636566D01*
X117876987Y-46953491D01*
X118146509Y-47223013D01*
X118463434Y-47434775D01*
X118815581Y-47580639D01*
X119189419Y-47655000D01*
X119570581Y-47655000D01*
X119944419Y-47580639D01*
X120296566Y-47434775D01*
X120613491Y-47223013D01*
X120883013Y-46953491D01*
X121094775Y-46636566D01*
X121240639Y-46284419D01*
X121315000Y-45910581D01*
X121315000Y-45529419D01*
X121240639Y-45155581D01*
X121094775Y-44803434D01*
X120883013Y-44486509D01*
X120613491Y-44216987D01*
X120296566Y-44005225D01*
X119944419Y-43859361D01*
X119570581Y-43785000D01*
X119189419Y-43785000D01*
X118815581Y-43859361D01*
X118463434Y-44005225D01*
X118146509Y-44216987D01*
X117876987Y-44486509D01*
X117665225Y-44803434D01*
X117519361Y-45155581D01*
X117445000Y-45529419D01*
X112445000Y-45529419D01*
X112445000Y-39340000D01*
X117441928Y-39340000D01*
X117441928Y-41940000D01*
X117454188Y-42064482D01*
X117490498Y-42184180D01*
X117549463Y-42294494D01*
X117628815Y-42391185D01*
X117725506Y-42470537D01*
X117835820Y-42529502D01*
X117955518Y-42565812D01*
X118080000Y-42578072D01*
X120680000Y-42578072D01*
X120804482Y-42565812D01*
X120924180Y-42529502D01*
X121034494Y-42470537D01*
X121131185Y-42391185D01*
X121210537Y-42294494D01*
X121269502Y-42184180D01*
X121305812Y-42064482D01*
X121318072Y-41940000D01*
X121318072Y-39340000D01*
X121305812Y-39215518D01*
X121269502Y-39095820D01*
X121210537Y-38985506D01*
X121131185Y-38888815D01*
X121034494Y-38809463D01*
X120924180Y-38750498D01*
X120804482Y-38714188D01*
X120680000Y-38701928D01*
X118080000Y-38701928D01*
X117955518Y-38714188D01*
X117835820Y-38750498D01*
X117725506Y-38809463D01*
X117628815Y-38888815D01*
X117549463Y-38985506D01*
X117490498Y-39095820D01*
X117454188Y-39215518D01*
X117441928Y-39340000D01*
X112445000Y-39340000D01*
X112445000Y-32642285D01*
X115545000Y-32642285D01*
X115545000Y-33397715D01*
X115692377Y-34138628D01*
X115981467Y-34836554D01*
X116401161Y-35464670D01*
X116935330Y-35998839D01*
X117563446Y-36418533D01*
X118261372Y-36707623D01*
X119002285Y-36855000D01*
X119757715Y-36855000D01*
X120498628Y-36707623D01*
X121196554Y-36418533D01*
X121824670Y-35998839D01*
X122358839Y-35464670D01*
X122778533Y-34836554D01*
X123067623Y-34138628D01*
X123215000Y-33397715D01*
X123215000Y-32642285D01*
X123188482Y-32508967D01*
X128395000Y-32508967D01*
X128395000Y-32831033D01*
X128457832Y-33146912D01*
X128581082Y-33444463D01*
X128760013Y-33712252D01*
X128987748Y-33939987D01*
X128987767Y-33940000D01*
X128987748Y-33940013D01*
X128760013Y-34167748D01*
X128581082Y-34435537D01*
X128457832Y-34733088D01*
X128395000Y-35048967D01*
X128395000Y-35371033D01*
X128457832Y-35686912D01*
X128581082Y-35984463D01*
X128760013Y-36252252D01*
X128987748Y-36479987D01*
X128987767Y-36480000D01*
X128987748Y-36480013D01*
X128760013Y-36707748D01*
X128581082Y-36975537D01*
X128457832Y-37273088D01*
X128395000Y-37588967D01*
X128395000Y-37911033D01*
X128457832Y-38226912D01*
X128581082Y-38524463D01*
X128760013Y-38792252D01*
X128987748Y-39019987D01*
X128987767Y-39020000D01*
X128987748Y-39020013D01*
X128760013Y-39247748D01*
X128581082Y-39515537D01*
X128457832Y-39813088D01*
X128395000Y-40128967D01*
X128395000Y-40451033D01*
X128457832Y-40766912D01*
X128581082Y-41064463D01*
X128760013Y-41332252D01*
X128987748Y-41559987D01*
X128987767Y-41560000D01*
X128987748Y-41560013D01*
X128760013Y-41787748D01*
X128581082Y-42055537D01*
X128457832Y-42353088D01*
X128395000Y-42668967D01*
X128395000Y-42991033D01*
X128457832Y-43306912D01*
X128581082Y-43604463D01*
X128760013Y-43872252D01*
X128987748Y-44099987D01*
X128987767Y-44100000D01*
X128987748Y-44100013D01*
X128760013Y-44327748D01*
X128581082Y-44595537D01*
X128457832Y-44893088D01*
X128395000Y-45208967D01*
X128395000Y-45531033D01*
X128457832Y-45846912D01*
X128581082Y-46144463D01*
X128760013Y-46412252D01*
X128987748Y-46639987D01*
X128987767Y-46640000D01*
X128987748Y-46640013D01*
X128760013Y-46867748D01*
X128581082Y-47135537D01*
X128457832Y-47433088D01*
X128395000Y-47748967D01*
X128395000Y-48071033D01*
X128457832Y-48386912D01*
X128581082Y-48684463D01*
X128760013Y-48952252D01*
X128987748Y-49179987D01*
X128987767Y-49180000D01*
X128987748Y-49180013D01*
X128760013Y-49407748D01*
X128581082Y-49675537D01*
X128457832Y-49973088D01*
X128395000Y-50288967D01*
X128395000Y-50611033D01*
X128457832Y-50926912D01*
X128581082Y-51224463D01*
X128760013Y-51492252D01*
X128987748Y-51719987D01*
X128987767Y-51720000D01*
X128987748Y-51720013D01*
X128760013Y-51947748D01*
X128581082Y-52215537D01*
X128457832Y-52513088D01*
X128395000Y-52828967D01*
X128395000Y-53151033D01*
X128457832Y-53466912D01*
X128581082Y-53764463D01*
X128760013Y-54032252D01*
X128987748Y-54259987D01*
X128987767Y-54260000D01*
X128987748Y-54260013D01*
X128760013Y-54487748D01*
X128581082Y-54755537D01*
X128457832Y-55053088D01*
X128395000Y-55368967D01*
X128395000Y-55691033D01*
X128457832Y-56006912D01*
X128581082Y-56304463D01*
X128760013Y-56572252D01*
X128987748Y-56799987D01*
X128987767Y-56800000D01*
X128987748Y-56800013D01*
X128760013Y-57027748D01*
X128581082Y-57295537D01*
X128457832Y-57593088D01*
X128395000Y-57908967D01*
X128395000Y-58231033D01*
X128457832Y-58546912D01*
X128581082Y-58844463D01*
X128760013Y-59112252D01*
X128987748Y-59339987D01*
X128987767Y-59340000D01*
X128987748Y-59340013D01*
X128760013Y-59567748D01*
X128581082Y-59835537D01*
X128457832Y-60133088D01*
X128395000Y-60448967D01*
X128395000Y-60771033D01*
X128457832Y-61086912D01*
X128581082Y-61384463D01*
X128760013Y-61652252D01*
X128987748Y-61879987D01*
X128987767Y-61880000D01*
X128987748Y-61880013D01*
X128760013Y-62107748D01*
X128581082Y-62375537D01*
X128457832Y-62673088D01*
X128395000Y-62988967D01*
X128395000Y-63311033D01*
X128457832Y-63626912D01*
X128581082Y-63924463D01*
X128760013Y-64192252D01*
X128987748Y-64419987D01*
X129255537Y-64598918D01*
X129553088Y-64722168D01*
X129868967Y-64785000D01*
X130191033Y-64785000D01*
X130506912Y-64722168D01*
X130804463Y-64598918D01*
X131072252Y-64419987D01*
X131299987Y-64192252D01*
X131300000Y-64192233D01*
X131300013Y-64192252D01*
X131527748Y-64419987D01*
X131795537Y-64598918D01*
X132093088Y-64722168D01*
X132408967Y-64785000D01*
X132731033Y-64785000D01*
X133046912Y-64722168D01*
X133344463Y-64598918D01*
X133612252Y-64419987D01*
X133839987Y-64192252D01*
X133840000Y-64192233D01*
X133840013Y-64192252D01*
X134067748Y-64419987D01*
X134335537Y-64598918D01*
X134633088Y-64722168D01*
X134948967Y-64785000D01*
X135271033Y-64785000D01*
X135586912Y-64722168D01*
X135884463Y-64598918D01*
X136152252Y-64419987D01*
X136379987Y-64192252D01*
X136380000Y-64192233D01*
X136380013Y-64192252D01*
X136607748Y-64419987D01*
X136875537Y-64598918D01*
X137173088Y-64722168D01*
X137488967Y-64785000D01*
X137811033Y-64785000D01*
X138126912Y-64722168D01*
X138424463Y-64598918D01*
X138692252Y-64419987D01*
X138919987Y-64192252D01*
X138920000Y-64192233D01*
X138920013Y-64192252D01*
X139147748Y-64419987D01*
X139415537Y-64598918D01*
X139713088Y-64722168D01*
X140028967Y-64785000D01*
X140351033Y-64785000D01*
X140666912Y-64722168D01*
X140964463Y-64598918D01*
X141232252Y-64419987D01*
X141459987Y-64192252D01*
X141460000Y-64192233D01*
X141460013Y-64192252D01*
X141687748Y-64419987D01*
X141955537Y-64598918D01*
X142253088Y-64722168D01*
X142568967Y-64785000D01*
X142891033Y-64785000D01*
X143206912Y-64722168D01*
X143504463Y-64598918D01*
X143772252Y-64419987D01*
X143999987Y-64192252D01*
X144000000Y-64192233D01*
X144000013Y-64192252D01*
X144227748Y-64419987D01*
X144495537Y-64598918D01*
X144793088Y-64722168D01*
X145108967Y-64785000D01*
X145431033Y-64785000D01*
X145746912Y-64722168D01*
X146044463Y-64598918D01*
X146312252Y-64419987D01*
X146539987Y-64192252D01*
X146540000Y-64192233D01*
X146540013Y-64192252D01*
X146767748Y-64419987D01*
X147035537Y-64598918D01*
X147333088Y-64722168D01*
X147648967Y-64785000D01*
X147971033Y-64785000D01*
X148286912Y-64722168D01*
X148584463Y-64598918D01*
X148852252Y-64419987D01*
X149079987Y-64192252D01*
X149080000Y-64192233D01*
X149080013Y-64192252D01*
X149307748Y-64419987D01*
X149575537Y-64598918D01*
X149873088Y-64722168D01*
X150188967Y-64785000D01*
X150511033Y-64785000D01*
X150826912Y-64722168D01*
X151124463Y-64598918D01*
X151392252Y-64419987D01*
X151619987Y-64192252D01*
X151620000Y-64192233D01*
X151620013Y-64192252D01*
X151847748Y-64419987D01*
X152115537Y-64598918D01*
X152413088Y-64722168D01*
X152728967Y-64785000D01*
X153051033Y-64785000D01*
X153366912Y-64722168D01*
X153664463Y-64598918D01*
X153932252Y-64419987D01*
X154159987Y-64192252D01*
X154160000Y-64192233D01*
X154160013Y-64192252D01*
X154387748Y-64419987D01*
X154655537Y-64598918D01*
X154953088Y-64722168D01*
X155268967Y-64785000D01*
X155591033Y-64785000D01*
X155906912Y-64722168D01*
X156204463Y-64598918D01*
X156472252Y-64419987D01*
X156699987Y-64192252D01*
X156700000Y-64192233D01*
X156700013Y-64192252D01*
X156927748Y-64419987D01*
X157195537Y-64598918D01*
X157493088Y-64722168D01*
X157808967Y-64785000D01*
X158131033Y-64785000D01*
X158446912Y-64722168D01*
X158744463Y-64598918D01*
X159012252Y-64419987D01*
X159239987Y-64192252D01*
X159240000Y-64192233D01*
X159240013Y-64192252D01*
X159467748Y-64419987D01*
X159735537Y-64598918D01*
X160033088Y-64722168D01*
X160348967Y-64785000D01*
X160671033Y-64785000D01*
X160986912Y-64722168D01*
X161284463Y-64598918D01*
X161552252Y-64419987D01*
X161779987Y-64192252D01*
X161780000Y-64192233D01*
X161780013Y-64192252D01*
X162007748Y-64419987D01*
X162275537Y-64598918D01*
X162573088Y-64722168D01*
X162888967Y-64785000D01*
X163211033Y-64785000D01*
X163526912Y-64722168D01*
X163824463Y-64598918D01*
X164092252Y-64419987D01*
X164319987Y-64192252D01*
X164498918Y-63924463D01*
X164622168Y-63626912D01*
X164685000Y-63311033D01*
X164685000Y-62988967D01*
X164622168Y-62673088D01*
X164498918Y-62375537D01*
X164319987Y-62107748D01*
X164092252Y-61880013D01*
X164092233Y-61880000D01*
X164092252Y-61879987D01*
X164319987Y-61652252D01*
X164498918Y-61384463D01*
X164622168Y-61086912D01*
X164685000Y-60771033D01*
X164685000Y-60769419D01*
X171293000Y-60769419D01*
X171293000Y-61150581D01*
X171367361Y-61524419D01*
X171513225Y-61876566D01*
X171724987Y-62193491D01*
X171994509Y-62463013D01*
X172311434Y-62674775D01*
X172663581Y-62820639D01*
X173037419Y-62895000D01*
X173418581Y-62895000D01*
X173792419Y-62820639D01*
X174144566Y-62674775D01*
X174461491Y-62463013D01*
X174731013Y-62193491D01*
X174942775Y-61876566D01*
X175088639Y-61524419D01*
X175163000Y-61150581D01*
X175163000Y-60769419D01*
X175088639Y-60395581D01*
X174942775Y-60043434D01*
X174731013Y-59726509D01*
X174461491Y-59456987D01*
X174144566Y-59245225D01*
X173792419Y-59099361D01*
X173418581Y-59025000D01*
X173037419Y-59025000D01*
X172663581Y-59099361D01*
X172311434Y-59245225D01*
X171994509Y-59456987D01*
X171724987Y-59726509D01*
X171513225Y-60043434D01*
X171367361Y-60395581D01*
X171293000Y-60769419D01*
X164685000Y-60769419D01*
X164685000Y-60448967D01*
X164622168Y-60133088D01*
X164498918Y-59835537D01*
X164319987Y-59567748D01*
X164092252Y-59340013D01*
X164092233Y-59340000D01*
X164092252Y-59339987D01*
X164319987Y-59112252D01*
X164498918Y-58844463D01*
X164622168Y-58546912D01*
X164685000Y-58231033D01*
X164685000Y-57908967D01*
X164622168Y-57593088D01*
X164498918Y-57295537D01*
X164319987Y-57027748D01*
X164092252Y-56800013D01*
X164092233Y-56800000D01*
X164092252Y-56799987D01*
X164319987Y-56572252D01*
X164498918Y-56304463D01*
X164622168Y-56006912D01*
X164685000Y-55691033D01*
X164685000Y-55689419D01*
X171293000Y-55689419D01*
X171293000Y-56070581D01*
X171367361Y-56444419D01*
X171513225Y-56796566D01*
X171724987Y-57113491D01*
X171994509Y-57383013D01*
X172311434Y-57594775D01*
X172663581Y-57740639D01*
X173037419Y-57815000D01*
X173418581Y-57815000D01*
X173792419Y-57740639D01*
X174144566Y-57594775D01*
X174461491Y-57383013D01*
X174731013Y-57113491D01*
X174942775Y-56796566D01*
X175088639Y-56444419D01*
X175163000Y-56070581D01*
X175163000Y-55689419D01*
X175088639Y-55315581D01*
X174942775Y-54963434D01*
X174731013Y-54646509D01*
X174461491Y-54376987D01*
X174144566Y-54165225D01*
X173792419Y-54019361D01*
X173418581Y-53945000D01*
X173037419Y-53945000D01*
X172663581Y-54019361D01*
X172311434Y-54165225D01*
X171994509Y-54376987D01*
X171724987Y-54646509D01*
X171513225Y-54963434D01*
X171367361Y-55315581D01*
X171293000Y-55689419D01*
X164685000Y-55689419D01*
X164685000Y-55368967D01*
X164622168Y-55053088D01*
X164498918Y-54755537D01*
X164319987Y-54487748D01*
X164092252Y-54260013D01*
X164092233Y-54260000D01*
X164092252Y-54259987D01*
X164319987Y-54032252D01*
X164498918Y-53764463D01*
X164622168Y-53466912D01*
X164685000Y-53151033D01*
X164685000Y-52828967D01*
X164622168Y-52513088D01*
X164498918Y-52215537D01*
X164319987Y-51947748D01*
X164092252Y-51720013D01*
X164092233Y-51720000D01*
X164092252Y-51719987D01*
X164319987Y-51492252D01*
X164498918Y-51224463D01*
X164622168Y-50926912D01*
X164685000Y-50611033D01*
X164685000Y-50609419D01*
X171293000Y-50609419D01*
X171293000Y-50990581D01*
X171367361Y-51364419D01*
X171513225Y-51716566D01*
X171724987Y-52033491D01*
X171994509Y-52303013D01*
X172311434Y-52514775D01*
X172663581Y-52660639D01*
X173037419Y-52735000D01*
X173418581Y-52735000D01*
X173792419Y-52660639D01*
X174144566Y-52514775D01*
X174461491Y-52303013D01*
X174731013Y-52033491D01*
X174942775Y-51716566D01*
X175088639Y-51364419D01*
X175163000Y-50990581D01*
X175163000Y-50609419D01*
X175088639Y-50235581D01*
X174942775Y-49883434D01*
X174731013Y-49566509D01*
X174461491Y-49296987D01*
X174144566Y-49085225D01*
X173792419Y-48939361D01*
X173418581Y-48865000D01*
X173037419Y-48865000D01*
X172663581Y-48939361D01*
X172311434Y-49085225D01*
X171994509Y-49296987D01*
X171724987Y-49566509D01*
X171513225Y-49883434D01*
X171367361Y-50235581D01*
X171293000Y-50609419D01*
X164685000Y-50609419D01*
X164685000Y-50288967D01*
X164622168Y-49973088D01*
X164498918Y-49675537D01*
X164319987Y-49407748D01*
X164092252Y-49180013D01*
X164092233Y-49180000D01*
X164092252Y-49179987D01*
X164319987Y-48952252D01*
X164498918Y-48684463D01*
X164622168Y-48386912D01*
X164685000Y-48071033D01*
X164685000Y-47748967D01*
X164622168Y-47433088D01*
X164498918Y-47135537D01*
X164319987Y-46867748D01*
X164092252Y-46640013D01*
X164092233Y-46640000D01*
X164092252Y-46639987D01*
X164319987Y-46412252D01*
X164498918Y-46144463D01*
X164622168Y-45846912D01*
X164685000Y-45531033D01*
X164685000Y-45529419D01*
X171293000Y-45529419D01*
X171293000Y-45910581D01*
X171367361Y-46284419D01*
X171513225Y-46636566D01*
X171724987Y-46953491D01*
X171994509Y-47223013D01*
X172311434Y-47434775D01*
X172663581Y-47580639D01*
X173037419Y-47655000D01*
X173418581Y-47655000D01*
X173792419Y-47580639D01*
X174144566Y-47434775D01*
X174461491Y-47223013D01*
X174731013Y-46953491D01*
X174942775Y-46636566D01*
X175088639Y-46284419D01*
X175163000Y-45910581D01*
X175163000Y-45529419D01*
X175088639Y-45155581D01*
X174942775Y-44803434D01*
X174731013Y-44486509D01*
X174461491Y-44216987D01*
X174144566Y-44005225D01*
X173792419Y-43859361D01*
X173418581Y-43785000D01*
X173037419Y-43785000D01*
X172663581Y-43859361D01*
X172311434Y-44005225D01*
X171994509Y-44216987D01*
X171724987Y-44486509D01*
X171513225Y-44803434D01*
X171367361Y-45155581D01*
X171293000Y-45529419D01*
X164685000Y-45529419D01*
X164685000Y-45208967D01*
X164622168Y-44893088D01*
X164498918Y-44595537D01*
X164319987Y-44327748D01*
X164092252Y-44100013D01*
X164092233Y-44100000D01*
X164092252Y-44099987D01*
X164319987Y-43872252D01*
X164498918Y-43604463D01*
X164622168Y-43306912D01*
X164685000Y-42991033D01*
X164685000Y-42668967D01*
X164622168Y-42353088D01*
X164498918Y-42055537D01*
X164319987Y-41787748D01*
X164092252Y-41560013D01*
X164092233Y-41560000D01*
X164092252Y-41559987D01*
X164319987Y-41332252D01*
X164498918Y-41064463D01*
X164622168Y-40766912D01*
X164685000Y-40451033D01*
X164685000Y-40449419D01*
X171293000Y-40449419D01*
X171293000Y-40830581D01*
X171367361Y-41204419D01*
X171513225Y-41556566D01*
X171724987Y-41873491D01*
X171994509Y-42143013D01*
X172311434Y-42354775D01*
X172663581Y-42500639D01*
X173037419Y-42575000D01*
X173418581Y-42575000D01*
X173792419Y-42500639D01*
X174144566Y-42354775D01*
X174461491Y-42143013D01*
X174731013Y-41873491D01*
X174942775Y-41556566D01*
X175088639Y-41204419D01*
X175163000Y-40830581D01*
X175163000Y-40449419D01*
X175088639Y-40075581D01*
X174942775Y-39723434D01*
X174731013Y-39406509D01*
X174461491Y-39136987D01*
X174144566Y-38925225D01*
X173792419Y-38779361D01*
X173418581Y-38705000D01*
X173037419Y-38705000D01*
X172663581Y-38779361D01*
X172311434Y-38925225D01*
X171994509Y-39136987D01*
X171724987Y-39406509D01*
X171513225Y-39723434D01*
X171367361Y-40075581D01*
X171293000Y-40449419D01*
X164685000Y-40449419D01*
X164685000Y-40128967D01*
X164622168Y-39813088D01*
X164498918Y-39515537D01*
X164319987Y-39247748D01*
X164092252Y-39020013D01*
X164092233Y-39020000D01*
X164092252Y-39019987D01*
X164319987Y-38792252D01*
X164498918Y-38524463D01*
X164622168Y-38226912D01*
X164685000Y-37911033D01*
X164685000Y-37588967D01*
X164622168Y-37273088D01*
X164498918Y-36975537D01*
X164319987Y-36707748D01*
X164092252Y-36480013D01*
X164092233Y-36480000D01*
X164092252Y-36479987D01*
X164319987Y-36252252D01*
X164498918Y-35984463D01*
X164622168Y-35686912D01*
X164685000Y-35371033D01*
X164685000Y-35048967D01*
X164622168Y-34733088D01*
X164498918Y-34435537D01*
X164319987Y-34167748D01*
X164092252Y-33940013D01*
X164092233Y-33940000D01*
X164092252Y-33939987D01*
X164319987Y-33712252D01*
X164498918Y-33444463D01*
X164622168Y-33146912D01*
X164685000Y-32831033D01*
X164685000Y-32642285D01*
X168885000Y-32642285D01*
X168885000Y-33397715D01*
X169032377Y-34138628D01*
X169321467Y-34836554D01*
X169741161Y-35464670D01*
X170275330Y-35998839D01*
X170903446Y-36418533D01*
X171601372Y-36707623D01*
X172342285Y-36855000D01*
X173097715Y-36855000D01*
X173838628Y-36707623D01*
X174536554Y-36418533D01*
X175164670Y-35998839D01*
X175698839Y-35464670D01*
X176118533Y-34836554D01*
X176407623Y-34138628D01*
X176555000Y-33397715D01*
X176555000Y-32642285D01*
X176407623Y-31901372D01*
X176118533Y-31203446D01*
X175698839Y-30575330D01*
X175164670Y-30041161D01*
X174536554Y-29621467D01*
X173838628Y-29332377D01*
X173097715Y-29185000D01*
X172342285Y-29185000D01*
X171601372Y-29332377D01*
X170903446Y-29621467D01*
X170275330Y-30041161D01*
X169741161Y-30575330D01*
X169321467Y-31203446D01*
X169032377Y-31901372D01*
X168885000Y-32642285D01*
X164685000Y-32642285D01*
X164685000Y-32508967D01*
X164622168Y-32193088D01*
X164498918Y-31895537D01*
X164319987Y-31627748D01*
X164092252Y-31400013D01*
X163824463Y-31221082D01*
X163526912Y-31097832D01*
X163211033Y-31035000D01*
X162888967Y-31035000D01*
X162573088Y-31097832D01*
X162275537Y-31221082D01*
X162007748Y-31400013D01*
X161780013Y-31627748D01*
X161780000Y-31627767D01*
X161779987Y-31627748D01*
X161552252Y-31400013D01*
X161284463Y-31221082D01*
X160986912Y-31097832D01*
X160671033Y-31035000D01*
X160348967Y-31035000D01*
X160033088Y-31097832D01*
X159735537Y-31221082D01*
X159467748Y-31400013D01*
X159240013Y-31627748D01*
X159240000Y-31627767D01*
X159239987Y-31627748D01*
X159012252Y-31400013D01*
X158744463Y-31221082D01*
X158446912Y-31097832D01*
X158131033Y-31035000D01*
X157808967Y-31035000D01*
X157493088Y-31097832D01*
X157195537Y-31221082D01*
X156927748Y-31400013D01*
X156700013Y-31627748D01*
X156700000Y-31627767D01*
X156699987Y-31627748D01*
X156472252Y-31400013D01*
X156204463Y-31221082D01*
X155906912Y-31097832D01*
X155591033Y-31035000D01*
X155268967Y-31035000D01*
X154953088Y-31097832D01*
X154655537Y-31221082D01*
X154387748Y-31400013D01*
X154160013Y-31627748D01*
X154160000Y-31627767D01*
X154159987Y-31627748D01*
X153932252Y-31400013D01*
X153664463Y-31221082D01*
X153366912Y-31097832D01*
X153051033Y-31035000D01*
X152728967Y-31035000D01*
X152413088Y-31097832D01*
X152115537Y-31221082D01*
X151847748Y-31400013D01*
X151620013Y-31627748D01*
X151620000Y-31627767D01*
X151619987Y-31627748D01*
X151392252Y-31400013D01*
X151124463Y-31221082D01*
X150826912Y-31097832D01*
X150511033Y-31035000D01*
X150188967Y-31035000D01*
X149873088Y-31097832D01*
X149575537Y-31221082D01*
X149307748Y-31400013D01*
X149080013Y-31627748D01*
X149080000Y-31627767D01*
X149079987Y-31627748D01*
X148852252Y-31400013D01*
X148584463Y-31221082D01*
X148286912Y-31097832D01*
X147971033Y-31035000D01*
X147648967Y-31035000D01*
X147333088Y-31097832D01*
X147035537Y-31221082D01*
X146767748Y-31400013D01*
X146540013Y-31627748D01*
X146540000Y-31627767D01*
X146539987Y-31627748D01*
X146312252Y-31400013D01*
X146044463Y-31221082D01*
X145746912Y-31097832D01*
X145431033Y-31035000D01*
X145108967Y-31035000D01*
X144793088Y-31097832D01*
X144495537Y-31221082D01*
X144227748Y-31400013D01*
X144000013Y-31627748D01*
X144000000Y-31627767D01*
X143999987Y-31627748D01*
X143772252Y-31400013D01*
X143504463Y-31221082D01*
X143206912Y-31097832D01*
X142891033Y-31035000D01*
X142568967Y-31035000D01*
X142253088Y-31097832D01*
X141955537Y-31221082D01*
X141687748Y-31400013D01*
X141460013Y-31627748D01*
X141460000Y-31627767D01*
X141459987Y-31627748D01*
X141232252Y-31400013D01*
X140964463Y-31221082D01*
X140666912Y-31097832D01*
X140351033Y-31035000D01*
X140028967Y-31035000D01*
X139713088Y-31097832D01*
X139415537Y-31221082D01*
X139147748Y-31400013D01*
X138920013Y-31627748D01*
X138920000Y-31627767D01*
X138919987Y-31627748D01*
X138692252Y-31400013D01*
X138424463Y-31221082D01*
X138126912Y-31097832D01*
X137811033Y-31035000D01*
X137488967Y-31035000D01*
X137173088Y-31097832D01*
X136875537Y-31221082D01*
X136607748Y-31400013D01*
X136380013Y-31627748D01*
X136380000Y-31627767D01*
X136379987Y-31627748D01*
X136152252Y-31400013D01*
X135884463Y-31221082D01*
X135586912Y-31097832D01*
X135271033Y-31035000D01*
X134948967Y-31035000D01*
X134633088Y-31097832D01*
X134335537Y-31221082D01*
X134067748Y-31400013D01*
X133840013Y-31627748D01*
X133840000Y-31627767D01*
X133839987Y-31627748D01*
X133612252Y-31400013D01*
X133344463Y-31221082D01*
X133046912Y-31097832D01*
X132731033Y-31035000D01*
X132408967Y-31035000D01*
X132093088Y-31097832D01*
X131795537Y-31221082D01*
X131527748Y-31400013D01*
X131300013Y-31627748D01*
X131300000Y-31627767D01*
X131299987Y-31627748D01*
X131072252Y-31400013D01*
X130804463Y-31221082D01*
X130506912Y-31097832D01*
X130191033Y-31035000D01*
X129868967Y-31035000D01*
X129553088Y-31097832D01*
X129255537Y-31221082D01*
X128987748Y-31400013D01*
X128760013Y-31627748D01*
X128581082Y-31895537D01*
X128457832Y-32193088D01*
X128395000Y-32508967D01*
X123188482Y-32508967D01*
X123067623Y-31901372D01*
X122778533Y-31203446D01*
X122358839Y-30575330D01*
X121824670Y-30041161D01*
X121196554Y-29621467D01*
X120498628Y-29332377D01*
X119757715Y-29185000D01*
X119002285Y-29185000D01*
X118261372Y-29332377D01*
X117563446Y-29621467D01*
X116935330Y-30041161D01*
X116401161Y-30575330D01*
X115981467Y-31203446D01*
X115692377Y-31901372D01*
X115545000Y-32642285D01*
X112445000Y-32642285D01*
X112445000Y-28625000D01*
X179655000Y-28625000D01*
X179655001Y-126966344D01*
G37*
X179655001Y-126966344D02*
X179655000Y-126966354D01*
X179655001Y-130125000D01*
X112445000Y-130125000D01*
X112445000Y-124082285D01*
X115545000Y-124082285D01*
X115545000Y-124837715D01*
X115692377Y-125578628D01*
X115981467Y-126276554D01*
X116401161Y-126904670D01*
X116935330Y-127438839D01*
X117563446Y-127858533D01*
X118261372Y-128147623D01*
X119002285Y-128295000D01*
X119757715Y-128295000D01*
X120498628Y-128147623D01*
X121196554Y-127858533D01*
X121824670Y-127438839D01*
X122358839Y-126904670D01*
X122778533Y-126276554D01*
X123067623Y-125578628D01*
X123215000Y-124837715D01*
X123215000Y-124082285D01*
X123130054Y-123655229D01*
X168885000Y-123655229D01*
X168885000Y-124410659D01*
X169032377Y-125151572D01*
X169321467Y-125849498D01*
X169741161Y-126477614D01*
X170275330Y-127011783D01*
X170903446Y-127431477D01*
X171601372Y-127720567D01*
X172342285Y-127867944D01*
X173097715Y-127867944D01*
X173838628Y-127720567D01*
X174536554Y-127431477D01*
X175164670Y-127011783D01*
X175698839Y-126477614D01*
X176118533Y-125849498D01*
X176407623Y-125151572D01*
X176555000Y-124410659D01*
X176555000Y-123655229D01*
X176407623Y-122914316D01*
X176118533Y-122216390D01*
X175698839Y-121588274D01*
X175164670Y-121054105D01*
X174536554Y-120634411D01*
X173838628Y-120345321D01*
X173097715Y-120197944D01*
X172342285Y-120197944D01*
X171601372Y-120345321D01*
X170903446Y-120634411D01*
X170275330Y-121054105D01*
X169741161Y-121588274D01*
X169321467Y-122216390D01*
X169032377Y-122914316D01*
X168885000Y-123655229D01*
X123130054Y-123655229D01*
X123067623Y-123341372D01*
X122778533Y-122643446D01*
X122358839Y-122015330D01*
X121824670Y-121481161D01*
X121196554Y-121061467D01*
X120498628Y-120772377D01*
X119757715Y-120625000D01*
X119002285Y-120625000D01*
X118261372Y-120772377D01*
X117563446Y-121061467D01*
X116935330Y-121481161D01*
X116401161Y-122015330D01*
X115981467Y-122643446D01*
X115692377Y-123341372D01*
X115545000Y-124082285D01*
X112445000Y-124082285D01*
X112445000Y-116649419D01*
X117445000Y-116649419D01*
X117445000Y-117030581D01*
X117519361Y-117404419D01*
X117665225Y-117756566D01*
X117876987Y-118073491D01*
X118146509Y-118343013D01*
X118463434Y-118554775D01*
X118815581Y-118700639D01*
X119189419Y-118775000D01*
X119570581Y-118775000D01*
X119944419Y-118700639D01*
X120296566Y-118554775D01*
X120613491Y-118343013D01*
X120883013Y-118073491D01*
X121094775Y-117756566D01*
X121240639Y-117404419D01*
X121315000Y-117030581D01*
X121315000Y-116649419D01*
X121240639Y-116275581D01*
X121094775Y-115923434D01*
X120883013Y-115606509D01*
X120816504Y-115540000D01*
X171289928Y-115540000D01*
X171289928Y-118140000D01*
X171302188Y-118264482D01*
X171338498Y-118384180D01*
X171397463Y-118494494D01*
X171476815Y-118591185D01*
X171573506Y-118670537D01*
X171683820Y-118729502D01*
X171803518Y-118765812D01*
X171928000Y-118778072D01*
X174528000Y-118778072D01*
X174652482Y-118765812D01*
X174772180Y-118729502D01*
X174882494Y-118670537D01*
X174979185Y-118591185D01*
X175058537Y-118494494D01*
X175117502Y-118384180D01*
X175153812Y-118264482D01*
X175166072Y-118140000D01*
X175166072Y-115540000D01*
X175153812Y-115415518D01*
X175117502Y-115295820D01*
X175058537Y-115185506D01*
X174979185Y-115088815D01*
X174882494Y-115009463D01*
X174772180Y-114950498D01*
X174652482Y-114914188D01*
X174528000Y-114901928D01*
X171928000Y-114901928D01*
X171803518Y-114914188D01*
X171683820Y-114950498D01*
X171573506Y-115009463D01*
X171476815Y-115088815D01*
X171397463Y-115185506D01*
X171338498Y-115295820D01*
X171302188Y-115415518D01*
X171289928Y-115540000D01*
X120816504Y-115540000D01*
X120613491Y-115336987D01*
X120296566Y-115125225D01*
X119944419Y-114979361D01*
X119570581Y-114905000D01*
X119189419Y-114905000D01*
X118815581Y-114979361D01*
X118463434Y-115125225D01*
X118146509Y-115336987D01*
X117876987Y-115606509D01*
X117665225Y-115923434D01*
X117519361Y-116275581D01*
X117445000Y-116649419D01*
X112445000Y-116649419D01*
X112445000Y-111569419D01*
X117445000Y-111569419D01*
X117445000Y-111950581D01*
X117519361Y-112324419D01*
X117665225Y-112676566D01*
X117876987Y-112993491D01*
X118146509Y-113263013D01*
X118463434Y-113474775D01*
X118815581Y-113620639D01*
X119189419Y-113695000D01*
X119570581Y-113695000D01*
X119944419Y-113620639D01*
X120296566Y-113474775D01*
X120613491Y-113263013D01*
X120883013Y-112993491D01*
X121094775Y-112676566D01*
X121240639Y-112324419D01*
X121315000Y-111950581D01*
X121315000Y-111569419D01*
X171293000Y-111569419D01*
X171293000Y-111950581D01*
X171367361Y-112324419D01*
X171513225Y-112676566D01*
X171724987Y-112993491D01*
X171994509Y-113263013D01*
X172311434Y-113474775D01*
X172663581Y-113620639D01*
X173037419Y-113695000D01*
X173418581Y-113695000D01*
X173792419Y-113620639D01*
X174144566Y-113474775D01*
X174461491Y-113263013D01*
X174731013Y-112993491D01*
X174942775Y-112676566D01*
X175088639Y-112324419D01*
X175163000Y-111950581D01*
X175163000Y-111569419D01*
X175088639Y-111195581D01*
X174942775Y-110843434D01*
X174731013Y-110526509D01*
X174461491Y-110256987D01*
X174144566Y-110045225D01*
X173792419Y-109899361D01*
X173418581Y-109825000D01*
X173037419Y-109825000D01*
X172663581Y-109899361D01*
X172311434Y-110045225D01*
X171994509Y-110256987D01*
X171724987Y-110526509D01*
X171513225Y-110843434D01*
X171367361Y-111195581D01*
X171293000Y-111569419D01*
X121315000Y-111569419D01*
X121240639Y-111195581D01*
X121094775Y-110843434D01*
X120883013Y-110526509D01*
X120613491Y-110256987D01*
X120296566Y-110045225D01*
X119944419Y-109899361D01*
X119570581Y-109825000D01*
X119189419Y-109825000D01*
X118815581Y-109899361D01*
X118463434Y-110045225D01*
X118146509Y-110256987D01*
X117876987Y-110526509D01*
X117665225Y-110843434D01*
X117519361Y-111195581D01*
X117445000Y-111569419D01*
X112445000Y-111569419D01*
X112445000Y-108029224D01*
X118210381Y-108029224D01*
X118342317Y-108324312D01*
X118683045Y-108495159D01*
X119050557Y-108596250D01*
X119430729Y-108623701D01*
X119808951Y-108576457D01*
X120170690Y-108456333D01*
X120417683Y-108324312D01*
X120549619Y-108029224D01*
X119380000Y-106859605D01*
X118210381Y-108029224D01*
X112445000Y-108029224D01*
X112445000Y-106730729D01*
X117436299Y-106730729D01*
X117483543Y-107108951D01*
X117603667Y-107470690D01*
X117735688Y-107717683D01*
X118030776Y-107849619D01*
X119200395Y-106680000D01*
X119559605Y-106680000D01*
X120729224Y-107849619D01*
X120831836Y-107803740D01*
X127293000Y-107803740D01*
X127293000Y-108096260D01*
X127350068Y-108383158D01*
X127462010Y-108653411D01*
X127624525Y-108896632D01*
X127831368Y-109103475D01*
X128074589Y-109265990D01*
X128344842Y-109377932D01*
X128631740Y-109435000D01*
X128924260Y-109435000D01*
X129211158Y-109377932D01*
X129481411Y-109265990D01*
X129724632Y-109103475D01*
X129931475Y-108896632D01*
X130093990Y-108653411D01*
X130205932Y-108383158D01*
X130263000Y-108096260D01*
X130263000Y-107812408D01*
X132207000Y-107812408D01*
X132207000Y-108087592D01*
X132260686Y-108357490D01*
X132365995Y-108611727D01*
X132518880Y-108840535D01*
X132713465Y-109035120D01*
X132942273Y-109188005D01*
X133196510Y-109293314D01*
X133466408Y-109347000D01*
X133741592Y-109347000D01*
X134011490Y-109293314D01*
X134265727Y-109188005D01*
X134494535Y-109035120D01*
X134689120Y-108840535D01*
X134842005Y-108611727D01*
X134947314Y-108357490D01*
X135001000Y-108087592D01*
X135001000Y-107812408D01*
X157607000Y-107812408D01*
X157607000Y-108087592D01*
X157660686Y-108357490D01*
X157765995Y-108611727D01*
X157918880Y-108840535D01*
X158113465Y-109035120D01*
X158342273Y-109188005D01*
X158596510Y-109293314D01*
X158866408Y-109347000D01*
X159141592Y-109347000D01*
X159411490Y-109293314D01*
X159665727Y-109188005D01*
X159894535Y-109035120D01*
X160089120Y-108840535D01*
X160242005Y-108611727D01*
X160347314Y-108357490D01*
X160401000Y-108087592D01*
X160401000Y-107812408D01*
X160399276Y-107803740D01*
X162345000Y-107803740D01*
X162345000Y-108096260D01*
X162402068Y-108383158D01*
X162514010Y-108653411D01*
X162676525Y-108896632D01*
X162883368Y-109103475D01*
X163126589Y-109265990D01*
X163396842Y-109377932D01*
X163683740Y-109435000D01*
X163976260Y-109435000D01*
X164263158Y-109377932D01*
X164533411Y-109265990D01*
X164776632Y-109103475D01*
X164983475Y-108896632D01*
X165145990Y-108653411D01*
X165257932Y-108383158D01*
X165315000Y-108096260D01*
X165315000Y-108029224D01*
X172058381Y-108029224D01*
X172190317Y-108324312D01*
X172531045Y-108495159D01*
X172898557Y-108596250D01*
X173278729Y-108623701D01*
X173656951Y-108576457D01*
X174018690Y-108456333D01*
X174265683Y-108324312D01*
X174397619Y-108029224D01*
X173228000Y-106859605D01*
X172058381Y-108029224D01*
X165315000Y-108029224D01*
X165315000Y-107803740D01*
X165257932Y-107516842D01*
X165145990Y-107246589D01*
X164983475Y-107003368D01*
X164776632Y-106796525D01*
X164678162Y-106730729D01*
X171284299Y-106730729D01*
X171331543Y-107108951D01*
X171451667Y-107470690D01*
X171583688Y-107717683D01*
X171878776Y-107849619D01*
X173048395Y-106680000D01*
X173407605Y-106680000D01*
X174577224Y-107849619D01*
X174872312Y-107717683D01*
X175043159Y-107376955D01*
X175144250Y-107009443D01*
X175171701Y-106629271D01*
X175124457Y-106251049D01*
X175004333Y-105889310D01*
X174872312Y-105642317D01*
X174577224Y-105510381D01*
X173407605Y-106680000D01*
X173048395Y-106680000D01*
X171878776Y-105510381D01*
X171583688Y-105642317D01*
X171412841Y-105983045D01*
X171311750Y-106350557D01*
X171284299Y-106730729D01*
X164678162Y-106730729D01*
X164594466Y-106674805D01*
X164711355Y-106605178D01*
X164927588Y-106410269D01*
X165101641Y-106176920D01*
X165226825Y-105914099D01*
X165271476Y-105766890D01*
X165150155Y-105537000D01*
X163957000Y-105537000D01*
X163957000Y-105557000D01*
X163703000Y-105557000D01*
X163703000Y-105537000D01*
X162509845Y-105537000D01*
X162388524Y-105766890D01*
X162433175Y-105914099D01*
X162558359Y-106176920D01*
X162732412Y-106410269D01*
X162948645Y-106605178D01*
X163065534Y-106674805D01*
X162883368Y-106796525D01*
X162676525Y-107003368D01*
X162514010Y-107246589D01*
X162402068Y-107516842D01*
X162345000Y-107803740D01*
X160399276Y-107803740D01*
X160347314Y-107542510D01*
X160242005Y-107288273D01*
X160089120Y-107059465D01*
X159894535Y-106864880D01*
X159665727Y-106711995D01*
X159594057Y-106682308D01*
X159607023Y-106677636D01*
X159722980Y-106615656D01*
X159789960Y-106375565D01*
X159004000Y-105589605D01*
X158218040Y-106375565D01*
X158285020Y-106615656D01*
X158420760Y-106679485D01*
X158342273Y-106711995D01*
X158113465Y-106864880D01*
X157918880Y-107059465D01*
X157765995Y-107288273D01*
X157660686Y-107542510D01*
X157607000Y-107812408D01*
X135001000Y-107812408D01*
X134947314Y-107542510D01*
X134842005Y-107288273D01*
X134689120Y-107059465D01*
X134494535Y-106864880D01*
X134265727Y-106711995D01*
X134194057Y-106682308D01*
X134207023Y-106677636D01*
X134322980Y-106615656D01*
X134389960Y-106375565D01*
X133604000Y-105589605D01*
X132818040Y-106375565D01*
X132885020Y-106615656D01*
X133020760Y-106679485D01*
X132942273Y-106711995D01*
X132713465Y-106864880D01*
X132518880Y-107059465D01*
X132365995Y-107288273D01*
X132260686Y-107542510D01*
X132207000Y-107812408D01*
X130263000Y-107812408D01*
X130263000Y-107803740D01*
X130205932Y-107516842D01*
X130093990Y-107246589D01*
X129931475Y-107003368D01*
X129724632Y-106796525D01*
X129542466Y-106674805D01*
X129659355Y-106605178D01*
X129875588Y-106410269D01*
X130049641Y-106176920D01*
X130174825Y-105914099D01*
X130219476Y-105766890D01*
X130098155Y-105537000D01*
X128905000Y-105537000D01*
X128905000Y-105557000D01*
X128651000Y-105557000D01*
X128651000Y-105537000D01*
X127457845Y-105537000D01*
X127336524Y-105766890D01*
X127381175Y-105914099D01*
X127506359Y-106176920D01*
X127680412Y-106410269D01*
X127896645Y-106605178D01*
X128013534Y-106674805D01*
X127831368Y-106796525D01*
X127624525Y-107003368D01*
X127462010Y-107246589D01*
X127350068Y-107516842D01*
X127293000Y-107803740D01*
X120831836Y-107803740D01*
X121024312Y-107717683D01*
X121195159Y-107376955D01*
X121296250Y-107009443D01*
X121323701Y-106629271D01*
X121276457Y-106251049D01*
X121156333Y-105889310D01*
X121024312Y-105642317D01*
X120729224Y-105510381D01*
X119559605Y-106680000D01*
X119200395Y-106680000D01*
X118030776Y-105510381D01*
X117735688Y-105642317D01*
X117564841Y-105983045D01*
X117463750Y-106350557D01*
X117436299Y-106730729D01*
X112445000Y-106730729D01*
X112445000Y-105330776D01*
X118210381Y-105330776D01*
X119380000Y-106500395D01*
X120398378Y-105482017D01*
X132202090Y-105482017D01*
X132243078Y-105754133D01*
X132336364Y-106013023D01*
X132398344Y-106128980D01*
X132638435Y-106195960D01*
X133424395Y-105410000D01*
X133783605Y-105410000D01*
X134569565Y-106195960D01*
X134809656Y-106128980D01*
X134926756Y-105879952D01*
X134993023Y-105612865D01*
X134999157Y-105482017D01*
X157602090Y-105482017D01*
X157643078Y-105754133D01*
X157736364Y-106013023D01*
X157798344Y-106128980D01*
X158038435Y-106195960D01*
X158824395Y-105410000D01*
X159183605Y-105410000D01*
X159969565Y-106195960D01*
X160209656Y-106128980D01*
X160326756Y-105879952D01*
X160393023Y-105612865D01*
X160405910Y-105337983D01*
X160404825Y-105330776D01*
X172058381Y-105330776D01*
X173228000Y-106500395D01*
X174397619Y-105330776D01*
X174265683Y-105035688D01*
X173924955Y-104864841D01*
X173557443Y-104763750D01*
X173177271Y-104736299D01*
X172799049Y-104783543D01*
X172437310Y-104903667D01*
X172190317Y-105035688D01*
X172058381Y-105330776D01*
X160404825Y-105330776D01*
X160364922Y-105065867D01*
X160271636Y-104806977D01*
X160209656Y-104691020D01*
X159969565Y-104624040D01*
X159183605Y-105410000D01*
X158824395Y-105410000D01*
X158038435Y-104624040D01*
X157798344Y-104691020D01*
X157681244Y-104940048D01*
X157614977Y-105207135D01*
X157602090Y-105482017D01*
X134999157Y-105482017D01*
X135005910Y-105337983D01*
X134964922Y-105065867D01*
X134871636Y-104806977D01*
X134809656Y-104691020D01*
X134569565Y-104624040D01*
X133783605Y-105410000D01*
X133424395Y-105410000D01*
X132638435Y-104624040D01*
X132398344Y-104691020D01*
X132281244Y-104940048D01*
X132214977Y-105207135D01*
X132202090Y-105482017D01*
X120398378Y-105482017D01*
X120549619Y-105330776D01*
X120417683Y-105035688D01*
X120076955Y-104864841D01*
X119709443Y-104763750D01*
X119329271Y-104736299D01*
X118951049Y-104783543D01*
X118589310Y-104903667D01*
X118342317Y-105035688D01*
X118210381Y-105330776D01*
X112445000Y-105330776D01*
X112445000Y-101409419D01*
X117445000Y-101409419D01*
X117445000Y-101790581D01*
X117519361Y-102164419D01*
X117665225Y-102516566D01*
X117876987Y-102833491D01*
X118146509Y-103103013D01*
X118463434Y-103314775D01*
X118815581Y-103460639D01*
X119189419Y-103535000D01*
X119570581Y-103535000D01*
X119944419Y-103460639D01*
X120296566Y-103314775D01*
X120613491Y-103103013D01*
X120883013Y-102833491D01*
X121094775Y-102516566D01*
X121240639Y-102164419D01*
X121315000Y-101790581D01*
X121315000Y-101409419D01*
X121240639Y-101035581D01*
X121094775Y-100683434D01*
X120883013Y-100366509D01*
X120613491Y-100096987D01*
X120296566Y-99885225D01*
X119944419Y-99739361D01*
X119570581Y-99665000D01*
X119189419Y-99665000D01*
X118815581Y-99739361D01*
X118463434Y-99885225D01*
X118146509Y-100096987D01*
X117876987Y-100366509D01*
X117665225Y-100683434D01*
X117519361Y-101035581D01*
X117445000Y-101409419D01*
X112445000Y-101409419D01*
X112445000Y-96329419D01*
X117445000Y-96329419D01*
X117445000Y-96710581D01*
X117519361Y-97084419D01*
X117665225Y-97436566D01*
X117876987Y-97753491D01*
X118146509Y-98023013D01*
X118463434Y-98234775D01*
X118815581Y-98380639D01*
X119189419Y-98455000D01*
X119570581Y-98455000D01*
X119944419Y-98380639D01*
X120296566Y-98234775D01*
X120613491Y-98023013D01*
X120883013Y-97753491D01*
X121094775Y-97436566D01*
X121240639Y-97084419D01*
X121315000Y-96710581D01*
X121315000Y-96329419D01*
X121240639Y-95955581D01*
X121094775Y-95603434D01*
X120883013Y-95286509D01*
X120613491Y-95016987D01*
X120296566Y-94805225D01*
X119944419Y-94659361D01*
X119570581Y-94585000D01*
X119189419Y-94585000D01*
X118815581Y-94659361D01*
X118463434Y-94805225D01*
X118146509Y-95016987D01*
X117876987Y-95286509D01*
X117665225Y-95603434D01*
X117519361Y-95955581D01*
X117445000Y-96329419D01*
X112445000Y-96329419D01*
X112445000Y-91249419D01*
X117445000Y-91249419D01*
X117445000Y-91630581D01*
X117519361Y-92004419D01*
X117665225Y-92356566D01*
X117876987Y-92673491D01*
X118146509Y-92943013D01*
X118463434Y-93154775D01*
X118815581Y-93300639D01*
X119189419Y-93375000D01*
X119570581Y-93375000D01*
X119944419Y-93300639D01*
X120296566Y-93154775D01*
X120613491Y-92943013D01*
X120883013Y-92673491D01*
X121094775Y-92356566D01*
X121240639Y-92004419D01*
X121315000Y-91630581D01*
X121315000Y-91249419D01*
X121240639Y-90875581D01*
X121094775Y-90523434D01*
X120883013Y-90206509D01*
X120613491Y-89936987D01*
X120296566Y-89725225D01*
X119944419Y-89579361D01*
X119570581Y-89505000D01*
X119189419Y-89505000D01*
X118815581Y-89579361D01*
X118463434Y-89725225D01*
X118146509Y-89936987D01*
X117876987Y-90206509D01*
X117665225Y-90523434D01*
X117519361Y-90875581D01*
X117445000Y-91249419D01*
X112445000Y-91249419D01*
X112445000Y-86169419D01*
X117445000Y-86169419D01*
X117445000Y-86550581D01*
X117519361Y-86924419D01*
X117665225Y-87276566D01*
X117876987Y-87593491D01*
X118146509Y-87863013D01*
X118463434Y-88074775D01*
X118815581Y-88220639D01*
X119189419Y-88295000D01*
X119570581Y-88295000D01*
X119944419Y-88220639D01*
X120296566Y-88074775D01*
X120613491Y-87863013D01*
X120883013Y-87593491D01*
X121094775Y-87276566D01*
X121240639Y-86924419D01*
X121315000Y-86550581D01*
X121315000Y-86169419D01*
X121240639Y-85795581D01*
X121094775Y-85443434D01*
X120883013Y-85126509D01*
X120613491Y-84856987D01*
X120296566Y-84645225D01*
X119944419Y-84499361D01*
X119570581Y-84425000D01*
X119189419Y-84425000D01*
X118815581Y-84499361D01*
X118463434Y-84645225D01*
X118146509Y-84856987D01*
X117876987Y-85126509D01*
X117665225Y-85443434D01*
X117519361Y-85795581D01*
X117445000Y-86169419D01*
X112445000Y-86169419D01*
X112445000Y-81089419D01*
X117445000Y-81089419D01*
X117445000Y-81470581D01*
X117519361Y-81844419D01*
X117665225Y-82196566D01*
X117876987Y-82513491D01*
X118146509Y-82783013D01*
X118463434Y-82994775D01*
X118815581Y-83140639D01*
X119189419Y-83215000D01*
X119570581Y-83215000D01*
X119944419Y-83140639D01*
X120296566Y-82994775D01*
X120613491Y-82783013D01*
X120883013Y-82513491D01*
X121094775Y-82196566D01*
X121240639Y-81844419D01*
X121315000Y-81470581D01*
X121315000Y-81089419D01*
X121240639Y-80715581D01*
X121094775Y-80363434D01*
X120883013Y-80046509D01*
X120613491Y-79776987D01*
X120296566Y-79565225D01*
X119944419Y-79419361D01*
X119570581Y-79345000D01*
X119189419Y-79345000D01*
X118815581Y-79419361D01*
X118463434Y-79565225D01*
X118146509Y-79776987D01*
X117876987Y-80046509D01*
X117665225Y-80363434D01*
X117519361Y-80715581D01*
X117445000Y-81089419D01*
X112445000Y-81089419D01*
X112445000Y-76009419D01*
X117445000Y-76009419D01*
X117445000Y-76390581D01*
X117519361Y-76764419D01*
X117665225Y-77116566D01*
X117876987Y-77433491D01*
X118146509Y-77703013D01*
X118463434Y-77914775D01*
X118815581Y-78060639D01*
X119189419Y-78135000D01*
X119570581Y-78135000D01*
X119944419Y-78060639D01*
X120296566Y-77914775D01*
X120613491Y-77703013D01*
X120883013Y-77433491D01*
X121094775Y-77116566D01*
X121240639Y-76764419D01*
X121315000Y-76390581D01*
X121315000Y-76009419D01*
X121240639Y-75635581D01*
X121094775Y-75283434D01*
X120883013Y-74966509D01*
X120613491Y-74696987D01*
X120296566Y-74485225D01*
X119944419Y-74339361D01*
X119570581Y-74265000D01*
X119189419Y-74265000D01*
X118815581Y-74339361D01*
X118463434Y-74485225D01*
X118146509Y-74696987D01*
X117876987Y-74966509D01*
X117665225Y-75283434D01*
X117519361Y-75635581D01*
X117445000Y-76009419D01*
X112445000Y-76009419D01*
X112445000Y-70929419D01*
X117445000Y-70929419D01*
X117445000Y-71310581D01*
X117519361Y-71684419D01*
X117665225Y-72036566D01*
X117876987Y-72353491D01*
X118146509Y-72623013D01*
X118463434Y-72834775D01*
X118815581Y-72980639D01*
X119189419Y-73055000D01*
X119570581Y-73055000D01*
X119944419Y-72980639D01*
X120296566Y-72834775D01*
X120613491Y-72623013D01*
X120883013Y-72353491D01*
X121094775Y-72036566D01*
X121240639Y-71684419D01*
X121269365Y-71540000D01*
X127289928Y-71540000D01*
X127289928Y-73240000D01*
X127302188Y-73364482D01*
X127338498Y-73484180D01*
X127397463Y-73594494D01*
X127476815Y-73691185D01*
X127573506Y-73770537D01*
X127683820Y-73829502D01*
X127756380Y-73851513D01*
X127624525Y-73983368D01*
X127462010Y-74226589D01*
X127350068Y-74496842D01*
X127293000Y-74783740D01*
X127293000Y-75076260D01*
X127350068Y-75363158D01*
X127462010Y-75633411D01*
X127624525Y-75876632D01*
X127831368Y-76083475D01*
X128005760Y-76200000D01*
X127831368Y-76316525D01*
X127624525Y-76523368D01*
X127462010Y-76766589D01*
X127350068Y-77036842D01*
X127293000Y-77323740D01*
X127293000Y-77616260D01*
X127350068Y-77903158D01*
X127462010Y-78173411D01*
X127624525Y-78416632D01*
X127831368Y-78623475D01*
X128005760Y-78740000D01*
X127831368Y-78856525D01*
X127624525Y-79063368D01*
X127462010Y-79306589D01*
X127350068Y-79576842D01*
X127293000Y-79863740D01*
X127293000Y-80156260D01*
X127350068Y-80443158D01*
X127462010Y-80713411D01*
X127624525Y-80956632D01*
X127831368Y-81163475D01*
X128005760Y-81280000D01*
X127831368Y-81396525D01*
X127624525Y-81603368D01*
X127462010Y-81846589D01*
X127350068Y-82116842D01*
X127293000Y-82403740D01*
X127293000Y-82696260D01*
X127350068Y-82983158D01*
X127462010Y-83253411D01*
X127624525Y-83496632D01*
X127831368Y-83703475D01*
X128005760Y-83820000D01*
X127831368Y-83936525D01*
X127624525Y-84143368D01*
X127462010Y-84386589D01*
X127350068Y-84656842D01*
X127293000Y-84943740D01*
X127293000Y-85236260D01*
X127350068Y-85523158D01*
X127462010Y-85793411D01*
X127624525Y-86036632D01*
X127831368Y-86243475D01*
X128005760Y-86360000D01*
X127831368Y-86476525D01*
X127624525Y-86683368D01*
X127462010Y-86926589D01*
X127350068Y-87196842D01*
X127293000Y-87483740D01*
X127293000Y-87776260D01*
X127350068Y-88063158D01*
X127462010Y-88333411D01*
X127624525Y-88576632D01*
X127831368Y-88783475D01*
X128005760Y-88900000D01*
X127831368Y-89016525D01*
X127624525Y-89223368D01*
X127462010Y-89466589D01*
X127350068Y-89736842D01*
X127293000Y-90023740D01*
X127293000Y-90316260D01*
X127350068Y-90603158D01*
X127462010Y-90873411D01*
X127624525Y-91116632D01*
X127831368Y-91323475D01*
X128005760Y-91440000D01*
X127831368Y-91556525D01*
X127624525Y-91763368D01*
X127462010Y-92006589D01*
X127350068Y-92276842D01*
X127293000Y-92563740D01*
X127293000Y-92856260D01*
X127350068Y-93143158D01*
X127462010Y-93413411D01*
X127624525Y-93656632D01*
X127831368Y-93863475D01*
X128005760Y-93980000D01*
X127831368Y-94096525D01*
X127624525Y-94303368D01*
X127462010Y-94546589D01*
X127350068Y-94816842D01*
X127293000Y-95103740D01*
X127293000Y-95396260D01*
X127350068Y-95683158D01*
X127462010Y-95953411D01*
X127624525Y-96196632D01*
X127831368Y-96403475D01*
X128005760Y-96520000D01*
X127831368Y-96636525D01*
X127624525Y-96843368D01*
X127462010Y-97086589D01*
X127350068Y-97356842D01*
X127293000Y-97643740D01*
X127293000Y-97936260D01*
X127350068Y-98223158D01*
X127462010Y-98493411D01*
X127624525Y-98736632D01*
X127831368Y-98943475D01*
X128005760Y-99060000D01*
X127831368Y-99176525D01*
X127624525Y-99383368D01*
X127462010Y-99626589D01*
X127350068Y-99896842D01*
X127293000Y-100183740D01*
X127293000Y-100476260D01*
X127350068Y-100763158D01*
X127462010Y-101033411D01*
X127624525Y-101276632D01*
X127831368Y-101483475D01*
X128005760Y-101600000D01*
X127831368Y-101716525D01*
X127624525Y-101923368D01*
X127462010Y-102166589D01*
X127350068Y-102436842D01*
X127293000Y-102723740D01*
X127293000Y-103016260D01*
X127350068Y-103303158D01*
X127462010Y-103573411D01*
X127624525Y-103816632D01*
X127831368Y-104023475D01*
X128013534Y-104145195D01*
X127896645Y-104214822D01*
X127680412Y-104409731D01*
X127506359Y-104643080D01*
X127381175Y-104905901D01*
X127336524Y-105053110D01*
X127457845Y-105283000D01*
X128651000Y-105283000D01*
X128651000Y-105263000D01*
X128905000Y-105263000D01*
X128905000Y-105283000D01*
X130098155Y-105283000D01*
X130219476Y-105053110D01*
X130174825Y-104905901D01*
X130049641Y-104643080D01*
X129875588Y-104409731D01*
X129659355Y-104214822D01*
X129542466Y-104145195D01*
X129724632Y-104023475D01*
X129931475Y-103816632D01*
X130093990Y-103573411D01*
X130205932Y-103303158D01*
X130263000Y-103016260D01*
X130263000Y-102723740D01*
X130205932Y-102436842D01*
X130093990Y-102166589D01*
X129931475Y-101923368D01*
X129724632Y-101716525D01*
X129550240Y-101600000D01*
X129724632Y-101483475D01*
X129931475Y-101276632D01*
X130093990Y-101033411D01*
X130205932Y-100763158D01*
X130263000Y-100476260D01*
X130263000Y-100183740D01*
X130205932Y-99896842D01*
X130093990Y-99626589D01*
X129931475Y-99383368D01*
X129724632Y-99176525D01*
X129550240Y-99060000D01*
X129724632Y-98943475D01*
X129931475Y-98736632D01*
X130093990Y-98493411D01*
X130205932Y-98223158D01*
X130263000Y-97936260D01*
X130263000Y-97643740D01*
X130205932Y-97356842D01*
X130093990Y-97086589D01*
X129931475Y-96843368D01*
X129724632Y-96636525D01*
X129550240Y-96520000D01*
X129724632Y-96403475D01*
X129931475Y-96196632D01*
X130093990Y-95953411D01*
X130205932Y-95683158D01*
X130263000Y-95396260D01*
X130263000Y-95103740D01*
X130205932Y-94816842D01*
X130093990Y-94546589D01*
X129931475Y-94303368D01*
X129724632Y-94096525D01*
X129550240Y-93980000D01*
X129724632Y-93863475D01*
X129931475Y-93656632D01*
X130093990Y-93413411D01*
X130205932Y-93143158D01*
X130263000Y-92856260D01*
X130263000Y-92563740D01*
X130205932Y-92276842D01*
X130093990Y-92006589D01*
X129931475Y-91763368D01*
X129724632Y-91556525D01*
X129550240Y-91440000D01*
X129724632Y-91323475D01*
X129931475Y-91116632D01*
X130093990Y-90873411D01*
X130205932Y-90603158D01*
X130263000Y-90316260D01*
X130263000Y-90023740D01*
X130205932Y-89736842D01*
X130093990Y-89466589D01*
X129931475Y-89223368D01*
X129724632Y-89016525D01*
X129550240Y-88900000D01*
X129724632Y-88783475D01*
X129931475Y-88576632D01*
X130093990Y-88333411D01*
X130205932Y-88063158D01*
X130263000Y-87776260D01*
X130263000Y-87483740D01*
X130205932Y-87196842D01*
X130093990Y-86926589D01*
X129931475Y-86683368D01*
X129724632Y-86476525D01*
X129550240Y-86360000D01*
X129724632Y-86243475D01*
X129931475Y-86036632D01*
X130093990Y-85793411D01*
X130205932Y-85523158D01*
X130263000Y-85236260D01*
X130263000Y-84943740D01*
X130205932Y-84656842D01*
X130093990Y-84386589D01*
X129931475Y-84143368D01*
X129724632Y-83936525D01*
X129550240Y-83820000D01*
X129724632Y-83703475D01*
X129931475Y-83496632D01*
X130093990Y-83253411D01*
X130205932Y-82983158D01*
X130263000Y-82696260D01*
X130263000Y-82403740D01*
X130205932Y-82116842D01*
X130093990Y-81846589D01*
X129931475Y-81603368D01*
X129724632Y-81396525D01*
X129550240Y-81280000D01*
X129724632Y-81163475D01*
X129931475Y-80956632D01*
X130093990Y-80713411D01*
X130205932Y-80443158D01*
X130263000Y-80156260D01*
X130263000Y-79863740D01*
X130205932Y-79576842D01*
X130093990Y-79306589D01*
X129931475Y-79063368D01*
X129724632Y-78856525D01*
X129550240Y-78740000D01*
X129724632Y-78623475D01*
X129931475Y-78416632D01*
X130093990Y-78173411D01*
X130205932Y-77903158D01*
X130263000Y-77616260D01*
X130263000Y-77323740D01*
X130205932Y-77036842D01*
X130093990Y-76766589D01*
X129931475Y-76523368D01*
X129724632Y-76316525D01*
X129550240Y-76200000D01*
X129724632Y-76083475D01*
X129931475Y-75876632D01*
X130093990Y-75633411D01*
X130205932Y-75363158D01*
X130263000Y-75076260D01*
X130263000Y-74783740D01*
X130205932Y-74496842D01*
X130093990Y-74226589D01*
X129931475Y-73983368D01*
X129799620Y-73851513D01*
X129872180Y-73829502D01*
X129982494Y-73770537D01*
X130079185Y-73691185D01*
X130158537Y-73594494D01*
X130217502Y-73484180D01*
X130253812Y-73364482D01*
X130266072Y-73240000D01*
X130266072Y-71628000D01*
X132203928Y-71628000D01*
X132203928Y-73152000D01*
X132216188Y-73276482D01*
X132252498Y-73396180D01*
X132311463Y-73506494D01*
X132390815Y-73603185D01*
X132487506Y-73682537D01*
X132597820Y-73741502D01*
X132717518Y-73777812D01*
X132801465Y-73786080D01*
X132713465Y-73844880D01*
X132518880Y-74039465D01*
X132365995Y-74268273D01*
X132260686Y-74522510D01*
X132207000Y-74792408D01*
X132207000Y-75067592D01*
X132260686Y-75337490D01*
X132365995Y-75591727D01*
X132518880Y-75820535D01*
X132713465Y-76015120D01*
X132942273Y-76168005D01*
X133019515Y-76200000D01*
X132942273Y-76231995D01*
X132713465Y-76384880D01*
X132518880Y-76579465D01*
X132365995Y-76808273D01*
X132260686Y-77062510D01*
X132207000Y-77332408D01*
X132207000Y-77607592D01*
X132260686Y-77877490D01*
X132365995Y-78131727D01*
X132518880Y-78360535D01*
X132713465Y-78555120D01*
X132942273Y-78708005D01*
X133019515Y-78740000D01*
X132942273Y-78771995D01*
X132713465Y-78924880D01*
X132518880Y-79119465D01*
X132365995Y-79348273D01*
X132260686Y-79602510D01*
X132207000Y-79872408D01*
X132207000Y-80147592D01*
X132260686Y-80417490D01*
X132365995Y-80671727D01*
X132518880Y-80900535D01*
X132713465Y-81095120D01*
X132942273Y-81248005D01*
X133019515Y-81280000D01*
X132942273Y-81311995D01*
X132713465Y-81464880D01*
X132518880Y-81659465D01*
X132365995Y-81888273D01*
X132260686Y-82142510D01*
X132207000Y-82412408D01*
X132207000Y-82687592D01*
X132260686Y-82957490D01*
X132365995Y-83211727D01*
X132518880Y-83440535D01*
X132713465Y-83635120D01*
X132942273Y-83788005D01*
X133019515Y-83820000D01*
X132942273Y-83851995D01*
X132713465Y-84004880D01*
X132518880Y-84199465D01*
X132365995Y-84428273D01*
X132260686Y-84682510D01*
X132207000Y-84952408D01*
X132207000Y-85227592D01*
X132260686Y-85497490D01*
X132365995Y-85751727D01*
X132518880Y-85980535D01*
X132713465Y-86175120D01*
X132942273Y-86328005D01*
X133019515Y-86360000D01*
X132942273Y-86391995D01*
X132713465Y-86544880D01*
X132518880Y-86739465D01*
X132365995Y-86968273D01*
X132260686Y-87222510D01*
X132207000Y-87492408D01*
X132207000Y-87767592D01*
X132260686Y-88037490D01*
X132365995Y-88291727D01*
X132518880Y-88520535D01*
X132713465Y-88715120D01*
X132942273Y-88868005D01*
X133019515Y-88900000D01*
X132942273Y-88931995D01*
X132713465Y-89084880D01*
X132518880Y-89279465D01*
X132365995Y-89508273D01*
X132260686Y-89762510D01*
X132207000Y-90032408D01*
X132207000Y-90307592D01*
X132260686Y-90577490D01*
X132365995Y-90831727D01*
X132518880Y-91060535D01*
X132713465Y-91255120D01*
X132942273Y-91408005D01*
X133019515Y-91440000D01*
X132942273Y-91471995D01*
X132713465Y-91624880D01*
X132518880Y-91819465D01*
X132365995Y-92048273D01*
X132260686Y-92302510D01*
X132207000Y-92572408D01*
X132207000Y-92847592D01*
X132260686Y-93117490D01*
X132365995Y-93371727D01*
X132518880Y-93600535D01*
X132713465Y-93795120D01*
X132942273Y-93948005D01*
X133019515Y-93980000D01*
X132942273Y-94011995D01*
X132713465Y-94164880D01*
X132518880Y-94359465D01*
X132365995Y-94588273D01*
X132260686Y-94842510D01*
X132207000Y-95112408D01*
X132207000Y-95387592D01*
X132260686Y-95657490D01*
X132365995Y-95911727D01*
X132518880Y-96140535D01*
X132713465Y-96335120D01*
X132942273Y-96488005D01*
X133019515Y-96520000D01*
X132942273Y-96551995D01*
X132713465Y-96704880D01*
X132518880Y-96899465D01*
X132365995Y-97128273D01*
X132260686Y-97382510D01*
X132207000Y-97652408D01*
X132207000Y-97927592D01*
X132260686Y-98197490D01*
X132365995Y-98451727D01*
X132518880Y-98680535D01*
X132713465Y-98875120D01*
X132942273Y-99028005D01*
X133019515Y-99060000D01*
X132942273Y-99091995D01*
X132713465Y-99244880D01*
X132518880Y-99439465D01*
X132365995Y-99668273D01*
X132260686Y-99922510D01*
X132207000Y-100192408D01*
X132207000Y-100467592D01*
X132260686Y-100737490D01*
X132365995Y-100991727D01*
X132518880Y-101220535D01*
X132713465Y-101415120D01*
X132942273Y-101568005D01*
X133019515Y-101600000D01*
X132942273Y-101631995D01*
X132713465Y-101784880D01*
X132518880Y-101979465D01*
X132365995Y-102208273D01*
X132260686Y-102462510D01*
X132207000Y-102732408D01*
X132207000Y-103007592D01*
X132260686Y-103277490D01*
X132365995Y-103531727D01*
X132518880Y-103760535D01*
X132713465Y-103955120D01*
X132942273Y-104108005D01*
X133013943Y-104137692D01*
X133000977Y-104142364D01*
X132885020Y-104204344D01*
X132818040Y-104444435D01*
X133604000Y-105230395D01*
X134389960Y-104444435D01*
X134322980Y-104204344D01*
X134187240Y-104140515D01*
X134265727Y-104108005D01*
X134494535Y-103955120D01*
X134689120Y-103760535D01*
X134842005Y-103531727D01*
X134947314Y-103277490D01*
X135001000Y-103007592D01*
X135001000Y-102732408D01*
X134947314Y-102462510D01*
X134842005Y-102208273D01*
X134689120Y-101979465D01*
X134494535Y-101784880D01*
X134265727Y-101631995D01*
X134188485Y-101600000D01*
X134265727Y-101568005D01*
X134494535Y-101415120D01*
X134689120Y-101220535D01*
X134842005Y-100991727D01*
X134947314Y-100737490D01*
X135001000Y-100467592D01*
X135001000Y-100192408D01*
X134947314Y-99922510D01*
X134842005Y-99668273D01*
X134689120Y-99439465D01*
X134494535Y-99244880D01*
X134265727Y-99091995D01*
X134188485Y-99060000D01*
X134265727Y-99028005D01*
X134494535Y-98875120D01*
X134689120Y-98680535D01*
X134842005Y-98451727D01*
X134947314Y-98197490D01*
X135001000Y-97927592D01*
X135001000Y-97652408D01*
X134947314Y-97382510D01*
X134842005Y-97128273D01*
X134689120Y-96899465D01*
X134494535Y-96704880D01*
X134265727Y-96551995D01*
X134188485Y-96520000D01*
X134265727Y-96488005D01*
X134494535Y-96335120D01*
X134689120Y-96140535D01*
X134842005Y-95911727D01*
X134947314Y-95657490D01*
X135001000Y-95387592D01*
X135001000Y-95112408D01*
X134947314Y-94842510D01*
X134842005Y-94588273D01*
X134689120Y-94359465D01*
X134494535Y-94164880D01*
X134265727Y-94011995D01*
X134188485Y-93980000D01*
X134265727Y-93948005D01*
X134494535Y-93795120D01*
X134689120Y-93600535D01*
X134842005Y-93371727D01*
X134947314Y-93117490D01*
X135001000Y-92847592D01*
X135001000Y-92572408D01*
X134947314Y-92302510D01*
X134842005Y-92048273D01*
X134689120Y-91819465D01*
X134494535Y-91624880D01*
X134265727Y-91471995D01*
X134188485Y-91440000D01*
X134265727Y-91408005D01*
X134494535Y-91255120D01*
X134689120Y-91060535D01*
X134842005Y-90831727D01*
X134947314Y-90577490D01*
X135001000Y-90307592D01*
X135001000Y-90032408D01*
X134947314Y-89762510D01*
X134842005Y-89508273D01*
X134689120Y-89279465D01*
X134494535Y-89084880D01*
X134265727Y-88931995D01*
X134188485Y-88900000D01*
X134265727Y-88868005D01*
X134494535Y-88715120D01*
X134689120Y-88520535D01*
X134842005Y-88291727D01*
X134947314Y-88037490D01*
X135001000Y-87767592D01*
X135001000Y-87492408D01*
X134947314Y-87222510D01*
X134842005Y-86968273D01*
X134689120Y-86739465D01*
X134494535Y-86544880D01*
X134265727Y-86391995D01*
X134188485Y-86360000D01*
X134265727Y-86328005D01*
X134494535Y-86175120D01*
X134689120Y-85980535D01*
X134842005Y-85751727D01*
X134947314Y-85497490D01*
X135001000Y-85227592D01*
X135001000Y-84952408D01*
X134947314Y-84682510D01*
X134842005Y-84428273D01*
X134689120Y-84199465D01*
X134494535Y-84004880D01*
X134265727Y-83851995D01*
X134188485Y-83820000D01*
X134265727Y-83788005D01*
X134494535Y-83635120D01*
X134689120Y-83440535D01*
X134842005Y-83211727D01*
X134947314Y-82957490D01*
X135001000Y-82687592D01*
X135001000Y-82412408D01*
X134947314Y-82142510D01*
X134842005Y-81888273D01*
X134689120Y-81659465D01*
X134494535Y-81464880D01*
X134265727Y-81311995D01*
X134188485Y-81280000D01*
X134265727Y-81248005D01*
X134494535Y-81095120D01*
X134689120Y-80900535D01*
X134842005Y-80671727D01*
X134947314Y-80417490D01*
X135001000Y-80147592D01*
X135001000Y-79872408D01*
X134947314Y-79602510D01*
X134842005Y-79348273D01*
X134689120Y-79119465D01*
X134494535Y-78924880D01*
X134265727Y-78771995D01*
X134188485Y-78740000D01*
X134265727Y-78708005D01*
X134494535Y-78555120D01*
X134689120Y-78360535D01*
X134842005Y-78131727D01*
X134947314Y-77877490D01*
X135001000Y-77607592D01*
X135001000Y-77332408D01*
X134947314Y-77062510D01*
X134842005Y-76808273D01*
X134689120Y-76579465D01*
X134494535Y-76384880D01*
X134265727Y-76231995D01*
X134188485Y-76200000D01*
X134265727Y-76168005D01*
X134494535Y-76015120D01*
X134689120Y-75820535D01*
X134842005Y-75591727D01*
X134947314Y-75337490D01*
X135001000Y-75067592D01*
X135001000Y-74792408D01*
X134947314Y-74522510D01*
X134842005Y-74268273D01*
X134689120Y-74039465D01*
X134494535Y-73844880D01*
X134406535Y-73786080D01*
X134490482Y-73777812D01*
X134610180Y-73741502D01*
X134720494Y-73682537D01*
X134817185Y-73603185D01*
X134896537Y-73506494D01*
X134955502Y-73396180D01*
X134991812Y-73276482D01*
X135004072Y-73152000D01*
X135004072Y-71628000D01*
X134991812Y-71503518D01*
X134955502Y-71383820D01*
X134896537Y-71273506D01*
X134817185Y-71176815D01*
X134720494Y-71097463D01*
X134610180Y-71038498D01*
X134490482Y-71002188D01*
X134366000Y-70989928D01*
X132842000Y-70989928D01*
X132717518Y-71002188D01*
X132597820Y-71038498D01*
X132487506Y-71097463D01*
X132390815Y-71176815D01*
X132311463Y-71273506D01*
X132252498Y-71383820D01*
X132216188Y-71503518D01*
X132203928Y-71628000D01*
X130266072Y-71628000D01*
X130266072Y-71540000D01*
X130253812Y-71415518D01*
X130217502Y-71295820D01*
X130158537Y-71185506D01*
X130079185Y-71088815D01*
X129982494Y-71009463D01*
X129872180Y-70950498D01*
X129752482Y-70914188D01*
X129628000Y-70901928D01*
X127928000Y-70901928D01*
X127803518Y-70914188D01*
X127683820Y-70950498D01*
X127573506Y-71009463D01*
X127476815Y-71088815D01*
X127397463Y-71185506D01*
X127338498Y-71295820D01*
X127302188Y-71415518D01*
X127289928Y-71540000D01*
X121269365Y-71540000D01*
X121315000Y-71310581D01*
X121315000Y-70929419D01*
X121240639Y-70555581D01*
X121094775Y-70203434D01*
X120883013Y-69886509D01*
X120613491Y-69616987D01*
X120296566Y-69405225D01*
X119944419Y-69259361D01*
X119570581Y-69185000D01*
X119189419Y-69185000D01*
X118815581Y-69259361D01*
X118463434Y-69405225D01*
X118146509Y-69616987D01*
X117876987Y-69886509D01*
X117665225Y-70203434D01*
X117519361Y-70555581D01*
X117445000Y-70929419D01*
X112445000Y-70929419D01*
X112445000Y-65849419D01*
X117445000Y-65849419D01*
X117445000Y-66230581D01*
X117519361Y-66604419D01*
X117665225Y-66956566D01*
X117876987Y-67273491D01*
X118146509Y-67543013D01*
X118463434Y-67754775D01*
X118815581Y-67900639D01*
X119189419Y-67975000D01*
X119570581Y-67975000D01*
X119944419Y-67900639D01*
X120296566Y-67754775D01*
X120613491Y-67543013D01*
X120883013Y-67273491D01*
X121028335Y-67056000D01*
X137033000Y-67056000D01*
X137033000Y-73152000D01*
X137035440Y-73176776D01*
X137042667Y-73200601D01*
X137054403Y-73222557D01*
X137070197Y-73241803D01*
X137089443Y-73257597D01*
X137111399Y-73269333D01*
X137135224Y-73276560D01*
X137160000Y-73279000D01*
X155956000Y-73279000D01*
X155980776Y-73276560D01*
X156004601Y-73269333D01*
X156026557Y-73257597D01*
X156045803Y-73241803D01*
X156061597Y-73222557D01*
X156073333Y-73200601D01*
X156080560Y-73176776D01*
X156083000Y-73152000D01*
X156083000Y-72252408D01*
X157607000Y-72252408D01*
X157607000Y-72527592D01*
X157660686Y-72797490D01*
X157765995Y-73051727D01*
X157918880Y-73280535D01*
X158113465Y-73475120D01*
X158342273Y-73628005D01*
X158419515Y-73660000D01*
X158342273Y-73691995D01*
X158113465Y-73844880D01*
X157918880Y-74039465D01*
X157765995Y-74268273D01*
X157660686Y-74522510D01*
X157607000Y-74792408D01*
X157607000Y-75067592D01*
X157660686Y-75337490D01*
X157765995Y-75591727D01*
X157918880Y-75820535D01*
X158113465Y-76015120D01*
X158342273Y-76168005D01*
X158419515Y-76200000D01*
X158342273Y-76231995D01*
X158113465Y-76384880D01*
X157918880Y-76579465D01*
X157765995Y-76808273D01*
X157660686Y-77062510D01*
X157607000Y-77332408D01*
X157607000Y-77607592D01*
X157660686Y-77877490D01*
X157765995Y-78131727D01*
X157918880Y-78360535D01*
X158113465Y-78555120D01*
X158342273Y-78708005D01*
X158419515Y-78740000D01*
X158342273Y-78771995D01*
X158113465Y-78924880D01*
X157918880Y-79119465D01*
X157765995Y-79348273D01*
X157660686Y-79602510D01*
X157607000Y-79872408D01*
X157607000Y-80147592D01*
X157660686Y-80417490D01*
X157765995Y-80671727D01*
X157918880Y-80900535D01*
X158113465Y-81095120D01*
X158342273Y-81248005D01*
X158419515Y-81280000D01*
X158342273Y-81311995D01*
X158113465Y-81464880D01*
X157918880Y-81659465D01*
X157765995Y-81888273D01*
X157660686Y-82142510D01*
X157607000Y-82412408D01*
X157607000Y-82687592D01*
X157660686Y-82957490D01*
X157765995Y-83211727D01*
X157918880Y-83440535D01*
X158113465Y-83635120D01*
X158342273Y-83788005D01*
X158419515Y-83820000D01*
X158342273Y-83851995D01*
X158113465Y-84004880D01*
X157918880Y-84199465D01*
X157765995Y-84428273D01*
X157660686Y-84682510D01*
X157607000Y-84952408D01*
X157607000Y-85227592D01*
X157660686Y-85497490D01*
X157765995Y-85751727D01*
X157918880Y-85980535D01*
X158113465Y-86175120D01*
X158342273Y-86328005D01*
X158419515Y-86360000D01*
X158342273Y-86391995D01*
X158113465Y-86544880D01*
X157918880Y-86739465D01*
X157765995Y-86968273D01*
X157660686Y-87222510D01*
X157607000Y-87492408D01*
X157607000Y-87767592D01*
X157660686Y-88037490D01*
X157765995Y-88291727D01*
X157918880Y-88520535D01*
X158113465Y-88715120D01*
X158342273Y-88868005D01*
X158419515Y-88900000D01*
X158342273Y-88931995D01*
X158113465Y-89084880D01*
X157918880Y-89279465D01*
X157765995Y-89508273D01*
X157660686Y-89762510D01*
X157607000Y-90032408D01*
X157607000Y-90307592D01*
X157660686Y-90577490D01*
X157765995Y-90831727D01*
X157918880Y-91060535D01*
X158113465Y-91255120D01*
X158342273Y-91408005D01*
X158419515Y-91440000D01*
X158342273Y-91471995D01*
X158113465Y-91624880D01*
X157918880Y-91819465D01*
X157765995Y-92048273D01*
X157660686Y-92302510D01*
X157607000Y-92572408D01*
X157607000Y-92847592D01*
X157660686Y-93117490D01*
X157765995Y-93371727D01*
X157918880Y-93600535D01*
X158113465Y-93795120D01*
X158342273Y-93948005D01*
X158419515Y-93980000D01*
X158342273Y-94011995D01*
X158113465Y-94164880D01*
X157918880Y-94359465D01*
X157765995Y-94588273D01*
X157660686Y-94842510D01*
X157607000Y-95112408D01*
X157607000Y-95387592D01*
X157660686Y-95657490D01*
X157765995Y-95911727D01*
X157918880Y-96140535D01*
X158113465Y-96335120D01*
X158342273Y-96488005D01*
X158419515Y-96520000D01*
X158342273Y-96551995D01*
X158113465Y-96704880D01*
X157918880Y-96899465D01*
X157765995Y-97128273D01*
X157660686Y-97382510D01*
X157607000Y-97652408D01*
X157607000Y-97927592D01*
X157660686Y-98197490D01*
X157765995Y-98451727D01*
X157918880Y-98680535D01*
X158113465Y-98875120D01*
X158342273Y-99028005D01*
X158419515Y-99060000D01*
X158342273Y-99091995D01*
X158113465Y-99244880D01*
X157918880Y-99439465D01*
X157765995Y-99668273D01*
X157660686Y-99922510D01*
X157607000Y-100192408D01*
X157607000Y-100467592D01*
X157660686Y-100737490D01*
X157765995Y-100991727D01*
X157918880Y-101220535D01*
X158113465Y-101415120D01*
X158342273Y-101568005D01*
X158419515Y-101600000D01*
X158342273Y-101631995D01*
X158113465Y-101784880D01*
X157918880Y-101979465D01*
X157765995Y-102208273D01*
X157660686Y-102462510D01*
X157607000Y-102732408D01*
X157607000Y-103007592D01*
X157660686Y-103277490D01*
X157765995Y-103531727D01*
X157918880Y-103760535D01*
X158113465Y-103955120D01*
X158342273Y-104108005D01*
X158413943Y-104137692D01*
X158400977Y-104142364D01*
X158285020Y-104204344D01*
X158218040Y-104444435D01*
X159004000Y-105230395D01*
X159789960Y-104444435D01*
X159722980Y-104204344D01*
X159587240Y-104140515D01*
X159665727Y-104108005D01*
X159894535Y-103955120D01*
X160089120Y-103760535D01*
X160242005Y-103531727D01*
X160347314Y-103277490D01*
X160401000Y-103007592D01*
X160401000Y-102732408D01*
X160347314Y-102462510D01*
X160242005Y-102208273D01*
X160089120Y-101979465D01*
X159894535Y-101784880D01*
X159665727Y-101631995D01*
X159588485Y-101600000D01*
X159665727Y-101568005D01*
X159894535Y-101415120D01*
X160089120Y-101220535D01*
X160242005Y-100991727D01*
X160347314Y-100737490D01*
X160401000Y-100467592D01*
X160401000Y-100192408D01*
X160347314Y-99922510D01*
X160242005Y-99668273D01*
X160089120Y-99439465D01*
X159894535Y-99244880D01*
X159665727Y-99091995D01*
X159588485Y-99060000D01*
X159665727Y-99028005D01*
X159894535Y-98875120D01*
X160089120Y-98680535D01*
X160242005Y-98451727D01*
X160347314Y-98197490D01*
X160401000Y-97927592D01*
X160401000Y-97652408D01*
X160347314Y-97382510D01*
X160242005Y-97128273D01*
X160089120Y-96899465D01*
X159894535Y-96704880D01*
X159665727Y-96551995D01*
X159588485Y-96520000D01*
X159665727Y-96488005D01*
X159894535Y-96335120D01*
X160089120Y-96140535D01*
X160242005Y-95911727D01*
X160347314Y-95657490D01*
X160401000Y-95387592D01*
X160401000Y-95112408D01*
X160347314Y-94842510D01*
X160242005Y-94588273D01*
X160089120Y-94359465D01*
X159894535Y-94164880D01*
X159665727Y-94011995D01*
X159588485Y-93980000D01*
X159665727Y-93948005D01*
X159894535Y-93795120D01*
X160089120Y-93600535D01*
X160242005Y-93371727D01*
X160347314Y-93117490D01*
X160401000Y-92847592D01*
X160401000Y-92572408D01*
X160347314Y-92302510D01*
X160242005Y-92048273D01*
X160089120Y-91819465D01*
X159894535Y-91624880D01*
X159665727Y-91471995D01*
X159588485Y-91440000D01*
X159665727Y-91408005D01*
X159894535Y-91255120D01*
X160089120Y-91060535D01*
X160242005Y-90831727D01*
X160347314Y-90577490D01*
X160401000Y-90307592D01*
X160401000Y-90032408D01*
X160347314Y-89762510D01*
X160242005Y-89508273D01*
X160089120Y-89279465D01*
X159894535Y-89084880D01*
X159665727Y-88931995D01*
X159588485Y-88900000D01*
X159665727Y-88868005D01*
X159894535Y-88715120D01*
X160089120Y-88520535D01*
X160242005Y-88291727D01*
X160347314Y-88037490D01*
X160401000Y-87767592D01*
X160401000Y-87492408D01*
X160347314Y-87222510D01*
X160242005Y-86968273D01*
X160089120Y-86739465D01*
X159894535Y-86544880D01*
X159665727Y-86391995D01*
X159588485Y-86360000D01*
X159665727Y-86328005D01*
X159894535Y-86175120D01*
X160089120Y-85980535D01*
X160242005Y-85751727D01*
X160347314Y-85497490D01*
X160401000Y-85227592D01*
X160401000Y-84952408D01*
X160347314Y-84682510D01*
X160242005Y-84428273D01*
X160089120Y-84199465D01*
X159894535Y-84004880D01*
X159665727Y-83851995D01*
X159588485Y-83820000D01*
X159665727Y-83788005D01*
X159894535Y-83635120D01*
X160089120Y-83440535D01*
X160242005Y-83211727D01*
X160347314Y-82957490D01*
X160401000Y-82687592D01*
X160401000Y-82412408D01*
X160347314Y-82142510D01*
X160242005Y-81888273D01*
X160089120Y-81659465D01*
X159894535Y-81464880D01*
X159665727Y-81311995D01*
X159588485Y-81280000D01*
X159665727Y-81248005D01*
X159894535Y-81095120D01*
X160089120Y-80900535D01*
X160242005Y-80671727D01*
X160347314Y-80417490D01*
X160401000Y-80147592D01*
X160401000Y-79872408D01*
X160347314Y-79602510D01*
X160242005Y-79348273D01*
X160089120Y-79119465D01*
X159894535Y-78924880D01*
X159665727Y-78771995D01*
X159588485Y-78740000D01*
X159665727Y-78708005D01*
X159894535Y-78555120D01*
X160089120Y-78360535D01*
X160242005Y-78131727D01*
X160347314Y-77877490D01*
X160401000Y-77607592D01*
X160401000Y-77332408D01*
X160347314Y-77062510D01*
X160242005Y-76808273D01*
X160089120Y-76579465D01*
X159894535Y-76384880D01*
X159665727Y-76231995D01*
X159588485Y-76200000D01*
X159665727Y-76168005D01*
X159894535Y-76015120D01*
X160089120Y-75820535D01*
X160242005Y-75591727D01*
X160347314Y-75337490D01*
X160401000Y-75067592D01*
X160401000Y-74792408D01*
X160347314Y-74522510D01*
X160242005Y-74268273D01*
X160089120Y-74039465D01*
X159894535Y-73844880D01*
X159665727Y-73691995D01*
X159588485Y-73660000D01*
X159665727Y-73628005D01*
X159894535Y-73475120D01*
X160089120Y-73280535D01*
X160242005Y-73051727D01*
X160347314Y-72797490D01*
X160401000Y-72527592D01*
X160401000Y-72252408D01*
X160347314Y-71982510D01*
X160242005Y-71728273D01*
X160116205Y-71540000D01*
X162341928Y-71540000D01*
X162341928Y-73240000D01*
X162354188Y-73364482D01*
X162390498Y-73484180D01*
X162449463Y-73594494D01*
X162528815Y-73691185D01*
X162625506Y-73770537D01*
X162735820Y-73829502D01*
X162808380Y-73851513D01*
X162676525Y-73983368D01*
X162514010Y-74226589D01*
X162402068Y-74496842D01*
X162345000Y-74783740D01*
X162345000Y-75076260D01*
X162402068Y-75363158D01*
X162514010Y-75633411D01*
X162676525Y-75876632D01*
X162883368Y-76083475D01*
X163057760Y-76200000D01*
X162883368Y-76316525D01*
X162676525Y-76523368D01*
X162514010Y-76766589D01*
X162402068Y-77036842D01*
X162345000Y-77323740D01*
X162345000Y-77616260D01*
X162402068Y-77903158D01*
X162514010Y-78173411D01*
X162676525Y-78416632D01*
X162883368Y-78623475D01*
X163057760Y-78740000D01*
X162883368Y-78856525D01*
X162676525Y-79063368D01*
X162514010Y-79306589D01*
X162402068Y-79576842D01*
X162345000Y-79863740D01*
X162345000Y-80156260D01*
X162402068Y-80443158D01*
X162514010Y-80713411D01*
X162676525Y-80956632D01*
X162883368Y-81163475D01*
X163057760Y-81280000D01*
X162883368Y-81396525D01*
X162676525Y-81603368D01*
X162514010Y-81846589D01*
X162402068Y-82116842D01*
X162345000Y-82403740D01*
X162345000Y-82696260D01*
X162402068Y-82983158D01*
X162514010Y-83253411D01*
X162676525Y-83496632D01*
X162883368Y-83703475D01*
X163057760Y-83820000D01*
X162883368Y-83936525D01*
X162676525Y-84143368D01*
X162514010Y-84386589D01*
X162402068Y-84656842D01*
X162345000Y-84943740D01*
X162345000Y-85236260D01*
X162402068Y-85523158D01*
X162514010Y-85793411D01*
X162676525Y-86036632D01*
X162883368Y-86243475D01*
X163057760Y-86360000D01*
X162883368Y-86476525D01*
X162676525Y-86683368D01*
X162514010Y-86926589D01*
X162402068Y-87196842D01*
X162345000Y-87483740D01*
X162345000Y-87776260D01*
X162402068Y-88063158D01*
X162514010Y-88333411D01*
X162676525Y-88576632D01*
X162883368Y-88783475D01*
X163057760Y-88900000D01*
X162883368Y-89016525D01*
X162676525Y-89223368D01*
X162514010Y-89466589D01*
X162402068Y-89736842D01*
X162345000Y-90023740D01*
X162345000Y-90316260D01*
X162402068Y-90603158D01*
X162514010Y-90873411D01*
X162676525Y-91116632D01*
X162883368Y-91323475D01*
X163057760Y-91440000D01*
X162883368Y-91556525D01*
X162676525Y-91763368D01*
X162514010Y-92006589D01*
X162402068Y-92276842D01*
X162345000Y-92563740D01*
X162345000Y-92856260D01*
X162402068Y-93143158D01*
X162514010Y-93413411D01*
X162676525Y-93656632D01*
X162883368Y-93863475D01*
X163057760Y-93980000D01*
X162883368Y-94096525D01*
X162676525Y-94303368D01*
X162514010Y-94546589D01*
X162402068Y-94816842D01*
X162345000Y-95103740D01*
X162345000Y-95396260D01*
X162402068Y-95683158D01*
X162514010Y-95953411D01*
X162676525Y-96196632D01*
X162883368Y-96403475D01*
X163057760Y-96520000D01*
X162883368Y-96636525D01*
X162676525Y-96843368D01*
X162514010Y-97086589D01*
X162402068Y-97356842D01*
X162345000Y-97643740D01*
X162345000Y-97936260D01*
X162402068Y-98223158D01*
X162514010Y-98493411D01*
X162676525Y-98736632D01*
X162883368Y-98943475D01*
X163057760Y-99060000D01*
X162883368Y-99176525D01*
X162676525Y-99383368D01*
X162514010Y-99626589D01*
X162402068Y-99896842D01*
X162345000Y-100183740D01*
X162345000Y-100476260D01*
X162402068Y-100763158D01*
X162514010Y-101033411D01*
X162676525Y-101276632D01*
X162883368Y-101483475D01*
X163057760Y-101600000D01*
X162883368Y-101716525D01*
X162676525Y-101923368D01*
X162514010Y-102166589D01*
X162402068Y-102436842D01*
X162345000Y-102723740D01*
X162345000Y-103016260D01*
X162402068Y-103303158D01*
X162514010Y-103573411D01*
X162676525Y-103816632D01*
X162883368Y-104023475D01*
X163065534Y-104145195D01*
X162948645Y-104214822D01*
X162732412Y-104409731D01*
X162558359Y-104643080D01*
X162433175Y-104905901D01*
X162388524Y-105053110D01*
X162509845Y-105283000D01*
X163703000Y-105283000D01*
X163703000Y-105263000D01*
X163957000Y-105263000D01*
X163957000Y-105283000D01*
X165150155Y-105283000D01*
X165271476Y-105053110D01*
X165226825Y-104905901D01*
X165101641Y-104643080D01*
X164927588Y-104409731D01*
X164711355Y-104214822D01*
X164594466Y-104145195D01*
X164776632Y-104023475D01*
X164983475Y-103816632D01*
X165145990Y-103573411D01*
X165257932Y-103303158D01*
X165315000Y-103016260D01*
X165315000Y-102723740D01*
X165257932Y-102436842D01*
X165145990Y-102166589D01*
X164983475Y-101923368D01*
X164776632Y-101716525D01*
X164602240Y-101600000D01*
X164776632Y-101483475D01*
X164850688Y-101409419D01*
X171293000Y-101409419D01*
X171293000Y-101790581D01*
X171367361Y-102164419D01*
X171513225Y-102516566D01*
X171724987Y-102833491D01*
X171994509Y-103103013D01*
X172311434Y-103314775D01*
X172663581Y-103460639D01*
X173037419Y-103535000D01*
X173418581Y-103535000D01*
X173792419Y-103460639D01*
X174144566Y-103314775D01*
X174461491Y-103103013D01*
X174731013Y-102833491D01*
X174942775Y-102516566D01*
X175088639Y-102164419D01*
X175163000Y-101790581D01*
X175163000Y-101409419D01*
X175088639Y-101035581D01*
X174942775Y-100683434D01*
X174731013Y-100366509D01*
X174461491Y-100096987D01*
X174144566Y-99885225D01*
X173792419Y-99739361D01*
X173418581Y-99665000D01*
X173037419Y-99665000D01*
X172663581Y-99739361D01*
X172311434Y-99885225D01*
X171994509Y-100096987D01*
X171724987Y-100366509D01*
X171513225Y-100683434D01*
X171367361Y-101035581D01*
X171293000Y-101409419D01*
X164850688Y-101409419D01*
X164983475Y-101276632D01*
X165145990Y-101033411D01*
X165257932Y-100763158D01*
X165315000Y-100476260D01*
X165315000Y-100183740D01*
X165257932Y-99896842D01*
X165145990Y-99626589D01*
X164983475Y-99383368D01*
X164776632Y-99176525D01*
X164602240Y-99060000D01*
X164776632Y-98943475D01*
X164983475Y-98736632D01*
X165145990Y-98493411D01*
X165257932Y-98223158D01*
X165315000Y-97936260D01*
X165315000Y-97643740D01*
X165257932Y-97356842D01*
X165145990Y-97086589D01*
X164983475Y-96843368D01*
X164776632Y-96636525D01*
X164602240Y-96520000D01*
X164776632Y-96403475D01*
X164850688Y-96329419D01*
X171293000Y-96329419D01*
X171293000Y-96710581D01*
X171367361Y-97084419D01*
X171513225Y-97436566D01*
X171724987Y-97753491D01*
X171994509Y-98023013D01*
X172311434Y-98234775D01*
X172663581Y-98380639D01*
X173037419Y-98455000D01*
X173418581Y-98455000D01*
X173792419Y-98380639D01*
X174144566Y-98234775D01*
X174461491Y-98023013D01*
X174731013Y-97753491D01*
X174942775Y-97436566D01*
X175088639Y-97084419D01*
X175163000Y-96710581D01*
X175163000Y-96329419D01*
X175088639Y-95955581D01*
X174942775Y-95603434D01*
X174731013Y-95286509D01*
X174461491Y-95016987D01*
X174144566Y-94805225D01*
X173792419Y-94659361D01*
X173418581Y-94585000D01*
X173037419Y-94585000D01*
X172663581Y-94659361D01*
X172311434Y-94805225D01*
X171994509Y-95016987D01*
X171724987Y-95286509D01*
X171513225Y-95603434D01*
X171367361Y-95955581D01*
X171293000Y-96329419D01*
X164850688Y-96329419D01*
X164983475Y-96196632D01*
X165145990Y-95953411D01*
X165257932Y-95683158D01*
X165315000Y-95396260D01*
X165315000Y-95103740D01*
X165257932Y-94816842D01*
X165145990Y-94546589D01*
X164983475Y-94303368D01*
X164776632Y-94096525D01*
X164602240Y-93980000D01*
X164776632Y-93863475D01*
X164983475Y-93656632D01*
X165145990Y-93413411D01*
X165257932Y-93143158D01*
X165315000Y-92856260D01*
X165315000Y-92563740D01*
X165257932Y-92276842D01*
X165145990Y-92006589D01*
X164983475Y-91763368D01*
X164776632Y-91556525D01*
X164602240Y-91440000D01*
X164776632Y-91323475D01*
X164850688Y-91249419D01*
X171293000Y-91249419D01*
X171293000Y-91630581D01*
X171367361Y-92004419D01*
X171513225Y-92356566D01*
X171724987Y-92673491D01*
X171994509Y-92943013D01*
X172311434Y-93154775D01*
X172663581Y-93300639D01*
X173037419Y-93375000D01*
X173418581Y-93375000D01*
X173792419Y-93300639D01*
X174144566Y-93154775D01*
X174461491Y-92943013D01*
X174731013Y-92673491D01*
X174942775Y-92356566D01*
X175088639Y-92004419D01*
X175163000Y-91630581D01*
X175163000Y-91249419D01*
X175088639Y-90875581D01*
X174942775Y-90523434D01*
X174731013Y-90206509D01*
X174461491Y-89936987D01*
X174144566Y-89725225D01*
X173792419Y-89579361D01*
X173418581Y-89505000D01*
X173037419Y-89505000D01*
X172663581Y-89579361D01*
X172311434Y-89725225D01*
X171994509Y-89936987D01*
X171724987Y-90206509D01*
X171513225Y-90523434D01*
X171367361Y-90875581D01*
X171293000Y-91249419D01*
X164850688Y-91249419D01*
X164983475Y-91116632D01*
X165145990Y-90873411D01*
X165257932Y-90603158D01*
X165315000Y-90316260D01*
X165315000Y-90023740D01*
X165257932Y-89736842D01*
X165145990Y-89466589D01*
X164983475Y-89223368D01*
X164776632Y-89016525D01*
X164602240Y-88900000D01*
X164776632Y-88783475D01*
X164983475Y-88576632D01*
X165145990Y-88333411D01*
X165257932Y-88063158D01*
X165315000Y-87776260D01*
X165315000Y-87483740D01*
X165257932Y-87196842D01*
X165145990Y-86926589D01*
X164983475Y-86683368D01*
X164776632Y-86476525D01*
X164602240Y-86360000D01*
X164776632Y-86243475D01*
X164850688Y-86169419D01*
X171293000Y-86169419D01*
X171293000Y-86550581D01*
X171367361Y-86924419D01*
X171513225Y-87276566D01*
X171724987Y-87593491D01*
X171994509Y-87863013D01*
X172311434Y-88074775D01*
X172663581Y-88220639D01*
X173037419Y-88295000D01*
X173418581Y-88295000D01*
X173792419Y-88220639D01*
X174144566Y-88074775D01*
X174461491Y-87863013D01*
X174731013Y-87593491D01*
X174942775Y-87276566D01*
X175088639Y-86924419D01*
X175163000Y-86550581D01*
X175163000Y-86169419D01*
X175088639Y-85795581D01*
X174942775Y-85443434D01*
X174731013Y-85126509D01*
X174461491Y-84856987D01*
X174144566Y-84645225D01*
X173792419Y-84499361D01*
X173418581Y-84425000D01*
X173037419Y-84425000D01*
X172663581Y-84499361D01*
X172311434Y-84645225D01*
X171994509Y-84856987D01*
X171724987Y-85126509D01*
X171513225Y-85443434D01*
X171367361Y-85795581D01*
X171293000Y-86169419D01*
X164850688Y-86169419D01*
X164983475Y-86036632D01*
X165145990Y-85793411D01*
X165257932Y-85523158D01*
X165315000Y-85236260D01*
X165315000Y-84943740D01*
X165257932Y-84656842D01*
X165145990Y-84386589D01*
X164983475Y-84143368D01*
X164776632Y-83936525D01*
X164602240Y-83820000D01*
X164776632Y-83703475D01*
X164983475Y-83496632D01*
X165145990Y-83253411D01*
X165257932Y-82983158D01*
X165315000Y-82696260D01*
X165315000Y-82403740D01*
X165257932Y-82116842D01*
X165145990Y-81846589D01*
X164983475Y-81603368D01*
X164776632Y-81396525D01*
X164602240Y-81280000D01*
X164776632Y-81163475D01*
X164850688Y-81089419D01*
X171293000Y-81089419D01*
X171293000Y-81470581D01*
X171367361Y-81844419D01*
X171513225Y-82196566D01*
X171724987Y-82513491D01*
X171994509Y-82783013D01*
X172311434Y-82994775D01*
X172663581Y-83140639D01*
X173037419Y-83215000D01*
X173418581Y-83215000D01*
X173792419Y-83140639D01*
X174144566Y-82994775D01*
X174461491Y-82783013D01*
X174731013Y-82513491D01*
X174942775Y-82196566D01*
X175088639Y-81844419D01*
X175163000Y-81470581D01*
X175163000Y-81089419D01*
X175088639Y-80715581D01*
X174942775Y-80363434D01*
X174731013Y-80046509D01*
X174461491Y-79776987D01*
X174144566Y-79565225D01*
X173792419Y-79419361D01*
X173418581Y-79345000D01*
X173037419Y-79345000D01*
X172663581Y-79419361D01*
X172311434Y-79565225D01*
X171994509Y-79776987D01*
X171724987Y-80046509D01*
X171513225Y-80363434D01*
X171367361Y-80715581D01*
X171293000Y-81089419D01*
X164850688Y-81089419D01*
X164983475Y-80956632D01*
X165145990Y-80713411D01*
X165257932Y-80443158D01*
X165315000Y-80156260D01*
X165315000Y-79863740D01*
X165257932Y-79576842D01*
X165145990Y-79306589D01*
X164983475Y-79063368D01*
X164776632Y-78856525D01*
X164602240Y-78740000D01*
X164776632Y-78623475D01*
X164983475Y-78416632D01*
X165145990Y-78173411D01*
X165257932Y-77903158D01*
X165315000Y-77616260D01*
X165315000Y-77323740D01*
X165257932Y-77036842D01*
X165145990Y-76766589D01*
X164983475Y-76523368D01*
X164776632Y-76316525D01*
X164602240Y-76200000D01*
X164776632Y-76083475D01*
X164850688Y-76009419D01*
X171293000Y-76009419D01*
X171293000Y-76390581D01*
X171367361Y-76764419D01*
X171513225Y-77116566D01*
X171724987Y-77433491D01*
X171994509Y-77703013D01*
X172311434Y-77914775D01*
X172663581Y-78060639D01*
X173037419Y-78135000D01*
X173418581Y-78135000D01*
X173792419Y-78060639D01*
X174144566Y-77914775D01*
X174461491Y-77703013D01*
X174731013Y-77433491D01*
X174942775Y-77116566D01*
X175088639Y-76764419D01*
X175163000Y-76390581D01*
X175163000Y-76009419D01*
X175088639Y-75635581D01*
X174942775Y-75283434D01*
X174731013Y-74966509D01*
X174461491Y-74696987D01*
X174144566Y-74485225D01*
X173792419Y-74339361D01*
X173418581Y-74265000D01*
X173037419Y-74265000D01*
X172663581Y-74339361D01*
X172311434Y-74485225D01*
X171994509Y-74696987D01*
X171724987Y-74966509D01*
X171513225Y-75283434D01*
X171367361Y-75635581D01*
X171293000Y-76009419D01*
X164850688Y-76009419D01*
X164983475Y-75876632D01*
X165145990Y-75633411D01*
X165257932Y-75363158D01*
X165315000Y-75076260D01*
X165315000Y-74783740D01*
X165257932Y-74496842D01*
X165145990Y-74226589D01*
X164983475Y-73983368D01*
X164851620Y-73851513D01*
X164924180Y-73829502D01*
X165034494Y-73770537D01*
X165131185Y-73691185D01*
X165210537Y-73594494D01*
X165269502Y-73484180D01*
X165305812Y-73364482D01*
X165318072Y-73240000D01*
X165318072Y-71540000D01*
X165305812Y-71415518D01*
X165269502Y-71295820D01*
X165210537Y-71185506D01*
X165131185Y-71088815D01*
X165034494Y-71009463D01*
X164924180Y-70950498D01*
X164854692Y-70929419D01*
X171293000Y-70929419D01*
X171293000Y-71310581D01*
X171367361Y-71684419D01*
X171513225Y-72036566D01*
X171724987Y-72353491D01*
X171994509Y-72623013D01*
X172311434Y-72834775D01*
X172663581Y-72980639D01*
X173037419Y-73055000D01*
X173418581Y-73055000D01*
X173792419Y-72980639D01*
X174144566Y-72834775D01*
X174461491Y-72623013D01*
X174731013Y-72353491D01*
X174942775Y-72036566D01*
X175088639Y-71684419D01*
X175163000Y-71310581D01*
X175163000Y-70929419D01*
X175088639Y-70555581D01*
X174942775Y-70203434D01*
X174731013Y-69886509D01*
X174461491Y-69616987D01*
X174144566Y-69405225D01*
X173792419Y-69259361D01*
X173418581Y-69185000D01*
X173037419Y-69185000D01*
X172663581Y-69259361D01*
X172311434Y-69405225D01*
X171994509Y-69616987D01*
X171724987Y-69886509D01*
X171513225Y-70203434D01*
X171367361Y-70555581D01*
X171293000Y-70929419D01*
X164854692Y-70929419D01*
X164804482Y-70914188D01*
X164680000Y-70901928D01*
X162980000Y-70901928D01*
X162855518Y-70914188D01*
X162735820Y-70950498D01*
X162625506Y-71009463D01*
X162528815Y-71088815D01*
X162449463Y-71185506D01*
X162390498Y-71295820D01*
X162354188Y-71415518D01*
X162341928Y-71540000D01*
X160116205Y-71540000D01*
X160089120Y-71499465D01*
X159894535Y-71304880D01*
X159665727Y-71151995D01*
X159411490Y-71046686D01*
X159141592Y-70993000D01*
X158866408Y-70993000D01*
X158596510Y-71046686D01*
X158342273Y-71151995D01*
X158113465Y-71304880D01*
X157918880Y-71499465D01*
X157765995Y-71728273D01*
X157660686Y-71982510D01*
X157607000Y-72252408D01*
X156083000Y-72252408D01*
X156083000Y-67056000D01*
X156080560Y-67031224D01*
X156073333Y-67007399D01*
X156061597Y-66985443D01*
X156045803Y-66966197D01*
X156026557Y-66950403D01*
X156004601Y-66938667D01*
X155980776Y-66931440D01*
X155956000Y-66929000D01*
X137160000Y-66929000D01*
X137135224Y-66931440D01*
X137111399Y-66938667D01*
X137089443Y-66950403D01*
X137070197Y-66966197D01*
X137054403Y-66985443D01*
X137042667Y-67007399D01*
X137035440Y-67031224D01*
X137033000Y-67056000D01*
X121028335Y-67056000D01*
X121094775Y-66956566D01*
X121240639Y-66604419D01*
X121315000Y-66230581D01*
X121315000Y-65849419D01*
X171293000Y-65849419D01*
X171293000Y-66230581D01*
X171367361Y-66604419D01*
X171513225Y-66956566D01*
X171724987Y-67273491D01*
X171994509Y-67543013D01*
X172311434Y-67754775D01*
X172663581Y-67900639D01*
X173037419Y-67975000D01*
X173418581Y-67975000D01*
X173792419Y-67900639D01*
X174144566Y-67754775D01*
X174461491Y-67543013D01*
X174731013Y-67273491D01*
X174942775Y-66956566D01*
X175088639Y-66604419D01*
X175163000Y-66230581D01*
X175163000Y-65849419D01*
X175088639Y-65475581D01*
X174942775Y-65123434D01*
X174731013Y-64806509D01*
X174461491Y-64536987D01*
X174144566Y-64325225D01*
X173792419Y-64179361D01*
X173418581Y-64105000D01*
X173037419Y-64105000D01*
X172663581Y-64179361D01*
X172311434Y-64325225D01*
X171994509Y-64536987D01*
X171724987Y-64806509D01*
X171513225Y-65123434D01*
X171367361Y-65475581D01*
X171293000Y-65849419D01*
X121315000Y-65849419D01*
X121240639Y-65475581D01*
X121094775Y-65123434D01*
X120883013Y-64806509D01*
X120613491Y-64536987D01*
X120296566Y-64325225D01*
X119944419Y-64179361D01*
X119570581Y-64105000D01*
X119189419Y-64105000D01*
X118815581Y-64179361D01*
X118463434Y-64325225D01*
X118146509Y-64536987D01*
X117876987Y-64806509D01*
X117665225Y-65123434D01*
X117519361Y-65475581D01*
X117445000Y-65849419D01*
X112445000Y-65849419D01*
X112445000Y-60769419D01*
X117445000Y-60769419D01*
X117445000Y-61150581D01*
X117519361Y-61524419D01*
X117665225Y-61876566D01*
X117876987Y-62193491D01*
X118146509Y-62463013D01*
X118463434Y-62674775D01*
X118815581Y-62820639D01*
X119189419Y-62895000D01*
X119570581Y-62895000D01*
X119944419Y-62820639D01*
X120296566Y-62674775D01*
X120613491Y-62463013D01*
X120883013Y-62193491D01*
X121094775Y-61876566D01*
X121240639Y-61524419D01*
X121315000Y-61150581D01*
X121315000Y-60769419D01*
X121240639Y-60395581D01*
X121094775Y-60043434D01*
X120883013Y-59726509D01*
X120613491Y-59456987D01*
X120296566Y-59245225D01*
X119944419Y-59099361D01*
X119570581Y-59025000D01*
X119189419Y-59025000D01*
X118815581Y-59099361D01*
X118463434Y-59245225D01*
X118146509Y-59456987D01*
X117876987Y-59726509D01*
X117665225Y-60043434D01*
X117519361Y-60395581D01*
X117445000Y-60769419D01*
X112445000Y-60769419D01*
X112445000Y-55689419D01*
X117445000Y-55689419D01*
X117445000Y-56070581D01*
X117519361Y-56444419D01*
X117665225Y-56796566D01*
X117876987Y-57113491D01*
X118146509Y-57383013D01*
X118463434Y-57594775D01*
X118815581Y-57740639D01*
X119189419Y-57815000D01*
X119570581Y-57815000D01*
X119944419Y-57740639D01*
X120296566Y-57594775D01*
X120613491Y-57383013D01*
X120883013Y-57113491D01*
X121094775Y-56796566D01*
X121240639Y-56444419D01*
X121315000Y-56070581D01*
X121315000Y-55689419D01*
X121240639Y-55315581D01*
X121094775Y-54963434D01*
X120883013Y-54646509D01*
X120613491Y-54376987D01*
X120296566Y-54165225D01*
X119944419Y-54019361D01*
X119570581Y-53945000D01*
X119189419Y-53945000D01*
X118815581Y-54019361D01*
X118463434Y-54165225D01*
X118146509Y-54376987D01*
X117876987Y-54646509D01*
X117665225Y-54963434D01*
X117519361Y-55315581D01*
X117445000Y-55689419D01*
X112445000Y-55689419D01*
X112445000Y-50609419D01*
X117445000Y-50609419D01*
X117445000Y-50990581D01*
X117519361Y-51364419D01*
X117665225Y-51716566D01*
X117876987Y-52033491D01*
X118146509Y-52303013D01*
X118463434Y-52514775D01*
X118815581Y-52660639D01*
X119189419Y-52735000D01*
X119570581Y-52735000D01*
X119944419Y-52660639D01*
X120296566Y-52514775D01*
X120613491Y-52303013D01*
X120883013Y-52033491D01*
X121094775Y-51716566D01*
X121240639Y-51364419D01*
X121315000Y-50990581D01*
X121315000Y-50609419D01*
X121240639Y-50235581D01*
X121094775Y-49883434D01*
X120883013Y-49566509D01*
X120613491Y-49296987D01*
X120296566Y-49085225D01*
X119944419Y-48939361D01*
X119570581Y-48865000D01*
X119189419Y-48865000D01*
X118815581Y-48939361D01*
X118463434Y-49085225D01*
X118146509Y-49296987D01*
X117876987Y-49566509D01*
X117665225Y-49883434D01*
X117519361Y-50235581D01*
X117445000Y-50609419D01*
X112445000Y-50609419D01*
X112445000Y-45529419D01*
X117445000Y-45529419D01*
X117445000Y-45910581D01*
X117519361Y-46284419D01*
X117665225Y-46636566D01*
X117876987Y-46953491D01*
X118146509Y-47223013D01*
X118463434Y-47434775D01*
X118815581Y-47580639D01*
X119189419Y-47655000D01*
X119570581Y-47655000D01*
X119944419Y-47580639D01*
X120296566Y-47434775D01*
X120613491Y-47223013D01*
X120883013Y-46953491D01*
X121094775Y-46636566D01*
X121240639Y-46284419D01*
X121315000Y-45910581D01*
X121315000Y-45529419D01*
X121240639Y-45155581D01*
X121094775Y-44803434D01*
X120883013Y-44486509D01*
X120613491Y-44216987D01*
X120296566Y-44005225D01*
X119944419Y-43859361D01*
X119570581Y-43785000D01*
X119189419Y-43785000D01*
X118815581Y-43859361D01*
X118463434Y-44005225D01*
X118146509Y-44216987D01*
X117876987Y-44486509D01*
X117665225Y-44803434D01*
X117519361Y-45155581D01*
X117445000Y-45529419D01*
X112445000Y-45529419D01*
X112445000Y-39340000D01*
X117441928Y-39340000D01*
X117441928Y-41940000D01*
X117454188Y-42064482D01*
X117490498Y-42184180D01*
X117549463Y-42294494D01*
X117628815Y-42391185D01*
X117725506Y-42470537D01*
X117835820Y-42529502D01*
X117955518Y-42565812D01*
X118080000Y-42578072D01*
X120680000Y-42578072D01*
X120804482Y-42565812D01*
X120924180Y-42529502D01*
X121034494Y-42470537D01*
X121131185Y-42391185D01*
X121210537Y-42294494D01*
X121269502Y-42184180D01*
X121305812Y-42064482D01*
X121318072Y-41940000D01*
X121318072Y-39340000D01*
X121305812Y-39215518D01*
X121269502Y-39095820D01*
X121210537Y-38985506D01*
X121131185Y-38888815D01*
X121034494Y-38809463D01*
X120924180Y-38750498D01*
X120804482Y-38714188D01*
X120680000Y-38701928D01*
X118080000Y-38701928D01*
X117955518Y-38714188D01*
X117835820Y-38750498D01*
X117725506Y-38809463D01*
X117628815Y-38888815D01*
X117549463Y-38985506D01*
X117490498Y-39095820D01*
X117454188Y-39215518D01*
X117441928Y-39340000D01*
X112445000Y-39340000D01*
X112445000Y-32642285D01*
X115545000Y-32642285D01*
X115545000Y-33397715D01*
X115692377Y-34138628D01*
X115981467Y-34836554D01*
X116401161Y-35464670D01*
X116935330Y-35998839D01*
X117563446Y-36418533D01*
X118261372Y-36707623D01*
X119002285Y-36855000D01*
X119757715Y-36855000D01*
X120498628Y-36707623D01*
X121196554Y-36418533D01*
X121824670Y-35998839D01*
X122358839Y-35464670D01*
X122778533Y-34836554D01*
X123067623Y-34138628D01*
X123215000Y-33397715D01*
X123215000Y-32642285D01*
X123188482Y-32508967D01*
X128395000Y-32508967D01*
X128395000Y-32831033D01*
X128457832Y-33146912D01*
X128581082Y-33444463D01*
X128760013Y-33712252D01*
X128987748Y-33939987D01*
X128987767Y-33940000D01*
X128987748Y-33940013D01*
X128760013Y-34167748D01*
X128581082Y-34435537D01*
X128457832Y-34733088D01*
X128395000Y-35048967D01*
X128395000Y-35371033D01*
X128457832Y-35686912D01*
X128581082Y-35984463D01*
X128760013Y-36252252D01*
X128987748Y-36479987D01*
X128987767Y-36480000D01*
X128987748Y-36480013D01*
X128760013Y-36707748D01*
X128581082Y-36975537D01*
X128457832Y-37273088D01*
X128395000Y-37588967D01*
X128395000Y-37911033D01*
X128457832Y-38226912D01*
X128581082Y-38524463D01*
X128760013Y-38792252D01*
X128987748Y-39019987D01*
X128987767Y-39020000D01*
X128987748Y-39020013D01*
X128760013Y-39247748D01*
X128581082Y-39515537D01*
X128457832Y-39813088D01*
X128395000Y-40128967D01*
X128395000Y-40451033D01*
X128457832Y-40766912D01*
X128581082Y-41064463D01*
X128760013Y-41332252D01*
X128987748Y-41559987D01*
X128987767Y-41560000D01*
X128987748Y-41560013D01*
X128760013Y-41787748D01*
X128581082Y-42055537D01*
X128457832Y-42353088D01*
X128395000Y-42668967D01*
X128395000Y-42991033D01*
X128457832Y-43306912D01*
X128581082Y-43604463D01*
X128760013Y-43872252D01*
X128987748Y-44099987D01*
X128987767Y-44100000D01*
X128987748Y-44100013D01*
X128760013Y-44327748D01*
X128581082Y-44595537D01*
X128457832Y-44893088D01*
X128395000Y-45208967D01*
X128395000Y-45531033D01*
X128457832Y-45846912D01*
X128581082Y-46144463D01*
X128760013Y-46412252D01*
X128987748Y-46639987D01*
X128987767Y-46640000D01*
X128987748Y-46640013D01*
X128760013Y-46867748D01*
X128581082Y-47135537D01*
X128457832Y-47433088D01*
X128395000Y-47748967D01*
X128395000Y-48071033D01*
X128457832Y-48386912D01*
X128581082Y-48684463D01*
X128760013Y-48952252D01*
X128987748Y-49179987D01*
X128987767Y-49180000D01*
X128987748Y-49180013D01*
X128760013Y-49407748D01*
X128581082Y-49675537D01*
X128457832Y-49973088D01*
X128395000Y-50288967D01*
X128395000Y-50611033D01*
X128457832Y-50926912D01*
X128581082Y-51224463D01*
X128760013Y-51492252D01*
X128987748Y-51719987D01*
X128987767Y-51720000D01*
X128987748Y-51720013D01*
X128760013Y-51947748D01*
X128581082Y-52215537D01*
X128457832Y-52513088D01*
X128395000Y-52828967D01*
X128395000Y-53151033D01*
X128457832Y-53466912D01*
X128581082Y-53764463D01*
X128760013Y-54032252D01*
X128987748Y-54259987D01*
X128987767Y-54260000D01*
X128987748Y-54260013D01*
X128760013Y-54487748D01*
X128581082Y-54755537D01*
X128457832Y-55053088D01*
X128395000Y-55368967D01*
X128395000Y-55691033D01*
X128457832Y-56006912D01*
X128581082Y-56304463D01*
X128760013Y-56572252D01*
X128987748Y-56799987D01*
X128987767Y-56800000D01*
X128987748Y-56800013D01*
X128760013Y-57027748D01*
X128581082Y-57295537D01*
X128457832Y-57593088D01*
X128395000Y-57908967D01*
X128395000Y-58231033D01*
X128457832Y-58546912D01*
X128581082Y-58844463D01*
X128760013Y-59112252D01*
X128987748Y-59339987D01*
X128987767Y-59340000D01*
X128987748Y-59340013D01*
X128760013Y-59567748D01*
X128581082Y-59835537D01*
X128457832Y-60133088D01*
X128395000Y-60448967D01*
X128395000Y-60771033D01*
X128457832Y-61086912D01*
X128581082Y-61384463D01*
X128760013Y-61652252D01*
X128987748Y-61879987D01*
X128987767Y-61880000D01*
X128987748Y-61880013D01*
X128760013Y-62107748D01*
X128581082Y-62375537D01*
X128457832Y-62673088D01*
X128395000Y-62988967D01*
X128395000Y-63311033D01*
X128457832Y-63626912D01*
X128581082Y-63924463D01*
X128760013Y-64192252D01*
X128987748Y-64419987D01*
X129255537Y-64598918D01*
X129553088Y-64722168D01*
X129868967Y-64785000D01*
X130191033Y-64785000D01*
X130506912Y-64722168D01*
X130804463Y-64598918D01*
X131072252Y-64419987D01*
X131299987Y-64192252D01*
X131300000Y-64192233D01*
X131300013Y-64192252D01*
X131527748Y-64419987D01*
X131795537Y-64598918D01*
X132093088Y-64722168D01*
X132408967Y-64785000D01*
X132731033Y-64785000D01*
X133046912Y-64722168D01*
X133344463Y-64598918D01*
X133612252Y-64419987D01*
X133839987Y-64192252D01*
X133840000Y-64192233D01*
X133840013Y-64192252D01*
X134067748Y-64419987D01*
X134335537Y-64598918D01*
X134633088Y-64722168D01*
X134948967Y-64785000D01*
X135271033Y-64785000D01*
X135586912Y-64722168D01*
X135884463Y-64598918D01*
X136152252Y-64419987D01*
X136379987Y-64192252D01*
X136380000Y-64192233D01*
X136380013Y-64192252D01*
X136607748Y-64419987D01*
X136875537Y-64598918D01*
X137173088Y-64722168D01*
X137488967Y-64785000D01*
X137811033Y-64785000D01*
X138126912Y-64722168D01*
X138424463Y-64598918D01*
X138692252Y-64419987D01*
X138919987Y-64192252D01*
X138920000Y-64192233D01*
X138920013Y-64192252D01*
X139147748Y-64419987D01*
X139415537Y-64598918D01*
X139713088Y-64722168D01*
X140028967Y-64785000D01*
X140351033Y-64785000D01*
X140666912Y-64722168D01*
X140964463Y-64598918D01*
X141232252Y-64419987D01*
X141459987Y-64192252D01*
X141460000Y-64192233D01*
X141460013Y-64192252D01*
X141687748Y-64419987D01*
X141955537Y-64598918D01*
X142253088Y-64722168D01*
X142568967Y-64785000D01*
X142891033Y-64785000D01*
X143206912Y-64722168D01*
X143504463Y-64598918D01*
X143772252Y-64419987D01*
X143999987Y-64192252D01*
X144000000Y-64192233D01*
X144000013Y-64192252D01*
X144227748Y-64419987D01*
X144495537Y-64598918D01*
X144793088Y-64722168D01*
X145108967Y-64785000D01*
X145431033Y-64785000D01*
X145746912Y-64722168D01*
X146044463Y-64598918D01*
X146312252Y-64419987D01*
X146539987Y-64192252D01*
X146540000Y-64192233D01*
X146540013Y-64192252D01*
X146767748Y-64419987D01*
X147035537Y-64598918D01*
X147333088Y-64722168D01*
X147648967Y-64785000D01*
X147971033Y-64785000D01*
X148286912Y-64722168D01*
X148584463Y-64598918D01*
X148852252Y-64419987D01*
X149079987Y-64192252D01*
X149080000Y-64192233D01*
X149080013Y-64192252D01*
X149307748Y-64419987D01*
X149575537Y-64598918D01*
X149873088Y-64722168D01*
X150188967Y-64785000D01*
X150511033Y-64785000D01*
X150826912Y-64722168D01*
X151124463Y-64598918D01*
X151392252Y-64419987D01*
X151619987Y-64192252D01*
X151620000Y-64192233D01*
X151620013Y-64192252D01*
X151847748Y-64419987D01*
X152115537Y-64598918D01*
X152413088Y-64722168D01*
X152728967Y-64785000D01*
X153051033Y-64785000D01*
X153366912Y-64722168D01*
X153664463Y-64598918D01*
X153932252Y-64419987D01*
X154159987Y-64192252D01*
X154160000Y-64192233D01*
X154160013Y-64192252D01*
X154387748Y-64419987D01*
X154655537Y-64598918D01*
X154953088Y-64722168D01*
X155268967Y-64785000D01*
X155591033Y-64785000D01*
X155906912Y-64722168D01*
X156204463Y-64598918D01*
X156472252Y-64419987D01*
X156699987Y-64192252D01*
X156700000Y-64192233D01*
X156700013Y-64192252D01*
X156927748Y-64419987D01*
X157195537Y-64598918D01*
X157493088Y-64722168D01*
X157808967Y-64785000D01*
X158131033Y-64785000D01*
X158446912Y-64722168D01*
X158744463Y-64598918D01*
X159012252Y-64419987D01*
X159239987Y-64192252D01*
X159240000Y-64192233D01*
X159240013Y-64192252D01*
X159467748Y-64419987D01*
X159735537Y-64598918D01*
X160033088Y-64722168D01*
X160348967Y-64785000D01*
X160671033Y-64785000D01*
X160986912Y-64722168D01*
X161284463Y-64598918D01*
X161552252Y-64419987D01*
X161779987Y-64192252D01*
X161780000Y-64192233D01*
X161780013Y-64192252D01*
X162007748Y-64419987D01*
X162275537Y-64598918D01*
X162573088Y-64722168D01*
X162888967Y-64785000D01*
X163211033Y-64785000D01*
X163526912Y-64722168D01*
X163824463Y-64598918D01*
X164092252Y-64419987D01*
X164319987Y-64192252D01*
X164498918Y-63924463D01*
X164622168Y-63626912D01*
X164685000Y-63311033D01*
X164685000Y-62988967D01*
X164622168Y-62673088D01*
X164498918Y-62375537D01*
X164319987Y-62107748D01*
X164092252Y-61880013D01*
X164092233Y-61880000D01*
X164092252Y-61879987D01*
X164319987Y-61652252D01*
X164498918Y-61384463D01*
X164622168Y-61086912D01*
X164685000Y-60771033D01*
X164685000Y-60769419D01*
X171293000Y-60769419D01*
X171293000Y-61150581D01*
X171367361Y-61524419D01*
X171513225Y-61876566D01*
X171724987Y-62193491D01*
X171994509Y-62463013D01*
X172311434Y-62674775D01*
X172663581Y-62820639D01*
X173037419Y-62895000D01*
X173418581Y-62895000D01*
X173792419Y-62820639D01*
X174144566Y-62674775D01*
X174461491Y-62463013D01*
X174731013Y-62193491D01*
X174942775Y-61876566D01*
X175088639Y-61524419D01*
X175163000Y-61150581D01*
X175163000Y-60769419D01*
X175088639Y-60395581D01*
X174942775Y-60043434D01*
X174731013Y-59726509D01*
X174461491Y-59456987D01*
X174144566Y-59245225D01*
X173792419Y-59099361D01*
X173418581Y-59025000D01*
X173037419Y-59025000D01*
X172663581Y-59099361D01*
X172311434Y-59245225D01*
X171994509Y-59456987D01*
X171724987Y-59726509D01*
X171513225Y-60043434D01*
X171367361Y-60395581D01*
X171293000Y-60769419D01*
X164685000Y-60769419D01*
X164685000Y-60448967D01*
X164622168Y-60133088D01*
X164498918Y-59835537D01*
X164319987Y-59567748D01*
X164092252Y-59340013D01*
X164092233Y-59340000D01*
X164092252Y-59339987D01*
X164319987Y-59112252D01*
X164498918Y-58844463D01*
X164622168Y-58546912D01*
X164685000Y-58231033D01*
X164685000Y-57908967D01*
X164622168Y-57593088D01*
X164498918Y-57295537D01*
X164319987Y-57027748D01*
X164092252Y-56800013D01*
X164092233Y-56800000D01*
X164092252Y-56799987D01*
X164319987Y-56572252D01*
X164498918Y-56304463D01*
X164622168Y-56006912D01*
X164685000Y-55691033D01*
X164685000Y-55689419D01*
X171293000Y-55689419D01*
X171293000Y-56070581D01*
X171367361Y-56444419D01*
X171513225Y-56796566D01*
X171724987Y-57113491D01*
X171994509Y-57383013D01*
X172311434Y-57594775D01*
X172663581Y-57740639D01*
X173037419Y-57815000D01*
X173418581Y-57815000D01*
X173792419Y-57740639D01*
X174144566Y-57594775D01*
X174461491Y-57383013D01*
X174731013Y-57113491D01*
X174942775Y-56796566D01*
X175088639Y-56444419D01*
X175163000Y-56070581D01*
X175163000Y-55689419D01*
X175088639Y-55315581D01*
X174942775Y-54963434D01*
X174731013Y-54646509D01*
X174461491Y-54376987D01*
X174144566Y-54165225D01*
X173792419Y-54019361D01*
X173418581Y-53945000D01*
X173037419Y-53945000D01*
X172663581Y-54019361D01*
X172311434Y-54165225D01*
X171994509Y-54376987D01*
X171724987Y-54646509D01*
X171513225Y-54963434D01*
X171367361Y-55315581D01*
X171293000Y-55689419D01*
X164685000Y-55689419D01*
X164685000Y-55368967D01*
X164622168Y-55053088D01*
X164498918Y-54755537D01*
X164319987Y-54487748D01*
X164092252Y-54260013D01*
X164092233Y-54260000D01*
X164092252Y-54259987D01*
X164319987Y-54032252D01*
X164498918Y-53764463D01*
X164622168Y-53466912D01*
X164685000Y-53151033D01*
X164685000Y-52828967D01*
X164622168Y-52513088D01*
X164498918Y-52215537D01*
X164319987Y-51947748D01*
X164092252Y-51720013D01*
X164092233Y-51720000D01*
X164092252Y-51719987D01*
X164319987Y-51492252D01*
X164498918Y-51224463D01*
X164622168Y-50926912D01*
X164685000Y-50611033D01*
X164685000Y-50609419D01*
X171293000Y-50609419D01*
X171293000Y-50990581D01*
X171367361Y-51364419D01*
X171513225Y-51716566D01*
X171724987Y-52033491D01*
X171994509Y-52303013D01*
X172311434Y-52514775D01*
X172663581Y-52660639D01*
X173037419Y-52735000D01*
X173418581Y-52735000D01*
X173792419Y-52660639D01*
X174144566Y-52514775D01*
X174461491Y-52303013D01*
X174731013Y-52033491D01*
X174942775Y-51716566D01*
X175088639Y-51364419D01*
X175163000Y-50990581D01*
X175163000Y-50609419D01*
X175088639Y-50235581D01*
X174942775Y-49883434D01*
X174731013Y-49566509D01*
X174461491Y-49296987D01*
X174144566Y-49085225D01*
X173792419Y-48939361D01*
X173418581Y-48865000D01*
X173037419Y-48865000D01*
X172663581Y-48939361D01*
X172311434Y-49085225D01*
X171994509Y-49296987D01*
X171724987Y-49566509D01*
X171513225Y-49883434D01*
X171367361Y-50235581D01*
X171293000Y-50609419D01*
X164685000Y-50609419D01*
X164685000Y-50288967D01*
X164622168Y-49973088D01*
X164498918Y-49675537D01*
X164319987Y-49407748D01*
X164092252Y-49180013D01*
X164092233Y-49180000D01*
X164092252Y-49179987D01*
X164319987Y-48952252D01*
X164498918Y-48684463D01*
X164622168Y-48386912D01*
X164685000Y-48071033D01*
X164685000Y-47748967D01*
X164622168Y-47433088D01*
X164498918Y-47135537D01*
X164319987Y-46867748D01*
X164092252Y-46640013D01*
X164092233Y-46640000D01*
X164092252Y-46639987D01*
X164319987Y-46412252D01*
X164498918Y-46144463D01*
X164622168Y-45846912D01*
X164685000Y-45531033D01*
X164685000Y-45529419D01*
X171293000Y-45529419D01*
X171293000Y-45910581D01*
X171367361Y-46284419D01*
X171513225Y-46636566D01*
X171724987Y-46953491D01*
X171994509Y-47223013D01*
X172311434Y-47434775D01*
X172663581Y-47580639D01*
X173037419Y-47655000D01*
X173418581Y-47655000D01*
X173792419Y-47580639D01*
X174144566Y-47434775D01*
X174461491Y-47223013D01*
X174731013Y-46953491D01*
X174942775Y-46636566D01*
X175088639Y-46284419D01*
X175163000Y-45910581D01*
X175163000Y-45529419D01*
X175088639Y-45155581D01*
X174942775Y-44803434D01*
X174731013Y-44486509D01*
X174461491Y-44216987D01*
X174144566Y-44005225D01*
X173792419Y-43859361D01*
X173418581Y-43785000D01*
X173037419Y-43785000D01*
X172663581Y-43859361D01*
X172311434Y-44005225D01*
X171994509Y-44216987D01*
X171724987Y-44486509D01*
X171513225Y-44803434D01*
X171367361Y-45155581D01*
X171293000Y-45529419D01*
X164685000Y-45529419D01*
X164685000Y-45208967D01*
X164622168Y-44893088D01*
X164498918Y-44595537D01*
X164319987Y-44327748D01*
X164092252Y-44100013D01*
X164092233Y-44100000D01*
X164092252Y-44099987D01*
X164319987Y-43872252D01*
X164498918Y-43604463D01*
X164622168Y-43306912D01*
X164685000Y-42991033D01*
X164685000Y-42668967D01*
X164622168Y-42353088D01*
X164498918Y-42055537D01*
X164319987Y-41787748D01*
X164092252Y-41560013D01*
X164092233Y-41560000D01*
X164092252Y-41559987D01*
X164319987Y-41332252D01*
X164498918Y-41064463D01*
X164622168Y-40766912D01*
X164685000Y-40451033D01*
X164685000Y-40449419D01*
X171293000Y-40449419D01*
X171293000Y-40830581D01*
X171367361Y-41204419D01*
X171513225Y-41556566D01*
X171724987Y-41873491D01*
X171994509Y-42143013D01*
X172311434Y-42354775D01*
X172663581Y-42500639D01*
X173037419Y-42575000D01*
X173418581Y-42575000D01*
X173792419Y-42500639D01*
X174144566Y-42354775D01*
X174461491Y-42143013D01*
X174731013Y-41873491D01*
X174942775Y-41556566D01*
X175088639Y-41204419D01*
X175163000Y-40830581D01*
X175163000Y-40449419D01*
X175088639Y-40075581D01*
X174942775Y-39723434D01*
X174731013Y-39406509D01*
X174461491Y-39136987D01*
X174144566Y-38925225D01*
X173792419Y-38779361D01*
X173418581Y-38705000D01*
X173037419Y-38705000D01*
X172663581Y-38779361D01*
X172311434Y-38925225D01*
X171994509Y-39136987D01*
X171724987Y-39406509D01*
X171513225Y-39723434D01*
X171367361Y-40075581D01*
X171293000Y-40449419D01*
X164685000Y-40449419D01*
X164685000Y-40128967D01*
X164622168Y-39813088D01*
X164498918Y-39515537D01*
X164319987Y-39247748D01*
X164092252Y-39020013D01*
X164092233Y-39020000D01*
X164092252Y-39019987D01*
X164319987Y-38792252D01*
X164498918Y-38524463D01*
X164622168Y-38226912D01*
X164685000Y-37911033D01*
X164685000Y-37588967D01*
X164622168Y-37273088D01*
X164498918Y-36975537D01*
X164319987Y-36707748D01*
X164092252Y-36480013D01*
X164092233Y-36480000D01*
X164092252Y-36479987D01*
X164319987Y-36252252D01*
X164498918Y-35984463D01*
X164622168Y-35686912D01*
X164685000Y-35371033D01*
X164685000Y-35048967D01*
X164622168Y-34733088D01*
X164498918Y-34435537D01*
X164319987Y-34167748D01*
X164092252Y-33940013D01*
X164092233Y-33940000D01*
X164092252Y-33939987D01*
X164319987Y-33712252D01*
X164498918Y-33444463D01*
X164622168Y-33146912D01*
X164685000Y-32831033D01*
X164685000Y-32642285D01*
X168885000Y-32642285D01*
X168885000Y-33397715D01*
X169032377Y-34138628D01*
X169321467Y-34836554D01*
X169741161Y-35464670D01*
X170275330Y-35998839D01*
X170903446Y-36418533D01*
X171601372Y-36707623D01*
X172342285Y-36855000D01*
X173097715Y-36855000D01*
X173838628Y-36707623D01*
X174536554Y-36418533D01*
X175164670Y-35998839D01*
X175698839Y-35464670D01*
X176118533Y-34836554D01*
X176407623Y-34138628D01*
X176555000Y-33397715D01*
X176555000Y-32642285D01*
X176407623Y-31901372D01*
X176118533Y-31203446D01*
X175698839Y-30575330D01*
X175164670Y-30041161D01*
X174536554Y-29621467D01*
X173838628Y-29332377D01*
X173097715Y-29185000D01*
X172342285Y-29185000D01*
X171601372Y-29332377D01*
X170903446Y-29621467D01*
X170275330Y-30041161D01*
X169741161Y-30575330D01*
X169321467Y-31203446D01*
X169032377Y-31901372D01*
X168885000Y-32642285D01*
X164685000Y-32642285D01*
X164685000Y-32508967D01*
X164622168Y-32193088D01*
X164498918Y-31895537D01*
X164319987Y-31627748D01*
X164092252Y-31400013D01*
X163824463Y-31221082D01*
X163526912Y-31097832D01*
X163211033Y-31035000D01*
X162888967Y-31035000D01*
X162573088Y-31097832D01*
X162275537Y-31221082D01*
X162007748Y-31400013D01*
X161780013Y-31627748D01*
X161780000Y-31627767D01*
X161779987Y-31627748D01*
X161552252Y-31400013D01*
X161284463Y-31221082D01*
X160986912Y-31097832D01*
X160671033Y-31035000D01*
X160348967Y-31035000D01*
X160033088Y-31097832D01*
X159735537Y-31221082D01*
X159467748Y-31400013D01*
X159240013Y-31627748D01*
X159240000Y-31627767D01*
X159239987Y-31627748D01*
X159012252Y-31400013D01*
X158744463Y-31221082D01*
X158446912Y-31097832D01*
X158131033Y-31035000D01*
X157808967Y-31035000D01*
X157493088Y-31097832D01*
X157195537Y-31221082D01*
X156927748Y-31400013D01*
X156700013Y-31627748D01*
X156700000Y-31627767D01*
X156699987Y-31627748D01*
X156472252Y-31400013D01*
X156204463Y-31221082D01*
X155906912Y-31097832D01*
X155591033Y-31035000D01*
X155268967Y-31035000D01*
X154953088Y-31097832D01*
X154655537Y-31221082D01*
X154387748Y-31400013D01*
X154160013Y-31627748D01*
X154160000Y-31627767D01*
X154159987Y-31627748D01*
X153932252Y-31400013D01*
X153664463Y-31221082D01*
X153366912Y-31097832D01*
X153051033Y-31035000D01*
X152728967Y-31035000D01*
X152413088Y-31097832D01*
X152115537Y-31221082D01*
X151847748Y-31400013D01*
X151620013Y-31627748D01*
X151620000Y-31627767D01*
X151619987Y-31627748D01*
X151392252Y-31400013D01*
X151124463Y-31221082D01*
X150826912Y-31097832D01*
X150511033Y-31035000D01*
X150188967Y-31035000D01*
X149873088Y-31097832D01*
X149575537Y-31221082D01*
X149307748Y-31400013D01*
X149080013Y-31627748D01*
X149080000Y-31627767D01*
X149079987Y-31627748D01*
X148852252Y-31400013D01*
X148584463Y-31221082D01*
X148286912Y-31097832D01*
X147971033Y-31035000D01*
X147648967Y-31035000D01*
X147333088Y-31097832D01*
X147035537Y-31221082D01*
X146767748Y-31400013D01*
X146540013Y-31627748D01*
X146540000Y-31627767D01*
X146539987Y-31627748D01*
X146312252Y-31400013D01*
X146044463Y-31221082D01*
X145746912Y-31097832D01*
X145431033Y-31035000D01*
X145108967Y-31035000D01*
X144793088Y-31097832D01*
X144495537Y-31221082D01*
X144227748Y-31400013D01*
X144000013Y-31627748D01*
X144000000Y-31627767D01*
X143999987Y-31627748D01*
X143772252Y-31400013D01*
X143504463Y-31221082D01*
X143206912Y-31097832D01*
X142891033Y-31035000D01*
X142568967Y-31035000D01*
X142253088Y-31097832D01*
X141955537Y-31221082D01*
X141687748Y-31400013D01*
X141460013Y-31627748D01*
X141460000Y-31627767D01*
X141459987Y-31627748D01*
X141232252Y-31400013D01*
X140964463Y-31221082D01*
X140666912Y-31097832D01*
X140351033Y-31035000D01*
X140028967Y-31035000D01*
X139713088Y-31097832D01*
X139415537Y-31221082D01*
X139147748Y-31400013D01*
X138920013Y-31627748D01*
X138920000Y-31627767D01*
X138919987Y-31627748D01*
X138692252Y-31400013D01*
X138424463Y-31221082D01*
X138126912Y-31097832D01*
X137811033Y-31035000D01*
X137488967Y-31035000D01*
X137173088Y-31097832D01*
X136875537Y-31221082D01*
X136607748Y-31400013D01*
X136380013Y-31627748D01*
X136380000Y-31627767D01*
X136379987Y-31627748D01*
X136152252Y-31400013D01*
X135884463Y-31221082D01*
X135586912Y-31097832D01*
X135271033Y-31035000D01*
X134948967Y-31035000D01*
X134633088Y-31097832D01*
X134335537Y-31221082D01*
X134067748Y-31400013D01*
X133840013Y-31627748D01*
X133840000Y-31627767D01*
X133839987Y-31627748D01*
X133612252Y-31400013D01*
X133344463Y-31221082D01*
X133046912Y-31097832D01*
X132731033Y-31035000D01*
X132408967Y-31035000D01*
X132093088Y-31097832D01*
X131795537Y-31221082D01*
X131527748Y-31400013D01*
X131300013Y-31627748D01*
X131300000Y-31627767D01*
X131299987Y-31627748D01*
X131072252Y-31400013D01*
X130804463Y-31221082D01*
X130506912Y-31097832D01*
X130191033Y-31035000D01*
X129868967Y-31035000D01*
X129553088Y-31097832D01*
X129255537Y-31221082D01*
X128987748Y-31400013D01*
X128760013Y-31627748D01*
X128581082Y-31895537D01*
X128457832Y-32193088D01*
X128395000Y-32508967D01*
X123188482Y-32508967D01*
X123067623Y-31901372D01*
X122778533Y-31203446D01*
X122358839Y-30575330D01*
X121824670Y-30041161D01*
X121196554Y-29621467D01*
X120498628Y-29332377D01*
X119757715Y-29185000D01*
X119002285Y-29185000D01*
X118261372Y-29332377D01*
X117563446Y-29621467D01*
X116935330Y-30041161D01*
X116401161Y-30575330D01*
X115981467Y-31203446D01*
X115692377Y-31901372D01*
X115545000Y-32642285D01*
X112445000Y-32642285D01*
X112445000Y-28625000D01*
X179655000Y-28625000D01*
X179655001Y-126966344D01*
M02*
